  0
SECTION
  2
HEADER
  9
$ACADVER
  1
AC1014
  9
$HANDSEED
  5
FFFF
  9
$MEASUREMENT
 70
     1
  0
ENDSEC
  0
SECTION
  2
TABLES
  0
TABLE
  2
VPORT
  5
8
330
0
100
AcDbSymbolTable
 70
     4
  0
VPORT
  5
2E
330
8
100
AcDbSymbolTableRecord
100
AcDbViewportTableRecord
  2
*ACTIVE
 70
     0
 10
0.0
 20
0.0
 11
1.0
 21
1.0
 12
210.0
 22
148.5
 13
0.0
 23
0.0
 14
10.0
 24
10.0
 15
10.0
 25
10.0
 16
0.0
 26
0.0
 36
1.0
 17
0.0
 27
0.0
 37
0.0
 40
341.0
 41
1.24
 42
50.0
 43
0.0
 44
0.0
 50
0.0
 51
0.0
 71
     0
 72
   100
 73
     1
 74
     3
 75
     0
 76
     0
 77
     0
 78
     0
  0
ENDTAB
  0
TABLE
  2
LTYPE
  5
5
330
0
100
AcDbSymbolTable
 70
     1
  0
LTYPE
  5
14
330
5
100
AcDbSymbolTableRecord
100
AcDbLinetypeTableRecord
  2
BYBLOCK
 70
     0
  3

 72
    65
 73
     0
 40
0.0
  0
LTYPE
  5
15
330
5
100
AcDbSymbolTableRecord
100
AcDbLinetypeTableRecord
  2
BYLAYER
 70
     0
  3

 72
    65
 73
     0
 40
0.0
  0
LTYPE
  5
16
330
5
100
AcDbSymbolTableRecord
100
AcDbLinetypeTableRecord
  2
CONTINUOUS
 70
     0
  3
Solid line
 72
    65
 73
     0
 40
0.0
  0
ENDTAB
  0
TABLE
  2
LAYER
  5
2
100
AcDbSymbolTable
 70
2
  0
LAYER
  5
50
100
AcDbSymbolTableRecord
100
AcDbLayerTableRecord
  2
0
 70
0
  6
CONTINUOUS
  0
LAYER
  5
51
100
AcDbSymbolTableRecord
100
AcDbLayerTableRecord
  2
redraw
 70
0
  6
CONTINUOUS
  0
ENDTAB
  0
TABLE
  2
STYLE
  5
3
330
0
100
AcDbSymbolTable
 70
     1
  0
STYLE
  5
11
330
3
100
AcDbSymbolTableRecord
100
AcDbTextStyleTableRecord
  2
STANDARD
 70
     0
 40
0.0
 41
1.0
 50
0.0
 71
     0
 42
2.5
  3
txt
  4

  0
ENDTAB
  0
TABLE
  2
VIEW
  5
6
330
0
100
AcDbSymbolTable
 70
     0
  0
ENDTAB
  0
TABLE
  2
UCS
  5
7
330
0
100
AcDbSymbolTable
 70
     0
  0
ENDTAB
  0
TABLE
  2
APPID
  5
9
330
0
100
AcDbSymbolTable
 70
     2
  0
APPID
  5
12
330
9
100
AcDbSymbolTableRecord
100
AcDbRegAppTableRecord
  2
ACAD
 70
     0
  0
ENDTAB
  0
TABLE
  2
DIMSTYLE
  5
A
330
0
100
AcDbSymbolTable
 70
     1
  0
DIMSTYLE
105
27
330
A
100
AcDbSymbolTableRecord
100
AcDbDimStyleTableRecord
  2
ISO-25
 70
     0
  3

  4

  5

  6

  7

 40
1.0
 41
2.5
 42
0.625
 43
3.75
 44
1.25
 45
0.0
 46
0.0
 47
0.0
 48
0.0
140
2.5
141
2.5
142
0.0
143
0.03937007874016
144
1.0
145
0.0
146
1.0
147
0.625
 71
     0
 72
     0
 73
     0
 74
     0
 75
     0
 76
     0
 77
     1
 78
     8
170
     0
171
     3
172
     1
173
     0
174
     0
175
     0
176
     0
177
     0
178
     0
270
     2
271
     2
272
     2
273
     2
274
     3
340
11
275
     0
280
     0
281
     0
282
     0
283
     0
284
     8
285
     0
286
     0
287
     3
288
     0
  0
ENDTAB
  0
TABLE
  2
BLOCK_RECORD
  5
1
330
0
100
AcDbSymbolTable
 70
     1
  0
BLOCK_RECORD
  5
1F
330
1
100
AcDbSymbolTableRecord
100
AcDbBlockTableRecord
  2
*MODEL_SPACE
  0
BLOCK_RECORD
  5
1B
330
1
100
AcDbSymbolTableRecord
100
AcDbBlockTableRecord
  2
*PAPER_SPACE
  0
ENDTAB
  0
ENDSEC
  0
SECTION
  2
BLOCKS
  0
BLOCK
  5
20
330
1F
100
AcDbEntity
  8
0
100
AcDbBlockBegin
  2
*MODEL_SPACE
 70
     0
 10
0.0
 20
0.0
 30
0.0
  3
*MODEL_SPACE
  1

  0
ENDBLK
  5
21
330
1F
100
AcDbEntity
  8
0
100
AcDbBlockEnd
  0
BLOCK
  5
1C
330
1B
100
AcDbEntity
 67
     1
  8
0
100
AcDbBlockBegin
  2
*PAPER_SPACE
  1

  0
ENDBLK
  5
1D
330
1B
100
AcDbEntity
 67
     1
  8
0
100
AcDbBlockEnd
  0
ENDSEC
  0
SECTION
  2
ENTITIES
  0
SPLINE
  5
100
100
AcDbEntity
  8
redraw
 62
2
100
AcDbSpline
 70
0
 71
3
 72
13
 73
9
 74
7
 40
0.000000
 40
0.000000
 40
0.000000
 40
0.000000
 40
0.719883
 40
1.433806
 40
2.153684
 40
2.873567
 40
3.587490
 40
4.307371
 40
4.307371
 40
4.307371
 40
4.307371
 10
28.033731
 20
-126.759277
 30
0.0
 10
27.848928
 20
-126.914525
 30
0.0
 10
27.480851
 20
-127.223736
 30
0.0
 10
27.104422
 20
-127.849206
 30
0.0
 10
26.891686
 20
-128.542357
 30
0.0
 10
26.871630
 20
-129.267142
 30
0.0
 10
27.028319
 20
-129.980137
 30
0.0
 10
27.278211
 20
-130.390802
 30
0.0
 10
27.403676
 20
-130.596988
 30
0.0
 11
28.033731
 21
-126.759277
 31
0.0
 11
27.508934
 21
-127.252043
 31
0.0
 11
27.132481
 21
-127.858648
 31
0.0
 11
26.923888
 21
-128.547642
 31
0.0
 11
26.901237
 21
-129.267169
 31
0.0
 11
27.063978
 21
-129.962296
 31
0.0
 11
27.403676
 21
-130.596988
 31
0.0
  0
LWPOLYLINE
  5
101
100
AcDbEntity
  8
redraw
 62
2
100
AcDbPolyline
 90
3
 70
0
 10
27.403676
 20
-130.596988
 30
0.0
 10
38.557373
 20
-145.717021
 30
0.0
 10
38.557373
 20
-145.717021
 30
0.0
  0
LWPOLYLINE
  5
102
100
AcDbEntity
  8
redraw
 62
2
100
AcDbPolyline
 90
1
 70
1
 10
42.426837
 20
-146.107216
 30
0.0
  0
SPLINE
  5
103
100
AcDbEntity
  8
redraw
 62
2
100
AcDbSpline
 70
0
 71
3
 72
25
 73
21
 74
19
 40
0.000000
 40
0.000000
 40
0.000000
 40
0.000000
 40
0.719881
 40
1.433805
 40
2.153684
 40
2.873566
 40
3.587490
 40
4.307371
 40
7.521910
 40
16.716873
 40
31.353538
 40
44.047810
 40
56.604159
 40
67.844176
 40
80.343478
 40
93.828703
 40
107.016240
 40
112.847820
 40
118.518010
 40
123.713157
 40
123.713157
 40
123.713157
 40
123.713157
 10
38.557373
 20
-145.717021
 30
0.0
 10
38.723811
 20
-145.891813
 30
0.0
 10
39.055310
 20
-146.239950
 30
0.0
 10
39.702983
 20
-146.576762
 30
0.0
 10
40.408000
 20
-146.745965
 30
0.0
 10
41.132714
 20
-146.720970
 30
0.0
 10
41.834271
 20
-146.520036
 30
0.0
 10
43.115241
 20
-145.630405
 30
0.0
 10
46.639914
 20
-143.054541
 30
0.0
 10
54.525825
 20
-138.610446
 30
0.0
 10
65.604512
 20
-133.541794
 30
0.0
 10
78.132973
 20
-129.057442
 30
0.0
 10
89.756655
 20
-125.463029
 30
0.0
 10
101.489185
 20
-122.487231
 30
0.0
 10
113.648090
 20
-120.001057
 30
0.0
 10
126.484752
 20
-117.610831
 30
0.0
 10
137.181881
 20
-115.872426
 30
0.0
 10
145.346405
 20
-114.831885
 30
0.0
 10
150.883490
 20
-114.263896
 30
0.0
 10
154.492436
 20
-113.958917
 30
0.0
 10
156.218016
 20
-113.813095
 30
0.0
 11
38.557373
 21
-145.717021
 31
0.0
 11
39.081817
 21
-146.210162
 31
0.0
 11
39.710657
 21
-146.548165
 31
0.0
 11
40.411291
 21
-146.713509
 31
0.0
 11
41.130832
 21
-146.691374
 31
0.0
 11
41.814495
 21
-146.485723
 31
0.0
 11
42.426837
 21
-146.107216
 31
0.0
 11
45.053676
 21
-144.254388
 31
0.0
 11
52.980820
 21
-139.595231
 31
0.0
 11
66.278206
 21
-133.478740
 31
0.0
 11
78.204643
 21
-129.130791
 31
0.0
 11
90.207163
 21
-125.442785
 31
0.0
 11
101.100153
 21
-122.671365
 31
0.0
 11
113.332440
 21
-120.101597
 31
0.0
 11
126.591843
 21
-117.644049
 31
0.0
 11
139.617275
 21
-115.582677
 31
0.0
 11
145.402533
 21
-114.849115
 31
0.0
 11
151.042590
 21
-114.265339
 31
0.0
 11
156.218016
 21
-113.813095
 31
0.0
  0
LWPOLYLINE
  5
104
100
AcDbEntity
  8
redraw
 62
2
100
AcDbPolyline
 90
2
 70
0
 10
156.218016
 20
-113.813095
 30
0.0
 10
172.161289
 20
-113.766176
 30
0.0
  0
SPLINE
  5
105
100
AcDbEntity
  8
redraw
 62
2
100
AcDbSpline
 70
0
 71
3
 72
13
 73
9
 74
7
 40
0.000000
 40
0.000000
 40
0.000000
 40
0.000000
 40
0.719881
 40
1.433804
 40
2.153685
 40
2.873566
 40
3.587489
 40
4.307370
 40
4.307370
 40
4.307370
 40
4.307370
 10
172.161289
 20
-113.766176
 30
0.0
 10
172.401950
 20
-113.747844
 30
0.0
 10
172.881281
 20
-113.711331
 30
0.0
 10
173.551845
 20
-113.422787
 30
0.0
 10
174.128907
 20
-112.983794
 30
0.0
 10
174.567900
 20
-112.406732
 30
0.0
 10
174.856444
 20
-111.736169
 30
0.0
 10
174.892956
 20
-111.256838
 30
0.0
 10
174.911288
 20
-111.016176
 30
0.0
 11
172.161289
 21
-113.766176
 31
0.0
 11
172.874978
 21
-113.671960
 31
0.0
 11
173.534557
 21
-113.398753
 31
0.0
 11
174.105832
 21
-112.960719
 31
0.0
 11
174.543866
 21
-112.389444
 31
0.0
 11
174.817072
 21
-111.729865
 31
0.0
 11
174.911288
 21
-111.016176
 31
0.0
  0
SPLINE
  5
106
100
AcDbEntity
  8
redraw
 62
2
100
AcDbSpline
 70
0
 71
3
 72
22
 73
18
 74
16
 40
0.000000
 40
0.000000
 40
0.000000
 40
0.000000
 40
0.722048
 40
1.437355
 40
2.156277
 40
2.655972
 40
3.168665
 40
3.695678
 40
9.440476
 40
20.921763
 40
31.866243
 40
41.214931
 40
50.956684
 40
59.393138
 40
67.995418
 40
78.253012
 40
88.540966
 40
88.540966
 40
88.540966
 40
88.540966
 10
174.996203
 20
-38.694716
 30
0.0
 10
174.978406
 20
-38.453494
 30
0.0
 10
174.942977
 20
-37.973305
 30
0.0
 10
174.661710
 20
-37.297345
 30
0.0
 10
174.254953
 20
-36.788450
 30
0.0
 10
173.816937
 20
-36.412105
 30
0.0
 10
173.397363
 20
-36.111036
 30
0.0
 10
171.289457
 20
-35.264790
 30
0.0
 10
165.480142
 20
-34.045122
 30
0.0
 10
156.463352
 20
-31.441583
 30
0.0
 10
146.181525
 20
-28.871684
 30
0.0
 10
136.340057
 20
-27.011254
 30
0.0
 10
127.254311
 20
-25.712534
 30
0.0
 10
118.357691
 20
-24.892846
 30
0.0
 10
109.257234
 20
-24.750199
 30
0.0
 10
99.532007
 20
-24.856909
 30
0.0
 10
92.721142
 20
-25.613951
 30
0.0
 10
89.310677
 20
-25.993032
 30
0.0
 11
174.996203
 21
-38.694716
 31
0.0
 11
174.904438
 21
-37.978522
 31
0.0
 11
174.633682
 21
-37.316439
 31
0.0
 11
174.190746
 21
-36.750173
 31
0.0
 11
173.815401
 21
-36.420308
 31
0.0
 11
173.391624
 21
-36.131747
 31
0.0
 11
172.909860
 21
-35.918097
 31
0.0
 11
167.370981
 21
-34.393787
 31
0.0
 11
156.270903
 21
-31.459810
 31
0.0
 11
145.641065
 21
-28.854395
 31
0.0
 11
136.457862
 21
-27.103184
 31
0.0
 11
126.812315
 21
-25.737468
 31
0.0
 11
118.407810
 21
-25.003945
 31
0.0
 11
109.808099
 21
-24.793718
 31
0.0
 11
99.553153
 21
-25.026751
 31
0.0
 11
89.310677
 21
-25.993032
 31
0.0
  0
LWPOLYLINE
  5
107
100
AcDbEntity
  8
redraw
 62
2
100
AcDbPolyline
 90
3
 70
0
 10
174.911288
 20
-111.016176
 30
0.0
 10
174.911288
 20
-111.016176
 30
0.0
 10
174.996203
 20
-38.694716
 30
0.0
  0
LWPOLYLINE
  5
108
100
AcDbEntity
  8
redraw
 62
2
100
AcDbPolyline
 90
1
 70
1
 10
46.309877
 20
-35.994043
 30
0.0
  0
SPLINE
  5
109
100
AcDbEntity
  8
redraw
 62
2
100
AcDbSpline
 70
0
 71
3
 72
16
 73
12
 74
10
 40
0.000000
 40
0.000000
 40
0.000000
 40
0.000000
 40
15.269695
 40
30.499897
 40
44.162109
 40
44.562877
 40
45.428764
 40
46.282976
 40
47.002857
 40
47.716780
 40
48.436661
 40
48.436661
 40
48.436661
 40
48.436661
 10
89.310677
 20
-25.993032
 30
0.0
 10
84.321927
 20
-26.999378
 30
0.0
 10
74.357329
 20
-29.009468
 30
0.0
 10
59.956823
 20
-32.113702
 30
0.0
 10
50.618789
 20
-34.994379
 30
0.0
 10
45.768177
 20
-36.120030
 30
0.0
 10
45.096479
 20
-36.335133
 30
0.0
 10
44.356767
 20
-36.723379
 30
0.0
 10
43.906417
 20
-37.357661
 30
0.0
 10
43.613929
 20
-38.023000
 30
0.0
 10
43.577944
 20
-38.503030
 30
0.0
 10
43.559877
 20
-38.744042
 30
0.0
 11
89.310677
 21
-25.993032
 31
0.0
 11
74.349215
 21
-29.045608
 31
0.0
 11
59.504172
 21
-32.449096
 31
0.0
 11
46.309877
 21
-35.994043
 31
0.0
 11
45.920342
 21
-36.088259
 31
0.0
 11
45.098686
 21
-36.361466
 31
0.0
 11
44.365334
 21
-36.799500
 31
0.0
 11
43.927300
 21
-37.370774
 31
0.0
 11
43.654094
 21
-38.030353
 31
0.0
 11
43.559877
 21
-38.744042
 31
0.0
  0
SPLINE
  5
10a
100
AcDbEntity
  8
redraw
 62
2
100
AcDbSpline
 70
0
 71
3
 72
16
 73
12
 74
10
 40
0.000000
 40
0.000000
 40
0.000000
 40
0.000000
 40
1.663197
 40
5.408149
 40
9.441972
 40
13.393718
 40
17.749586
 40
22.093584
 40
26.169504
 40
29.373237
 40
30.673350
 40
30.673350
 40
30.673350
 40
30.673350
 10
43.559877
 20
-101.890515
 30
0.0
 10
43.556128
 20
-102.445112
 30
0.0
 10
43.543935
 20
-104.248472
 30
0.0
 10
43.286211
 20
-107.382747
 30
0.0
 10
42.476142
 20
-111.264947
 30
0.0
 10
40.237406
 20
-114.783605
 30
0.0
 10
37.524668
 20
-118.005301
 30
0.0
 10
34.605930
 20
-121.112179
 30
0.0
 10
31.786936
 20
-123.773976
 30
0.0
 10
29.576426
 20
-125.591804
 30
0.0
 10
28.379302
 20
-126.497758
 30
0.0
 10
28.033731
 20
-126.759277
 30
0.0
 11
43.559877
 21
-101.890515
 31
0.0
 11
43.535820
 21
-103.553538
 31
0.0
 11
43.218803
 21
-107.285048
 31
0.0
 11
42.241559
 21
-111.198706
 31
0.0
 11
40.248647
 21
-114.611125
 31
0.0
 11
37.491502
 21
-117.983325
 31
0.0
 11
34.513167
 21
-121.145577
 31
0.0
 11
31.540906
 21
-123.934625
 31
0.0
 11
29.067381
 21
-125.970695
 31
0.0
 11
28.033731
 21
-126.759277
 31
0.0
  0
LWPOLYLINE
  5
10b
100
AcDbEntity
  8
redraw
 62
2
100
AcDbPolyline
 90
2
 70
0
 10
43.559877
 20
-38.744042
 30
0.0
 10
43.559877
 20
-101.890515
 30
0.0
  0
ENDSEC
  0
SECTION
  2
OBJECTS
  0
DICTIONARY
  5
C
330
0
100
AcDbDictionary
  3
ACAD_GROUP
350
D
  3
ACAD_MLINESTYLE
350
17
  0
DICTIONARY
  5
D
330
C
100
AcDbDictionary
  0
DICTIONARY
  5
1A
330
C
100
AcDbDictionary
  0
DICTIONARY
  5
17
330
C
100
AcDbDictionary
  3
STANDARD
350
18
  0
DICTIONARY
  5
19
330
C
100
AcDbDictionary
  0
ENDSEC
  0
EOF
