  0
SECTION
  2
HEADER
  9
$ACADVER
  1
AC1014
  9
$HANDSEED
  5
FFFF
  9
$MEASUREMENT
 70
     1
  0
ENDSEC
  0
SECTION
  2
TABLES
  0
TABLE
  2
VPORT
  5
8
330
0
100
AcDbSymbolTable
 70
     4
  0
VPORT
  5
2E
330
8
100
AcDbSymbolTableRecord
100
AcDbViewportTableRecord
  2
*ACTIVE
 70
     0
 10
0.0
 20
0.0
 11
1.0
 21
1.0
 12
210.0
 22
148.5
 13
0.0
 23
0.0
 14
10.0
 24
10.0
 15
10.0
 25
10.0
 16
0.0
 26
0.0
 36
1.0
 17
0.0
 27
0.0
 37
0.0
 40
341.0
 41
1.24
 42
50.0
 43
0.0
 44
0.0
 50
0.0
 51
0.0
 71
     0
 72
   100
 73
     1
 74
     3
 75
     0
 76
     0
 77
     0
 78
     0
  0
ENDTAB
  0
TABLE
  2
LTYPE
  5
5
330
0
100
AcDbSymbolTable
 70
     1
  0
LTYPE
  5
14
330
5
100
AcDbSymbolTableRecord
100
AcDbLinetypeTableRecord
  2
BYBLOCK
 70
     0
  3

 72
    65
 73
     0
 40
0.0
  0
LTYPE
  5
15
330
5
100
AcDbSymbolTableRecord
100
AcDbLinetypeTableRecord
  2
BYLAYER
 70
     0
  3

 72
    65
 73
     0
 40
0.0
  0
LTYPE
  5
16
330
5
100
AcDbSymbolTableRecord
100
AcDbLinetypeTableRecord
  2
CONTINUOUS
 70
     0
  3
Solid line
 72
    65
 73
     0
 40
0.0
  0
ENDTAB
  0
TABLE
  2
LAYER
  5
2
100
AcDbSymbolTable
 70
2
  0
LAYER
  5
50
100
AcDbSymbolTableRecord
100
AcDbLayerTableRecord
  2
0
 70
0
  6
CONTINUOUS
  0
LAYER
  5
51
100
AcDbSymbolTableRecord
100
AcDbLayerTableRecord
  2
Layer_1
 70
0
  6
CONTINUOUS
  0
ENDTAB
  0
TABLE
  2
STYLE
  5
3
330
0
100
AcDbSymbolTable
 70
     1
  0
STYLE
  5
11
330
3
100
AcDbSymbolTableRecord
100
AcDbTextStyleTableRecord
  2
STANDARD
 70
     0
 40
0.0
 41
1.0
 50
0.0
 71
     0
 42
2.5
  3
txt
  4

  0
ENDTAB
  0
TABLE
  2
VIEW
  5
6
330
0
100
AcDbSymbolTable
 70
     0
  0
ENDTAB
  0
TABLE
  2
UCS
  5
7
330
0
100
AcDbSymbolTable
 70
     0
  0
ENDTAB
  0
TABLE
  2
APPID
  5
9
330
0
100
AcDbSymbolTable
 70
     2
  0
APPID
  5
12
330
9
100
AcDbSymbolTableRecord
100
AcDbRegAppTableRecord
  2
ACAD
 70
     0
  0
ENDTAB
  0
TABLE
  2
DIMSTYLE
  5
A
330
0
100
AcDbSymbolTable
 70
     1
  0
DIMSTYLE
105
27
330
A
100
AcDbSymbolTableRecord
100
AcDbDimStyleTableRecord
  2
ISO-25
 70
     0
  3

  4

  5

  6

  7

 40
1.0
 41
2.5
 42
0.625
 43
3.75
 44
1.25
 45
0.0
 46
0.0
 47
0.0
 48
0.0
140
2.5
141
2.5
142
0.0
143
0.03937007874016
144
1.0
145
0.0
146
1.0
147
0.625
 71
     0
 72
     0
 73
     0
 74
     0
 75
     0
 76
     0
 77
     1
 78
     8
170
     0
171
     3
172
     1
173
     0
174
     0
175
     0
176
     0
177
     0
178
     0
270
     2
271
     2
272
     2
273
     2
274
     3
340
11
275
     0
280
     0
281
     0
282
     0
283
     0
284
     8
285
     0
286
     0
287
     3
288
     0
  0
ENDTAB
  0
TABLE
  2
BLOCK_RECORD
  5
1
330
0
100
AcDbSymbolTable
 70
     1
  0
BLOCK_RECORD
  5
1F
330
1
100
AcDbSymbolTableRecord
100
AcDbBlockTableRecord
  2
*MODEL_SPACE
  0
BLOCK_RECORD
  5
1B
330
1
100
AcDbSymbolTableRecord
100
AcDbBlockTableRecord
  2
*PAPER_SPACE
  0
ENDTAB
  0
ENDSEC
  0
SECTION
  2
BLOCKS
  0
BLOCK
  5
20
330
1F
100
AcDbEntity
  8
0
100
AcDbBlockBegin
  2
*MODEL_SPACE
 70
     0
 10
0.0
 20
0.0
 30
0.0
  3
*MODEL_SPACE
  1

  0
ENDBLK
  5
21
330
1F
100
AcDbEntity
  8
0
100
AcDbBlockEnd
  0
BLOCK
  5
1C
330
1B
100
AcDbEntity
 67
     1
  8
0
100
AcDbBlockBegin
  2
*PAPER_SPACE
  1

  0
ENDBLK
  5
1D
330
1B
100
AcDbEntity
 67
     1
  8
0
100
AcDbBlockEnd
  0
ENDSEC
  0
SECTION
  2
ENTITIES
  0
SPLINE
  5
100
100
AcDbEntity
  8
0
 62
7
100
AcDbSpline
 70
0
 71
3
 72
10
 73
6
 74
4
 40
0.000000
 40
0.000000
 40
0.000000
 40
0.000000
 40
1.328062
 40
2.616734
 40
3.944797
 40
3.944797
 40
3.944797
 40
3.944797
 10
41.988232
 20
-146.246779
 30
0.0
 10
41.665297
 20
-145.932638
 30
0.0
 10
41.029006
 20
-145.313673
 30
0.0
 10
39.614358
 20
-145.111581
 30
0.0
 10
38.830209
 20
-145.527625
 30
0.0
 10
38.432232
 20
-145.738779
 30
0.0
 11
41.988232
 21
-146.246779
 31
0.0
 11
40.941612
 21
-145.429260
 31
0.0
 11
39.665892
 21
-145.247014
 31
0.0
 11
38.432232
 21
-145.738779
 31
0.0
  0
LWPOLYLINE
  5
101
100
AcDbEntity
  8
0
 62
7
100
AcDbPolyline
 90
2
 70
0
 10
27.256232
 20
-130.625779
 30
0.0
 10
38.432232
 20
-145.738779
 30
0.0
  0
SPLINE
  5
102
100
AcDbEntity
  8
0
 62
7
100
AcDbSpline
 70
0
 71
3
 72
10
 73
6
 74
4
 40
0.000000
 40
0.000000
 40
0.000000
 40
0.000000
 40
1.368934
 40
2.697266
 40
4.066200
 40
4.066200
 40
4.066200
 40
4.066200
 10
27.256232
 20
-130.625779
 30
0.0
 10
27.566879
 20
-130.280590
 30
0.0
 10
28.178958
 20
-129.600451
 30
0.0
 10
28.330527
 20
-128.135282
 30
0.0
 10
27.870638
 20
-127.344249
 30
0.0
 10
27.637232
 20
-126.942779
 30
0.0
 11
27.256232
 21
-130.625779
 31
0.0
 11
28.056408
 21
-129.515059
 31
0.0
 11
28.193092
 21
-128.193778
 31
0.0
 11
27.637232
 21
-126.942779
 31
0.0
  0
SPLINE
  5
103
100
AcDbEntity
  8
0
 62
7
100
AcDbSpline
 70
0
 71
3
 72
19
 73
15
 74
13
 40
0.000000
 40
0.000000
 40
0.000000
 40
0.000000
 40
0.672719
 40
1.334021
 40
1.982766
 40
16.415864
 40
33.567252
 40
54.975881
 40
70.792946
 40
82.833606
 40
94.687733
 40
105.060169
 40
113.065846
 40
116.088229
 40
116.088229
 40
116.088229
 40
116.088229
 10
60.911232
 20
-34.994779
 30
0.0
 10
60.926794
 20
-34.770981
 30
0.0
 10
60.957652
 20
-34.327183
 30
0.0
 10
61.206071
 20
-33.688666
 30
0.0
 10
65.237325
 20
-30.212164
 30
0.0
 10
75.692719
 20
-26.657011
 30
0.0
 10
92.852205
 20
-22.733145
 30
0.0
 10
111.076399
 20
-22.069988
 30
0.0
 10
127.499686
 20
-22.281787
 30
0.0
 10
140.650599
 20
-24.061697
 30
0.0
 10
151.762048
 20
-26.773558
 30
0.0
 10
161.307305
 20
-30.074665
 30
0.0
 10
167.743828
 20
-33.170444
 30
0.0
 10
171.001253
 20
-34.873480
 30
0.0
 10
171.893992
 20
-35.340219
 30
0.0
 11
60.911232
 21
-34.994779
 31
0.0
 11
60.992572
 21
-34.326996
 31
0.0
 11
61.251300
 21
-33.718407
 31
0.0
 11
61.709554
 21
-33.259197
 31
0.0
 11
74.807295
 21
-27.195908
 31
0.0
 11
91.560188
 21
-23.520213
 31
0.0
 11
112.928372
 21
-22.204880
 31
0.0
 11
128.738832
 21
-22.661931
 31
0.0
 11
140.670509
 21
-24.278276
 31
0.0
 11
152.188586
 21
-27.080817
 31
0.0
 11
161.966953
 21
-30.540726
 31
0.0
 11
169.211310
 21
-33.948093
 31
0.0
 11
171.893992
 21
-35.340219
 31
0.0
  0
SPLINE
  5
104
100
AcDbEntity
  8
0
 62
7
100
AcDbSpline
 70
0
 71
3
 72
13
 73
9
 74
7
 40
0.000000
 40
0.000000
 40
0.000000
 40
0.000000
 40
0.764644
 40
1.522961
 40
2.287606
 40
3.052250
 40
3.810567
 40
4.575211
 40
4.575211
 40
4.575211
 40
4.575211
 10
174.957232
 20
-110.813779
 30
0.0
 10
174.701606
 20
-110.833251
 30
0.0
 10
174.192469
 20
-110.872034
 30
0.0
 10
173.480209
 20
-111.178521
 30
0.0
 10
172.867263
 20
-111.644809
 30
0.0
 10
172.400974
 20
-112.257756
 30
0.0
 10
172.094487
 20
-112.970016
 30
0.0
 10
172.055704
 20
-113.479153
 30
0.0
 10
172.036232
 20
-113.734779
 30
0.0
 11
174.957232
 21
-110.813779
 31
0.0
 11
174.199165
 21
-110.913854
 31
0.0
 11
173.498571
 21
-111.204049
 31
0.0
 11
172.891773
 21
-111.669320
 31
0.0
 11
172.426502
 21
-112.276118
 31
0.0
 11
172.136307
 21
-112.976712
 31
0.0
 11
172.036232
 21
-113.734779
 31
0.0
  0
LWPOLYLINE
  5
105
100
AcDbEntity
  8
0
 62
7
100
AcDbPolyline
 90
2
 70
0
 10
60.911232
 20
-34.994779
 30
0.0
 10
60.911232
 20
-80.333779
 30
0.0
  0
LWPOLYLINE
  5
106
100
AcDbEntity
  8
0
 62
7
100
AcDbPolyline
 90
2
 70
0
 10
173.433232
 20
-36.264779
 30
0.0
 10
171.893992
 20
-35.340219
 30
0.0
  0
LWPOLYLINE
  5
107
100
AcDbEntity
  8
0
 62
7
100
AcDbPolyline
 90
2
 70
0
 10
172.036232
 20
-113.734779
 30
0.0
 10
158.066232
 20
-113.734779
 30
0.0
  0
SPLINE
  5
108
100
AcDbEntity
  8
0
 62
7
100
AcDbSpline
 70
0
 71
3
 72
10
 73
6
 74
4
 40
0.000000
 40
0.000000
 40
0.000000
 40
0.000000
 40
1.031627
 40
2.047938
 40
3.079566
 40
3.079566
 40
3.079566
 40
3.079566
 10
174.935134
 20
-38.804779
 30
0.0
 10
174.650993
 20
-38.606578
 30
0.0
 10
174.086931
 20
-38.213118
 30
0.0
 10
173.542934
 20
-37.293116
 30
0.0
 10
173.469981
 20
-36.609263
 30
0.0
 10
173.433232
 20
-36.264779
 30
0.0
 11
174.935134
 21
-38.804779
 31
0.0
 11
174.134046
 21
-38.154768
 31
0.0
 11
173.616766
 21
-37.279949
 31
0.0
 11
173.433232
 21
-36.264779
 31
0.0
  0
SPLINE
  5
109
100
AcDbEntity
  8
0
 62
7
100
AcDbSpline
 70
0
 71
3
 72
16
 73
12
 74
10
 40
0.000000
 40
0.000000
 40
0.000000
 40
0.000000
 40
3.161724
 40
11.762803
 40
24.513787
 40
31.439588
 40
38.460860
 40
45.676742
 40
50.873595
 40
56.431807
 40
59.024976
 40
59.024976
 40
59.024976
 40
59.024976
 10
27.637232
 20
-126.942786
 30
0.0
 10
28.479949
 20
-126.309737
 30
0.0
 10
31.615173
 20
-123.954554
 30
0.0
 10
37.865679
 20
-118.684870
 30
0.0
 10
44.855995
 20
-112.352429
 30
0.0
 10
50.878719
 20
-105.772592
 30
0.0
 10
54.791387
 20
-99.868234
 30
0.0
 10
57.492565
 20
-93.937718
 30
0.0
 10
59.041826
 20
-88.142562
 30
0.0
 10
60.109698
 20
-83.824648
 30
0.0
 10
60.717786
 20
-81.176293
 30
0.0
 10
60.911235
 20
-80.333781
 30
0.0
 11
27.637232
 21
-126.942786
 31
0.0
 11
30.155561
 21
-125.031106
 31
0.0
 11
36.780590
 21
-119.545895
 31
0.0
 11
46.117388
 21
-110.861899
 31
0.0
 11
50.717194
 21
-105.684206
 31
0.0
 11
54.596504
 21
-99.831923
 31
0.0
 11
57.551780
 21
-93.248968
 31
0.0
 11
58.995084
 21
-88.256558
 31
0.0
 11
60.326432
 21
-82.860149
 31
0.0
 11
60.911235
 21
-80.333781
 31
0.0
  0
SPLINE
  5
10a
100
AcDbEntity
  8
0
 62
7
100
AcDbSpline
 70
0
 71
3
 72
16
 73
12
 74
10
 40
0.000000
 40
0.000000
 40
0.000000
 40
0.000000
 40
4.384594
 40
17.551966
 40
39.781306
 40
56.665516
 40
73.577161
 40
90.488112
 40
103.881302
 40
116.248472
 40
121.685545
 40
121.685545
 40
121.685545
 40
121.685545
 10
41.988235
 20
-146.246787
 30
0.0
 10
43.189529
 20
-145.413214
 30
0.0
 10
47.998429
 20
-142.076342
 30
0.0
 10
59.858901
 20
-136.039065
 30
0.0
 10
76.041147
 20
-129.520707
 30
0.0
 10
93.961239
 20
-124.184095
 30
0.0
 10
110.465975
 20
-120.516843
 30
0.0
 10
125.917146
 20
-117.500025
 30
0.0
 10
140.006375
 20
-115.509881
 30
0.0
 10
150.350069
 20
-114.426318
 30
0.0
 10
156.261119
 20
-113.896563
 30
0.0
 10
158.066240
 20
-113.734786
 30
0.0
 11
41.988235
 21
-146.246787
 31
0.0
 11
45.618581
 21
-143.788078
 31
0.0
 11
57.212905
 21
-137.546978
 31
0.0
 11
77.826138
 21
-129.226031
 31
0.0
 11
94.000003
 21
-124.380138
 31
0.0
 11
110.481019
 21
-120.588064
 31
0.0
 11
127.096012
 21
-117.438099
 31
0.0
 11
140.354725
 21
-115.544937
 31
0.0
 11
152.651619
 21
-114.228383
 31
0.0
 11
158.066240
 21
-113.734786
 31
0.0
  0
LWPOLYLINE
  5
10b
100
AcDbEntity
  8
0
 62
7
100
AcDbPolyline
 90
2
 70
0
 10
174.936912
 20
-38.804779
 30
0.0
 10
174.957232
 20
-110.813779
 30
0.0
  0
ENDSEC
  0
SECTION
  2
OBJECTS
  0
DICTIONARY
  5
C
330
0
100
AcDbDictionary
  3
ACAD_GROUP
350
D
  3
ACAD_MLINESTYLE
350
17
  0
DICTIONARY
  5
D
330
C
100
AcDbDictionary
  0
DICTIONARY
  5
1A
330
C
100
AcDbDictionary
  0
DICTIONARY
  5
17
330
C
100
AcDbDictionary
  3
STANDARD
350
18
  0
DICTIONARY
  5
19
330
C
100
AcDbDictionary
  0
ENDSEC
  0
EOF
