M48
; DRILL file {KiCad 5.1.10} date Sun Sep  5 22:55:36 2021
; FORMAT={-:-/ absolute / inch / decimal}
; #@! TF.CreationDate,2021-09-05T22:55:36-04:00
; #@! TF.GenerationSoftware,Kicad,Pcbnew,5.1.10
FMAT,2
INCH
T1C0.0157
T2C0.0236
T3C0.0390
T4C0.0472
T5C0.0579
T6C0.2559
T7C0.0197
T8C0.0315
T9C0.0472
T10C0.0669
T11C0.0689
T12C0.1570
%
G90
G05
T1
X1.5497Y-3.8218
X1.607Y-2.1355
X1.707Y-2.8845
X1.7075Y-3.6345
X1.7075Y-4.3835
X1.9125Y-3.6935
X1.9149Y-2.9441
X1.918Y-2.1945
X1.9705Y-2.949
X1.975Y-3.6945
X1.9765Y-2.199
X1.9803Y-4.4449
X2.0495Y-3.768
X2.0535Y-2.2715
X2.0665Y-3.021
X2.261Y-3.7932
X2.2707Y-3.0462
X2.2785Y-2.2715
X2.3012Y-3.7932
X2.364Y-2.136
X2.378Y-4.4449
X2.436Y-2.8855
X2.4378Y-3.6378
X2.4378Y-4.3236
X2.4663Y-2.8063
X2.467Y-3.569
X2.472Y-2.2236
X2.4962Y-3.6815
X2.4965Y-3.6265
X2.4994Y-2.8348
X2.5015Y-2.9736
X2.521Y-2.1335
X2.533Y-2.8634
X2.5842Y-4.1772
X2.5977Y-4.4775
X2.598Y-4.4374
X2.6397Y-4.4387
X2.6399Y-4.3985
X2.6586Y-4.3639
X2.6744Y-3.4383
X2.6865Y-4.336
X2.7065Y-1.909
X2.7143Y-4.3082
X2.738Y-3.4265
X2.817Y-1.995
X2.9485Y-2.7275
X3.024Y-3.2998
X3.028Y-3.4485
X3.0344Y-2.557
X3.063Y-2.7585
X3.1121Y-4.1595
X3.1142Y-4.2412
X3.1475Y-1.8485
X3.1871Y-1.8477
X3.2Y-2.6
X3.2013Y-3.3498
X3.2013Y-4.0982
X3.2269Y-1.8486
X3.2463Y-1.9253
X3.267Y-1.849
X3.3495Y-4.231
X3.382Y-4.2025
X3.4078Y-4.1727
X3.4845Y-1.7215
X3.4855Y-3.219
X3.521Y-4.0205
X3.544Y-2.5205
X3.5935Y-4.091
X3.7238Y-4.2065
X3.7476Y-4.1752
X3.7482Y-4.1359
X3.7483Y-1.8215
X3.784Y-4.774
X3.7897Y-4.1347
X3.7905Y-3.296
X3.792Y-2.6235
X3.8135Y-4.6969
X3.8228Y-2.5473
X3.8487Y-4.1694
X3.874Y-3.9843
X3.8881Y-4.1694
X3.9139Y-3.9848
X3.9274Y-4.1694
X3.928Y-4.2121
X3.9415Y-1.667
X3.9415Y-2.4129
X3.9415Y-3.16
X3.9415Y-3.912
X3.9702Y-3.9389
X4.0276Y-4.3701
X4.0778Y-2.7182
X4.119Y-4.0595
X4.124Y-1.8815
X4.1262Y-4.2832
X4.1697Y-4.2831
X4.2005Y-4.1856
X4.213Y-1.9695
X4.2142Y-4.2819
X4.2175Y-2.663
X4.224Y-1.9085
X4.2441Y-3.4381
X4.2455Y-4.158
X4.291Y-4.2387
X4.321Y-2.002
X4.3215Y-3.4651
X4.346Y-4.4213
X4.346Y-4.4646
X4.346Y-4.7441
X4.3746Y-4.3616
X4.4945Y-2.8036
X4.5433Y-2.7067
X4.6353Y-4.1009
X4.685Y-1.851
X4.685Y-2.599
X4.687Y-3.3475
X4.7156Y-4.1004
X4.737Y-4.2095
X4.7384Y-2.8037
X4.8425Y-4.9449
X4.876Y-2.755
X4.8845Y-4.2075
X4.8925Y-1.969
X4.9606Y-4.126
X4.969Y-4.289
X4.99Y-2.0665
X5.0275Y-3.5483
X5.097Y-3.566
X5.1163Y-4.5012
X5.1225Y-5.005
X5.1898Y-5.1127
X5.218Y-5.0525
X5.3456Y-3.5837
X5.3845Y-3.594
X5.4115Y-1.946
X5.425Y-4.189
X5.4345Y-2.6945
X5.4347Y-3.4402
X5.437Y-4.3707
X5.4633Y-3.082
X5.5553Y-2.7758
X5.5553Y-3.0203
X5.5553Y-3.2215
X5.573Y-5.2209
X5.5774Y-3.745
X5.5984Y-5.1638
X5.6325Y-3.2781
X5.64Y-3.745
X5.6485Y-5.1638
X5.6772Y-4.3425
X5.745Y-3.4362
X5.7597Y-1.722
X5.7599Y-1.7742
X5.785Y-2.685
X5.7931Y-1.722
X5.7933Y-1.7742
X5.7953Y-4.3721
X5.82Y-2.66
X5.8266Y-1.722
X5.8268Y-1.7742
X5.845Y-1.855
X5.85Y-2.69
X5.8601Y-1.722
X5.8603Y-1.7742
X5.8844Y-3.3569
X5.8935Y-1.722
X5.8937Y-1.7742
X5.9159Y-3.3963
X5.927Y-1.722
X5.9272Y-1.7742
X5.9547Y-4.6614
X5.9605Y-1.722
X5.9607Y-1.7742
X5.9941Y-1.722
X5.9941Y-1.7742
X6.025Y-2.0
X6.0268Y-4.6937
X6.035Y-2.44
X6.0489Y-4.5022
X6.063Y-4.5325
X6.0772Y-4.5629
X6.0913Y-4.5932
X6.0961Y-4.48
X6.1055Y-4.6235
X6.1102Y-4.5103
X6.1196Y-4.6539
X6.1244Y-4.5406
X6.1337Y-4.6842
X6.1342Y-2.9258
X6.1385Y-4.571
X6.1396Y-2.9895
X6.1432Y-3.0518
X6.1479Y-4.7145
X6.1527Y-4.6013
X6.1623Y-2.9573
X6.1654Y-3.0193
X6.1668Y-4.6316
X6.1809Y-4.662
X6.1938Y-3.2624
X6.1952Y-4.6925
X7.6608Y-4.6927
X7.6749Y-4.6623
X7.68Y-2.7
X7.68Y-2.8
X7.6891Y-4.632
X7.7032Y-4.6017
X7.7081Y-4.7145
X7.71Y-2.65
X7.71Y-2.75
X7.71Y-2.85
X7.71Y-3.05
X7.7174Y-4.5713
X7.7223Y-4.6842
X7.7315Y-4.541
X7.7364Y-4.6539
X7.7456Y-4.5107
X7.7506Y-4.6235
X7.7599Y-4.4802
X7.7647Y-4.5932
X7.7789Y-4.5629
X7.793Y-4.5325
X7.8071Y-4.5022
X7.9484Y-4.2402
X7.9794Y-4.1314
X8.0113Y-4.1667
X8.033Y-4.204
X8.1191Y-5.2057
X8.1645Y-4.031
X8.1845Y-5.1806
X8.214Y-4.4306
X8.265Y-3.205
X8.2773Y-4.5052
X8.2992Y-4.4724
X8.3168Y-3.3635
X8.3359Y-3.3291
X8.3539Y-3.294
X8.3735Y-3.2577
X8.3905Y-3.657
X8.4331Y-2.8661
X8.4332Y-2.8266
X8.4336Y-2.7866
X8.5512Y-5.1417
X8.6388Y-4.9198
X8.6732Y-5.0098
X8.6969Y-4.9774
X8.811Y-3.6644
X8.8307Y-5.0669
X8.874Y-5.0
X8.8819Y-4.4685
X8.9252Y-4.4981
X8.9606Y-1.9449
X8.9606Y-2.6969
X8.9606Y-3.4409
X8.9606Y-4.189
X9.0886Y-4.2392
X9.2205Y-4.1801
X9.2717Y-2.7037
X9.3061Y-3.4675
X9.311Y-1.9636
X9.378Y-4.2244
X9.4343Y-4.9752
X9.5197Y-3.4687
X9.5305Y-1.9852
X9.5354Y-4.3031
X9.5433Y-2.7037
X9.5512Y-3.5896
X9.5716Y-4.5689
X9.6024Y-4.5394
X9.626Y-4.2126
X9.6481Y-4.5773
X9.6969Y-4.0984
X9.7126Y-1.8504
X9.7126Y-2.6024
X9.7126Y-3.3465
X9.8036Y-4.1462
X9.9016Y-3.1339
X9.919Y-4.6316
X9.9291Y-3.8504
X9.9331Y-4.5758
X9.9769Y-4.2485
X9.9939Y-4.636
X10.0084Y-4.2214
X10.0236Y-4.0148
X10.0236Y-4.0719
X10.0551Y-1.7844
X10.0581Y-2.5292
X10.0595Y-3.293
X10.1299Y-4.0335
X10.1686Y-4.0798
X10.1883Y-4.1168
X10.2864Y-1.7844
X10.2864Y-2.5292
X10.2864Y-3.2913
X10.315Y-3.35
X10.3189Y-4.689
X10.4567Y-1.6654
X10.4567Y-2.4134
X10.4567Y-3.1614
X10.4567Y-3.9094
X10.457Y-4.3971
X10.485Y-4.6339
X10.488Y-3.3386
X10.488Y-4.0798
X10.4882Y-4.5539
X10.4882Y-4.5933
X10.4963Y-4.3947
X10.5165Y-3.2992
X10.5165Y-4.1109
X10.5356Y-4.3947
X10.5451Y-4.0798
X10.5551Y-4.5539
X10.5741Y-4.437
X10.576Y-4.3947
X10.5835Y-4.0884
X10.6132Y-4.1195
X10.6427Y-4.0266
X10.6816Y-4.1058
X10.7126Y-2.5197
X10.7283Y-2.7369
X10.7638Y-4.6181
X10.8007Y-3.5123
X10.8031Y-1.9793
X10.8046Y-2.7192
X10.9055Y-4.218
X11.0344Y-1.9764
X11.0344Y-2.7205
X11.0344Y-3.5123
X11.063Y-2.8653
X11.1969Y-3.3465
X11.2008Y-4.0945
X11.2126Y-1.8543
X11.2126Y-2.6024
X11.2323Y-4.3268
X11.2534Y-1.8529
X11.265Y-4.3487
X11.2819Y-2.1299
X11.2928Y-4.3765
X11.4208Y-4.5044
X11.4966Y-4.499
X11.5454Y-3.7737
X11.5541Y-2.2628
X11.5541Y-3.0016
X11.7746Y-2.2628
X11.7746Y-3.0157
X11.7746Y-3.7717
X11.8031Y-3.1604
X11.8425Y-4.4921
X11.9409Y-2.1339
X11.9567Y-2.8858
X11.9567Y-3.6339
X11.9567Y-4.378
X12.2441Y-2.9488
X12.2638Y-4.499
X12.2717Y-3.7737
X12.2795Y-2.2589
X12.3661Y-3.0118
X12.3819Y-4.5197
X12.5226Y-2.2598
X12.5226Y-3.7756
X12.5512Y-3.0866
X12.7008Y-2.1339
X12.7008Y-2.8858
X12.7008Y-3.6339
X12.7008Y-4.3898
T3
X7.1094Y-2.1902
X7.1094Y-2.2902
T4
X1.425Y-1.7327
X1.425Y-2.4827
X1.425Y-3.2327
X1.425Y-3.9827
X1.6219Y-1.8154
X1.6219Y-2.5654
X1.6219Y-3.3154
X1.6219Y-4.0654
X2.175Y-1.7327
X2.175Y-2.4827
X2.175Y-3.2327
X2.175Y-3.9827
X2.3719Y-1.8154
X2.3719Y-2.5654
X2.3719Y-3.3154
X2.3719Y-4.0654
X2.925Y-1.4477
X2.925Y-2.1977
X2.925Y-2.9477
X2.925Y-3.6977
X3.1219Y-1.5304
X3.1219Y-2.2804
X3.1219Y-3.0304
X3.1219Y-3.7804
X3.67Y-1.2627
X3.67Y-2.0077
X3.67Y-2.7577
X3.67Y-3.5077
X3.8669Y-1.3454
X3.8669Y-2.0904
X3.8669Y-2.8404
X3.8669Y-3.5904
X4.42Y-1.4477
X4.42Y-2.1977
X4.42Y-2.9427
X4.421Y-3.6937
X4.6169Y-1.5304
X4.6169Y-2.2804
X4.6169Y-3.0254
X4.6179Y-3.7764
X4.66Y-4.5427
X4.8569Y-4.6254
X5.165Y-1.5427
X5.165Y-2.2927
X5.165Y-3.0377
X5.165Y-3.7877
X5.3619Y-1.6254
X5.3619Y-2.3754
X5.3619Y-3.1204
X5.3619Y-3.8704
X5.5737Y-4.6797
X5.7341Y-4.8206
X6.3949Y-5.0859
X6.5071Y-5.2675
X6.6772Y-2.2402
X6.7598Y-2.0433
X7.4693Y-5.085
X7.6784Y-5.0417
X8.2849Y-4.6811
X8.4978Y-4.6971
X8.687Y-2.2922
X8.69Y-1.5427
X8.69Y-3.0377
X8.69Y-3.7877
X8.8839Y-2.3749
X8.8869Y-1.6254
X8.8869Y-3.1204
X8.8869Y-3.8704
X9.2Y-4.5377
X9.3969Y-4.6204
X9.44Y-1.4477
X9.44Y-2.1977
X9.44Y-2.9427
X9.44Y-3.6927
X9.6369Y-1.5304
X9.6369Y-2.2804
X9.6369Y-3.0254
X9.6369Y-3.7754
X10.19Y-1.2627
X10.19Y-2.0077
X10.19Y-2.7577
X10.19Y-3.5077
X10.3869Y-1.3454
X10.3869Y-2.0904
X10.3869Y-2.8404
X10.3869Y-3.5904
X10.935Y-1.4477
X10.935Y-2.1977
X10.935Y-2.9427
X10.935Y-3.6927
X11.1319Y-1.5304
X11.1319Y-2.2804
X11.1319Y-3.0254
X11.1319Y-3.7754
X11.685Y-1.7327
X11.685Y-2.4827
X11.685Y-3.2327
X11.685Y-3.9777
X11.8819Y-1.8154
X11.8819Y-2.5654
X11.8819Y-3.3154
X11.8819Y-4.0604
X12.43Y-1.7327
X12.43Y-2.4827
X12.435Y-3.2327
X12.435Y-3.9777
X12.6269Y-1.8154
X12.6269Y-2.5654
X12.6319Y-3.3154
X12.6319Y-4.0604
T5
X1.275Y-1.865
X1.275Y-2.615
X1.275Y-3.365
X1.275Y-4.115
X1.3266Y-1.8075
X1.3266Y-2.5575
X1.3266Y-3.3075
X1.3266Y-4.0575
X1.5234Y-1.7878
X1.5234Y-2.5378
X1.5234Y-3.2878
X1.5234Y-4.0378
X1.525Y-1.765
X1.525Y-2.515
X1.525Y-3.265
X1.525Y-4.015
X2.025Y-1.865
X2.025Y-2.615
X2.025Y-3.365
X2.025Y-4.115
X2.0766Y-1.8075
X2.0766Y-2.5575
X2.0766Y-3.3075
X2.0766Y-4.0575
X2.2734Y-1.7878
X2.2734Y-2.5378
X2.2734Y-3.2878
X2.2734Y-4.0378
X2.275Y-1.765
X2.275Y-2.515
X2.275Y-3.265
X2.275Y-4.015
X2.775Y-1.58
X2.775Y-2.33
X2.775Y-3.08
X2.775Y-3.83
X2.8266Y-1.5225
X2.8266Y-2.2725
X2.8266Y-3.0225
X2.8266Y-3.7725
X3.0234Y-1.5028
X3.0234Y-2.2528
X3.0234Y-3.0028
X3.0234Y-3.7528
X3.025Y-1.48
X3.025Y-2.23
X3.025Y-2.98
X3.025Y-3.73
X3.52Y-1.395
X3.52Y-2.14
X3.52Y-2.89
X3.52Y-3.64
X3.5716Y-1.3375
X3.5716Y-2.0825
X3.5716Y-2.8325
X3.5716Y-3.5825
X3.7684Y-1.3178
X3.7684Y-2.0628
X3.7684Y-2.8128
X3.7684Y-3.5628
X3.77Y-1.295
X3.77Y-2.04
X3.77Y-2.79
X3.77Y-3.54
X4.27Y-1.58
X4.27Y-2.33
X4.27Y-3.075
X4.271Y-3.826
X4.3216Y-1.5225
X4.3216Y-2.2725
X4.3216Y-3.0175
X4.3226Y-3.7685
X4.51Y-4.675
X4.5184Y-1.5028
X4.5184Y-2.2528
X4.5184Y-2.9978
X4.5194Y-3.7488
X4.52Y-1.48
X4.52Y-2.23
X4.52Y-2.975
X4.521Y-3.726
X4.5616Y-4.6175
X4.7584Y-4.5978
X4.76Y-4.575
X5.015Y-1.675
X5.015Y-2.425
X5.015Y-3.17
X5.015Y-3.92
X5.0666Y-1.6175
X5.0666Y-2.3675
X5.0666Y-3.1125
X5.0666Y-3.8625
X5.2634Y-1.5978
X5.2634Y-2.3478
X5.2634Y-3.0928
X5.2634Y-3.8428
X5.265Y-1.575
X5.265Y-2.325
X5.265Y-3.07
X5.265Y-3.82
X5.3895Y-4.7576
X5.4566Y-4.7194
X5.6496Y-4.7632
X5.6583Y-4.7421
X6.196Y-5.1065
X6.2713Y-5.0896
X6.443Y-5.1879
X6.4576Y-5.1702
X6.7094Y-2.1402
X6.7323Y-2.1417
X6.752Y-2.3386
X6.8094Y-2.3902
X7.4206Y-5.279
X7.4306Y-5.2024
X7.57Y-5.055
X7.5816Y-5.0747
X8.1846Y-4.8542
X8.2153Y-4.7833
X8.39Y-4.68
X8.3958Y-4.7022
X8.537Y-2.4245
X8.54Y-1.675
X8.54Y-3.17
X8.54Y-3.92
X8.5886Y-2.367
X8.5916Y-1.6175
X8.5916Y-3.1125
X8.5916Y-3.8625
X8.7854Y-2.3473
X8.787Y-2.3245
X8.7884Y-1.5978
X8.7884Y-3.0928
X8.7884Y-3.8428
X8.79Y-1.575
X8.79Y-3.07
X8.79Y-3.82
X9.05Y-4.67
X9.1016Y-4.6125
X9.29Y-1.58
X9.29Y-2.33
X9.29Y-3.075
X9.29Y-3.825
X9.2984Y-4.5928
X9.3Y-4.57
X9.3416Y-1.5225
X9.3416Y-2.2725
X9.3416Y-3.0175
X9.3416Y-3.7675
X9.5384Y-1.5028
X9.5384Y-2.2528
X9.5384Y-2.9978
X9.5384Y-3.7478
X9.54Y-1.48
X9.54Y-2.23
X9.54Y-2.975
X9.54Y-3.725
X10.04Y-1.395
X10.04Y-2.14
X10.04Y-2.89
X10.04Y-3.64
X10.0916Y-1.3375
X10.0916Y-2.0825
X10.0916Y-2.8325
X10.0916Y-3.5825
X10.2884Y-1.3178
X10.2884Y-2.0628
X10.2884Y-2.8128
X10.2884Y-3.5628
X10.29Y-1.295
X10.29Y-2.04
X10.29Y-2.79
X10.29Y-3.54
X10.785Y-1.58
X10.785Y-2.33
X10.785Y-3.075
X10.785Y-3.825
X10.8366Y-1.5225
X10.8366Y-2.2725
X10.8366Y-3.0175
X10.8366Y-3.7675
X11.0334Y-1.5028
X11.0334Y-2.2528
X11.0334Y-2.9978
X11.0334Y-3.7478
X11.035Y-1.48
X11.035Y-2.23
X11.035Y-2.975
X11.035Y-3.725
X11.535Y-1.865
X11.535Y-2.615
X11.535Y-3.365
X11.535Y-4.11
X11.5866Y-1.8075
X11.5866Y-2.5575
X11.5866Y-3.3075
X11.5866Y-4.0525
X11.7834Y-1.7878
X11.7834Y-2.5378
X11.7834Y-3.2878
X11.7834Y-4.0328
X11.785Y-1.765
X11.785Y-2.515
X11.785Y-3.265
X11.785Y-4.01
X12.28Y-1.865
X12.28Y-2.615
X12.285Y-3.365
X12.285Y-4.11
X12.3316Y-1.8075
X12.3316Y-2.5575
X12.3366Y-3.3075
X12.3366Y-4.0525
X12.5284Y-1.7878
X12.5284Y-2.5378
X12.53Y-1.765
X12.53Y-2.515
X12.5334Y-3.2878
X12.5334Y-4.0328
X12.535Y-3.265
X12.535Y-4.01
T6
X6.9094Y-4.0039
T7
X6.2289Y-1.97
X6.2289Y-1.9995
X6.2289Y-2.0291
X6.2309Y-4.0113
X6.2309Y-4.0409
X6.2309Y-4.0704
X6.288Y-1.97
X6.288Y-1.9995
X6.288Y-2.0291
X6.29Y-4.0113
X6.29Y-4.0409
X6.29Y-4.0704
X7.5675Y-1.97
X7.5675Y-1.9995
X7.5675Y-2.0291
X7.5675Y-4.0113
X7.5675Y-4.0409
X7.5675Y-4.0704
X7.6266Y-1.97
X7.6266Y-1.9995
X7.6266Y-2.0291
X7.6266Y-4.0113
X7.6266Y-4.0409
X7.6266Y-4.0704
T8
X7.0748Y-2.4457
T9
X1.2195Y-2.1304
X1.2195Y-2.8804
X1.2195Y-3.6304
X1.2195Y-4.3804
X1.9695Y-2.1304
X1.9695Y-2.8804
X1.9695Y-3.6304
X1.9695Y-4.3804
X2.7195Y-1.8454
X2.7195Y-2.5954
X2.7195Y-3.3454
X2.7195Y-4.0954
X3.4645Y-1.6604
X3.4645Y-2.4054
X3.4645Y-3.1554
X3.4645Y-3.9054
X4.2145Y-1.8454
X4.2145Y-2.5954
X4.2145Y-3.3404
X4.2155Y-4.0914
X4.4545Y-4.9404
X4.9595Y-1.9404
X4.9595Y-2.6904
X4.9595Y-3.4354
X4.9595Y-4.1854
X5.2526Y-4.9916
X5.9967Y-5.2903
X7.5252Y-5.5291
X8.2162Y-5.1234
X8.4815Y-2.6899
X8.4845Y-1.9404
X8.4845Y-3.4354
X8.4845Y-4.1854
X8.9945Y-4.9354
X9.2345Y-1.8454
X9.2345Y-2.5954
X9.2345Y-3.3404
X9.2345Y-4.0904
X9.9845Y-1.6604
X9.9845Y-2.4054
X9.9845Y-3.1554
X9.9845Y-3.9054
X10.7295Y-1.8454
X10.7295Y-2.5954
X10.7295Y-3.3404
X10.7295Y-4.0904
X11.4795Y-2.1304
X11.4795Y-2.8804
X11.4795Y-3.6304
X11.4795Y-4.3754
X12.2245Y-2.1304
X12.2245Y-2.8804
X12.2295Y-3.6304
X12.2295Y-4.3754
T10
X1.2085Y-1.965
X1.2085Y-2.715
X1.2085Y-3.465
X1.2085Y-4.215
X1.6415Y-1.965
X1.6415Y-2.715
X1.6415Y-3.465
X1.6415Y-4.215
X1.9585Y-1.965
X1.9585Y-2.715
X1.9585Y-3.465
X1.9585Y-4.215
X2.3915Y-1.965
X2.3915Y-2.715
X2.3915Y-3.465
X2.3915Y-4.215
X2.7085Y-1.68
X2.7085Y-2.43
X2.7085Y-3.18
X2.7085Y-3.93
X3.1415Y-1.68
X3.1415Y-2.43
X3.1415Y-3.18
X3.1415Y-3.93
X3.4535Y-1.495
X3.4535Y-2.24
X3.4535Y-2.99
X3.4535Y-3.74
X3.8865Y-1.495
X3.8865Y-2.24
X3.8865Y-2.99
X3.8865Y-3.74
X4.2035Y-1.68
X4.2035Y-2.43
X4.2035Y-3.175
X4.2045Y-3.926
X4.4435Y-4.775
X4.6365Y-1.68
X4.6365Y-2.43
X4.6365Y-3.175
X4.6375Y-3.926
X4.8765Y-4.775
X4.9485Y-1.775
X4.9485Y-2.525
X4.9485Y-3.27
X4.9485Y-4.02
X5.2947Y-4.8313
X5.3815Y-1.775
X5.3815Y-2.525
X5.3815Y-3.27
X5.3815Y-4.02
X5.7053Y-4.9687
X6.0837Y-5.1493
X6.4363Y-5.4007
X6.9094Y-2.0236
X6.9094Y-2.4567
X7.4224Y-5.3991
X7.7793Y-5.1538
X8.1533Y-4.9701
X8.4705Y-2.5245
X8.4735Y-1.775
X8.4735Y-3.27
X8.4735Y-4.02
X8.564Y-4.8327
X8.9035Y-2.5245
X8.9065Y-1.775
X8.9065Y-3.27
X8.9065Y-4.02
X8.9835Y-4.77
X9.2235Y-1.68
X9.2235Y-2.43
X9.2235Y-3.175
X9.2235Y-3.925
X9.4165Y-4.77
X9.6565Y-1.68
X9.6565Y-2.43
X9.6565Y-3.175
X9.6565Y-3.925
X9.9735Y-1.495
X9.9735Y-2.24
X9.9735Y-2.99
X9.9735Y-3.74
X10.4065Y-1.495
X10.4065Y-2.24
X10.4065Y-2.99
X10.4065Y-3.74
X10.7185Y-1.68
X10.7185Y-2.43
X10.7185Y-3.175
X10.7185Y-3.925
X11.1515Y-1.68
X11.1515Y-2.43
X11.1515Y-3.175
X11.1515Y-3.925
X11.4685Y-1.965
X11.4685Y-2.715
X11.4685Y-3.465
X11.4685Y-4.21
X11.9015Y-1.965
X11.9015Y-2.715
X11.9015Y-3.465
X11.9015Y-4.21
X12.2135Y-1.965
X12.2135Y-2.715
X12.2185Y-3.465
X12.2185Y-4.21
X12.6465Y-1.965
X12.6465Y-2.715
X12.6515Y-3.465
X12.6515Y-4.21
T11
X1.225Y-1.965
X1.225Y-2.715
X1.225Y-3.465
X1.225Y-4.215
X1.625Y-1.965
X1.625Y-2.715
X1.625Y-3.465
X1.625Y-4.215
X1.975Y-1.965
X1.975Y-2.715
X1.975Y-3.465
X1.975Y-4.215
X2.375Y-1.965
X2.375Y-2.715
X2.375Y-3.465
X2.375Y-4.215
X2.725Y-1.68
X2.725Y-2.43
X2.725Y-3.18
X2.725Y-3.93
X3.125Y-1.68
X3.125Y-2.43
X3.125Y-3.18
X3.125Y-3.93
X3.47Y-1.495
X3.47Y-2.24
X3.47Y-2.99
X3.47Y-3.74
X3.87Y-1.495
X3.87Y-2.24
X3.87Y-2.99
X3.87Y-3.74
X4.22Y-1.68
X4.22Y-2.43
X4.22Y-3.175
X4.221Y-3.926
X4.46Y-4.775
X4.62Y-1.68
X4.62Y-2.43
X4.62Y-3.175
X4.621Y-3.926
X4.86Y-4.775
X4.965Y-1.775
X4.965Y-2.525
X4.965Y-3.27
X4.965Y-4.02
X5.3103Y-4.8365
X5.365Y-1.775
X5.365Y-2.525
X5.365Y-3.27
X5.365Y-4.02
X5.6897Y-4.9635
X6.0972Y-5.1589
X6.4228Y-5.3911
X6.9094Y-2.0402
X6.9094Y-2.4402
X7.436Y-5.3897
X7.7657Y-5.1632
X8.169Y-4.9649
X8.487Y-2.5245
X8.49Y-1.775
X8.49Y-3.27
X8.49Y-4.02
X8.5483Y-4.8379
X8.887Y-2.5245
X8.89Y-1.775
X8.89Y-3.27
X8.89Y-4.02
X9.0Y-4.77
X9.24Y-1.68
X9.24Y-2.43
X9.24Y-3.175
X9.24Y-3.925
X9.4Y-4.77
X9.64Y-1.68
X9.64Y-2.43
X9.64Y-3.175
X9.64Y-3.925
X9.99Y-1.495
X9.99Y-2.24
X9.99Y-2.99
X9.99Y-3.74
X10.39Y-1.495
X10.39Y-2.24
X10.39Y-2.99
X10.39Y-3.74
X10.735Y-1.68
X10.735Y-2.43
X10.735Y-3.175
X10.735Y-3.925
X11.135Y-1.68
X11.135Y-2.43
X11.135Y-3.175
X11.135Y-3.925
X11.485Y-1.965
X11.485Y-2.715
X11.485Y-3.465
X11.485Y-4.21
X11.885Y-1.965
X11.885Y-2.715
X11.885Y-3.465
X11.885Y-4.21
X12.23Y-1.965
X12.23Y-2.715
X12.235Y-3.465
X12.235Y-4.21
X12.63Y-1.965
X12.63Y-2.715
X12.635Y-3.465
X12.635Y-4.21
T12
X1.425Y-1.965
X1.425Y-2.715
X1.425Y-3.465
X1.425Y-4.215
X2.175Y-1.965
X2.175Y-2.715
X2.175Y-3.465
X2.175Y-4.215
X2.925Y-1.68
X2.925Y-2.43
X2.925Y-3.18
X2.925Y-3.93
X3.67Y-1.495
X3.67Y-2.24
X3.67Y-2.99
X3.67Y-3.74
X4.42Y-1.68
X4.42Y-2.43
X4.42Y-3.175
X4.421Y-3.926
X4.66Y-4.775
X5.165Y-1.775
X5.165Y-2.525
X5.165Y-3.27
X5.165Y-4.02
X5.5Y-4.9
X6.26Y-5.275
X6.9094Y-2.2402
X7.6009Y-5.2765
X8.3586Y-4.9014
X8.687Y-2.5245
X8.69Y-1.775
X8.69Y-3.27
X8.69Y-4.02
X9.2Y-4.77
X9.44Y-1.68
X9.44Y-2.43
X9.44Y-3.175
X9.44Y-3.925
X10.19Y-1.495
X10.19Y-2.24
X10.19Y-2.99
X10.19Y-3.74
X10.935Y-1.68
X10.935Y-2.43
X10.935Y-3.175
X10.935Y-3.925
X11.685Y-1.965
X11.685Y-2.715
X11.685Y-3.465
X11.685Y-4.21
X12.43Y-1.965
X12.43Y-2.715
X12.435Y-3.465
X12.435Y-4.21
T2
G00X5.7067Y-1.6183
M15
G01X5.7067Y-1.5868
M16
G05
G00X5.7067Y-1.7651
M15
G01X5.7067Y-1.706
M16
G05
G00X6.0473Y-1.6183
M15
G01X6.0473Y-1.5868
M16
G05
G00X6.0473Y-1.7651
M15
G01X6.0473Y-1.706
M16
G05
G00X6.0346Y-4.4502
M15
G01X6.0882Y-4.4253
M16
G05
G00X6.1677Y-4.3882
M15
G01X6.1963Y-4.3748
M16
G05
G00X6.1786Y-4.7589
M15
G01X6.2321Y-4.7339
M16
G05
G00X6.3117Y-4.6968
M15
G01X6.3402Y-4.6835
M16
G05
G00X7.5444Y-4.6968
M15
G01X7.5158Y-4.6835
M16
G05
G00X7.6775Y-4.7589
M15
G01X7.624Y-4.7339
M16
G05
G00X7.6883Y-4.3882
M15
G01X7.6598Y-4.3749
M16
G05
G00X7.8214Y-4.4502
M15
G01X7.7679Y-4.4253
M16
G05
T0
M30
