%TF.GenerationSoftware,KiCad,Pcbnew,5.1.10*%
%TF.CreationDate,2021-09-05T22:53:56-04:00*%
%TF.ProjectId,ursaminor_pcb,74727970-7472-4697-935f-7063622e6b69,rev?*%
%TF.SameCoordinates,Original*%
%TF.FileFunction,Soldermask,Top*%
%TF.FilePolarity,Negative*%
%FSLAX46Y46*%
G04 Gerber Fmt 4.6, Leading zero omitted, Abs format (unit mm)*
G04 Created by KiCad (PCBNEW 5.1.10) date 2021-09-05 22:53:56*
%MOMM*%
%LPD*%
G01*
G04 APERTURE LIST*
%ADD10C,0.010000*%
%ADD11C,1.200000*%
%ADD12C,1.700000*%
%ADD13C,2.000000*%
%ADD14C,1.750000*%
%ADD15C,2.250000*%
%ADD16C,3.987800*%
%ADD17C,0.650000*%
%ADD18R,1.905000X1.905000*%
%ADD19C,1.905000*%
%ADD20C,0.800000*%
%ADD21C,6.500000*%
%ADD22R,1.700000X1.000000*%
%ADD23C,0.500000*%
%ADD24O,0.900000X2.400000*%
%ADD25O,0.900000X1.700000*%
%ADD26R,1.400000X1.200000*%
%ADD27R,0.550000X1.500000*%
%ADD28R,1.500000X0.550000*%
G04 APERTURE END LIST*
D10*
%TO.C,G\u002A\u002A\u002A*%
G36*
X174763241Y-81373807D02*
G01*
X175020642Y-81039988D01*
X175201774Y-80903507D01*
X175578681Y-80755415D01*
X175989922Y-80730408D01*
X176390408Y-80818262D01*
X176735053Y-81008749D01*
X176978771Y-81291642D01*
X176987794Y-81308599D01*
X177107667Y-81637050D01*
X177162595Y-81993712D01*
X177140446Y-82295906D01*
X177135329Y-82314105D01*
X176971322Y-82635100D01*
X176707047Y-82930611D01*
X176399675Y-83142117D01*
X176280320Y-83189243D01*
X175819117Y-83245476D01*
X175383535Y-83136689D01*
X175045037Y-82915423D01*
X174771992Y-82574620D01*
X174635973Y-82178899D01*
X174634037Y-81766036D01*
X174763241Y-81373807D01*
G37*
X174763241Y-81373807D02*
X175020642Y-81039988D01*
X175201774Y-80903507D01*
X175578681Y-80755415D01*
X175989922Y-80730408D01*
X176390408Y-80818262D01*
X176735053Y-81008749D01*
X176978771Y-81291642D01*
X176987794Y-81308599D01*
X177107667Y-81637050D01*
X177162595Y-81993712D01*
X177140446Y-82295906D01*
X177135329Y-82314105D01*
X176971322Y-82635100D01*
X176707047Y-82930611D01*
X176399675Y-83142117D01*
X176280320Y-83189243D01*
X175819117Y-83245476D01*
X175383535Y-83136689D01*
X175045037Y-82915423D01*
X174771992Y-82574620D01*
X174635973Y-82178899D01*
X174634037Y-81766036D01*
X174763241Y-81373807D01*
G36*
X173821123Y-81598282D02*
G01*
X173981612Y-81075384D01*
X174007483Y-81022333D01*
X174167473Y-80734356D01*
X174331162Y-80520709D01*
X174543497Y-80336782D01*
X174849424Y-80137966D01*
X174971289Y-80065751D01*
X175210602Y-79933293D01*
X175398958Y-79863687D01*
X175602254Y-79844945D01*
X175886386Y-79865080D01*
X176004763Y-79877734D01*
X176603378Y-79997304D01*
X177083255Y-80221675D01*
X177471114Y-80568959D01*
X177793676Y-81057266D01*
X177820094Y-81108115D01*
X177921786Y-81391365D01*
X177991296Y-81742010D01*
X178016772Y-82080615D01*
X177996792Y-82292333D01*
X177778610Y-82909894D01*
X177451311Y-83402296D01*
X177007276Y-83779927D01*
X176829442Y-83883450D01*
X176425109Y-84021502D01*
X175944230Y-84073518D01*
X175892333Y-84069901D01*
X175892333Y-83955428D01*
X176461950Y-83877247D01*
X176967270Y-83649267D01*
X177363053Y-83307869D01*
X177641861Y-82945611D01*
X177799999Y-82604595D01*
X177861201Y-82217624D01*
X177859882Y-81901228D01*
X177824434Y-81524949D01*
X177740827Y-81231310D01*
X177584678Y-80935297D01*
X177581285Y-80929800D01*
X177224044Y-80502454D01*
X176766121Y-80187811D01*
X176246754Y-80011222D01*
X176132967Y-79993982D01*
X175877420Y-79971207D01*
X175741519Y-79989889D01*
X175678009Y-80062890D01*
X175658829Y-80123029D01*
X175571704Y-80278624D01*
X175434252Y-80272608D01*
X175313171Y-80177076D01*
X175160402Y-80132778D01*
X174944394Y-80206352D01*
X174695926Y-80374839D01*
X174445782Y-80615281D01*
X174224742Y-80904717D01*
X174138610Y-81053168D01*
X173946010Y-81587233D01*
X173906692Y-82119025D01*
X174006459Y-82625048D01*
X174231114Y-83081807D01*
X174566460Y-83465808D01*
X174998300Y-83753556D01*
X175512437Y-83921557D01*
X175892333Y-83955428D01*
X175892333Y-84069901D01*
X175456105Y-84039496D01*
X175030033Y-83919437D01*
X174955224Y-83883450D01*
X174577348Y-83621666D01*
X174235142Y-83273547D01*
X173978402Y-82894462D01*
X173895912Y-82705566D01*
X173791136Y-82163103D01*
X173821123Y-81598282D01*
G37*
X173821123Y-81598282D02*
X173981612Y-81075384D01*
X174007483Y-81022333D01*
X174167473Y-80734356D01*
X174331162Y-80520709D01*
X174543497Y-80336782D01*
X174849424Y-80137966D01*
X174971289Y-80065751D01*
X175210602Y-79933293D01*
X175398958Y-79863687D01*
X175602254Y-79844945D01*
X175886386Y-79865080D01*
X176004763Y-79877734D01*
X176603378Y-79997304D01*
X177083255Y-80221675D01*
X177471114Y-80568959D01*
X177793676Y-81057266D01*
X177820094Y-81108115D01*
X177921786Y-81391365D01*
X177991296Y-81742010D01*
X178016772Y-82080615D01*
X177996792Y-82292333D01*
X177778610Y-82909894D01*
X177451311Y-83402296D01*
X177007276Y-83779927D01*
X176829442Y-83883450D01*
X176425109Y-84021502D01*
X175944230Y-84073518D01*
X175892333Y-84069901D01*
X175892333Y-83955428D01*
X176461950Y-83877247D01*
X176967270Y-83649267D01*
X177363053Y-83307869D01*
X177641861Y-82945611D01*
X177799999Y-82604595D01*
X177861201Y-82217624D01*
X177859882Y-81901228D01*
X177824434Y-81524949D01*
X177740827Y-81231310D01*
X177584678Y-80935297D01*
X177581285Y-80929800D01*
X177224044Y-80502454D01*
X176766121Y-80187811D01*
X176246754Y-80011222D01*
X176132967Y-79993982D01*
X175877420Y-79971207D01*
X175741519Y-79989889D01*
X175678009Y-80062890D01*
X175658829Y-80123029D01*
X175571704Y-80278624D01*
X175434252Y-80272608D01*
X175313171Y-80177076D01*
X175160402Y-80132778D01*
X174944394Y-80206352D01*
X174695926Y-80374839D01*
X174445782Y-80615281D01*
X174224742Y-80904717D01*
X174138610Y-81053168D01*
X173946010Y-81587233D01*
X173906692Y-82119025D01*
X174006459Y-82625048D01*
X174231114Y-83081807D01*
X174566460Y-83465808D01*
X174998300Y-83753556D01*
X175512437Y-83921557D01*
X175892333Y-83955428D01*
X175892333Y-84069901D01*
X175456105Y-84039496D01*
X175030033Y-83919437D01*
X174955224Y-83883450D01*
X174577348Y-83621666D01*
X174235142Y-83273547D01*
X173978402Y-82894462D01*
X173895912Y-82705566D01*
X173791136Y-82163103D01*
X173821123Y-81598282D01*
G36*
X172803389Y-81572100D02*
G01*
X172807778Y-81538365D01*
X172979838Y-80857563D01*
X173288713Y-80254393D01*
X173714612Y-79742081D01*
X174237743Y-79333849D01*
X174838317Y-79042922D01*
X175496541Y-78882523D01*
X176192626Y-78865877D01*
X176687724Y-78945855D01*
X177323717Y-79181748D01*
X177881446Y-79553795D01*
X178344326Y-80040450D01*
X178695767Y-80620164D01*
X178919183Y-81271391D01*
X178997847Y-81946734D01*
X179017505Y-82314360D01*
X179065867Y-82553457D01*
X179111512Y-82629267D01*
X179253842Y-82839652D01*
X179259854Y-83094025D01*
X179189344Y-83247430D01*
X179011966Y-83394036D01*
X178853039Y-83435333D01*
X178649129Y-83509250D01*
X178522693Y-83678323D01*
X178319642Y-83960294D01*
X178008268Y-84266362D01*
X177637068Y-84556741D01*
X177254541Y-84791644D01*
X177052404Y-84884537D01*
X176470754Y-85036234D01*
X175892333Y-85075047D01*
X175892333Y-84959333D01*
X176616035Y-84885662D01*
X177256844Y-84664386D01*
X177815544Y-84295114D01*
X178292922Y-83777452D01*
X178311752Y-83751702D01*
X178452683Y-83543562D01*
X178500434Y-83410130D01*
X178467610Y-83293888D01*
X178426738Y-83227010D01*
X178352457Y-82983169D01*
X178413664Y-82746536D01*
X178588466Y-82575764D01*
X178683338Y-82539519D01*
X178805079Y-82494592D01*
X178869350Y-82408056D01*
X178894254Y-82234434D01*
X178898000Y-82000277D01*
X178874338Y-81636516D01*
X178814254Y-81262327D01*
X178774794Y-81105532D01*
X178511032Y-80508026D01*
X178114245Y-79977512D01*
X177612886Y-79535285D01*
X177035404Y-79202640D01*
X176410248Y-79000873D01*
X175892333Y-78948000D01*
X175256259Y-79028379D01*
X174643404Y-79254875D01*
X174081776Y-79605531D01*
X173599382Y-80058388D01*
X173224230Y-80591485D01*
X172984326Y-81182865D01*
X172970097Y-81239150D01*
X172893050Y-81909916D01*
X172969315Y-82587516D01*
X173188022Y-83237336D01*
X173538300Y-83824767D01*
X173909350Y-84229597D01*
X174445574Y-84617076D01*
X175036740Y-84855916D01*
X175707622Y-84955235D01*
X175892333Y-84959333D01*
X175892333Y-85075047D01*
X175827228Y-85079416D01*
X175189911Y-85014127D01*
X174728449Y-84883110D01*
X174126128Y-84561170D01*
X173617524Y-84114403D01*
X173216792Y-83567461D01*
X172938088Y-82944995D01*
X172795569Y-82271658D01*
X172803389Y-81572100D01*
G37*
X172803389Y-81572100D02*
X172807778Y-81538365D01*
X172979838Y-80857563D01*
X173288713Y-80254393D01*
X173714612Y-79742081D01*
X174237743Y-79333849D01*
X174838317Y-79042922D01*
X175496541Y-78882523D01*
X176192626Y-78865877D01*
X176687724Y-78945855D01*
X177323717Y-79181748D01*
X177881446Y-79553795D01*
X178344326Y-80040450D01*
X178695767Y-80620164D01*
X178919183Y-81271391D01*
X178997847Y-81946734D01*
X179017505Y-82314360D01*
X179065867Y-82553457D01*
X179111512Y-82629267D01*
X179253842Y-82839652D01*
X179259854Y-83094025D01*
X179189344Y-83247430D01*
X179011966Y-83394036D01*
X178853039Y-83435333D01*
X178649129Y-83509250D01*
X178522693Y-83678323D01*
X178319642Y-83960294D01*
X178008268Y-84266362D01*
X177637068Y-84556741D01*
X177254541Y-84791644D01*
X177052404Y-84884537D01*
X176470754Y-85036234D01*
X175892333Y-85075047D01*
X175892333Y-84959333D01*
X176616035Y-84885662D01*
X177256844Y-84664386D01*
X177815544Y-84295114D01*
X178292922Y-83777452D01*
X178311752Y-83751702D01*
X178452683Y-83543562D01*
X178500434Y-83410130D01*
X178467610Y-83293888D01*
X178426738Y-83227010D01*
X178352457Y-82983169D01*
X178413664Y-82746536D01*
X178588466Y-82575764D01*
X178683338Y-82539519D01*
X178805079Y-82494592D01*
X178869350Y-82408056D01*
X178894254Y-82234434D01*
X178898000Y-82000277D01*
X178874338Y-81636516D01*
X178814254Y-81262327D01*
X178774794Y-81105532D01*
X178511032Y-80508026D01*
X178114245Y-79977512D01*
X177612886Y-79535285D01*
X177035404Y-79202640D01*
X176410248Y-79000873D01*
X175892333Y-78948000D01*
X175256259Y-79028379D01*
X174643404Y-79254875D01*
X174081776Y-79605531D01*
X173599382Y-80058388D01*
X173224230Y-80591485D01*
X172984326Y-81182865D01*
X172970097Y-81239150D01*
X172893050Y-81909916D01*
X172969315Y-82587516D01*
X173188022Y-83237336D01*
X173538300Y-83824767D01*
X173909350Y-84229597D01*
X174445574Y-84617076D01*
X175036740Y-84855916D01*
X175707622Y-84955235D01*
X175892333Y-84959333D01*
X175892333Y-85075047D01*
X175827228Y-85079416D01*
X175189911Y-85014127D01*
X174728449Y-84883110D01*
X174126128Y-84561170D01*
X173617524Y-84114403D01*
X173216792Y-83567461D01*
X172938088Y-82944995D01*
X172795569Y-82271658D01*
X172803389Y-81572100D01*
G36*
X176411770Y-77425036D02*
G01*
X176507910Y-77355498D01*
X176548544Y-77360475D01*
X176657337Y-77465304D01*
X176676342Y-77619689D01*
X176609310Y-77721995D01*
X176472198Y-77725746D01*
X176424047Y-77693247D01*
X176374484Y-77562563D01*
X176411770Y-77425036D01*
G37*
X176411770Y-77425036D02*
X176507910Y-77355498D01*
X176548544Y-77360475D01*
X176657337Y-77465304D01*
X176676342Y-77619689D01*
X176609310Y-77721995D01*
X176472198Y-77725746D01*
X176424047Y-77693247D01*
X176374484Y-77562563D01*
X176411770Y-77425036D01*
G36*
X171860763Y-80916771D02*
G01*
X172145798Y-80163320D01*
X172581576Y-79465987D01*
X172935337Y-79059036D01*
X173463124Y-78596593D01*
X174041035Y-78249072D01*
X174077987Y-78231156D01*
X174382690Y-78091487D01*
X174636673Y-77986646D01*
X174795490Y-77934644D01*
X174816130Y-77932000D01*
X174936803Y-77874378D01*
X175116160Y-77727746D01*
X175218653Y-77625978D01*
X175414344Y-77439755D01*
X175566123Y-77364134D01*
X175729427Y-77372592D01*
X175742134Y-77375509D01*
X175972913Y-77482549D01*
X176146333Y-77628912D01*
X176402799Y-77804061D01*
X176706258Y-77882833D01*
X177209407Y-78014656D01*
X177754082Y-78257460D01*
X178286489Y-78582266D01*
X178752835Y-78960099D01*
X178810625Y-79016412D01*
X179345204Y-79666111D01*
X179735673Y-80392535D01*
X179975689Y-81175233D01*
X180058909Y-81993752D01*
X179984249Y-82800333D01*
X179806101Y-83398546D01*
X179509955Y-84011002D01*
X179129213Y-84576098D01*
X178851540Y-84889480D01*
X178213028Y-85418777D01*
X177525104Y-85798420D01*
X176805320Y-86034283D01*
X176071231Y-86132240D01*
X175964256Y-86127253D01*
X175964256Y-86024871D01*
X176717625Y-85941194D01*
X177445926Y-85711648D01*
X178127417Y-85336045D01*
X178601796Y-84951722D01*
X179159716Y-84335158D01*
X179557265Y-83685327D01*
X179802768Y-82983672D01*
X179904546Y-82211634D01*
X179908441Y-82038333D01*
X179895177Y-81646084D01*
X179856953Y-81256077D01*
X179801877Y-80949663D01*
X179798738Y-80937666D01*
X179509161Y-80168046D01*
X179083065Y-79490281D01*
X178532912Y-78915738D01*
X177871163Y-78455783D01*
X177110282Y-78121781D01*
X176548926Y-77973661D01*
X176351794Y-77953282D01*
X176247118Y-78019162D01*
X176190793Y-78138074D01*
X176031828Y-78362163D01*
X175796953Y-78483880D01*
X175536751Y-78499190D01*
X175301810Y-78404054D01*
X175153838Y-78220822D01*
X175076354Y-78102077D01*
X174963646Y-78050705D01*
X174788718Y-78070520D01*
X174524570Y-78165338D01*
X174144205Y-78338975D01*
X174072000Y-78373726D01*
X173435701Y-78771063D01*
X172872196Y-79302159D01*
X172410423Y-79937215D01*
X172236568Y-80263544D01*
X172085242Y-80601029D01*
X171989011Y-80882239D01*
X171932323Y-81173013D01*
X171899629Y-81539191D01*
X171889158Y-81734486D01*
X171908880Y-82553146D01*
X172058713Y-83277485D01*
X172348393Y-83932277D01*
X172787655Y-84542293D01*
X173134929Y-84904635D01*
X173771155Y-85402561D01*
X174469279Y-85755367D01*
X175207560Y-85962866D01*
X175964256Y-86024871D01*
X175964256Y-86127253D01*
X175340389Y-86098168D01*
X174630347Y-85937940D01*
X173958659Y-85657432D01*
X173342877Y-85262518D01*
X172800554Y-84759074D01*
X172349245Y-84152973D01*
X172006501Y-83450091D01*
X171789876Y-82656303D01*
X171767705Y-82518600D01*
X171732667Y-81707984D01*
X171860763Y-80916771D01*
G37*
X171860763Y-80916771D02*
X172145798Y-80163320D01*
X172581576Y-79465987D01*
X172935337Y-79059036D01*
X173463124Y-78596593D01*
X174041035Y-78249072D01*
X174077987Y-78231156D01*
X174382690Y-78091487D01*
X174636673Y-77986646D01*
X174795490Y-77934644D01*
X174816130Y-77932000D01*
X174936803Y-77874378D01*
X175116160Y-77727746D01*
X175218653Y-77625978D01*
X175414344Y-77439755D01*
X175566123Y-77364134D01*
X175729427Y-77372592D01*
X175742134Y-77375509D01*
X175972913Y-77482549D01*
X176146333Y-77628912D01*
X176402799Y-77804061D01*
X176706258Y-77882833D01*
X177209407Y-78014656D01*
X177754082Y-78257460D01*
X178286489Y-78582266D01*
X178752835Y-78960099D01*
X178810625Y-79016412D01*
X179345204Y-79666111D01*
X179735673Y-80392535D01*
X179975689Y-81175233D01*
X180058909Y-81993752D01*
X179984249Y-82800333D01*
X179806101Y-83398546D01*
X179509955Y-84011002D01*
X179129213Y-84576098D01*
X178851540Y-84889480D01*
X178213028Y-85418777D01*
X177525104Y-85798420D01*
X176805320Y-86034283D01*
X176071231Y-86132240D01*
X175964256Y-86127253D01*
X175964256Y-86024871D01*
X176717625Y-85941194D01*
X177445926Y-85711648D01*
X178127417Y-85336045D01*
X178601796Y-84951722D01*
X179159716Y-84335158D01*
X179557265Y-83685327D01*
X179802768Y-82983672D01*
X179904546Y-82211634D01*
X179908441Y-82038333D01*
X179895177Y-81646084D01*
X179856953Y-81256077D01*
X179801877Y-80949663D01*
X179798738Y-80937666D01*
X179509161Y-80168046D01*
X179083065Y-79490281D01*
X178532912Y-78915738D01*
X177871163Y-78455783D01*
X177110282Y-78121781D01*
X176548926Y-77973661D01*
X176351794Y-77953282D01*
X176247118Y-78019162D01*
X176190793Y-78138074D01*
X176031828Y-78362163D01*
X175796953Y-78483880D01*
X175536751Y-78499190D01*
X175301810Y-78404054D01*
X175153838Y-78220822D01*
X175076354Y-78102077D01*
X174963646Y-78050705D01*
X174788718Y-78070520D01*
X174524570Y-78165338D01*
X174144205Y-78338975D01*
X174072000Y-78373726D01*
X173435701Y-78771063D01*
X172872196Y-79302159D01*
X172410423Y-79937215D01*
X172236568Y-80263544D01*
X172085242Y-80601029D01*
X171989011Y-80882239D01*
X171932323Y-81173013D01*
X171899629Y-81539191D01*
X171889158Y-81734486D01*
X171908880Y-82553146D01*
X172058713Y-83277485D01*
X172348393Y-83932277D01*
X172787655Y-84542293D01*
X173134929Y-84904635D01*
X173771155Y-85402561D01*
X174469279Y-85755367D01*
X175207560Y-85962866D01*
X175964256Y-86024871D01*
X175964256Y-86127253D01*
X175340389Y-86098168D01*
X174630347Y-85937940D01*
X173958659Y-85657432D01*
X173342877Y-85262518D01*
X172800554Y-84759074D01*
X172349245Y-84152973D01*
X172006501Y-83450091D01*
X171789876Y-82656303D01*
X171767705Y-82518600D01*
X171732667Y-81707984D01*
X171860763Y-80916771D01*
G36*
X171974302Y-77838175D02*
G01*
X171997666Y-77834633D01*
X172096941Y-77900548D01*
X172108438Y-77925650D01*
X172067568Y-78002852D01*
X171997666Y-78016666D01*
X171892293Y-77973707D01*
X171886894Y-77925650D01*
X171974302Y-77838175D01*
G37*
X171974302Y-77838175D02*
X171997666Y-77834633D01*
X172096941Y-77900548D01*
X172108438Y-77925650D01*
X172067568Y-78002852D01*
X171997666Y-78016666D01*
X171892293Y-77973707D01*
X171886894Y-77925650D01*
X171974302Y-77838175D01*
G36*
X172397636Y-77753509D02*
G01*
X172421000Y-77749966D01*
X172520274Y-77815881D01*
X172531772Y-77840983D01*
X172490901Y-77918186D01*
X172421000Y-77932000D01*
X172315626Y-77889040D01*
X172310227Y-77840983D01*
X172397636Y-77753509D01*
G37*
X172397636Y-77753509D02*
X172421000Y-77749966D01*
X172520274Y-77815881D01*
X172531772Y-77840983D01*
X172490901Y-77918186D01*
X172421000Y-77932000D01*
X172315626Y-77889040D01*
X172310227Y-77840983D01*
X172397636Y-77753509D01*
G36*
X170908924Y-81016214D02*
G01*
X171145667Y-80143210D01*
X171539751Y-79328857D01*
X171590213Y-79246693D01*
X171782332Y-78897141D01*
X171877339Y-78623512D01*
X171884086Y-78520269D01*
X171925143Y-78287211D01*
X172076373Y-78143048D01*
X172296612Y-78126572D01*
X172300737Y-78127627D01*
X172503404Y-78101827D01*
X172787426Y-77936317D01*
X172846862Y-77892127D01*
X173479794Y-77491257D01*
X174201032Y-77173385D01*
X174622333Y-77043165D01*
X175111176Y-76957615D01*
X175693006Y-76918762D01*
X176298031Y-76926637D01*
X176856464Y-76981267D01*
X177162333Y-77042103D01*
X177957301Y-77329295D01*
X178715846Y-77761047D01*
X179403905Y-78312604D01*
X179987420Y-78959210D01*
X180183127Y-79237694D01*
X180521102Y-79883140D01*
X180774294Y-80623130D01*
X180931038Y-81403585D01*
X180979671Y-82170424D01*
X180935106Y-82723955D01*
X180834159Y-83221825D01*
X180685251Y-83683811D01*
X180463684Y-84181515D01*
X180365476Y-84375323D01*
X179887837Y-85124368D01*
X179304718Y-85755458D01*
X178634832Y-86265748D01*
X177896892Y-86652394D01*
X177109608Y-86912550D01*
X176291695Y-87043370D01*
X176093655Y-87043046D01*
X176093655Y-86942962D01*
X176933499Y-86825827D01*
X177754044Y-86568080D01*
X178524578Y-86181418D01*
X179214389Y-85677541D01*
X179655256Y-85235584D01*
X179961664Y-84819129D01*
X180261245Y-84304272D01*
X180518807Y-83759347D01*
X180699160Y-83252688D01*
X180722626Y-83162962D01*
X180802302Y-82665857D01*
X180833235Y-82083595D01*
X180815759Y-81489249D01*
X180750205Y-80955893D01*
X180711772Y-80780554D01*
X180414475Y-79949559D01*
X179975845Y-79185583D01*
X179414691Y-78507207D01*
X178749822Y-77933012D01*
X178000045Y-77481578D01*
X177184170Y-77171487D01*
X177014468Y-77128006D01*
X176150063Y-77008762D01*
X175269444Y-77046300D01*
X174408701Y-77236350D01*
X173711297Y-77518809D01*
X173175174Y-77818655D01*
X172798136Y-78098226D01*
X172583240Y-78354960D01*
X172532179Y-78506380D01*
X172463797Y-78692898D01*
X172282643Y-78801223D01*
X172240732Y-78814463D01*
X171995767Y-78963821D01*
X171740790Y-79258588D01*
X171490746Y-79676691D01*
X171260581Y-80196055D01*
X171207365Y-80340634D01*
X171048518Y-80951511D01*
X170961582Y-81644064D01*
X170951885Y-82344279D01*
X171019457Y-82951195D01*
X171158296Y-83447396D01*
X171382909Y-84001552D01*
X171662355Y-84549913D01*
X171965689Y-85028725D01*
X172128234Y-85235584D01*
X172726940Y-85804667D01*
X173440668Y-86280966D01*
X174231426Y-86644231D01*
X175061223Y-86874210D01*
X175265224Y-86907786D01*
X176093655Y-86942962D01*
X176093655Y-87043046D01*
X175461863Y-87042011D01*
X174638825Y-86905628D01*
X173841294Y-86631374D01*
X173087981Y-86216405D01*
X172397600Y-85657876D01*
X172335008Y-85596286D01*
X171725333Y-84882731D01*
X171276128Y-84119441D01*
X170983258Y-83296424D01*
X170842589Y-82403688D01*
X170827890Y-81953666D01*
X170908924Y-81016214D01*
G37*
X170908924Y-81016214D02*
X171145667Y-80143210D01*
X171539751Y-79328857D01*
X171590213Y-79246693D01*
X171782332Y-78897141D01*
X171877339Y-78623512D01*
X171884086Y-78520269D01*
X171925143Y-78287211D01*
X172076373Y-78143048D01*
X172296612Y-78126572D01*
X172300737Y-78127627D01*
X172503404Y-78101827D01*
X172787426Y-77936317D01*
X172846862Y-77892127D01*
X173479794Y-77491257D01*
X174201032Y-77173385D01*
X174622333Y-77043165D01*
X175111176Y-76957615D01*
X175693006Y-76918762D01*
X176298031Y-76926637D01*
X176856464Y-76981267D01*
X177162333Y-77042103D01*
X177957301Y-77329295D01*
X178715846Y-77761047D01*
X179403905Y-78312604D01*
X179987420Y-78959210D01*
X180183127Y-79237694D01*
X180521102Y-79883140D01*
X180774294Y-80623130D01*
X180931038Y-81403585D01*
X180979671Y-82170424D01*
X180935106Y-82723955D01*
X180834159Y-83221825D01*
X180685251Y-83683811D01*
X180463684Y-84181515D01*
X180365476Y-84375323D01*
X179887837Y-85124368D01*
X179304718Y-85755458D01*
X178634832Y-86265748D01*
X177896892Y-86652394D01*
X177109608Y-86912550D01*
X176291695Y-87043370D01*
X176093655Y-87043046D01*
X176093655Y-86942962D01*
X176933499Y-86825827D01*
X177754044Y-86568080D01*
X178524578Y-86181418D01*
X179214389Y-85677541D01*
X179655256Y-85235584D01*
X179961664Y-84819129D01*
X180261245Y-84304272D01*
X180518807Y-83759347D01*
X180699160Y-83252688D01*
X180722626Y-83162962D01*
X180802302Y-82665857D01*
X180833235Y-82083595D01*
X180815759Y-81489249D01*
X180750205Y-80955893D01*
X180711772Y-80780554D01*
X180414475Y-79949559D01*
X179975845Y-79185583D01*
X179414691Y-78507207D01*
X178749822Y-77933012D01*
X178000045Y-77481578D01*
X177184170Y-77171487D01*
X177014468Y-77128006D01*
X176150063Y-77008762D01*
X175269444Y-77046300D01*
X174408701Y-77236350D01*
X173711297Y-77518809D01*
X173175174Y-77818655D01*
X172798136Y-78098226D01*
X172583240Y-78354960D01*
X172532179Y-78506380D01*
X172463797Y-78692898D01*
X172282643Y-78801223D01*
X172240732Y-78814463D01*
X171995767Y-78963821D01*
X171740790Y-79258588D01*
X171490746Y-79676691D01*
X171260581Y-80196055D01*
X171207365Y-80340634D01*
X171048518Y-80951511D01*
X170961582Y-81644064D01*
X170951885Y-82344279D01*
X171019457Y-82951195D01*
X171158296Y-83447396D01*
X171382909Y-84001552D01*
X171662355Y-84549913D01*
X171965689Y-85028725D01*
X172128234Y-85235584D01*
X172726940Y-85804667D01*
X173440668Y-86280966D01*
X174231426Y-86644231D01*
X175061223Y-86874210D01*
X175265224Y-86907786D01*
X176093655Y-86942962D01*
X176093655Y-87043046D01*
X175461863Y-87042011D01*
X174638825Y-86905628D01*
X173841294Y-86631374D01*
X173087981Y-86216405D01*
X172397600Y-85657876D01*
X172335008Y-85596286D01*
X171725333Y-84882731D01*
X171276128Y-84119441D01*
X170983258Y-83296424D01*
X170842589Y-82403688D01*
X170827890Y-81953666D01*
X170908924Y-81016214D01*
G36*
X182833996Y-85396335D02*
G01*
X182853022Y-85373110D01*
X182986533Y-85325707D01*
X183104550Y-85387460D01*
X183131333Y-85467333D01*
X183069659Y-85575922D01*
X183039289Y-85598893D01*
X182910166Y-85608783D01*
X182823536Y-85519204D01*
X182833996Y-85396335D01*
G37*
X182833996Y-85396335D02*
X182853022Y-85373110D01*
X182986533Y-85325707D01*
X183104550Y-85387460D01*
X183131333Y-85467333D01*
X183069659Y-85575922D01*
X183039289Y-85598893D01*
X182910166Y-85608783D01*
X182823536Y-85519204D01*
X182833996Y-85396335D01*
G36*
X167366439Y-87429418D02*
G01*
X167425666Y-87414666D01*
X167542275Y-87466240D01*
X167521256Y-87583335D01*
X167496222Y-87612222D01*
X167372298Y-87666153D01*
X167301506Y-87578031D01*
X167298666Y-87541666D01*
X167366439Y-87429418D01*
G37*
X167366439Y-87429418D02*
X167425666Y-87414666D01*
X167542275Y-87466240D01*
X167521256Y-87583335D01*
X167496222Y-87612222D01*
X167372298Y-87666153D01*
X167301506Y-87578031D01*
X167298666Y-87541666D01*
X167366439Y-87429418D01*
G36*
X168018010Y-88025763D02*
G01*
X168129458Y-87942069D01*
X168215824Y-87978918D01*
X168230000Y-88042611D01*
X168161830Y-88159243D01*
X168095944Y-88176666D01*
X168003226Y-88127313D01*
X168018010Y-88025763D01*
G37*
X168018010Y-88025763D02*
X168129458Y-87942069D01*
X168215824Y-87978918D01*
X168230000Y-88042611D01*
X168161830Y-88159243D01*
X168095944Y-88176666D01*
X168003226Y-88127313D01*
X168018010Y-88025763D01*
G36*
X168314666Y-88811666D02*
G01*
X168455029Y-88805513D01*
X168498754Y-88834888D01*
X168529139Y-88938677D01*
X168484000Y-88981000D01*
X168343637Y-88987154D01*
X168299912Y-88957779D01*
X168269527Y-88853989D01*
X168314666Y-88811666D01*
G37*
X168314666Y-88811666D02*
X168455029Y-88805513D01*
X168498754Y-88834888D01*
X168529139Y-88938677D01*
X168484000Y-88981000D01*
X168343637Y-88987154D01*
X168299912Y-88957779D01*
X168269527Y-88853989D01*
X168314666Y-88811666D01*
G36*
X182820888Y-88543555D02*
G01*
X182871223Y-88555178D01*
X182877333Y-88600000D01*
X182846355Y-88669690D01*
X182820888Y-88656444D01*
X182810755Y-88555965D01*
X182820888Y-88543555D01*
G37*
X182820888Y-88543555D02*
X182871223Y-88555178D01*
X182877333Y-88600000D01*
X182846355Y-88669690D01*
X182820888Y-88656444D01*
X182810755Y-88555965D01*
X182820888Y-88543555D01*
G36*
X183622549Y-88021448D02*
G01*
X183681666Y-88007333D01*
X183788166Y-88070471D01*
X183802933Y-88203975D01*
X183754524Y-88287254D01*
X183650926Y-88306944D01*
X183568736Y-88210069D01*
X183554666Y-88129336D01*
X183622549Y-88021448D01*
G37*
X183622549Y-88021448D02*
X183681666Y-88007333D01*
X183788166Y-88070471D01*
X183802933Y-88203975D01*
X183754524Y-88287254D01*
X183650926Y-88306944D01*
X183568736Y-88210069D01*
X183554666Y-88129336D01*
X183622549Y-88021448D01*
G36*
X183783868Y-86087829D02*
G01*
X183893333Y-86060000D01*
X184034837Y-86119868D01*
X184062666Y-86229333D01*
X184002798Y-86370837D01*
X183893333Y-86398666D01*
X183751829Y-86338798D01*
X183724000Y-86229333D01*
X183783868Y-86087829D01*
G37*
X183783868Y-86087829D02*
X183893333Y-86060000D01*
X184034837Y-86119868D01*
X184062666Y-86229333D01*
X184002798Y-86370837D01*
X183893333Y-86398666D01*
X183751829Y-86338798D01*
X183724000Y-86229333D01*
X183783868Y-86087829D01*
G36*
X167424520Y-81278073D02*
G01*
X167492851Y-80589055D01*
X167596956Y-79986397D01*
X167631274Y-79844753D01*
X168013902Y-78707020D01*
X168539495Y-77652306D01*
X169198449Y-76690169D01*
X169981162Y-75830165D01*
X170878029Y-75081852D01*
X171879446Y-74454787D01*
X172975811Y-73958529D01*
X173818000Y-73687744D01*
X174379562Y-73576060D01*
X175050015Y-73505894D01*
X175777661Y-73477375D01*
X176510803Y-73490631D01*
X177197744Y-73545791D01*
X177786786Y-73642982D01*
X177926401Y-73677546D01*
X179106825Y-74079988D01*
X180190875Y-74617133D01*
X181171056Y-75281564D01*
X182039875Y-76065861D01*
X182789836Y-76962608D01*
X183413445Y-77964383D01*
X183903207Y-79063770D01*
X184148884Y-79837000D01*
X184268012Y-80424633D01*
X184345166Y-81117681D01*
X184379029Y-81859711D01*
X184368283Y-82594295D01*
X184311611Y-83265001D01*
X184238812Y-83689333D01*
X184004754Y-84580820D01*
X183729218Y-85342922D01*
X183535734Y-85759497D01*
X183326036Y-86172115D01*
X183598975Y-86411758D01*
X183786587Y-86626896D01*
X183909951Y-86860230D01*
X183923893Y-86911299D01*
X183915670Y-87256475D01*
X183780337Y-87593704D01*
X183548015Y-87856130D01*
X183477151Y-87902880D01*
X183276236Y-88077940D01*
X183189245Y-88260795D01*
X183160938Y-88408575D01*
X183131277Y-88395288D01*
X183091070Y-88282500D01*
X183005372Y-88134835D01*
X182929704Y-88092000D01*
X182799430Y-88054474D01*
X182589944Y-87960470D01*
X182509424Y-87918846D01*
X182186357Y-87745692D01*
X181614625Y-88285034D01*
X180746383Y-88990166D01*
X179781980Y-89568019D01*
X178742769Y-90013233D01*
X177650104Y-90320448D01*
X176525337Y-90484303D01*
X175892333Y-90492740D01*
X175892333Y-90325103D01*
X176627415Y-90313831D01*
X177238900Y-90273761D01*
X177771405Y-90195512D01*
X178269550Y-90069701D01*
X178777952Y-89886949D01*
X179341232Y-89637872D01*
X179483716Y-89569988D01*
X180157886Y-89218392D01*
X180732675Y-88851272D01*
X181275270Y-88422631D01*
X181631347Y-88099797D01*
X181874893Y-87865061D01*
X182016747Y-87702739D01*
X182079615Y-87570358D01*
X182086204Y-87425445D01*
X182067906Y-87283214D01*
X182066523Y-86909054D01*
X182151158Y-86665251D01*
X182338522Y-86427937D01*
X182600213Y-86239859D01*
X182867924Y-86147544D01*
X182915462Y-86144666D01*
X183030389Y-86078745D01*
X183046666Y-86017666D01*
X183096071Y-85903911D01*
X183190389Y-85916364D01*
X183234309Y-85987929D01*
X183280326Y-85974696D01*
X183368461Y-85832198D01*
X183485500Y-85591209D01*
X183618229Y-85282500D01*
X183753434Y-84936846D01*
X183877901Y-84585019D01*
X183978415Y-84257792D01*
X183980496Y-84250230D01*
X184217517Y-83139884D01*
X184304516Y-82065060D01*
X184244191Y-80988132D01*
X184225035Y-80841451D01*
X183983469Y-79707688D01*
X183584999Y-78610600D01*
X183041582Y-77574165D01*
X182365170Y-76622360D01*
X181822831Y-76023168D01*
X180938891Y-75253199D01*
X179981282Y-74627360D01*
X178965219Y-74145653D01*
X177905916Y-73808076D01*
X176818587Y-73614631D01*
X175718445Y-73565316D01*
X174620705Y-73660133D01*
X173540580Y-73899081D01*
X172493284Y-74282159D01*
X171494032Y-74809369D01*
X170558037Y-75480709D01*
X169961835Y-76023168D01*
X169192595Y-76905838D01*
X168566702Y-77861790D01*
X168084019Y-78875807D01*
X167744412Y-79932674D01*
X167547746Y-81017175D01*
X167493886Y-82114093D01*
X167582696Y-83208214D01*
X167814042Y-84284320D01*
X168187788Y-85327197D01*
X168703799Y-86321627D01*
X169361941Y-87252396D01*
X170068294Y-88016034D01*
X170543687Y-88453211D01*
X170967402Y-88797406D01*
X171394643Y-89086976D01*
X171880612Y-89360281D01*
X172313117Y-89575870D01*
X172892224Y-89839835D01*
X173407845Y-90035724D01*
X173904443Y-90172842D01*
X174426481Y-90260499D01*
X175018421Y-90308000D01*
X175724726Y-90324654D01*
X175892333Y-90325103D01*
X175892333Y-90492740D01*
X175389823Y-90499439D01*
X174264914Y-90360495D01*
X173784315Y-90250611D01*
X172649858Y-89868443D01*
X171598017Y-89344392D01*
X170638791Y-88689548D01*
X169782177Y-87915000D01*
X169038175Y-87031839D01*
X168416783Y-86051152D01*
X167928000Y-84984032D01*
X167581824Y-83841565D01*
X167464674Y-83241402D01*
X167407381Y-82666436D01*
X167395013Y-81991263D01*
X167424520Y-81278073D01*
G37*
X167424520Y-81278073D02*
X167492851Y-80589055D01*
X167596956Y-79986397D01*
X167631274Y-79844753D01*
X168013902Y-78707020D01*
X168539495Y-77652306D01*
X169198449Y-76690169D01*
X169981162Y-75830165D01*
X170878029Y-75081852D01*
X171879446Y-74454787D01*
X172975811Y-73958529D01*
X173818000Y-73687744D01*
X174379562Y-73576060D01*
X175050015Y-73505894D01*
X175777661Y-73477375D01*
X176510803Y-73490631D01*
X177197744Y-73545791D01*
X177786786Y-73642982D01*
X177926401Y-73677546D01*
X179106825Y-74079988D01*
X180190875Y-74617133D01*
X181171056Y-75281564D01*
X182039875Y-76065861D01*
X182789836Y-76962608D01*
X183413445Y-77964383D01*
X183903207Y-79063770D01*
X184148884Y-79837000D01*
X184268012Y-80424633D01*
X184345166Y-81117681D01*
X184379029Y-81859711D01*
X184368283Y-82594295D01*
X184311611Y-83265001D01*
X184238812Y-83689333D01*
X184004754Y-84580820D01*
X183729218Y-85342922D01*
X183535734Y-85759497D01*
X183326036Y-86172115D01*
X183598975Y-86411758D01*
X183786587Y-86626896D01*
X183909951Y-86860230D01*
X183923893Y-86911299D01*
X183915670Y-87256475D01*
X183780337Y-87593704D01*
X183548015Y-87856130D01*
X183477151Y-87902880D01*
X183276236Y-88077940D01*
X183189245Y-88260795D01*
X183160938Y-88408575D01*
X183131277Y-88395288D01*
X183091070Y-88282500D01*
X183005372Y-88134835D01*
X182929704Y-88092000D01*
X182799430Y-88054474D01*
X182589944Y-87960470D01*
X182509424Y-87918846D01*
X182186357Y-87745692D01*
X181614625Y-88285034D01*
X180746383Y-88990166D01*
X179781980Y-89568019D01*
X178742769Y-90013233D01*
X177650104Y-90320448D01*
X176525337Y-90484303D01*
X175892333Y-90492740D01*
X175892333Y-90325103D01*
X176627415Y-90313831D01*
X177238900Y-90273761D01*
X177771405Y-90195512D01*
X178269550Y-90069701D01*
X178777952Y-89886949D01*
X179341232Y-89637872D01*
X179483716Y-89569988D01*
X180157886Y-89218392D01*
X180732675Y-88851272D01*
X181275270Y-88422631D01*
X181631347Y-88099797D01*
X181874893Y-87865061D01*
X182016747Y-87702739D01*
X182079615Y-87570358D01*
X182086204Y-87425445D01*
X182067906Y-87283214D01*
X182066523Y-86909054D01*
X182151158Y-86665251D01*
X182338522Y-86427937D01*
X182600213Y-86239859D01*
X182867924Y-86147544D01*
X182915462Y-86144666D01*
X183030389Y-86078745D01*
X183046666Y-86017666D01*
X183096071Y-85903911D01*
X183190389Y-85916364D01*
X183234309Y-85987929D01*
X183280326Y-85974696D01*
X183368461Y-85832198D01*
X183485500Y-85591209D01*
X183618229Y-85282500D01*
X183753434Y-84936846D01*
X183877901Y-84585019D01*
X183978415Y-84257792D01*
X183980496Y-84250230D01*
X184217517Y-83139884D01*
X184304516Y-82065060D01*
X184244191Y-80988132D01*
X184225035Y-80841451D01*
X183983469Y-79707688D01*
X183584999Y-78610600D01*
X183041582Y-77574165D01*
X182365170Y-76622360D01*
X181822831Y-76023168D01*
X180938891Y-75253199D01*
X179981282Y-74627360D01*
X178965219Y-74145653D01*
X177905916Y-73808076D01*
X176818587Y-73614631D01*
X175718445Y-73565316D01*
X174620705Y-73660133D01*
X173540580Y-73899081D01*
X172493284Y-74282159D01*
X171494032Y-74809369D01*
X170558037Y-75480709D01*
X169961835Y-76023168D01*
X169192595Y-76905838D01*
X168566702Y-77861790D01*
X168084019Y-78875807D01*
X167744412Y-79932674D01*
X167547746Y-81017175D01*
X167493886Y-82114093D01*
X167582696Y-83208214D01*
X167814042Y-84284320D01*
X168187788Y-85327197D01*
X168703799Y-86321627D01*
X169361941Y-87252396D01*
X170068294Y-88016034D01*
X170543687Y-88453211D01*
X170967402Y-88797406D01*
X171394643Y-89086976D01*
X171880612Y-89360281D01*
X172313117Y-89575870D01*
X172892224Y-89839835D01*
X173407845Y-90035724D01*
X173904443Y-90172842D01*
X174426481Y-90260499D01*
X175018421Y-90308000D01*
X175724726Y-90324654D01*
X175892333Y-90325103D01*
X175892333Y-90492740D01*
X175389823Y-90499439D01*
X174264914Y-90360495D01*
X173784315Y-90250611D01*
X172649858Y-89868443D01*
X171598017Y-89344392D01*
X170638791Y-88689548D01*
X169782177Y-87915000D01*
X169038175Y-87031839D01*
X168416783Y-86051152D01*
X167928000Y-84984032D01*
X167581824Y-83841565D01*
X167464674Y-83241402D01*
X167407381Y-82666436D01*
X167395013Y-81991263D01*
X167424520Y-81278073D01*
G36*
X184215106Y-87090751D02*
G01*
X184274333Y-87076000D01*
X184386581Y-87143773D01*
X184401333Y-87203000D01*
X184333560Y-87315248D01*
X184274333Y-87330000D01*
X184162084Y-87262227D01*
X184147333Y-87203000D01*
X184215106Y-87090751D01*
G37*
X184215106Y-87090751D02*
X184274333Y-87076000D01*
X184386581Y-87143773D01*
X184401333Y-87203000D01*
X184333560Y-87315248D01*
X184274333Y-87330000D01*
X184162084Y-87262227D01*
X184147333Y-87203000D01*
X184215106Y-87090751D01*
G36*
X166419203Y-87274437D02*
G01*
X166452000Y-87287666D01*
X166532770Y-87363749D01*
X166536666Y-87377330D01*
X166471160Y-87413696D01*
X166452000Y-87414666D01*
X166370586Y-87349579D01*
X166367333Y-87325003D01*
X166419203Y-87274437D01*
G37*
X166419203Y-87274437D02*
X166452000Y-87287666D01*
X166532770Y-87363749D01*
X166536666Y-87377330D01*
X166471160Y-87413696D01*
X166452000Y-87414666D01*
X166370586Y-87349579D01*
X166367333Y-87325003D01*
X166419203Y-87274437D01*
G36*
X168103000Y-89785333D02*
G01*
X168179082Y-89704563D01*
X168192663Y-89700666D01*
X168229029Y-89766172D01*
X168230000Y-89785333D01*
X168164912Y-89866746D01*
X168140336Y-89870000D01*
X168089770Y-89818130D01*
X168103000Y-89785333D01*
G37*
X168103000Y-89785333D02*
X168179082Y-89704563D01*
X168192663Y-89700666D01*
X168229029Y-89766172D01*
X168230000Y-89785333D01*
X168164912Y-89866746D01*
X168140336Y-89870000D01*
X168089770Y-89818130D01*
X168103000Y-89785333D01*
G36*
X165287285Y-80750044D02*
G01*
X165490059Y-79546656D01*
X165864977Y-78297527D01*
X166396018Y-77097021D01*
X167072556Y-75964284D01*
X167883965Y-74918465D01*
X168314666Y-74456565D01*
X169318603Y-73558783D01*
X170407120Y-72805903D01*
X171571366Y-72201605D01*
X172802492Y-71749566D01*
X174091647Y-71453464D01*
X175429981Y-71316976D01*
X175892333Y-71307583D01*
X177235076Y-71389397D01*
X178532870Y-71630304D01*
X179774722Y-72023505D01*
X180949641Y-72562199D01*
X182046633Y-73239587D01*
X183054706Y-74048867D01*
X183962867Y-74983241D01*
X184760123Y-76035907D01*
X185435482Y-77200066D01*
X185443450Y-77215984D01*
X185893020Y-78270758D01*
X186235358Y-79403267D01*
X186462851Y-80572125D01*
X186567889Y-81735942D01*
X186542860Y-82853331D01*
X186520822Y-83074222D01*
X186285797Y-84418257D01*
X185899872Y-85694478D01*
X185370922Y-86893930D01*
X184706822Y-88007658D01*
X183915447Y-89026708D01*
X183004672Y-89942126D01*
X181982372Y-90744955D01*
X180856422Y-91426243D01*
X179634696Y-91977034D01*
X178331160Y-92386844D01*
X177978343Y-92471674D01*
X177672748Y-92532800D01*
X177373964Y-92574030D01*
X177041582Y-92599173D01*
X176635190Y-92612036D01*
X176114377Y-92616428D01*
X175892333Y-92616669D01*
X175876041Y-92616604D01*
X175876041Y-92524617D01*
X176525839Y-92513513D01*
X177121563Y-92479045D01*
X177607764Y-92421213D01*
X177628000Y-92417744D01*
X178903997Y-92111865D01*
X180120910Y-91655708D01*
X181266470Y-91059745D01*
X182328408Y-90334446D01*
X183294454Y-89490285D01*
X184152339Y-88537732D01*
X184889794Y-87487259D01*
X185494549Y-86349339D01*
X185876256Y-85378023D01*
X186017661Y-84924722D01*
X186151155Y-84443349D01*
X186257076Y-84007156D01*
X186296701Y-83811690D01*
X186370983Y-83234804D01*
X186411934Y-82550429D01*
X186419457Y-81817116D01*
X186393456Y-81093417D01*
X186333836Y-80437882D01*
X186302587Y-80220326D01*
X186018059Y-78983445D01*
X185576161Y-77778518D01*
X184988625Y-76628604D01*
X184267181Y-75556762D01*
X183450085Y-74613023D01*
X182734834Y-73934638D01*
X182017748Y-73369414D01*
X181237269Y-72872060D01*
X180660025Y-72560260D01*
X179437976Y-72029404D01*
X178179055Y-71660447D01*
X176896278Y-71453474D01*
X175602664Y-71408567D01*
X174311231Y-71525810D01*
X173034996Y-71805285D01*
X171786977Y-72247076D01*
X171235666Y-72500031D01*
X170091062Y-73155109D01*
X169056101Y-73930862D01*
X168136274Y-74814460D01*
X167337072Y-75793070D01*
X166663987Y-76853862D01*
X166122510Y-77984003D01*
X165718131Y-79170661D01*
X165456342Y-80401007D01*
X165342635Y-81662206D01*
X165382500Y-82941429D01*
X165581429Y-84225843D01*
X165825136Y-85143139D01*
X166089123Y-85890027D01*
X166381052Y-86547709D01*
X166690419Y-87098632D01*
X167006715Y-87525246D01*
X167319436Y-87809999D01*
X167471769Y-87893945D01*
X167730490Y-88076293D01*
X167865496Y-88361866D01*
X167891333Y-88625098D01*
X167905728Y-88766640D01*
X167962930Y-88905772D01*
X168083966Y-89071348D01*
X168289861Y-89292223D01*
X168595269Y-89591137D01*
X169605785Y-90446348D01*
X170713384Y-91170624D01*
X171899117Y-91754333D01*
X173144032Y-92187844D01*
X174156666Y-92417744D01*
X174636007Y-92476733D01*
X175227614Y-92512357D01*
X175876041Y-92524617D01*
X175876041Y-92616604D01*
X175320529Y-92614376D01*
X174877646Y-92604964D01*
X174523305Y-92584635D01*
X174217127Y-92549589D01*
X173918731Y-92496029D01*
X173587740Y-92420155D01*
X173456139Y-92387479D01*
X172142602Y-91979218D01*
X170935491Y-91441619D01*
X170469281Y-91182435D01*
X169998223Y-90894292D01*
X169605399Y-90627085D01*
X169241902Y-90342855D01*
X168858822Y-90003644D01*
X168460189Y-89623197D01*
X168150213Y-89330014D01*
X167936596Y-89151467D01*
X167803022Y-89075786D01*
X167733176Y-89091198D01*
X167729733Y-89096206D01*
X167687760Y-89272931D01*
X167698113Y-89364470D01*
X167692650Y-89566954D01*
X167656588Y-89663252D01*
X167592739Y-89741011D01*
X167511630Y-89718992D01*
X167373096Y-89582044D01*
X167338190Y-89543154D01*
X167157858Y-89376061D01*
X166997112Y-89283737D01*
X166960763Y-89277333D01*
X166748522Y-89202114D01*
X166583817Y-89008329D01*
X166482657Y-88743781D01*
X166461052Y-88456279D01*
X166535012Y-88193627D01*
X166576307Y-88129349D01*
X166686758Y-87869529D01*
X166669966Y-87539031D01*
X166524027Y-87123372D01*
X166415295Y-86903896D01*
X165908040Y-85773804D01*
X165538281Y-84566886D01*
X165309348Y-83309629D01*
X165224572Y-82028519D01*
X165287285Y-80750044D01*
G37*
X165287285Y-80750044D02*
X165490059Y-79546656D01*
X165864977Y-78297527D01*
X166396018Y-77097021D01*
X167072556Y-75964284D01*
X167883965Y-74918465D01*
X168314666Y-74456565D01*
X169318603Y-73558783D01*
X170407120Y-72805903D01*
X171571366Y-72201605D01*
X172802492Y-71749566D01*
X174091647Y-71453464D01*
X175429981Y-71316976D01*
X175892333Y-71307583D01*
X177235076Y-71389397D01*
X178532870Y-71630304D01*
X179774722Y-72023505D01*
X180949641Y-72562199D01*
X182046633Y-73239587D01*
X183054706Y-74048867D01*
X183962867Y-74983241D01*
X184760123Y-76035907D01*
X185435482Y-77200066D01*
X185443450Y-77215984D01*
X185893020Y-78270758D01*
X186235358Y-79403267D01*
X186462851Y-80572125D01*
X186567889Y-81735942D01*
X186542860Y-82853331D01*
X186520822Y-83074222D01*
X186285797Y-84418257D01*
X185899872Y-85694478D01*
X185370922Y-86893930D01*
X184706822Y-88007658D01*
X183915447Y-89026708D01*
X183004672Y-89942126D01*
X181982372Y-90744955D01*
X180856422Y-91426243D01*
X179634696Y-91977034D01*
X178331160Y-92386844D01*
X177978343Y-92471674D01*
X177672748Y-92532800D01*
X177373964Y-92574030D01*
X177041582Y-92599173D01*
X176635190Y-92612036D01*
X176114377Y-92616428D01*
X175892333Y-92616669D01*
X175876041Y-92616604D01*
X175876041Y-92524617D01*
X176525839Y-92513513D01*
X177121563Y-92479045D01*
X177607764Y-92421213D01*
X177628000Y-92417744D01*
X178903997Y-92111865D01*
X180120910Y-91655708D01*
X181266470Y-91059745D01*
X182328408Y-90334446D01*
X183294454Y-89490285D01*
X184152339Y-88537732D01*
X184889794Y-87487259D01*
X185494549Y-86349339D01*
X185876256Y-85378023D01*
X186017661Y-84924722D01*
X186151155Y-84443349D01*
X186257076Y-84007156D01*
X186296701Y-83811690D01*
X186370983Y-83234804D01*
X186411934Y-82550429D01*
X186419457Y-81817116D01*
X186393456Y-81093417D01*
X186333836Y-80437882D01*
X186302587Y-80220326D01*
X186018059Y-78983445D01*
X185576161Y-77778518D01*
X184988625Y-76628604D01*
X184267181Y-75556762D01*
X183450085Y-74613023D01*
X182734834Y-73934638D01*
X182017748Y-73369414D01*
X181237269Y-72872060D01*
X180660025Y-72560260D01*
X179437976Y-72029404D01*
X178179055Y-71660447D01*
X176896278Y-71453474D01*
X175602664Y-71408567D01*
X174311231Y-71525810D01*
X173034996Y-71805285D01*
X171786977Y-72247076D01*
X171235666Y-72500031D01*
X170091062Y-73155109D01*
X169056101Y-73930862D01*
X168136274Y-74814460D01*
X167337072Y-75793070D01*
X166663987Y-76853862D01*
X166122510Y-77984003D01*
X165718131Y-79170661D01*
X165456342Y-80401007D01*
X165342635Y-81662206D01*
X165382500Y-82941429D01*
X165581429Y-84225843D01*
X165825136Y-85143139D01*
X166089123Y-85890027D01*
X166381052Y-86547709D01*
X166690419Y-87098632D01*
X167006715Y-87525246D01*
X167319436Y-87809999D01*
X167471769Y-87893945D01*
X167730490Y-88076293D01*
X167865496Y-88361866D01*
X167891333Y-88625098D01*
X167905728Y-88766640D01*
X167962930Y-88905772D01*
X168083966Y-89071348D01*
X168289861Y-89292223D01*
X168595269Y-89591137D01*
X169605785Y-90446348D01*
X170713384Y-91170624D01*
X171899117Y-91754333D01*
X173144032Y-92187844D01*
X174156666Y-92417744D01*
X174636007Y-92476733D01*
X175227614Y-92512357D01*
X175876041Y-92524617D01*
X175876041Y-92616604D01*
X175320529Y-92614376D01*
X174877646Y-92604964D01*
X174523305Y-92584635D01*
X174217127Y-92549589D01*
X173918731Y-92496029D01*
X173587740Y-92420155D01*
X173456139Y-92387479D01*
X172142602Y-91979218D01*
X170935491Y-91441619D01*
X170469281Y-91182435D01*
X169998223Y-90894292D01*
X169605399Y-90627085D01*
X169241902Y-90342855D01*
X168858822Y-90003644D01*
X168460189Y-89623197D01*
X168150213Y-89330014D01*
X167936596Y-89151467D01*
X167803022Y-89075786D01*
X167733176Y-89091198D01*
X167729733Y-89096206D01*
X167687760Y-89272931D01*
X167698113Y-89364470D01*
X167692650Y-89566954D01*
X167656588Y-89663252D01*
X167592739Y-89741011D01*
X167511630Y-89718992D01*
X167373096Y-89582044D01*
X167338190Y-89543154D01*
X167157858Y-89376061D01*
X166997112Y-89283737D01*
X166960763Y-89277333D01*
X166748522Y-89202114D01*
X166583817Y-89008329D01*
X166482657Y-88743781D01*
X166461052Y-88456279D01*
X166535012Y-88193627D01*
X166576307Y-88129349D01*
X166686758Y-87869529D01*
X166669966Y-87539031D01*
X166524027Y-87123372D01*
X166415295Y-86903896D01*
X165908040Y-85773804D01*
X165538281Y-84566886D01*
X165309348Y-83309629D01*
X165224572Y-82028519D01*
X165287285Y-80750044D01*
G36*
X163329300Y-81278518D02*
G01*
X163364779Y-80632701D01*
X163421082Y-80083557D01*
X163446003Y-79921666D01*
X163775538Y-78491617D01*
X164256136Y-77123486D01*
X164880746Y-75828788D01*
X165642315Y-74619037D01*
X166533790Y-73505746D01*
X167548118Y-72500428D01*
X168423183Y-71796342D01*
X168751164Y-71534707D01*
X168927361Y-71338224D01*
X168953796Y-71201198D01*
X168832487Y-71117938D01*
X168673806Y-71089802D01*
X168473152Y-71043376D01*
X168404291Y-70976261D01*
X168476042Y-70920258D01*
X168622457Y-70904666D01*
X168850974Y-70838074D01*
X169041748Y-70693000D01*
X169285216Y-70531165D01*
X169572732Y-70480666D01*
X169838705Y-70547957D01*
X169921252Y-70606450D01*
X169997013Y-70654609D01*
X170100621Y-70663733D01*
X170262670Y-70626368D01*
X170513756Y-70535056D01*
X170884472Y-70382342D01*
X170943919Y-70357222D01*
X172073274Y-69935257D01*
X173188380Y-69638598D01*
X174336784Y-69457863D01*
X175566031Y-69383668D01*
X175892333Y-69380666D01*
X176752092Y-69398712D01*
X177510732Y-69458065D01*
X178233125Y-69566546D01*
X178984140Y-69731978D01*
X179144246Y-69772784D01*
X180476490Y-70204365D01*
X181741912Y-70783517D01*
X182930254Y-71498674D01*
X184031257Y-72338267D01*
X185034664Y-73290730D01*
X185930217Y-74344495D01*
X186707656Y-75487994D01*
X187356724Y-76709660D01*
X187867163Y-77997925D01*
X188228714Y-79341222D01*
X188371040Y-80177255D01*
X188458386Y-81023096D01*
X188487689Y-81855516D01*
X188461274Y-82754531D01*
X188450926Y-82927333D01*
X188278807Y-84335447D01*
X187950552Y-85694004D01*
X187474556Y-86993478D01*
X186859217Y-88224341D01*
X186112932Y-89377066D01*
X185244097Y-90442128D01*
X184261110Y-91409999D01*
X183172366Y-92271152D01*
X181986264Y-93016061D01*
X180711199Y-93635200D01*
X179355569Y-94119040D01*
X178363618Y-94372032D01*
X177725146Y-94474805D01*
X176971285Y-94541007D01*
X176151981Y-94570638D01*
X175317183Y-94563698D01*
X175241180Y-94559566D01*
X175241180Y-94468122D01*
X176636791Y-94462495D01*
X178027624Y-94299540D01*
X179400272Y-93978222D01*
X180741333Y-93497506D01*
X181468283Y-93160935D01*
X182725779Y-92436600D01*
X183876685Y-91585179D01*
X184914210Y-90616387D01*
X185831562Y-89539938D01*
X186621946Y-88365547D01*
X187278573Y-87102928D01*
X187794649Y-85761796D01*
X188163381Y-84351866D01*
X188327510Y-83350666D01*
X188353924Y-82978156D01*
X188360411Y-82481256D01*
X188349154Y-81903461D01*
X188322335Y-81288265D01*
X188282135Y-80679164D01*
X188230736Y-80119651D01*
X188170321Y-79653221D01*
X188131298Y-79439152D01*
X187747398Y-78038232D01*
X187214435Y-76706996D01*
X186541177Y-75455422D01*
X185736392Y-74293493D01*
X184808848Y-73231188D01*
X183767310Y-72278490D01*
X182620548Y-71445379D01*
X181377328Y-70741835D01*
X180046417Y-70177841D01*
X179973181Y-70151887D01*
X178655708Y-69776592D01*
X177283610Y-69550634D01*
X175884217Y-69475171D01*
X174484865Y-69551363D01*
X173112884Y-69780369D01*
X172827319Y-69848865D01*
X172392944Y-69971491D01*
X171908233Y-70128739D01*
X171414589Y-70305061D01*
X170953418Y-70484904D01*
X170566125Y-70652720D01*
X170294113Y-70792958D01*
X170264969Y-70811203D01*
X170056271Y-70947000D01*
X170349635Y-70995623D01*
X170643000Y-71044246D01*
X170389000Y-71114625D01*
X170145848Y-71229578D01*
X169938623Y-71394205D01*
X169786840Y-71525799D01*
X169622058Y-71571392D01*
X169372405Y-71552713D01*
X169204431Y-71535618D01*
X169063234Y-71548310D01*
X168913680Y-71607361D01*
X168720634Y-71729346D01*
X168448963Y-71930836D01*
X168256448Y-72079113D01*
X167182887Y-73015227D01*
X166223631Y-74069322D01*
X165387966Y-75226548D01*
X164685178Y-76472055D01*
X164124550Y-77790991D01*
X163715368Y-79168506D01*
X163654762Y-79439152D01*
X163552265Y-80052878D01*
X163476887Y-80770724D01*
X163431021Y-81536931D01*
X163417058Y-82295738D01*
X163437387Y-82991386D01*
X163481597Y-83477666D01*
X163755800Y-84923177D01*
X164191051Y-86325182D01*
X164781732Y-87670113D01*
X165522227Y-88944407D01*
X166056678Y-89696407D01*
X166466636Y-90184564D01*
X166976701Y-90718692D01*
X167542444Y-91256541D01*
X168119433Y-91755862D01*
X168660605Y-92172532D01*
X169879040Y-92938031D01*
X171159720Y-93551374D01*
X172489240Y-94011527D01*
X173854195Y-94317454D01*
X175241180Y-94468122D01*
X175241180Y-94559566D01*
X174516837Y-94520186D01*
X173800892Y-94440103D01*
X173421048Y-94372032D01*
X171987080Y-93981680D01*
X170633865Y-93447775D01*
X169369189Y-92778558D01*
X168200840Y-91982268D01*
X167136603Y-91067146D01*
X166184265Y-90041433D01*
X165351612Y-88913367D01*
X164646432Y-87691190D01*
X164076510Y-86383142D01*
X163649633Y-84997462D01*
X163406464Y-83774000D01*
X163353229Y-83268751D01*
X163322984Y-82649270D01*
X163315189Y-81968283D01*
X163329300Y-81278518D01*
G37*
X163329300Y-81278518D02*
X163364779Y-80632701D01*
X163421082Y-80083557D01*
X163446003Y-79921666D01*
X163775538Y-78491617D01*
X164256136Y-77123486D01*
X164880746Y-75828788D01*
X165642315Y-74619037D01*
X166533790Y-73505746D01*
X167548118Y-72500428D01*
X168423183Y-71796342D01*
X168751164Y-71534707D01*
X168927361Y-71338224D01*
X168953796Y-71201198D01*
X168832487Y-71117938D01*
X168673806Y-71089802D01*
X168473152Y-71043376D01*
X168404291Y-70976261D01*
X168476042Y-70920258D01*
X168622457Y-70904666D01*
X168850974Y-70838074D01*
X169041748Y-70693000D01*
X169285216Y-70531165D01*
X169572732Y-70480666D01*
X169838705Y-70547957D01*
X169921252Y-70606450D01*
X169997013Y-70654609D01*
X170100621Y-70663733D01*
X170262670Y-70626368D01*
X170513756Y-70535056D01*
X170884472Y-70382342D01*
X170943919Y-70357222D01*
X172073274Y-69935257D01*
X173188380Y-69638598D01*
X174336784Y-69457863D01*
X175566031Y-69383668D01*
X175892333Y-69380666D01*
X176752092Y-69398712D01*
X177510732Y-69458065D01*
X178233125Y-69566546D01*
X178984140Y-69731978D01*
X179144246Y-69772784D01*
X180476490Y-70204365D01*
X181741912Y-70783517D01*
X182930254Y-71498674D01*
X184031257Y-72338267D01*
X185034664Y-73290730D01*
X185930217Y-74344495D01*
X186707656Y-75487994D01*
X187356724Y-76709660D01*
X187867163Y-77997925D01*
X188228714Y-79341222D01*
X188371040Y-80177255D01*
X188458386Y-81023096D01*
X188487689Y-81855516D01*
X188461274Y-82754531D01*
X188450926Y-82927333D01*
X188278807Y-84335447D01*
X187950552Y-85694004D01*
X187474556Y-86993478D01*
X186859217Y-88224341D01*
X186112932Y-89377066D01*
X185244097Y-90442128D01*
X184261110Y-91409999D01*
X183172366Y-92271152D01*
X181986264Y-93016061D01*
X180711199Y-93635200D01*
X179355569Y-94119040D01*
X178363618Y-94372032D01*
X177725146Y-94474805D01*
X176971285Y-94541007D01*
X176151981Y-94570638D01*
X175317183Y-94563698D01*
X175241180Y-94559566D01*
X175241180Y-94468122D01*
X176636791Y-94462495D01*
X178027624Y-94299540D01*
X179400272Y-93978222D01*
X180741333Y-93497506D01*
X181468283Y-93160935D01*
X182725779Y-92436600D01*
X183876685Y-91585179D01*
X184914210Y-90616387D01*
X185831562Y-89539938D01*
X186621946Y-88365547D01*
X187278573Y-87102928D01*
X187794649Y-85761796D01*
X188163381Y-84351866D01*
X188327510Y-83350666D01*
X188353924Y-82978156D01*
X188360411Y-82481256D01*
X188349154Y-81903461D01*
X188322335Y-81288265D01*
X188282135Y-80679164D01*
X188230736Y-80119651D01*
X188170321Y-79653221D01*
X188131298Y-79439152D01*
X187747398Y-78038232D01*
X187214435Y-76706996D01*
X186541177Y-75455422D01*
X185736392Y-74293493D01*
X184808848Y-73231188D01*
X183767310Y-72278490D01*
X182620548Y-71445379D01*
X181377328Y-70741835D01*
X180046417Y-70177841D01*
X179973181Y-70151887D01*
X178655708Y-69776592D01*
X177283610Y-69550634D01*
X175884217Y-69475171D01*
X174484865Y-69551363D01*
X173112884Y-69780369D01*
X172827319Y-69848865D01*
X172392944Y-69971491D01*
X171908233Y-70128739D01*
X171414589Y-70305061D01*
X170953418Y-70484904D01*
X170566125Y-70652720D01*
X170294113Y-70792958D01*
X170264969Y-70811203D01*
X170056271Y-70947000D01*
X170349635Y-70995623D01*
X170643000Y-71044246D01*
X170389000Y-71114625D01*
X170145848Y-71229578D01*
X169938623Y-71394205D01*
X169786840Y-71525799D01*
X169622058Y-71571392D01*
X169372405Y-71552713D01*
X169204431Y-71535618D01*
X169063234Y-71548310D01*
X168913680Y-71607361D01*
X168720634Y-71729346D01*
X168448963Y-71930836D01*
X168256448Y-72079113D01*
X167182887Y-73015227D01*
X166223631Y-74069322D01*
X165387966Y-75226548D01*
X164685178Y-76472055D01*
X164124550Y-77790991D01*
X163715368Y-79168506D01*
X163654762Y-79439152D01*
X163552265Y-80052878D01*
X163476887Y-80770724D01*
X163431021Y-81536931D01*
X163417058Y-82295738D01*
X163437387Y-82991386D01*
X163481597Y-83477666D01*
X163755800Y-84923177D01*
X164191051Y-86325182D01*
X164781732Y-87670113D01*
X165522227Y-88944407D01*
X166056678Y-89696407D01*
X166466636Y-90184564D01*
X166976701Y-90718692D01*
X167542444Y-91256541D01*
X168119433Y-91755862D01*
X168660605Y-92172532D01*
X169879040Y-92938031D01*
X171159720Y-93551374D01*
X172489240Y-94011527D01*
X173854195Y-94317454D01*
X175241180Y-94468122D01*
X175241180Y-94559566D01*
X174516837Y-94520186D01*
X173800892Y-94440103D01*
X173421048Y-94372032D01*
X171987080Y-93981680D01*
X170633865Y-93447775D01*
X169369189Y-92778558D01*
X168200840Y-91982268D01*
X167136603Y-91067146D01*
X166184265Y-90041433D01*
X165351612Y-88913367D01*
X164646432Y-87691190D01*
X164076510Y-86383142D01*
X163649633Y-84997462D01*
X163406464Y-83774000D01*
X163353229Y-83268751D01*
X163322984Y-82649270D01*
X163315189Y-81968283D01*
X163329300Y-81278518D01*
G36*
X161672795Y-81150493D02*
G01*
X161837122Y-79656794D01*
X162161318Y-78173868D01*
X162647855Y-76713874D01*
X162685315Y-76619666D01*
X163178705Y-75519711D01*
X163746568Y-74507065D01*
X164412815Y-73546245D01*
X165201353Y-72601769D01*
X165855790Y-71914407D01*
X166726991Y-71092620D01*
X167580684Y-70399093D01*
X168458722Y-69803500D01*
X169402962Y-69275513D01*
X169702829Y-69127007D01*
X171120342Y-68535715D01*
X172582587Y-68103519D01*
X174075775Y-67830766D01*
X175586118Y-67717800D01*
X177099828Y-67764970D01*
X178603116Y-67972620D01*
X180082193Y-68341098D01*
X181433275Y-68832367D01*
X182717545Y-69451538D01*
X183912409Y-70190563D01*
X185041158Y-71065606D01*
X186116154Y-72081534D01*
X187150523Y-73264328D01*
X188032138Y-74520128D01*
X188761579Y-75850078D01*
X189339424Y-77255327D01*
X189766249Y-78737021D01*
X189956752Y-79703444D01*
X190025039Y-80237454D01*
X190076023Y-80873063D01*
X190108054Y-81557093D01*
X190119483Y-82236365D01*
X190108662Y-82857701D01*
X190073941Y-83367921D01*
X190071158Y-83393000D01*
X189811553Y-84952335D01*
X189396172Y-86463156D01*
X188830242Y-87911612D01*
X188118990Y-89283853D01*
X187467586Y-90291123D01*
X187053753Y-90826822D01*
X186542330Y-91414227D01*
X185972055Y-92014069D01*
X185381662Y-92587081D01*
X184809888Y-93093994D01*
X184333441Y-93468333D01*
X183266536Y-94174443D01*
X182168627Y-94778696D01*
X181184000Y-95216816D01*
X180574487Y-95436381D01*
X179905151Y-95645703D01*
X179226493Y-95831228D01*
X178589013Y-95979400D01*
X178043213Y-96076664D01*
X177924333Y-96091740D01*
X177555110Y-96137812D01*
X177320690Y-96182681D01*
X177187056Y-96238342D01*
X177120193Y-96316791D01*
X177096989Y-96383514D01*
X176999695Y-96540177D01*
X176827286Y-96691080D01*
X176551095Y-96785754D01*
X176287209Y-96726012D01*
X176076675Y-96524316D01*
X176036076Y-96450863D01*
X175967868Y-96330940D01*
X175878006Y-96261816D01*
X175836176Y-96253099D01*
X175836176Y-96168039D01*
X176088723Y-95897686D01*
X176365835Y-95682529D01*
X176636330Y-95636079D01*
X176898209Y-95758439D01*
X176997425Y-95851777D01*
X177205433Y-96076220D01*
X177931145Y-95974698D01*
X179391383Y-95686825D01*
X180799585Y-95244518D01*
X182145610Y-94657412D01*
X183419317Y-93935139D01*
X184610568Y-93087334D01*
X185709221Y-92123632D01*
X186705136Y-91053666D01*
X187588174Y-89887072D01*
X188348194Y-88633482D01*
X188975056Y-87302531D01*
X189458620Y-85903854D01*
X189731531Y-84763132D01*
X189811529Y-84347045D01*
X189871466Y-84014553D01*
X189913873Y-83730222D01*
X189941281Y-83458615D01*
X189956218Y-83164297D01*
X189961216Y-82811832D01*
X189958805Y-82365785D01*
X189951515Y-81790720D01*
X189950273Y-81699666D01*
X189936939Y-81025809D01*
X189915549Y-80485462D01*
X189883272Y-80042886D01*
X189837276Y-79662339D01*
X189774730Y-79308079D01*
X189752406Y-79202000D01*
X189344064Y-77672837D01*
X188804054Y-76246546D01*
X188127305Y-74913541D01*
X187308743Y-73664233D01*
X186343298Y-72489035D01*
X186018165Y-72143196D01*
X184874908Y-71080499D01*
X183646517Y-70163772D01*
X182334798Y-69394124D01*
X180941555Y-68772663D01*
X180013469Y-68454894D01*
X179414496Y-68278216D01*
X178899236Y-68142909D01*
X178428029Y-68043628D01*
X177961216Y-67975025D01*
X177459135Y-67931752D01*
X176882129Y-67908462D01*
X176190536Y-67899809D01*
X175892333Y-67899246D01*
X175147324Y-67903775D01*
X174531833Y-67920926D01*
X174006199Y-67956048D01*
X173530763Y-68014488D01*
X173065865Y-68101591D01*
X172571845Y-68222707D01*
X172009044Y-68383182D01*
X171771196Y-68454894D01*
X170346320Y-68975672D01*
X168996122Y-69642904D01*
X167730552Y-70446570D01*
X166559563Y-71376648D01*
X165493107Y-72423119D01*
X164541133Y-73575962D01*
X163713595Y-74825155D01*
X163020444Y-76160679D01*
X162471631Y-77572513D01*
X162359401Y-77932000D01*
X162192329Y-78513423D01*
X162064661Y-79016148D01*
X161971277Y-79479646D01*
X161907061Y-79943389D01*
X161866893Y-80446849D01*
X161845655Y-81029499D01*
X161838230Y-81730809D01*
X161837930Y-81953666D01*
X161840111Y-82605061D01*
X161848207Y-83121184D01*
X161864566Y-83536062D01*
X161891537Y-83883720D01*
X161931469Y-84198183D01*
X161986710Y-84513476D01*
X162028939Y-84720798D01*
X162433312Y-86243091D01*
X162984554Y-87690222D01*
X163676269Y-89053886D01*
X164502061Y-90325781D01*
X165455533Y-91497603D01*
X166530289Y-92561050D01*
X167719932Y-93507817D01*
X169018066Y-94329602D01*
X169711666Y-94693906D01*
X170940814Y-95228005D01*
X172198327Y-95631022D01*
X173521780Y-95913243D01*
X174721254Y-96065343D01*
X175836176Y-96168039D01*
X175836176Y-96253099D01*
X175722983Y-96229507D01*
X175459289Y-96220029D01*
X175316213Y-96219501D01*
X174722857Y-96190936D01*
X174026403Y-96111682D01*
X173282452Y-95990112D01*
X172546603Y-95834600D01*
X172227489Y-95754330D01*
X170769635Y-95284710D01*
X169399167Y-94673483D01*
X168108134Y-93916030D01*
X166888583Y-93007730D01*
X165817000Y-92029000D01*
X164791317Y-90886793D01*
X163905738Y-89658097D01*
X163162733Y-88355070D01*
X162564772Y-86989870D01*
X162114328Y-85574654D01*
X161813869Y-84121581D01*
X161665868Y-82642808D01*
X161672795Y-81150493D01*
G37*
X161672795Y-81150493D02*
X161837122Y-79656794D01*
X162161318Y-78173868D01*
X162647855Y-76713874D01*
X162685315Y-76619666D01*
X163178705Y-75519711D01*
X163746568Y-74507065D01*
X164412815Y-73546245D01*
X165201353Y-72601769D01*
X165855790Y-71914407D01*
X166726991Y-71092620D01*
X167580684Y-70399093D01*
X168458722Y-69803500D01*
X169402962Y-69275513D01*
X169702829Y-69127007D01*
X171120342Y-68535715D01*
X172582587Y-68103519D01*
X174075775Y-67830766D01*
X175586118Y-67717800D01*
X177099828Y-67764970D01*
X178603116Y-67972620D01*
X180082193Y-68341098D01*
X181433275Y-68832367D01*
X182717545Y-69451538D01*
X183912409Y-70190563D01*
X185041158Y-71065606D01*
X186116154Y-72081534D01*
X187150523Y-73264328D01*
X188032138Y-74520128D01*
X188761579Y-75850078D01*
X189339424Y-77255327D01*
X189766249Y-78737021D01*
X189956752Y-79703444D01*
X190025039Y-80237454D01*
X190076023Y-80873063D01*
X190108054Y-81557093D01*
X190119483Y-82236365D01*
X190108662Y-82857701D01*
X190073941Y-83367921D01*
X190071158Y-83393000D01*
X189811553Y-84952335D01*
X189396172Y-86463156D01*
X188830242Y-87911612D01*
X188118990Y-89283853D01*
X187467586Y-90291123D01*
X187053753Y-90826822D01*
X186542330Y-91414227D01*
X185972055Y-92014069D01*
X185381662Y-92587081D01*
X184809888Y-93093994D01*
X184333441Y-93468333D01*
X183266536Y-94174443D01*
X182168627Y-94778696D01*
X181184000Y-95216816D01*
X180574487Y-95436381D01*
X179905151Y-95645703D01*
X179226493Y-95831228D01*
X178589013Y-95979400D01*
X178043213Y-96076664D01*
X177924333Y-96091740D01*
X177555110Y-96137812D01*
X177320690Y-96182681D01*
X177187056Y-96238342D01*
X177120193Y-96316791D01*
X177096989Y-96383514D01*
X176999695Y-96540177D01*
X176827286Y-96691080D01*
X176551095Y-96785754D01*
X176287209Y-96726012D01*
X176076675Y-96524316D01*
X176036076Y-96450863D01*
X175967868Y-96330940D01*
X175878006Y-96261816D01*
X175836176Y-96253099D01*
X175836176Y-96168039D01*
X176088723Y-95897686D01*
X176365835Y-95682529D01*
X176636330Y-95636079D01*
X176898209Y-95758439D01*
X176997425Y-95851777D01*
X177205433Y-96076220D01*
X177931145Y-95974698D01*
X179391383Y-95686825D01*
X180799585Y-95244518D01*
X182145610Y-94657412D01*
X183419317Y-93935139D01*
X184610568Y-93087334D01*
X185709221Y-92123632D01*
X186705136Y-91053666D01*
X187588174Y-89887072D01*
X188348194Y-88633482D01*
X188975056Y-87302531D01*
X189458620Y-85903854D01*
X189731531Y-84763132D01*
X189811529Y-84347045D01*
X189871466Y-84014553D01*
X189913873Y-83730222D01*
X189941281Y-83458615D01*
X189956218Y-83164297D01*
X189961216Y-82811832D01*
X189958805Y-82365785D01*
X189951515Y-81790720D01*
X189950273Y-81699666D01*
X189936939Y-81025809D01*
X189915549Y-80485462D01*
X189883272Y-80042886D01*
X189837276Y-79662339D01*
X189774730Y-79308079D01*
X189752406Y-79202000D01*
X189344064Y-77672837D01*
X188804054Y-76246546D01*
X188127305Y-74913541D01*
X187308743Y-73664233D01*
X186343298Y-72489035D01*
X186018165Y-72143196D01*
X184874908Y-71080499D01*
X183646517Y-70163772D01*
X182334798Y-69394124D01*
X180941555Y-68772663D01*
X180013469Y-68454894D01*
X179414496Y-68278216D01*
X178899236Y-68142909D01*
X178428029Y-68043628D01*
X177961216Y-67975025D01*
X177459135Y-67931752D01*
X176882129Y-67908462D01*
X176190536Y-67899809D01*
X175892333Y-67899246D01*
X175147324Y-67903775D01*
X174531833Y-67920926D01*
X174006199Y-67956048D01*
X173530763Y-68014488D01*
X173065865Y-68101591D01*
X172571845Y-68222707D01*
X172009044Y-68383182D01*
X171771196Y-68454894D01*
X170346320Y-68975672D01*
X168996122Y-69642904D01*
X167730552Y-70446570D01*
X166559563Y-71376648D01*
X165493107Y-72423119D01*
X164541133Y-73575962D01*
X163713595Y-74825155D01*
X163020444Y-76160679D01*
X162471631Y-77572513D01*
X162359401Y-77932000D01*
X162192329Y-78513423D01*
X162064661Y-79016148D01*
X161971277Y-79479646D01*
X161907061Y-79943389D01*
X161866893Y-80446849D01*
X161845655Y-81029499D01*
X161838230Y-81730809D01*
X161837930Y-81953666D01*
X161840111Y-82605061D01*
X161848207Y-83121184D01*
X161864566Y-83536062D01*
X161891537Y-83883720D01*
X161931469Y-84198183D01*
X161986710Y-84513476D01*
X162028939Y-84720798D01*
X162433312Y-86243091D01*
X162984554Y-87690222D01*
X163676269Y-89053886D01*
X164502061Y-90325781D01*
X165455533Y-91497603D01*
X166530289Y-92561050D01*
X167719932Y-93507817D01*
X169018066Y-94329602D01*
X169711666Y-94693906D01*
X170940814Y-95228005D01*
X172198327Y-95631022D01*
X173521780Y-95913243D01*
X174721254Y-96065343D01*
X175836176Y-96168039D01*
X175836176Y-96253099D01*
X175722983Y-96229507D01*
X175459289Y-96220029D01*
X175316213Y-96219501D01*
X174722857Y-96190936D01*
X174026403Y-96111682D01*
X173282452Y-95990112D01*
X172546603Y-95834600D01*
X172227489Y-95754330D01*
X170769635Y-95284710D01*
X169399167Y-94673483D01*
X168108134Y-93916030D01*
X166888583Y-93007730D01*
X165817000Y-92029000D01*
X164791317Y-90886793D01*
X163905738Y-89658097D01*
X163162733Y-88355070D01*
X162564772Y-86989870D01*
X162114328Y-85574654D01*
X161813869Y-84121581D01*
X161665868Y-82642808D01*
X161672795Y-81150493D01*
%TD*%
D11*
%TO.C,MX47*%
X234556000Y-103895000D03*
D12*
X245276000Y-99695000D03*
X234276000Y-99695000D03*
D13*
X239776000Y-93795000D03*
X244776000Y-95895000D03*
D14*
X244856000Y-99695000D03*
X234696000Y-99695000D03*
D15*
X237276000Y-95695000D03*
D16*
X239776000Y-99695000D03*
G36*
G01*
X235214688Y-97992350D02*
X235214688Y-97992350D01*
G75*
G02*
X235128650Y-96403688I751312J837350D01*
G01*
X236438640Y-94943680D01*
G75*
G02*
X238027302Y-94857642I837350J-751312D01*
G01*
X238027302Y-94857642D01*
G75*
G02*
X238113340Y-96446304I-751312J-837350D01*
G01*
X236803350Y-97906312D01*
G75*
G02*
X235214688Y-97992350I-837350J751312D01*
G01*
G37*
D15*
X242316000Y-94615000D03*
G36*
G01*
X242199483Y-96317395D02*
X242199483Y-96317395D01*
G75*
G02*
X241153605Y-95118483I76517J1122395D01*
G01*
X241193147Y-94538451D01*
G75*
G02*
X242392059Y-93492573I1122395J-76517D01*
G01*
X242392059Y-93492573D01*
G75*
G02*
X243437937Y-94691485I-76517J-1122395D01*
G01*
X243398395Y-95271517D01*
G75*
G02*
X242199483Y-96317395I-1122395J76517D01*
G01*
G37*
%TD*%
%TO.C,R7*%
G36*
G01*
X204665001Y-102845002D02*
X204665001Y-101945000D01*
G75*
G02*
X204915000Y-101695001I249999J0D01*
G01*
X205440002Y-101695001D01*
G75*
G02*
X205690001Y-101945000I0J-249999D01*
G01*
X205690001Y-102845002D01*
G75*
G02*
X205440002Y-103095001I-249999J0D01*
G01*
X204915000Y-103095001D01*
G75*
G02*
X204665001Y-102845002I0J249999D01*
G01*
G37*
G36*
G01*
X202840001Y-102845002D02*
X202840001Y-101945000D01*
G75*
G02*
X203090000Y-101695001I249999J0D01*
G01*
X203615002Y-101695001D01*
G75*
G02*
X203865001Y-101945000I0J-249999D01*
G01*
X203865001Y-102845002D01*
G75*
G02*
X203615002Y-103095001I-249999J0D01*
G01*
X203090000Y-103095001D01*
G75*
G02*
X202840001Y-102845002I0J249999D01*
G01*
G37*
%TD*%
%TO.C,R6*%
G36*
G01*
X200255001Y-102845002D02*
X200255001Y-101945000D01*
G75*
G02*
X200505000Y-101695001I249999J0D01*
G01*
X201030002Y-101695001D01*
G75*
G02*
X201280001Y-101945000I0J-249999D01*
G01*
X201280001Y-102845002D01*
G75*
G02*
X201030002Y-103095001I-249999J0D01*
G01*
X200505000Y-103095001D01*
G75*
G02*
X200255001Y-102845002I0J249999D01*
G01*
G37*
G36*
G01*
X198430001Y-102845002D02*
X198430001Y-101945000D01*
G75*
G02*
X198680000Y-101695001I249999J0D01*
G01*
X199205002Y-101695001D01*
G75*
G02*
X199455001Y-101945000I0J-249999D01*
G01*
X199455001Y-102845002D01*
G75*
G02*
X199205002Y-103095001I-249999J0D01*
G01*
X198680000Y-103095001D01*
G75*
G02*
X198430001Y-102845002I0J249999D01*
G01*
G37*
%TD*%
D17*
%TO.C,J3*%
X197583016Y-115897129D03*
X198301467Y-114356406D03*
X197942241Y-115126767D03*
X197223790Y-116667491D03*
X196864565Y-117437852D03*
X196505339Y-118208214D03*
X196146114Y-118978575D03*
X195786888Y-119748937D03*
X197100609Y-113796437D03*
X196739270Y-114571330D03*
X196380045Y-115341691D03*
X196020819Y-116112053D03*
X195661594Y-116882415D03*
X195302368Y-117652776D03*
X194943143Y-118423138D03*
X194583917Y-119193499D03*
G36*
G01*
X197494267Y-111993921D02*
X198853729Y-112627849D01*
G75*
G02*
X199071390Y-113225866I-190178J-407839D01*
G01*
X199071390Y-113225866D01*
G75*
G02*
X198473373Y-113443527I-407839J190178D01*
G01*
X197113911Y-112809599D01*
G75*
G02*
X196896250Y-112211582I190178J407839D01*
G01*
X196896250Y-112211582D01*
G75*
G02*
X197494267Y-111993921I407839J-190178D01*
G01*
G37*
G36*
G01*
X193838619Y-119833484D02*
X195198081Y-120467412D01*
G75*
G02*
X195415742Y-121065429I-190178J-407839D01*
G01*
X195415742Y-121065429D01*
G75*
G02*
X194817725Y-121283090I-407839J190178D01*
G01*
X193458263Y-120649162D01*
G75*
G02*
X193240602Y-120051145I190178J407839D01*
G01*
X193240602Y-120051145D01*
G75*
G02*
X193838619Y-119833484I407839J-190178D01*
G01*
G37*
G36*
G01*
X194748155Y-110713389D02*
X195473201Y-111051483D01*
G75*
G02*
X195690862Y-111649500I-190178J-407839D01*
G01*
X195690862Y-111649500D01*
G75*
G02*
X195092845Y-111867161I-407839J190178D01*
G01*
X194367799Y-111529067D01*
G75*
G02*
X194150138Y-110931050I190178J407839D01*
G01*
X194150138Y-110931050D01*
G75*
G02*
X194748155Y-110713389I407839J-190178D01*
G01*
G37*
G36*
G01*
X191092507Y-118552951D02*
X191817553Y-118891045D01*
G75*
G02*
X192035214Y-119489062I-190178J-407839D01*
G01*
X192035214Y-119489062D01*
G75*
G02*
X191437197Y-119706723I-407839J190178D01*
G01*
X190712151Y-119368629D01*
G75*
G02*
X190494490Y-118770612I190178J407839D01*
G01*
X190494490Y-118770612D01*
G75*
G02*
X191092507Y-118552951I407839J-190178D01*
G01*
G37*
%TD*%
%TO.C,J2*%
X155437961Y-118208039D03*
X156156412Y-119748762D03*
X155797186Y-118978400D03*
X155078735Y-117437677D03*
X154719510Y-116667316D03*
X154360284Y-115896954D03*
X154001059Y-115126592D03*
X153641833Y-114356231D03*
X157357270Y-119188793D03*
X156995931Y-118413900D03*
X156636706Y-117643538D03*
X156277480Y-116873176D03*
X155918254Y-116102815D03*
X155559029Y-115332453D03*
X155199803Y-114562092D03*
X154840578Y-113791730D03*
G36*
G01*
X158485037Y-120648987D02*
X157125575Y-121282915D01*
G75*
G02*
X156527558Y-121065254I-190178J407839D01*
G01*
X156527558Y-121065254D01*
G75*
G02*
X156745219Y-120467237I407839J190178D01*
G01*
X158104681Y-119833309D01*
G75*
G02*
X158702698Y-120050970I190178J-407839D01*
G01*
X158702698Y-120050970D01*
G75*
G02*
X158485037Y-120648987I-407839J-190178D01*
G01*
G37*
G36*
G01*
X154829389Y-112809424D02*
X153469927Y-113443352D01*
G75*
G02*
X152871910Y-113225691I-190178J407839D01*
G01*
X152871910Y-113225691D01*
G75*
G02*
X153089571Y-112627674I407839J190178D01*
G01*
X154449033Y-111993746D01*
G75*
G02*
X155047050Y-112211407I190178J-407839D01*
G01*
X155047050Y-112211407D01*
G75*
G02*
X154829389Y-112809424I-407839J-190178D01*
G01*
G37*
G36*
G01*
X161231149Y-119368454D02*
X160506103Y-119706548D01*
G75*
G02*
X159908086Y-119488887I-190178J407839D01*
G01*
X159908086Y-119488887D01*
G75*
G02*
X160125747Y-118890870I407839J190178D01*
G01*
X160850793Y-118552776D01*
G75*
G02*
X161448810Y-118770437I190178J-407839D01*
G01*
X161448810Y-118770437D01*
G75*
G02*
X161231149Y-119368454I-407839J-190178D01*
G01*
G37*
G36*
G01*
X157575501Y-111528892D02*
X156850455Y-111866986D01*
G75*
G02*
X156252438Y-111649325I-190178J407839D01*
G01*
X156252438Y-111649325D01*
G75*
G02*
X156470099Y-111051308I407839J190178D01*
G01*
X157195145Y-110713214D01*
G75*
G02*
X157793162Y-110930875I190178J-407839D01*
G01*
X157793162Y-110930875D01*
G75*
G02*
X157575501Y-111528892I-407839J-190178D01*
G01*
G37*
%TD*%
D18*
%TO.C,REF\u002A\u002A*%
X180580000Y-55630000D03*
D19*
X180580000Y-58170000D03*
D20*
X179700000Y-62120000D03*
D12*
X175500000Y-51400000D03*
X175500000Y-62400000D03*
D13*
X169600000Y-56900000D03*
X171700000Y-51900000D03*
D14*
X175500000Y-51820000D03*
X175500000Y-61980000D03*
D15*
X171500000Y-59400000D03*
D16*
X175500000Y-56900000D03*
G36*
G01*
X173797350Y-61461312D02*
X173797350Y-61461312D01*
G75*
G02*
X172208688Y-61547350I-837350J751312D01*
G01*
X170748680Y-60237360D01*
G75*
G02*
X170662642Y-58648698I751312J837350D01*
G01*
X170662642Y-58648698D01*
G75*
G02*
X172251304Y-58562660I837350J-751312D01*
G01*
X173711312Y-59872650D01*
G75*
G02*
X173797350Y-61461312I-751312J-837350D01*
G01*
G37*
D15*
X170420000Y-54360000D03*
G36*
G01*
X172122395Y-54476517D02*
X172122395Y-54476517D01*
G75*
G02*
X170923483Y-55522395I-1122395J76517D01*
G01*
X170343451Y-55482853D01*
G75*
G02*
X169297573Y-54283941I76517J1122395D01*
G01*
X169297573Y-54283941D01*
G75*
G02*
X170496485Y-53238063I1122395J-76517D01*
G01*
X171076517Y-53277605D01*
G75*
G02*
X172122395Y-54476517I-76517J-1122395D01*
G01*
G37*
%TD*%
D21*
%TO.C,U4*%
X175500000Y-101700000D03*
%TD*%
%TO.C,F1*%
G36*
G01*
X153739001Y-53271000D02*
X152838999Y-53271000D01*
G75*
G02*
X152589000Y-53021001I0J249999D01*
G01*
X152589000Y-52370999D01*
G75*
G02*
X152838999Y-52121000I249999J0D01*
G01*
X153739001Y-52121000D01*
G75*
G02*
X153989000Y-52370999I0J-249999D01*
G01*
X153989000Y-53021001D01*
G75*
G02*
X153739001Y-53271000I-249999J0D01*
G01*
G37*
G36*
G01*
X153739001Y-55321000D02*
X152838999Y-55321000D01*
G75*
G02*
X152589000Y-55071001I0J249999D01*
G01*
X152589000Y-54420999D01*
G75*
G02*
X152838999Y-54171000I249999J0D01*
G01*
X153739001Y-54171000D01*
G75*
G02*
X153989000Y-54420999I0J-249999D01*
G01*
X153989000Y-55071001D01*
G75*
G02*
X153739001Y-55321000I-249999J0D01*
G01*
G37*
%TD*%
D11*
%TO.C,MX40*%
X215506000Y-87258000D03*
D12*
X226226000Y-83058000D03*
X215226000Y-83058000D03*
D13*
X220726000Y-77158000D03*
X225726000Y-79258000D03*
D14*
X225806000Y-83058000D03*
X215646000Y-83058000D03*
D15*
X218226000Y-79058000D03*
D16*
X220726000Y-83058000D03*
G36*
G01*
X216164688Y-81355350D02*
X216164688Y-81355350D01*
G75*
G02*
X216078650Y-79766688I751312J837350D01*
G01*
X217388640Y-78306680D01*
G75*
G02*
X218977302Y-78220642I837350J-751312D01*
G01*
X218977302Y-78220642D01*
G75*
G02*
X219063340Y-79809304I-751312J-837350D01*
G01*
X217753350Y-81269312D01*
G75*
G02*
X216164688Y-81355350I-837350J751312D01*
G01*
G37*
D15*
X223266000Y-77978000D03*
G36*
G01*
X223149483Y-79680395D02*
X223149483Y-79680395D01*
G75*
G02*
X222103605Y-78481483I76517J1122395D01*
G01*
X222143147Y-77901451D01*
G75*
G02*
X223342059Y-76855573I1122395J-76517D01*
G01*
X223342059Y-76855573D01*
G75*
G02*
X224387937Y-78054485I-76517J-1122395D01*
G01*
X224348395Y-78634517D01*
G75*
G02*
X223149483Y-79680395I-1122395J76517D01*
G01*
G37*
%TD*%
D11*
%TO.C,MX8*%
X50025000Y-73161000D03*
D12*
X60745000Y-68961000D03*
X49745000Y-68961000D03*
D13*
X55245000Y-63061000D03*
X60245000Y-65161000D03*
D14*
X60325000Y-68961000D03*
X50165000Y-68961000D03*
D15*
X52745000Y-64961000D03*
D16*
X55245000Y-68961000D03*
G36*
G01*
X50683688Y-67258350D02*
X50683688Y-67258350D01*
G75*
G02*
X50597650Y-65669688I751312J837350D01*
G01*
X51907640Y-64209680D01*
G75*
G02*
X53496302Y-64123642I837350J-751312D01*
G01*
X53496302Y-64123642D01*
G75*
G02*
X53582340Y-65712304I-751312J-837350D01*
G01*
X52272350Y-67172312D01*
G75*
G02*
X50683688Y-67258350I-837350J751312D01*
G01*
G37*
D15*
X57785000Y-63881000D03*
G36*
G01*
X57668483Y-65583395D02*
X57668483Y-65583395D01*
G75*
G02*
X56622605Y-64384483I76517J1122395D01*
G01*
X56662147Y-63804451D01*
G75*
G02*
X57861059Y-62758573I1122395J-76517D01*
G01*
X57861059Y-62758573D01*
G75*
G02*
X58906937Y-63957485I-76517J-1122395D01*
G01*
X58867395Y-64537517D01*
G75*
G02*
X57668483Y-65583395I-1122395J76517D01*
G01*
G37*
%TD*%
D22*
%TO.C,SW1*%
X147016000Y-97251000D03*
X153316000Y-97251000D03*
X147016000Y-101051000D03*
X153316000Y-101051000D03*
%TD*%
D11*
%TO.C,MX54*%
X228460000Y-125358000D03*
D12*
X239180000Y-121158000D03*
X228180000Y-121158000D03*
D13*
X233680000Y-115258000D03*
X238680000Y-117358000D03*
D14*
X238760000Y-121158000D03*
X228600000Y-121158000D03*
D15*
X231180000Y-117158000D03*
D16*
X233680000Y-121158000D03*
G36*
G01*
X229118688Y-119455350D02*
X229118688Y-119455350D01*
G75*
G02*
X229032650Y-117866688I751312J837350D01*
G01*
X230342640Y-116406680D01*
G75*
G02*
X231931302Y-116320642I837350J-751312D01*
G01*
X231931302Y-116320642D01*
G75*
G02*
X232017340Y-117909304I-751312J-837350D01*
G01*
X230707350Y-119369312D01*
G75*
G02*
X229118688Y-119455350I-837350J751312D01*
G01*
G37*
D15*
X236220000Y-116078000D03*
G36*
G01*
X236103483Y-117780395D02*
X236103483Y-117780395D01*
G75*
G02*
X235057605Y-116581483I76517J1122395D01*
G01*
X235097147Y-116001451D01*
G75*
G02*
X236296059Y-114955573I1122395J-76517D01*
G01*
X236296059Y-114955573D01*
G75*
G02*
X237341937Y-116154485I-76517J-1122395D01*
G01*
X237302395Y-116734517D01*
G75*
G02*
X236103483Y-117780395I-1122395J76517D01*
G01*
G37*
%TD*%
D11*
%TO.C,MX53*%
X208691596Y-130134728D03*
D12*
X217524946Y-122750262D03*
X207093386Y-126240614D03*
D13*
X210437069Y-118900328D03*
X215845027Y-119305285D03*
D14*
X217126650Y-122883530D03*
X207491682Y-126107346D03*
D15*
X208669138Y-121495405D03*
D16*
X212309166Y-124495438D03*
G36*
G01*
X207443308Y-124328101D02*
X207443308Y-124328101D01*
G75*
G02*
X206857625Y-122848836I446791J1032474D01*
G01*
X207636653Y-121048608D01*
G75*
G02*
X209115918Y-120462925I1032474J-446791D01*
G01*
X209115918Y-120462925D01*
G75*
G02*
X209701601Y-121942190I-446791J-1032474D01*
G01*
X208922573Y-123742418D01*
G75*
G02*
X207443308Y-124328101I-1032474J446791D01*
G01*
G37*
D15*
X213106000Y-118872000D03*
G36*
G01*
X213535682Y-120523393D02*
X213535682Y-120523393D01*
G75*
G02*
X212163431Y-119718298I-283578J1088673D01*
G01*
X212016883Y-119155694D01*
G75*
G02*
X212821978Y-117783443I1088673J283578D01*
G01*
X212821978Y-117783443D01*
G75*
G02*
X214194229Y-118588538I283578J-1088673D01*
G01*
X214340777Y-119151142D01*
G75*
G02*
X213535682Y-120523393I-1088673J-283578D01*
G01*
G37*
%TD*%
D11*
%TO.C,MX52*%
X191139030Y-140440204D03*
D12*
X197594757Y-130906999D03*
X188529369Y-137137467D03*
D13*
X189720266Y-129159888D03*
X195030350Y-128058522D03*
D14*
X197248624Y-131144889D03*
X188875502Y-136899577D03*
D15*
X188736123Y-132141744D03*
D16*
X193062063Y-134022233D03*
G36*
G01*
X188338575Y-135202590D02*
X188338575Y-135202590D01*
G75*
G02*
X187367840Y-133942065I144895J1115630D01*
G01*
X187620480Y-131996847D01*
G75*
G02*
X188881005Y-131026112I1115630J-144895D01*
G01*
X188881005Y-131026112D01*
G75*
G02*
X189851740Y-132286637I-144895J-1115630D01*
G01*
X189599100Y-134231855D01*
G75*
G02*
X188338575Y-135202590I-1115630J144895D01*
G01*
G37*
D15*
X192278000Y-128397000D03*
G36*
G01*
X193146222Y-129865985D02*
X193146222Y-129865985D01*
G75*
G02*
X191605215Y-129470322I-572672J968335D01*
G01*
X191309269Y-128969906D01*
G75*
G02*
X191704932Y-127428899I968335J572672D01*
G01*
X191704932Y-127428899D01*
G75*
G02*
X193245939Y-127824562I572672J-968335D01*
G01*
X193541885Y-128324978D01*
G75*
G02*
X193146222Y-129865985I-968335J-572672D01*
G01*
G37*
%TD*%
D11*
%TO.C,MX51*%
X310629000Y-111134000D03*
D12*
X321349000Y-106934000D03*
X310349000Y-106934000D03*
D13*
X315849000Y-101034000D03*
X320849000Y-103134000D03*
D14*
X320929000Y-106934000D03*
X310769000Y-106934000D03*
D15*
X313349000Y-102934000D03*
D16*
X315849000Y-106934000D03*
G36*
G01*
X311287688Y-105231350D02*
X311287688Y-105231350D01*
G75*
G02*
X311201650Y-103642688I751312J837350D01*
G01*
X312511640Y-102182680D01*
G75*
G02*
X314100302Y-102096642I837350J-751312D01*
G01*
X314100302Y-102096642D01*
G75*
G02*
X314186340Y-103685304I-751312J-837350D01*
G01*
X312876350Y-105145312D01*
G75*
G02*
X311287688Y-105231350I-837350J751312D01*
G01*
G37*
D15*
X318389000Y-101854000D03*
G36*
G01*
X318272483Y-103556395D02*
X318272483Y-103556395D01*
G75*
G02*
X317226605Y-102357483I76517J1122395D01*
G01*
X317266147Y-101777451D01*
G75*
G02*
X318465059Y-100731573I1122395J-76517D01*
G01*
X318465059Y-100731573D01*
G75*
G02*
X319510937Y-101930485I-76517J-1122395D01*
G01*
X319471395Y-102510517D01*
G75*
G02*
X318272483Y-103556395I-1122395J76517D01*
G01*
G37*
%TD*%
D11*
%TO.C,MX50*%
X291579000Y-111134000D03*
D12*
X302299000Y-106934000D03*
X291299000Y-106934000D03*
D13*
X296799000Y-101034000D03*
X301799000Y-103134000D03*
D14*
X301879000Y-106934000D03*
X291719000Y-106934000D03*
D15*
X294299000Y-102934000D03*
D16*
X296799000Y-106934000D03*
G36*
G01*
X292237688Y-105231350D02*
X292237688Y-105231350D01*
G75*
G02*
X292151650Y-103642688I751312J837350D01*
G01*
X293461640Y-102182680D01*
G75*
G02*
X295050302Y-102096642I837350J-751312D01*
G01*
X295050302Y-102096642D01*
G75*
G02*
X295136340Y-103685304I-751312J-837350D01*
G01*
X293826350Y-105145312D01*
G75*
G02*
X292237688Y-105231350I-837350J751312D01*
G01*
G37*
D15*
X299339000Y-101854000D03*
G36*
G01*
X299222483Y-103556395D02*
X299222483Y-103556395D01*
G75*
G02*
X298176605Y-102357483I76517J1122395D01*
G01*
X298216147Y-101777451D01*
G75*
G02*
X299415059Y-100731573I1122395J-76517D01*
G01*
X299415059Y-100731573D01*
G75*
G02*
X300460937Y-101930485I-76517J-1122395D01*
G01*
X300421395Y-102510517D01*
G75*
G02*
X299222483Y-103556395I-1122395J76517D01*
G01*
G37*
%TD*%
D11*
%TO.C,MX49*%
X272529000Y-103895000D03*
D12*
X283249000Y-99695000D03*
X272249000Y-99695000D03*
D13*
X277749000Y-93795000D03*
X282749000Y-95895000D03*
D14*
X282829000Y-99695000D03*
X272669000Y-99695000D03*
D15*
X275249000Y-95695000D03*
D16*
X277749000Y-99695000D03*
G36*
G01*
X273187688Y-97992350D02*
X273187688Y-97992350D01*
G75*
G02*
X273101650Y-96403688I751312J837350D01*
G01*
X274411640Y-94943680D01*
G75*
G02*
X276000302Y-94857642I837350J-751312D01*
G01*
X276000302Y-94857642D01*
G75*
G02*
X276086340Y-96446304I-751312J-837350D01*
G01*
X274776350Y-97906312D01*
G75*
G02*
X273187688Y-97992350I-837350J751312D01*
G01*
G37*
D15*
X280289000Y-94615000D03*
G36*
G01*
X280172483Y-96317395D02*
X280172483Y-96317395D01*
G75*
G02*
X279126605Y-95118483I76517J1122395D01*
G01*
X279166147Y-94538451D01*
G75*
G02*
X280365059Y-93492573I1122395J-76517D01*
G01*
X280365059Y-93492573D01*
G75*
G02*
X281410937Y-94691485I-76517J-1122395D01*
G01*
X281371395Y-95271517D01*
G75*
G02*
X280172483Y-96317395I-1122395J76517D01*
G01*
G37*
%TD*%
D11*
%TO.C,MX48*%
X253606000Y-99196000D03*
D12*
X264326000Y-94996000D03*
X253326000Y-94996000D03*
D13*
X258826000Y-89096000D03*
X263826000Y-91196000D03*
D14*
X263906000Y-94996000D03*
X253746000Y-94996000D03*
D15*
X256326000Y-90996000D03*
D16*
X258826000Y-94996000D03*
G36*
G01*
X254264688Y-93293350D02*
X254264688Y-93293350D01*
G75*
G02*
X254178650Y-91704688I751312J837350D01*
G01*
X255488640Y-90244680D01*
G75*
G02*
X257077302Y-90158642I837350J-751312D01*
G01*
X257077302Y-90158642D01*
G75*
G02*
X257163340Y-91747304I-751312J-837350D01*
G01*
X255853350Y-93207312D01*
G75*
G02*
X254264688Y-93293350I-837350J751312D01*
G01*
G37*
D15*
X261366000Y-89916000D03*
G36*
G01*
X261249483Y-91618395D02*
X261249483Y-91618395D01*
G75*
G02*
X260203605Y-90419483I76517J1122395D01*
G01*
X260243147Y-89839451D01*
G75*
G02*
X261442059Y-88793573I1122395J-76517D01*
G01*
X261442059Y-88793573D01*
G75*
G02*
X262487937Y-89992485I-76517J-1122395D01*
G01*
X262448395Y-90572517D01*
G75*
G02*
X261249483Y-91618395I-1122395J76517D01*
G01*
G37*
%TD*%
D11*
%TO.C,MX46*%
X215506000Y-106308000D03*
D12*
X226226000Y-102108000D03*
X215226000Y-102108000D03*
D13*
X220726000Y-96208000D03*
X225726000Y-98308000D03*
D14*
X225806000Y-102108000D03*
X215646000Y-102108000D03*
D15*
X218226000Y-98108000D03*
D16*
X220726000Y-102108000D03*
G36*
G01*
X216164688Y-100405350D02*
X216164688Y-100405350D01*
G75*
G02*
X216078650Y-98816688I751312J837350D01*
G01*
X217388640Y-97356680D01*
G75*
G02*
X218977302Y-97270642I837350J-751312D01*
G01*
X218977302Y-97270642D01*
G75*
G02*
X219063340Y-98859304I-751312J-837350D01*
G01*
X217753350Y-100319312D01*
G75*
G02*
X216164688Y-100405350I-837350J751312D01*
G01*
G37*
D15*
X223266000Y-97028000D03*
G36*
G01*
X223149483Y-98730395D02*
X223149483Y-98730395D01*
G75*
G02*
X222103605Y-97531483I76517J1122395D01*
G01*
X222143147Y-96951451D01*
G75*
G02*
X223342059Y-95905573I1122395J-76517D01*
G01*
X223342059Y-95905573D01*
G75*
G02*
X224387937Y-97104485I-76517J-1122395D01*
G01*
X224348395Y-97684517D01*
G75*
G02*
X223149483Y-98730395I-1122395J76517D01*
G01*
G37*
%TD*%
D11*
%TO.C,MX45*%
X310629000Y-92211000D03*
D12*
X321349000Y-88011000D03*
X310349000Y-88011000D03*
D13*
X315849000Y-82111000D03*
X320849000Y-84211000D03*
D14*
X320929000Y-88011000D03*
X310769000Y-88011000D03*
D15*
X313349000Y-84011000D03*
D16*
X315849000Y-88011000D03*
G36*
G01*
X311287688Y-86308350D02*
X311287688Y-86308350D01*
G75*
G02*
X311201650Y-84719688I751312J837350D01*
G01*
X312511640Y-83259680D01*
G75*
G02*
X314100302Y-83173642I837350J-751312D01*
G01*
X314100302Y-83173642D01*
G75*
G02*
X314186340Y-84762304I-751312J-837350D01*
G01*
X312876350Y-86222312D01*
G75*
G02*
X311287688Y-86308350I-837350J751312D01*
G01*
G37*
D15*
X318389000Y-82931000D03*
G36*
G01*
X318272483Y-84633395D02*
X318272483Y-84633395D01*
G75*
G02*
X317226605Y-83434483I76517J1122395D01*
G01*
X317266147Y-82854451D01*
G75*
G02*
X318465059Y-81808573I1122395J-76517D01*
G01*
X318465059Y-81808573D01*
G75*
G02*
X319510937Y-83007485I-76517J-1122395D01*
G01*
X319471395Y-83587517D01*
G75*
G02*
X318272483Y-84633395I-1122395J76517D01*
G01*
G37*
%TD*%
D11*
%TO.C,MX44*%
X291579000Y-92211000D03*
D12*
X302299000Y-88011000D03*
X291299000Y-88011000D03*
D13*
X296799000Y-82111000D03*
X301799000Y-84211000D03*
D14*
X301879000Y-88011000D03*
X291719000Y-88011000D03*
D15*
X294299000Y-84011000D03*
D16*
X296799000Y-88011000D03*
G36*
G01*
X292237688Y-86308350D02*
X292237688Y-86308350D01*
G75*
G02*
X292151650Y-84719688I751312J837350D01*
G01*
X293461640Y-83259680D01*
G75*
G02*
X295050302Y-83173642I837350J-751312D01*
G01*
X295050302Y-83173642D01*
G75*
G02*
X295136340Y-84762304I-751312J-837350D01*
G01*
X293826350Y-86222312D01*
G75*
G02*
X292237688Y-86308350I-837350J751312D01*
G01*
G37*
D15*
X299339000Y-82931000D03*
G36*
G01*
X299222483Y-84633395D02*
X299222483Y-84633395D01*
G75*
G02*
X298176605Y-83434483I76517J1122395D01*
G01*
X298216147Y-82854451D01*
G75*
G02*
X299415059Y-81808573I1122395J-76517D01*
G01*
X299415059Y-81808573D01*
G75*
G02*
X300460937Y-83007485I-76517J-1122395D01*
G01*
X300421395Y-83587517D01*
G75*
G02*
X299222483Y-84633395I-1122395J76517D01*
G01*
G37*
%TD*%
D11*
%TO.C,MX43*%
X272529000Y-84845000D03*
D12*
X283249000Y-80645000D03*
X272249000Y-80645000D03*
D13*
X277749000Y-74745000D03*
X282749000Y-76845000D03*
D14*
X282829000Y-80645000D03*
X272669000Y-80645000D03*
D15*
X275249000Y-76645000D03*
D16*
X277749000Y-80645000D03*
G36*
G01*
X273187688Y-78942350D02*
X273187688Y-78942350D01*
G75*
G02*
X273101650Y-77353688I751312J837350D01*
G01*
X274411640Y-75893680D01*
G75*
G02*
X276000302Y-75807642I837350J-751312D01*
G01*
X276000302Y-75807642D01*
G75*
G02*
X276086340Y-77396304I-751312J-837350D01*
G01*
X274776350Y-78856312D01*
G75*
G02*
X273187688Y-78942350I-837350J751312D01*
G01*
G37*
D15*
X280289000Y-75565000D03*
G36*
G01*
X280172483Y-77267395D02*
X280172483Y-77267395D01*
G75*
G02*
X279126605Y-76068483I76517J1122395D01*
G01*
X279166147Y-75488451D01*
G75*
G02*
X280365059Y-74442573I1122395J-76517D01*
G01*
X280365059Y-74442573D01*
G75*
G02*
X281410937Y-75641485I-76517J-1122395D01*
G01*
X281371395Y-76221517D01*
G75*
G02*
X280172483Y-77267395I-1122395J76517D01*
G01*
G37*
%TD*%
D11*
%TO.C,MX42*%
X253606000Y-80146000D03*
D12*
X264326000Y-75946000D03*
X253326000Y-75946000D03*
D13*
X258826000Y-70046000D03*
X263826000Y-72146000D03*
D14*
X263906000Y-75946000D03*
X253746000Y-75946000D03*
D15*
X256326000Y-71946000D03*
D16*
X258826000Y-75946000D03*
G36*
G01*
X254264688Y-74243350D02*
X254264688Y-74243350D01*
G75*
G02*
X254178650Y-72654688I751312J837350D01*
G01*
X255488640Y-71194680D01*
G75*
G02*
X257077302Y-71108642I837350J-751312D01*
G01*
X257077302Y-71108642D01*
G75*
G02*
X257163340Y-72697304I-751312J-837350D01*
G01*
X255853350Y-74157312D01*
G75*
G02*
X254264688Y-74243350I-837350J751312D01*
G01*
G37*
D15*
X261366000Y-70866000D03*
G36*
G01*
X261249483Y-72568395D02*
X261249483Y-72568395D01*
G75*
G02*
X260203605Y-71369483I76517J1122395D01*
G01*
X260243147Y-70789451D01*
G75*
G02*
X261442059Y-69743573I1122395J-76517D01*
G01*
X261442059Y-69743573D01*
G75*
G02*
X262487937Y-70942485I-76517J-1122395D01*
G01*
X262448395Y-71522517D01*
G75*
G02*
X261249483Y-72568395I-1122395J76517D01*
G01*
G37*
%TD*%
D11*
%TO.C,MX41*%
X234556000Y-84845000D03*
D12*
X245276000Y-80645000D03*
X234276000Y-80645000D03*
D13*
X239776000Y-74745000D03*
X244776000Y-76845000D03*
D14*
X244856000Y-80645000D03*
X234696000Y-80645000D03*
D15*
X237276000Y-76645000D03*
D16*
X239776000Y-80645000D03*
G36*
G01*
X235214688Y-78942350D02*
X235214688Y-78942350D01*
G75*
G02*
X235128650Y-77353688I751312J837350D01*
G01*
X236438640Y-75893680D01*
G75*
G02*
X238027302Y-75807642I837350J-751312D01*
G01*
X238027302Y-75807642D01*
G75*
G02*
X238113340Y-77396304I-751312J-837350D01*
G01*
X236803350Y-78856312D01*
G75*
G02*
X235214688Y-78942350I-837350J751312D01*
G01*
G37*
D15*
X242316000Y-75565000D03*
G36*
G01*
X242199483Y-77267395D02*
X242199483Y-77267395D01*
G75*
G02*
X241153605Y-76068483I76517J1122395D01*
G01*
X241193147Y-75488451D01*
G75*
G02*
X242392059Y-74442573I1122395J-76517D01*
G01*
X242392059Y-74442573D01*
G75*
G02*
X243437937Y-75641485I-76517J-1122395D01*
G01*
X243398395Y-76221517D01*
G75*
G02*
X242199483Y-77267395I-1122395J76517D01*
G01*
G37*
%TD*%
D11*
%TO.C,MX39*%
X310502000Y-73161000D03*
D12*
X321222000Y-68961000D03*
X310222000Y-68961000D03*
D13*
X315722000Y-63061000D03*
X320722000Y-65161000D03*
D14*
X320802000Y-68961000D03*
X310642000Y-68961000D03*
D15*
X313222000Y-64961000D03*
D16*
X315722000Y-68961000D03*
G36*
G01*
X311160688Y-67258350D02*
X311160688Y-67258350D01*
G75*
G02*
X311074650Y-65669688I751312J837350D01*
G01*
X312384640Y-64209680D01*
G75*
G02*
X313973302Y-64123642I837350J-751312D01*
G01*
X313973302Y-64123642D01*
G75*
G02*
X314059340Y-65712304I-751312J-837350D01*
G01*
X312749350Y-67172312D01*
G75*
G02*
X311160688Y-67258350I-837350J751312D01*
G01*
G37*
D15*
X318262000Y-63881000D03*
G36*
G01*
X318145483Y-65583395D02*
X318145483Y-65583395D01*
G75*
G02*
X317099605Y-64384483I76517J1122395D01*
G01*
X317139147Y-63804451D01*
G75*
G02*
X318338059Y-62758573I1122395J-76517D01*
G01*
X318338059Y-62758573D01*
G75*
G02*
X319383937Y-63957485I-76517J-1122395D01*
G01*
X319344395Y-64537517D01*
G75*
G02*
X318145483Y-65583395I-1122395J76517D01*
G01*
G37*
%TD*%
D11*
%TO.C,MX38*%
X291579000Y-73161000D03*
D12*
X302299000Y-68961000D03*
X291299000Y-68961000D03*
D13*
X296799000Y-63061000D03*
X301799000Y-65161000D03*
D14*
X301879000Y-68961000D03*
X291719000Y-68961000D03*
D15*
X294299000Y-64961000D03*
D16*
X296799000Y-68961000D03*
G36*
G01*
X292237688Y-67258350D02*
X292237688Y-67258350D01*
G75*
G02*
X292151650Y-65669688I751312J837350D01*
G01*
X293461640Y-64209680D01*
G75*
G02*
X295050302Y-64123642I837350J-751312D01*
G01*
X295050302Y-64123642D01*
G75*
G02*
X295136340Y-65712304I-751312J-837350D01*
G01*
X293826350Y-67172312D01*
G75*
G02*
X292237688Y-67258350I-837350J751312D01*
G01*
G37*
D15*
X299339000Y-63881000D03*
G36*
G01*
X299222483Y-65583395D02*
X299222483Y-65583395D01*
G75*
G02*
X298176605Y-64384483I76517J1122395D01*
G01*
X298216147Y-63804451D01*
G75*
G02*
X299415059Y-62758573I1122395J-76517D01*
G01*
X299415059Y-62758573D01*
G75*
G02*
X300460937Y-63957485I-76517J-1122395D01*
G01*
X300421395Y-64537517D01*
G75*
G02*
X299222483Y-65583395I-1122395J76517D01*
G01*
G37*
%TD*%
D11*
%TO.C,MX37*%
X272529000Y-65922000D03*
D12*
X283249000Y-61722000D03*
X272249000Y-61722000D03*
D13*
X277749000Y-55822000D03*
X282749000Y-57922000D03*
D14*
X282829000Y-61722000D03*
X272669000Y-61722000D03*
D15*
X275249000Y-57722000D03*
D16*
X277749000Y-61722000D03*
G36*
G01*
X273187688Y-60019350D02*
X273187688Y-60019350D01*
G75*
G02*
X273101650Y-58430688I751312J837350D01*
G01*
X274411640Y-56970680D01*
G75*
G02*
X276000302Y-56884642I837350J-751312D01*
G01*
X276000302Y-56884642D01*
G75*
G02*
X276086340Y-58473304I-751312J-837350D01*
G01*
X274776350Y-59933312D01*
G75*
G02*
X273187688Y-60019350I-837350J751312D01*
G01*
G37*
D15*
X280289000Y-56642000D03*
G36*
G01*
X280172483Y-58344395D02*
X280172483Y-58344395D01*
G75*
G02*
X279126605Y-57145483I76517J1122395D01*
G01*
X279166147Y-56565451D01*
G75*
G02*
X280365059Y-55519573I1122395J-76517D01*
G01*
X280365059Y-55519573D01*
G75*
G02*
X281410937Y-56718485I-76517J-1122395D01*
G01*
X281371395Y-57298517D01*
G75*
G02*
X280172483Y-58344395I-1122395J76517D01*
G01*
G37*
%TD*%
D11*
%TO.C,MX36*%
X253606000Y-61096000D03*
D12*
X264326000Y-56896000D03*
X253326000Y-56896000D03*
D13*
X258826000Y-50996000D03*
X263826000Y-53096000D03*
D14*
X263906000Y-56896000D03*
X253746000Y-56896000D03*
D15*
X256326000Y-52896000D03*
D16*
X258826000Y-56896000D03*
G36*
G01*
X254264688Y-55193350D02*
X254264688Y-55193350D01*
G75*
G02*
X254178650Y-53604688I751312J837350D01*
G01*
X255488640Y-52144680D01*
G75*
G02*
X257077302Y-52058642I837350J-751312D01*
G01*
X257077302Y-52058642D01*
G75*
G02*
X257163340Y-53647304I-751312J-837350D01*
G01*
X255853350Y-55107312D01*
G75*
G02*
X254264688Y-55193350I-837350J751312D01*
G01*
G37*
D15*
X261366000Y-51816000D03*
G36*
G01*
X261249483Y-53518395D02*
X261249483Y-53518395D01*
G75*
G02*
X260203605Y-52319483I76517J1122395D01*
G01*
X260243147Y-51739451D01*
G75*
G02*
X261442059Y-50693573I1122395J-76517D01*
G01*
X261442059Y-50693573D01*
G75*
G02*
X262487937Y-51892485I-76517J-1122395D01*
G01*
X262448395Y-52472517D01*
G75*
G02*
X261249483Y-53518395I-1122395J76517D01*
G01*
G37*
%TD*%
D11*
%TO.C,MX35*%
X234556000Y-65922000D03*
D12*
X245276000Y-61722000D03*
X234276000Y-61722000D03*
D13*
X239776000Y-55822000D03*
X244776000Y-57922000D03*
D14*
X244856000Y-61722000D03*
X234696000Y-61722000D03*
D15*
X237276000Y-57722000D03*
D16*
X239776000Y-61722000D03*
G36*
G01*
X235214688Y-60019350D02*
X235214688Y-60019350D01*
G75*
G02*
X235128650Y-58430688I751312J837350D01*
G01*
X236438640Y-56970680D01*
G75*
G02*
X238027302Y-56884642I837350J-751312D01*
G01*
X238027302Y-56884642D01*
G75*
G02*
X238113340Y-58473304I-751312J-837350D01*
G01*
X236803350Y-59933312D01*
G75*
G02*
X235214688Y-60019350I-837350J751312D01*
G01*
G37*
D15*
X242316000Y-56642000D03*
G36*
G01*
X242199483Y-58344395D02*
X242199483Y-58344395D01*
G75*
G02*
X241153605Y-57145483I76517J1122395D01*
G01*
X241193147Y-56565451D01*
G75*
G02*
X242392059Y-55519573I1122395J-76517D01*
G01*
X242392059Y-55519573D01*
G75*
G02*
X243437937Y-56718485I-76517J-1122395D01*
G01*
X243398395Y-57298517D01*
G75*
G02*
X242199483Y-58344395I-1122395J76517D01*
G01*
G37*
%TD*%
D11*
%TO.C,MX34*%
X215429800Y-68322300D03*
D12*
X226149800Y-64122300D03*
X215149800Y-64122300D03*
D13*
X220649800Y-58222300D03*
X225649800Y-60322300D03*
D14*
X225729800Y-64122300D03*
X215569800Y-64122300D03*
D15*
X218149800Y-60122300D03*
D16*
X220649800Y-64122300D03*
G36*
G01*
X216088488Y-62419650D02*
X216088488Y-62419650D01*
G75*
G02*
X216002450Y-60830988I751312J837350D01*
G01*
X217312440Y-59370980D01*
G75*
G02*
X218901102Y-59284942I837350J-751312D01*
G01*
X218901102Y-59284942D01*
G75*
G02*
X218987140Y-60873604I-751312J-837350D01*
G01*
X217677150Y-62333612D01*
G75*
G02*
X216088488Y-62419650I-837350J751312D01*
G01*
G37*
D15*
X223189800Y-59042300D03*
G36*
G01*
X223073283Y-60744695D02*
X223073283Y-60744695D01*
G75*
G02*
X222027405Y-59545783I76517J1122395D01*
G01*
X222066947Y-58965751D01*
G75*
G02*
X223265859Y-57919873I1122395J-76517D01*
G01*
X223265859Y-57919873D01*
G75*
G02*
X224311737Y-59118785I-76517J-1122395D01*
G01*
X224272195Y-59698817D01*
G75*
G02*
X223073283Y-60744695I-1122395J76517D01*
G01*
G37*
%TD*%
D11*
%TO.C,MX33*%
X310502000Y-54111000D03*
D12*
X321222000Y-49911000D03*
X310222000Y-49911000D03*
D13*
X315722000Y-44011000D03*
X320722000Y-46111000D03*
D14*
X320802000Y-49911000D03*
X310642000Y-49911000D03*
D15*
X313222000Y-45911000D03*
D16*
X315722000Y-49911000D03*
G36*
G01*
X311160688Y-48208350D02*
X311160688Y-48208350D01*
G75*
G02*
X311074650Y-46619688I751312J837350D01*
G01*
X312384640Y-45159680D01*
G75*
G02*
X313973302Y-45073642I837350J-751312D01*
G01*
X313973302Y-45073642D01*
G75*
G02*
X314059340Y-46662304I-751312J-837350D01*
G01*
X312749350Y-48122312D01*
G75*
G02*
X311160688Y-48208350I-837350J751312D01*
G01*
G37*
D15*
X318262000Y-44831000D03*
G36*
G01*
X318145483Y-46533395D02*
X318145483Y-46533395D01*
G75*
G02*
X317099605Y-45334483I76517J1122395D01*
G01*
X317139147Y-44754451D01*
G75*
G02*
X318338059Y-43708573I1122395J-76517D01*
G01*
X318338059Y-43708573D01*
G75*
G02*
X319383937Y-44907485I-76517J-1122395D01*
G01*
X319344395Y-45487517D01*
G75*
G02*
X318145483Y-46533395I-1122395J76517D01*
G01*
G37*
%TD*%
D11*
%TO.C,MX32*%
X291579000Y-54111000D03*
D12*
X302299000Y-49911000D03*
X291299000Y-49911000D03*
D13*
X296799000Y-44011000D03*
X301799000Y-46111000D03*
D14*
X301879000Y-49911000D03*
X291719000Y-49911000D03*
D15*
X294299000Y-45911000D03*
D16*
X296799000Y-49911000D03*
G36*
G01*
X292237688Y-48208350D02*
X292237688Y-48208350D01*
G75*
G02*
X292151650Y-46619688I751312J837350D01*
G01*
X293461640Y-45159680D01*
G75*
G02*
X295050302Y-45073642I837350J-751312D01*
G01*
X295050302Y-45073642D01*
G75*
G02*
X295136340Y-46662304I-751312J-837350D01*
G01*
X293826350Y-48122312D01*
G75*
G02*
X292237688Y-48208350I-837350J751312D01*
G01*
G37*
D15*
X299339000Y-44831000D03*
G36*
G01*
X299222483Y-46533395D02*
X299222483Y-46533395D01*
G75*
G02*
X298176605Y-45334483I76517J1122395D01*
G01*
X298216147Y-44754451D01*
G75*
G02*
X299415059Y-43708573I1122395J-76517D01*
G01*
X299415059Y-43708573D01*
G75*
G02*
X300460937Y-44907485I-76517J-1122395D01*
G01*
X300421395Y-45487517D01*
G75*
G02*
X299222483Y-46533395I-1122395J76517D01*
G01*
G37*
%TD*%
D11*
%TO.C,MX31*%
X272529000Y-46872000D03*
D12*
X283249000Y-42672000D03*
X272249000Y-42672000D03*
D13*
X277749000Y-36772000D03*
X282749000Y-38872000D03*
D14*
X282829000Y-42672000D03*
X272669000Y-42672000D03*
D15*
X275249000Y-38672000D03*
D16*
X277749000Y-42672000D03*
G36*
G01*
X273187688Y-40969350D02*
X273187688Y-40969350D01*
G75*
G02*
X273101650Y-39380688I751312J837350D01*
G01*
X274411640Y-37920680D01*
G75*
G02*
X276000302Y-37834642I837350J-751312D01*
G01*
X276000302Y-37834642D01*
G75*
G02*
X276086340Y-39423304I-751312J-837350D01*
G01*
X274776350Y-40883312D01*
G75*
G02*
X273187688Y-40969350I-837350J751312D01*
G01*
G37*
D15*
X280289000Y-37592000D03*
G36*
G01*
X280172483Y-39294395D02*
X280172483Y-39294395D01*
G75*
G02*
X279126605Y-38095483I76517J1122395D01*
G01*
X279166147Y-37515451D01*
G75*
G02*
X280365059Y-36469573I1122395J-76517D01*
G01*
X280365059Y-36469573D01*
G75*
G02*
X281410937Y-37668485I-76517J-1122395D01*
G01*
X281371395Y-38248517D01*
G75*
G02*
X280172483Y-39294395I-1122395J76517D01*
G01*
G37*
%TD*%
D11*
%TO.C,MX30*%
X253606000Y-42173000D03*
D12*
X264326000Y-37973000D03*
X253326000Y-37973000D03*
D13*
X258826000Y-32073000D03*
X263826000Y-34173000D03*
D14*
X263906000Y-37973000D03*
X253746000Y-37973000D03*
D15*
X256326000Y-33973000D03*
D16*
X258826000Y-37973000D03*
G36*
G01*
X254264688Y-36270350D02*
X254264688Y-36270350D01*
G75*
G02*
X254178650Y-34681688I751312J837350D01*
G01*
X255488640Y-33221680D01*
G75*
G02*
X257077302Y-33135642I837350J-751312D01*
G01*
X257077302Y-33135642D01*
G75*
G02*
X257163340Y-34724304I-751312J-837350D01*
G01*
X255853350Y-36184312D01*
G75*
G02*
X254264688Y-36270350I-837350J751312D01*
G01*
G37*
D15*
X261366000Y-32893000D03*
G36*
G01*
X261249483Y-34595395D02*
X261249483Y-34595395D01*
G75*
G02*
X260203605Y-33396483I76517J1122395D01*
G01*
X260243147Y-32816451D01*
G75*
G02*
X261442059Y-31770573I1122395J-76517D01*
G01*
X261442059Y-31770573D01*
G75*
G02*
X262487937Y-32969485I-76517J-1122395D01*
G01*
X262448395Y-33549517D01*
G75*
G02*
X261249483Y-34595395I-1122395J76517D01*
G01*
G37*
%TD*%
D11*
%TO.C,MX29*%
X234556000Y-46872000D03*
D12*
X245276000Y-42672000D03*
X234276000Y-42672000D03*
D13*
X239776000Y-36772000D03*
X244776000Y-38872000D03*
D14*
X244856000Y-42672000D03*
X234696000Y-42672000D03*
D15*
X237276000Y-38672000D03*
D16*
X239776000Y-42672000D03*
G36*
G01*
X235214688Y-40969350D02*
X235214688Y-40969350D01*
G75*
G02*
X235128650Y-39380688I751312J837350D01*
G01*
X236438640Y-37920680D01*
G75*
G02*
X238027302Y-37834642I837350J-751312D01*
G01*
X238027302Y-37834642D01*
G75*
G02*
X238113340Y-39423304I-751312J-837350D01*
G01*
X236803350Y-40883312D01*
G75*
G02*
X235214688Y-40969350I-837350J751312D01*
G01*
G37*
D15*
X242316000Y-37592000D03*
G36*
G01*
X242199483Y-39294395D02*
X242199483Y-39294395D01*
G75*
G02*
X241153605Y-38095483I76517J1122395D01*
G01*
X241193147Y-37515451D01*
G75*
G02*
X242392059Y-36469573I1122395J-76517D01*
G01*
X242392059Y-36469573D01*
G75*
G02*
X243437937Y-37668485I-76517J-1122395D01*
G01*
X243398395Y-38248517D01*
G75*
G02*
X242199483Y-39294395I-1122395J76517D01*
G01*
G37*
%TD*%
D11*
%TO.C,MX28*%
X215506000Y-49285000D03*
D12*
X226226000Y-45085000D03*
X215226000Y-45085000D03*
D13*
X220726000Y-39185000D03*
X225726000Y-41285000D03*
D14*
X225806000Y-45085000D03*
X215646000Y-45085000D03*
D15*
X218226000Y-41085000D03*
D16*
X220726000Y-45085000D03*
G36*
G01*
X216164688Y-43382350D02*
X216164688Y-43382350D01*
G75*
G02*
X216078650Y-41793688I751312J837350D01*
G01*
X217388640Y-40333680D01*
G75*
G02*
X218977302Y-40247642I837350J-751312D01*
G01*
X218977302Y-40247642D01*
G75*
G02*
X219063340Y-41836304I-751312J-837350D01*
G01*
X217753350Y-43296312D01*
G75*
G02*
X216164688Y-43382350I-837350J751312D01*
G01*
G37*
D15*
X223266000Y-40005000D03*
G36*
G01*
X223149483Y-41707395D02*
X223149483Y-41707395D01*
G75*
G02*
X222103605Y-40508483I76517J1122395D01*
G01*
X222143147Y-39928451D01*
G75*
G02*
X223342059Y-38882573I1122395J-76517D01*
G01*
X223342059Y-38882573D01*
G75*
G02*
X224387937Y-40081485I-76517J-1122395D01*
G01*
X224348395Y-40661517D01*
G75*
G02*
X223149483Y-41707395I-1122395J76517D01*
G01*
G37*
%TD*%
D11*
%TO.C,MX27*%
X152315365Y-134373016D03*
D12*
X163481635Y-137178866D03*
X154526365Y-130791134D03*
D13*
X162430147Y-129181718D03*
X165281249Y-133794876D03*
D14*
X163139707Y-136934971D03*
X154868293Y-131035029D03*
D15*
X159291523Y-129276781D03*
D16*
X159004000Y-133985000D03*
G36*
G01*
X156279299Y-129950079D02*
X156279299Y-129950079D01*
G75*
G02*
X157131794Y-128606762I1097906J245411D01*
G01*
X159046110Y-128178862D01*
G75*
G02*
X160389427Y-129031357I245411J-1097906D01*
G01*
X160389427Y-129031357D01*
G75*
G02*
X159536932Y-130374674I-1097906J-245411D01*
G01*
X157622616Y-130802574D01*
G75*
G02*
X156279299Y-129950079I-245411J1097906D01*
G01*
G37*
D15*
X164021824Y-131324279D03*
G36*
G01*
X162938380Y-132642563D02*
X162938380Y-132642563D01*
G75*
G02*
X162783127Y-131059166I714072J869325D01*
G01*
X163152145Y-130609916D01*
G75*
G02*
X164735542Y-130454663I869325J-714072D01*
G01*
X164735542Y-130454663D01*
G75*
G02*
X164890795Y-132038060I-714072J-869325D01*
G01*
X164521777Y-132487310D01*
G75*
G02*
X162938380Y-132642563I-869325J714072D01*
G01*
G37*
%TD*%
D11*
%TO.C,MX26*%
X133417071Y-126786629D03*
D12*
X144915780Y-126205176D03*
X134484220Y-122714824D03*
D13*
X141572097Y-118864890D03*
X145647376Y-122442893D03*
D14*
X144517484Y-126071908D03*
X134882516Y-122848092D03*
D15*
X138598409Y-119873444D03*
D16*
X139700000Y-124460000D03*
G36*
G01*
X135914659Y-121398012D02*
X135914659Y-121398012D01*
G75*
G02*
X136337156Y-119864145I978182J555685D01*
G01*
X138042718Y-118895251D01*
G75*
G02*
X139576585Y-119317748I555685J-978182D01*
G01*
X139576585Y-119317748D01*
G75*
G02*
X139154088Y-120851615I-978182J-555685D01*
G01*
X137448526Y-121820509D01*
G75*
G02*
X135914659Y-121398012I-555685J978182D01*
G01*
G37*
D15*
X143720650Y-120448470D03*
G36*
G01*
X143069976Y-122025919D02*
X143069976Y-122025919D01*
G75*
G02*
X142458566Y-120557101I428704J1040114D01*
G01*
X142680112Y-120019591D01*
G75*
G02*
X144148930Y-119408181I1040114J-428704D01*
G01*
X144148930Y-119408181D01*
G75*
G02*
X144760340Y-120876999I-428704J-1040114D01*
G01*
X144538794Y-121414509D01*
G75*
G02*
X143069976Y-122025919I-1040114J428704D01*
G01*
G37*
%TD*%
D11*
%TO.C,MX25*%
X113144000Y-125485000D03*
D12*
X123864000Y-121285000D03*
X112864000Y-121285000D03*
D13*
X118364000Y-115385000D03*
X123364000Y-117485000D03*
D14*
X123444000Y-121285000D03*
X113284000Y-121285000D03*
D15*
X115864000Y-117285000D03*
D16*
X118364000Y-121285000D03*
G36*
G01*
X113802688Y-119582350D02*
X113802688Y-119582350D01*
G75*
G02*
X113716650Y-117993688I751312J837350D01*
G01*
X115026640Y-116533680D01*
G75*
G02*
X116615302Y-116447642I837350J-751312D01*
G01*
X116615302Y-116447642D01*
G75*
G02*
X116701340Y-118036304I-751312J-837350D01*
G01*
X115391350Y-119496312D01*
G75*
G02*
X113802688Y-119582350I-837350J751312D01*
G01*
G37*
D15*
X120904000Y-116205000D03*
G36*
G01*
X120787483Y-117907395D02*
X120787483Y-117907395D01*
G75*
G02*
X119741605Y-116708483I76517J1122395D01*
G01*
X119781147Y-116128451D01*
G75*
G02*
X120980059Y-115082573I1122395J-76517D01*
G01*
X120980059Y-115082573D01*
G75*
G02*
X122025937Y-116281485I-76517J-1122395D01*
G01*
X121986395Y-116861517D01*
G75*
G02*
X120787483Y-117907395I-1122395J76517D01*
G01*
G37*
%TD*%
D11*
%TO.C,MX24*%
X125971000Y-106308000D03*
D12*
X136691000Y-102108000D03*
X125691000Y-102108000D03*
D13*
X131191000Y-96208000D03*
X136191000Y-98308000D03*
D14*
X136271000Y-102108000D03*
X126111000Y-102108000D03*
D15*
X128691000Y-98108000D03*
D16*
X131191000Y-102108000D03*
G36*
G01*
X126629688Y-100405350D02*
X126629688Y-100405350D01*
G75*
G02*
X126543650Y-98816688I751312J837350D01*
G01*
X127853640Y-97356680D01*
G75*
G02*
X129442302Y-97270642I837350J-751312D01*
G01*
X129442302Y-97270642D01*
G75*
G02*
X129528340Y-98859304I-751312J-837350D01*
G01*
X128218350Y-100319312D01*
G75*
G02*
X126629688Y-100405350I-837350J751312D01*
G01*
G37*
D15*
X133731000Y-97028000D03*
G36*
G01*
X133614483Y-98730395D02*
X133614483Y-98730395D01*
G75*
G02*
X132568605Y-97531483I76517J1122395D01*
G01*
X132608147Y-96951451D01*
G75*
G02*
X133807059Y-95905573I1122395J-76517D01*
G01*
X133807059Y-95905573D01*
G75*
G02*
X134852937Y-97104485I-76517J-1122395D01*
G01*
X134813395Y-97684517D01*
G75*
G02*
X133614483Y-98730395I-1122395J76517D01*
G01*
G37*
%TD*%
D11*
%TO.C,MX23*%
X107073400Y-103920400D03*
D12*
X117793400Y-99720400D03*
X106793400Y-99720400D03*
D13*
X112293400Y-93820400D03*
X117293400Y-95920400D03*
D14*
X117373400Y-99720400D03*
X107213400Y-99720400D03*
D15*
X109793400Y-95720400D03*
D16*
X112293400Y-99720400D03*
G36*
G01*
X107732088Y-98017750D02*
X107732088Y-98017750D01*
G75*
G02*
X107646050Y-96429088I751312J837350D01*
G01*
X108956040Y-94969080D01*
G75*
G02*
X110544702Y-94883042I837350J-751312D01*
G01*
X110544702Y-94883042D01*
G75*
G02*
X110630740Y-96471704I-751312J-837350D01*
G01*
X109320750Y-97931712D01*
G75*
G02*
X107732088Y-98017750I-837350J751312D01*
G01*
G37*
D15*
X114833400Y-94640400D03*
G36*
G01*
X114716883Y-96342795D02*
X114716883Y-96342795D01*
G75*
G02*
X113671005Y-95143883I76517J1122395D01*
G01*
X113710547Y-94563851D01*
G75*
G02*
X114909459Y-93517973I1122395J-76517D01*
G01*
X114909459Y-93517973D01*
G75*
G02*
X115955337Y-94716885I-76517J-1122395D01*
G01*
X115915795Y-95296917D01*
G75*
G02*
X114716883Y-96342795I-1122395J76517D01*
G01*
G37*
%TD*%
D11*
%TO.C,MX22*%
X87998000Y-99196000D03*
D12*
X98718000Y-94996000D03*
X87718000Y-94996000D03*
D13*
X93218000Y-89096000D03*
X98218000Y-91196000D03*
D14*
X98298000Y-94996000D03*
X88138000Y-94996000D03*
D15*
X90718000Y-90996000D03*
D16*
X93218000Y-94996000D03*
G36*
G01*
X88656688Y-93293350D02*
X88656688Y-93293350D01*
G75*
G02*
X88570650Y-91704688I751312J837350D01*
G01*
X89880640Y-90244680D01*
G75*
G02*
X91469302Y-90158642I837350J-751312D01*
G01*
X91469302Y-90158642D01*
G75*
G02*
X91555340Y-91747304I-751312J-837350D01*
G01*
X90245350Y-93207312D01*
G75*
G02*
X88656688Y-93293350I-837350J751312D01*
G01*
G37*
D15*
X95758000Y-89916000D03*
G36*
G01*
X95641483Y-91618395D02*
X95641483Y-91618395D01*
G75*
G02*
X94595605Y-90419483I76517J1122395D01*
G01*
X94635147Y-89839451D01*
G75*
G02*
X95834059Y-88793573I1122395J-76517D01*
G01*
X95834059Y-88793573D01*
G75*
G02*
X96879937Y-89992485I-76517J-1122395D01*
G01*
X96840395Y-90572517D01*
G75*
G02*
X95641483Y-91618395I-1122395J76517D01*
G01*
G37*
%TD*%
D11*
%TO.C,MX21*%
X69075000Y-104022000D03*
D12*
X79795000Y-99822000D03*
X68795000Y-99822000D03*
D13*
X74295000Y-93922000D03*
X79295000Y-96022000D03*
D14*
X79375000Y-99822000D03*
X69215000Y-99822000D03*
D15*
X71795000Y-95822000D03*
D16*
X74295000Y-99822000D03*
G36*
G01*
X69733688Y-98119350D02*
X69733688Y-98119350D01*
G75*
G02*
X69647650Y-96530688I751312J837350D01*
G01*
X70957640Y-95070680D01*
G75*
G02*
X72546302Y-94984642I837350J-751312D01*
G01*
X72546302Y-94984642D01*
G75*
G02*
X72632340Y-96573304I-751312J-837350D01*
G01*
X71322350Y-98033312D01*
G75*
G02*
X69733688Y-98119350I-837350J751312D01*
G01*
G37*
D15*
X76835000Y-94742000D03*
G36*
G01*
X76718483Y-96444395D02*
X76718483Y-96444395D01*
G75*
G02*
X75672605Y-95245483I76517J1122395D01*
G01*
X75712147Y-94665451D01*
G75*
G02*
X76911059Y-93619573I1122395J-76517D01*
G01*
X76911059Y-93619573D01*
G75*
G02*
X77956937Y-94818485I-76517J-1122395D01*
G01*
X77917395Y-95398517D01*
G75*
G02*
X76718483Y-96444395I-1122395J76517D01*
G01*
G37*
%TD*%
D11*
%TO.C,MX20*%
X50025000Y-111261000D03*
D12*
X60745000Y-107061000D03*
X49745000Y-107061000D03*
D13*
X55245000Y-101161000D03*
X60245000Y-103261000D03*
D14*
X60325000Y-107061000D03*
X50165000Y-107061000D03*
D15*
X52745000Y-103061000D03*
D16*
X55245000Y-107061000D03*
G36*
G01*
X50683688Y-105358350D02*
X50683688Y-105358350D01*
G75*
G02*
X50597650Y-103769688I751312J837350D01*
G01*
X51907640Y-102309680D01*
G75*
G02*
X53496302Y-102223642I837350J-751312D01*
G01*
X53496302Y-102223642D01*
G75*
G02*
X53582340Y-103812304I-751312J-837350D01*
G01*
X52272350Y-105272312D01*
G75*
G02*
X50683688Y-105358350I-837350J751312D01*
G01*
G37*
D15*
X57785000Y-101981000D03*
G36*
G01*
X57668483Y-103683395D02*
X57668483Y-103683395D01*
G75*
G02*
X56622605Y-102484483I76517J1122395D01*
G01*
X56662147Y-101904451D01*
G75*
G02*
X57861059Y-100858573I1122395J-76517D01*
G01*
X57861059Y-100858573D01*
G75*
G02*
X58906937Y-102057485I-76517J-1122395D01*
G01*
X58867395Y-102637517D01*
G75*
G02*
X57668483Y-103683395I-1122395J76517D01*
G01*
G37*
%TD*%
D11*
%TO.C,MX19*%
X30975000Y-111261000D03*
D12*
X41695000Y-107061000D03*
X30695000Y-107061000D03*
D13*
X36195000Y-101161000D03*
X41195000Y-103261000D03*
D14*
X41275000Y-107061000D03*
X31115000Y-107061000D03*
D15*
X33695000Y-103061000D03*
D16*
X36195000Y-107061000D03*
G36*
G01*
X31633688Y-105358350D02*
X31633688Y-105358350D01*
G75*
G02*
X31547650Y-103769688I751312J837350D01*
G01*
X32857640Y-102309680D01*
G75*
G02*
X34446302Y-102223642I837350J-751312D01*
G01*
X34446302Y-102223642D01*
G75*
G02*
X34532340Y-103812304I-751312J-837350D01*
G01*
X33222350Y-105272312D01*
G75*
G02*
X31633688Y-105358350I-837350J751312D01*
G01*
G37*
D15*
X38735000Y-101981000D03*
G36*
G01*
X38618483Y-103683395D02*
X38618483Y-103683395D01*
G75*
G02*
X37572605Y-102484483I76517J1122395D01*
G01*
X37612147Y-101904451D01*
G75*
G02*
X38811059Y-100858573I1122395J-76517D01*
G01*
X38811059Y-100858573D01*
G75*
G02*
X39856937Y-102057485I-76517J-1122395D01*
G01*
X39817395Y-102637517D01*
G75*
G02*
X38618483Y-103683395I-1122395J76517D01*
G01*
G37*
%TD*%
D11*
%TO.C,MX18*%
X125971000Y-87258000D03*
D12*
X136691000Y-83058000D03*
X125691000Y-83058000D03*
D13*
X131191000Y-77158000D03*
X136191000Y-79258000D03*
D14*
X136271000Y-83058000D03*
X126111000Y-83058000D03*
D15*
X128691000Y-79058000D03*
D16*
X131191000Y-83058000D03*
G36*
G01*
X126629688Y-81355350D02*
X126629688Y-81355350D01*
G75*
G02*
X126543650Y-79766688I751312J837350D01*
G01*
X127853640Y-78306680D01*
G75*
G02*
X129442302Y-78220642I837350J-751312D01*
G01*
X129442302Y-78220642D01*
G75*
G02*
X129528340Y-79809304I-751312J-837350D01*
G01*
X128218350Y-81269312D01*
G75*
G02*
X126629688Y-81355350I-837350J751312D01*
G01*
G37*
D15*
X133731000Y-77978000D03*
G36*
G01*
X133614483Y-79680395D02*
X133614483Y-79680395D01*
G75*
G02*
X132568605Y-78481483I76517J1122395D01*
G01*
X132608147Y-77901451D01*
G75*
G02*
X133807059Y-76855573I1122395J-76517D01*
G01*
X133807059Y-76855573D01*
G75*
G02*
X134852937Y-78054485I-76517J-1122395D01*
G01*
X134813395Y-78634517D01*
G75*
G02*
X133614483Y-79680395I-1122395J76517D01*
G01*
G37*
%TD*%
D11*
%TO.C,MX17*%
X107048000Y-84845000D03*
D12*
X117768000Y-80645000D03*
X106768000Y-80645000D03*
D13*
X112268000Y-74745000D03*
X117268000Y-76845000D03*
D14*
X117348000Y-80645000D03*
X107188000Y-80645000D03*
D15*
X109768000Y-76645000D03*
D16*
X112268000Y-80645000D03*
G36*
G01*
X107706688Y-78942350D02*
X107706688Y-78942350D01*
G75*
G02*
X107620650Y-77353688I751312J837350D01*
G01*
X108930640Y-75893680D01*
G75*
G02*
X110519302Y-75807642I837350J-751312D01*
G01*
X110519302Y-75807642D01*
G75*
G02*
X110605340Y-77396304I-751312J-837350D01*
G01*
X109295350Y-78856312D01*
G75*
G02*
X107706688Y-78942350I-837350J751312D01*
G01*
G37*
D15*
X114808000Y-75565000D03*
G36*
G01*
X114691483Y-77267395D02*
X114691483Y-77267395D01*
G75*
G02*
X113645605Y-76068483I76517J1122395D01*
G01*
X113685147Y-75488451D01*
G75*
G02*
X114884059Y-74442573I1122395J-76517D01*
G01*
X114884059Y-74442573D01*
G75*
G02*
X115929937Y-75641485I-76517J-1122395D01*
G01*
X115890395Y-76221517D01*
G75*
G02*
X114691483Y-77267395I-1122395J76517D01*
G01*
G37*
%TD*%
D11*
%TO.C,MX16*%
X87998000Y-80146000D03*
D12*
X98718000Y-75946000D03*
X87718000Y-75946000D03*
D13*
X93218000Y-70046000D03*
X98218000Y-72146000D03*
D14*
X98298000Y-75946000D03*
X88138000Y-75946000D03*
D15*
X90718000Y-71946000D03*
D16*
X93218000Y-75946000D03*
G36*
G01*
X88656688Y-74243350D02*
X88656688Y-74243350D01*
G75*
G02*
X88570650Y-72654688I751312J837350D01*
G01*
X89880640Y-71194680D01*
G75*
G02*
X91469302Y-71108642I837350J-751312D01*
G01*
X91469302Y-71108642D01*
G75*
G02*
X91555340Y-72697304I-751312J-837350D01*
G01*
X90245350Y-74157312D01*
G75*
G02*
X88656688Y-74243350I-837350J751312D01*
G01*
G37*
D15*
X95758000Y-70866000D03*
G36*
G01*
X95641483Y-72568395D02*
X95641483Y-72568395D01*
G75*
G02*
X94595605Y-71369483I76517J1122395D01*
G01*
X94635147Y-70789451D01*
G75*
G02*
X95834059Y-69743573I1122395J-76517D01*
G01*
X95834059Y-69743573D01*
G75*
G02*
X96879937Y-70942485I-76517J-1122395D01*
G01*
X96840395Y-71522517D01*
G75*
G02*
X95641483Y-72568395I-1122395J76517D01*
G01*
G37*
%TD*%
D11*
%TO.C,MX15*%
X69075000Y-84972000D03*
D12*
X79795000Y-80772000D03*
X68795000Y-80772000D03*
D13*
X74295000Y-74872000D03*
X79295000Y-76972000D03*
D14*
X79375000Y-80772000D03*
X69215000Y-80772000D03*
D15*
X71795000Y-76772000D03*
D16*
X74295000Y-80772000D03*
G36*
G01*
X69733688Y-79069350D02*
X69733688Y-79069350D01*
G75*
G02*
X69647650Y-77480688I751312J837350D01*
G01*
X70957640Y-76020680D01*
G75*
G02*
X72546302Y-75934642I837350J-751312D01*
G01*
X72546302Y-75934642D01*
G75*
G02*
X72632340Y-77523304I-751312J-837350D01*
G01*
X71322350Y-78983312D01*
G75*
G02*
X69733688Y-79069350I-837350J751312D01*
G01*
G37*
D15*
X76835000Y-75692000D03*
G36*
G01*
X76718483Y-77394395D02*
X76718483Y-77394395D01*
G75*
G02*
X75672605Y-76195483I76517J1122395D01*
G01*
X75712147Y-75615451D01*
G75*
G02*
X76911059Y-74569573I1122395J-76517D01*
G01*
X76911059Y-74569573D01*
G75*
G02*
X77956937Y-75768485I-76517J-1122395D01*
G01*
X77917395Y-76348517D01*
G75*
G02*
X76718483Y-77394395I-1122395J76517D01*
G01*
G37*
%TD*%
D11*
%TO.C,MX14*%
X50025000Y-92211000D03*
D12*
X60745000Y-88011000D03*
X49745000Y-88011000D03*
D13*
X55245000Y-82111000D03*
X60245000Y-84211000D03*
D14*
X60325000Y-88011000D03*
X50165000Y-88011000D03*
D15*
X52745000Y-84011000D03*
D16*
X55245000Y-88011000D03*
G36*
G01*
X50683688Y-86308350D02*
X50683688Y-86308350D01*
G75*
G02*
X50597650Y-84719688I751312J837350D01*
G01*
X51907640Y-83259680D01*
G75*
G02*
X53496302Y-83173642I837350J-751312D01*
G01*
X53496302Y-83173642D01*
G75*
G02*
X53582340Y-84762304I-751312J-837350D01*
G01*
X52272350Y-86222312D01*
G75*
G02*
X50683688Y-86308350I-837350J751312D01*
G01*
G37*
D15*
X57785000Y-82931000D03*
G36*
G01*
X57668483Y-84633395D02*
X57668483Y-84633395D01*
G75*
G02*
X56622605Y-83434483I76517J1122395D01*
G01*
X56662147Y-82854451D01*
G75*
G02*
X57861059Y-81808573I1122395J-76517D01*
G01*
X57861059Y-81808573D01*
G75*
G02*
X58906937Y-83007485I-76517J-1122395D01*
G01*
X58867395Y-83587517D01*
G75*
G02*
X57668483Y-84633395I-1122395J76517D01*
G01*
G37*
%TD*%
D11*
%TO.C,MX13*%
X30975000Y-92211000D03*
D12*
X41695000Y-88011000D03*
X30695000Y-88011000D03*
D13*
X36195000Y-82111000D03*
X41195000Y-84211000D03*
D14*
X41275000Y-88011000D03*
X31115000Y-88011000D03*
D15*
X33695000Y-84011000D03*
D16*
X36195000Y-88011000D03*
G36*
G01*
X31633688Y-86308350D02*
X31633688Y-86308350D01*
G75*
G02*
X31547650Y-84719688I751312J837350D01*
G01*
X32857640Y-83259680D01*
G75*
G02*
X34446302Y-83173642I837350J-751312D01*
G01*
X34446302Y-83173642D01*
G75*
G02*
X34532340Y-84762304I-751312J-837350D01*
G01*
X33222350Y-86222312D01*
G75*
G02*
X31633688Y-86308350I-837350J751312D01*
G01*
G37*
D15*
X38735000Y-82931000D03*
G36*
G01*
X38618483Y-84633395D02*
X38618483Y-84633395D01*
G75*
G02*
X37572605Y-83434483I76517J1122395D01*
G01*
X37612147Y-82854451D01*
G75*
G02*
X38811059Y-81808573I1122395J-76517D01*
G01*
X38811059Y-81808573D01*
G75*
G02*
X39856937Y-83007485I-76517J-1122395D01*
G01*
X39817395Y-83587517D01*
G75*
G02*
X38618483Y-84633395I-1122395J76517D01*
G01*
G37*
%TD*%
D11*
%TO.C,MX12*%
X125971000Y-68335000D03*
D12*
X136691000Y-64135000D03*
X125691000Y-64135000D03*
D13*
X131191000Y-58235000D03*
X136191000Y-60335000D03*
D14*
X136271000Y-64135000D03*
X126111000Y-64135000D03*
D15*
X128691000Y-60135000D03*
D16*
X131191000Y-64135000D03*
G36*
G01*
X126629688Y-62432350D02*
X126629688Y-62432350D01*
G75*
G02*
X126543650Y-60843688I751312J837350D01*
G01*
X127853640Y-59383680D01*
G75*
G02*
X129442302Y-59297642I837350J-751312D01*
G01*
X129442302Y-59297642D01*
G75*
G02*
X129528340Y-60886304I-751312J-837350D01*
G01*
X128218350Y-62346312D01*
G75*
G02*
X126629688Y-62432350I-837350J751312D01*
G01*
G37*
D15*
X133731000Y-59055000D03*
G36*
G01*
X133614483Y-60757395D02*
X133614483Y-60757395D01*
G75*
G02*
X132568605Y-59558483I76517J1122395D01*
G01*
X132608147Y-58978451D01*
G75*
G02*
X133807059Y-57932573I1122395J-76517D01*
G01*
X133807059Y-57932573D01*
G75*
G02*
X134852937Y-59131485I-76517J-1122395D01*
G01*
X134813395Y-59711517D01*
G75*
G02*
X133614483Y-60757395I-1122395J76517D01*
G01*
G37*
%TD*%
D11*
%TO.C,MX11*%
X107048000Y-65922000D03*
D12*
X117768000Y-61722000D03*
X106768000Y-61722000D03*
D13*
X112268000Y-55822000D03*
X117268000Y-57922000D03*
D14*
X117348000Y-61722000D03*
X107188000Y-61722000D03*
D15*
X109768000Y-57722000D03*
D16*
X112268000Y-61722000D03*
G36*
G01*
X107706688Y-60019350D02*
X107706688Y-60019350D01*
G75*
G02*
X107620650Y-58430688I751312J837350D01*
G01*
X108930640Y-56970680D01*
G75*
G02*
X110519302Y-56884642I837350J-751312D01*
G01*
X110519302Y-56884642D01*
G75*
G02*
X110605340Y-58473304I-751312J-837350D01*
G01*
X109295350Y-59933312D01*
G75*
G02*
X107706688Y-60019350I-837350J751312D01*
G01*
G37*
D15*
X114808000Y-56642000D03*
G36*
G01*
X114691483Y-58344395D02*
X114691483Y-58344395D01*
G75*
G02*
X113645605Y-57145483I76517J1122395D01*
G01*
X113685147Y-56565451D01*
G75*
G02*
X114884059Y-55519573I1122395J-76517D01*
G01*
X114884059Y-55519573D01*
G75*
G02*
X115929937Y-56718485I-76517J-1122395D01*
G01*
X115890395Y-57298517D01*
G75*
G02*
X114691483Y-58344395I-1122395J76517D01*
G01*
G37*
%TD*%
D11*
%TO.C,MX10*%
X87998000Y-61096000D03*
D12*
X98718000Y-56896000D03*
X87718000Y-56896000D03*
D13*
X93218000Y-50996000D03*
X98218000Y-53096000D03*
D14*
X98298000Y-56896000D03*
X88138000Y-56896000D03*
D15*
X90718000Y-52896000D03*
D16*
X93218000Y-56896000D03*
G36*
G01*
X88656688Y-55193350D02*
X88656688Y-55193350D01*
G75*
G02*
X88570650Y-53604688I751312J837350D01*
G01*
X89880640Y-52144680D01*
G75*
G02*
X91469302Y-52058642I837350J-751312D01*
G01*
X91469302Y-52058642D01*
G75*
G02*
X91555340Y-53647304I-751312J-837350D01*
G01*
X90245350Y-55107312D01*
G75*
G02*
X88656688Y-55193350I-837350J751312D01*
G01*
G37*
D15*
X95758000Y-51816000D03*
G36*
G01*
X95641483Y-53518395D02*
X95641483Y-53518395D01*
G75*
G02*
X94595605Y-52319483I76517J1122395D01*
G01*
X94635147Y-51739451D01*
G75*
G02*
X95834059Y-50693573I1122395J-76517D01*
G01*
X95834059Y-50693573D01*
G75*
G02*
X96879937Y-51892485I-76517J-1122395D01*
G01*
X96840395Y-52472517D01*
G75*
G02*
X95641483Y-53518395I-1122395J76517D01*
G01*
G37*
%TD*%
D11*
%TO.C,MX9*%
X69075000Y-65922000D03*
D12*
X79795000Y-61722000D03*
X68795000Y-61722000D03*
D13*
X74295000Y-55822000D03*
X79295000Y-57922000D03*
D14*
X79375000Y-61722000D03*
X69215000Y-61722000D03*
D15*
X71795000Y-57722000D03*
D16*
X74295000Y-61722000D03*
G36*
G01*
X69733688Y-60019350D02*
X69733688Y-60019350D01*
G75*
G02*
X69647650Y-58430688I751312J837350D01*
G01*
X70957640Y-56970680D01*
G75*
G02*
X72546302Y-56884642I837350J-751312D01*
G01*
X72546302Y-56884642D01*
G75*
G02*
X72632340Y-58473304I-751312J-837350D01*
G01*
X71322350Y-59933312D01*
G75*
G02*
X69733688Y-60019350I-837350J751312D01*
G01*
G37*
D15*
X76835000Y-56642000D03*
G36*
G01*
X76718483Y-58344395D02*
X76718483Y-58344395D01*
G75*
G02*
X75672605Y-57145483I76517J1122395D01*
G01*
X75712147Y-56565451D01*
G75*
G02*
X76911059Y-55519573I1122395J-76517D01*
G01*
X76911059Y-55519573D01*
G75*
G02*
X77956937Y-56718485I-76517J-1122395D01*
G01*
X77917395Y-57298517D01*
G75*
G02*
X76718483Y-58344395I-1122395J76517D01*
G01*
G37*
%TD*%
D11*
%TO.C,MX7*%
X30975000Y-73161000D03*
D12*
X41695000Y-68961000D03*
X30695000Y-68961000D03*
D13*
X36195000Y-63061000D03*
X41195000Y-65161000D03*
D14*
X41275000Y-68961000D03*
X31115000Y-68961000D03*
D15*
X33695000Y-64961000D03*
D16*
X36195000Y-68961000D03*
G36*
G01*
X31633688Y-67258350D02*
X31633688Y-67258350D01*
G75*
G02*
X31547650Y-65669688I751312J837350D01*
G01*
X32857640Y-64209680D01*
G75*
G02*
X34446302Y-64123642I837350J-751312D01*
G01*
X34446302Y-64123642D01*
G75*
G02*
X34532340Y-65712304I-751312J-837350D01*
G01*
X33222350Y-67172312D01*
G75*
G02*
X31633688Y-67258350I-837350J751312D01*
G01*
G37*
D15*
X38735000Y-63881000D03*
G36*
G01*
X38618483Y-65583395D02*
X38618483Y-65583395D01*
G75*
G02*
X37572605Y-64384483I76517J1122395D01*
G01*
X37612147Y-63804451D01*
G75*
G02*
X38811059Y-62758573I1122395J-76517D01*
G01*
X38811059Y-62758573D01*
G75*
G02*
X39856937Y-63957485I-76517J-1122395D01*
G01*
X39817395Y-64537517D01*
G75*
G02*
X38618483Y-65583395I-1122395J76517D01*
G01*
G37*
%TD*%
D11*
%TO.C,MX6*%
X125971000Y-49285000D03*
D12*
X136691000Y-45085000D03*
X125691000Y-45085000D03*
D13*
X131191000Y-39185000D03*
X136191000Y-41285000D03*
D14*
X136271000Y-45085000D03*
X126111000Y-45085000D03*
D15*
X128691000Y-41085000D03*
D16*
X131191000Y-45085000D03*
G36*
G01*
X126629688Y-43382350D02*
X126629688Y-43382350D01*
G75*
G02*
X126543650Y-41793688I751312J837350D01*
G01*
X127853640Y-40333680D01*
G75*
G02*
X129442302Y-40247642I837350J-751312D01*
G01*
X129442302Y-40247642D01*
G75*
G02*
X129528340Y-41836304I-751312J-837350D01*
G01*
X128218350Y-43296312D01*
G75*
G02*
X126629688Y-43382350I-837350J751312D01*
G01*
G37*
D15*
X133731000Y-40005000D03*
G36*
G01*
X133614483Y-41707395D02*
X133614483Y-41707395D01*
G75*
G02*
X132568605Y-40508483I76517J1122395D01*
G01*
X132608147Y-39928451D01*
G75*
G02*
X133807059Y-38882573I1122395J-76517D01*
G01*
X133807059Y-38882573D01*
G75*
G02*
X134852937Y-40081485I-76517J-1122395D01*
G01*
X134813395Y-40661517D01*
G75*
G02*
X133614483Y-41707395I-1122395J76517D01*
G01*
G37*
%TD*%
D11*
%TO.C,MX5*%
X107048000Y-46872000D03*
D12*
X117768000Y-42672000D03*
X106768000Y-42672000D03*
D13*
X112268000Y-36772000D03*
X117268000Y-38872000D03*
D14*
X117348000Y-42672000D03*
X107188000Y-42672000D03*
D15*
X109768000Y-38672000D03*
D16*
X112268000Y-42672000D03*
G36*
G01*
X107706688Y-40969350D02*
X107706688Y-40969350D01*
G75*
G02*
X107620650Y-39380688I751312J837350D01*
G01*
X108930640Y-37920680D01*
G75*
G02*
X110519302Y-37834642I837350J-751312D01*
G01*
X110519302Y-37834642D01*
G75*
G02*
X110605340Y-39423304I-751312J-837350D01*
G01*
X109295350Y-40883312D01*
G75*
G02*
X107706688Y-40969350I-837350J751312D01*
G01*
G37*
D15*
X114808000Y-37592000D03*
G36*
G01*
X114691483Y-39294395D02*
X114691483Y-39294395D01*
G75*
G02*
X113645605Y-38095483I76517J1122395D01*
G01*
X113685147Y-37515451D01*
G75*
G02*
X114884059Y-36469573I1122395J-76517D01*
G01*
X114884059Y-36469573D01*
G75*
G02*
X115929937Y-37668485I-76517J-1122395D01*
G01*
X115890395Y-38248517D01*
G75*
G02*
X114691483Y-39294395I-1122395J76517D01*
G01*
G37*
%TD*%
D11*
%TO.C,MX4*%
X87998000Y-42173000D03*
D12*
X98718000Y-37973000D03*
X87718000Y-37973000D03*
D13*
X93218000Y-32073000D03*
X98218000Y-34173000D03*
D14*
X98298000Y-37973000D03*
X88138000Y-37973000D03*
D15*
X90718000Y-33973000D03*
D16*
X93218000Y-37973000D03*
G36*
G01*
X88656688Y-36270350D02*
X88656688Y-36270350D01*
G75*
G02*
X88570650Y-34681688I751312J837350D01*
G01*
X89880640Y-33221680D01*
G75*
G02*
X91469302Y-33135642I837350J-751312D01*
G01*
X91469302Y-33135642D01*
G75*
G02*
X91555340Y-34724304I-751312J-837350D01*
G01*
X90245350Y-36184312D01*
G75*
G02*
X88656688Y-36270350I-837350J751312D01*
G01*
G37*
D15*
X95758000Y-32893000D03*
G36*
G01*
X95641483Y-34595395D02*
X95641483Y-34595395D01*
G75*
G02*
X94595605Y-33396483I76517J1122395D01*
G01*
X94635147Y-32816451D01*
G75*
G02*
X95834059Y-31770573I1122395J-76517D01*
G01*
X95834059Y-31770573D01*
G75*
G02*
X96879937Y-32969485I-76517J-1122395D01*
G01*
X96840395Y-33549517D01*
G75*
G02*
X95641483Y-34595395I-1122395J76517D01*
G01*
G37*
%TD*%
D11*
%TO.C,MX3*%
X69075000Y-46872000D03*
D12*
X79795000Y-42672000D03*
X68795000Y-42672000D03*
D13*
X74295000Y-36772000D03*
X79295000Y-38872000D03*
D14*
X79375000Y-42672000D03*
X69215000Y-42672000D03*
D15*
X71795000Y-38672000D03*
D16*
X74295000Y-42672000D03*
G36*
G01*
X69733688Y-40969350D02*
X69733688Y-40969350D01*
G75*
G02*
X69647650Y-39380688I751312J837350D01*
G01*
X70957640Y-37920680D01*
G75*
G02*
X72546302Y-37834642I837350J-751312D01*
G01*
X72546302Y-37834642D01*
G75*
G02*
X72632340Y-39423304I-751312J-837350D01*
G01*
X71322350Y-40883312D01*
G75*
G02*
X69733688Y-40969350I-837350J751312D01*
G01*
G37*
D15*
X76835000Y-37592000D03*
G36*
G01*
X76718483Y-39294395D02*
X76718483Y-39294395D01*
G75*
G02*
X75672605Y-38095483I76517J1122395D01*
G01*
X75712147Y-37515451D01*
G75*
G02*
X76911059Y-36469573I1122395J-76517D01*
G01*
X76911059Y-36469573D01*
G75*
G02*
X77956937Y-37668485I-76517J-1122395D01*
G01*
X77917395Y-38248517D01*
G75*
G02*
X76718483Y-39294395I-1122395J76517D01*
G01*
G37*
%TD*%
D11*
%TO.C,MX2*%
X50025000Y-54111000D03*
D12*
X60745000Y-49911000D03*
X49745000Y-49911000D03*
D13*
X55245000Y-44011000D03*
X60245000Y-46111000D03*
D14*
X60325000Y-49911000D03*
X50165000Y-49911000D03*
D15*
X52745000Y-45911000D03*
D16*
X55245000Y-49911000D03*
G36*
G01*
X50683688Y-48208350D02*
X50683688Y-48208350D01*
G75*
G02*
X50597650Y-46619688I751312J837350D01*
G01*
X51907640Y-45159680D01*
G75*
G02*
X53496302Y-45073642I837350J-751312D01*
G01*
X53496302Y-45073642D01*
G75*
G02*
X53582340Y-46662304I-751312J-837350D01*
G01*
X52272350Y-48122312D01*
G75*
G02*
X50683688Y-48208350I-837350J751312D01*
G01*
G37*
D15*
X57785000Y-44831000D03*
G36*
G01*
X57668483Y-46533395D02*
X57668483Y-46533395D01*
G75*
G02*
X56622605Y-45334483I76517J1122395D01*
G01*
X56662147Y-44754451D01*
G75*
G02*
X57861059Y-43708573I1122395J-76517D01*
G01*
X57861059Y-43708573D01*
G75*
G02*
X58906937Y-44907485I-76517J-1122395D01*
G01*
X58867395Y-45487517D01*
G75*
G02*
X57668483Y-46533395I-1122395J76517D01*
G01*
G37*
%TD*%
D23*
%TO.C,mouse-bite-2mm-slot*%
X159765000Y-101888000D03*
X159765000Y-103388000D03*
X158265000Y-103388000D03*
X158265000Y-101888000D03*
X159765000Y-102638000D03*
X158265000Y-102638000D03*
%TD*%
%TO.C,mouse-bite-2mm-slot*%
X193715000Y-101888000D03*
X193715000Y-103388000D03*
X192215000Y-103388000D03*
X192215000Y-101888000D03*
X193715000Y-102638000D03*
X192215000Y-102638000D03*
%TD*%
%TO.C,mouse-bite-2mm-slot*%
X193715000Y-50038000D03*
X193715000Y-51538000D03*
X192215000Y-51538000D03*
X192215000Y-50038000D03*
X193715000Y-50788000D03*
X192215000Y-50788000D03*
%TD*%
%TO.C,mouse-bite-2mm-slot*%
X159715000Y-50038000D03*
X159715000Y-51538000D03*
X158215000Y-51538000D03*
X158215000Y-50038000D03*
X159715000Y-50788000D03*
X158215000Y-50788000D03*
%TD*%
D11*
%TO.C,MX1*%
X30975000Y-54111000D03*
D12*
X41695000Y-49911000D03*
X30695000Y-49911000D03*
D13*
X36195000Y-44011000D03*
X41195000Y-46111000D03*
D14*
X41275000Y-49911000D03*
X31115000Y-49911000D03*
D15*
X33695000Y-45911000D03*
D16*
X36195000Y-49911000D03*
G36*
G01*
X31633688Y-48208350D02*
X31633688Y-48208350D01*
G75*
G02*
X31547650Y-46619688I751312J837350D01*
G01*
X32857640Y-45159680D01*
G75*
G02*
X34446302Y-45073642I837350J-751312D01*
G01*
X34446302Y-45073642D01*
G75*
G02*
X34532340Y-46662304I-751312J-837350D01*
G01*
X33222350Y-48122312D01*
G75*
G02*
X31633688Y-48208350I-837350J751312D01*
G01*
G37*
D15*
X38735000Y-44831000D03*
G36*
G01*
X38618483Y-46533395D02*
X38618483Y-46533395D01*
G75*
G02*
X37572605Y-45334483I76517J1122395D01*
G01*
X37612147Y-44754451D01*
G75*
G02*
X38811059Y-43708573I1122395J-76517D01*
G01*
X38811059Y-43708573D01*
G75*
G02*
X39856937Y-44907485I-76517J-1122395D01*
G01*
X39817395Y-45487517D01*
G75*
G02*
X38618483Y-46533395I-1122395J76517D01*
G01*
G37*
%TD*%
D17*
%TO.C,J1*%
X150550800Y-45063600D03*
X152250800Y-45063600D03*
X151400800Y-45063600D03*
X149700800Y-45063600D03*
X148850800Y-45063600D03*
X148000800Y-45063600D03*
X147150800Y-45063600D03*
X146300800Y-45063600D03*
X152250800Y-43738600D03*
X151395800Y-43738600D03*
X150545800Y-43738600D03*
X149695800Y-43738600D03*
X148845800Y-43738600D03*
X147995800Y-43738600D03*
X147145800Y-43738600D03*
X146295800Y-43738600D03*
D24*
X153600800Y-44083600D03*
X144950800Y-44083600D03*
D25*
X153600800Y-40703600D03*
X144950800Y-40703600D03*
%TD*%
D26*
%TO.C,Y1*%
X150809000Y-90978000D03*
X148609000Y-90978000D03*
X148609000Y-89278000D03*
X150809000Y-89278000D03*
%TD*%
%TO.C,U2*%
G36*
G01*
X206366000Y-67460000D02*
X206366000Y-67160000D01*
G75*
G02*
X206516000Y-67010000I150000J0D01*
G01*
X208266000Y-67010000D01*
G75*
G02*
X208416000Y-67160000I0J-150000D01*
G01*
X208416000Y-67460000D01*
G75*
G02*
X208266000Y-67610000I-150000J0D01*
G01*
X206516000Y-67610000D01*
G75*
G02*
X206366000Y-67460000I0J150000D01*
G01*
G37*
G36*
G01*
X206366000Y-68730000D02*
X206366000Y-68430000D01*
G75*
G02*
X206516000Y-68280000I150000J0D01*
G01*
X208266000Y-68280000D01*
G75*
G02*
X208416000Y-68430000I0J-150000D01*
G01*
X208416000Y-68730000D01*
G75*
G02*
X208266000Y-68880000I-150000J0D01*
G01*
X206516000Y-68880000D01*
G75*
G02*
X206366000Y-68730000I0J150000D01*
G01*
G37*
G36*
G01*
X206366000Y-70000000D02*
X206366000Y-69700000D01*
G75*
G02*
X206516000Y-69550000I150000J0D01*
G01*
X208266000Y-69550000D01*
G75*
G02*
X208416000Y-69700000I0J-150000D01*
G01*
X208416000Y-70000000D01*
G75*
G02*
X208266000Y-70150000I-150000J0D01*
G01*
X206516000Y-70150000D01*
G75*
G02*
X206366000Y-70000000I0J150000D01*
G01*
G37*
G36*
G01*
X206366000Y-71270000D02*
X206366000Y-70970000D01*
G75*
G02*
X206516000Y-70820000I150000J0D01*
G01*
X208266000Y-70820000D01*
G75*
G02*
X208416000Y-70970000I0J-150000D01*
G01*
X208416000Y-71270000D01*
G75*
G02*
X208266000Y-71420000I-150000J0D01*
G01*
X206516000Y-71420000D01*
G75*
G02*
X206366000Y-71270000I0J150000D01*
G01*
G37*
G36*
G01*
X206366000Y-72540000D02*
X206366000Y-72240000D01*
G75*
G02*
X206516000Y-72090000I150000J0D01*
G01*
X208266000Y-72090000D01*
G75*
G02*
X208416000Y-72240000I0J-150000D01*
G01*
X208416000Y-72540000D01*
G75*
G02*
X208266000Y-72690000I-150000J0D01*
G01*
X206516000Y-72690000D01*
G75*
G02*
X206366000Y-72540000I0J150000D01*
G01*
G37*
G36*
G01*
X206366000Y-73810000D02*
X206366000Y-73510000D01*
G75*
G02*
X206516000Y-73360000I150000J0D01*
G01*
X208266000Y-73360000D01*
G75*
G02*
X208416000Y-73510000I0J-150000D01*
G01*
X208416000Y-73810000D01*
G75*
G02*
X208266000Y-73960000I-150000J0D01*
G01*
X206516000Y-73960000D01*
G75*
G02*
X206366000Y-73810000I0J150000D01*
G01*
G37*
G36*
G01*
X206366000Y-75080000D02*
X206366000Y-74780000D01*
G75*
G02*
X206516000Y-74630000I150000J0D01*
G01*
X208266000Y-74630000D01*
G75*
G02*
X208416000Y-74780000I0J-150000D01*
G01*
X208416000Y-75080000D01*
G75*
G02*
X208266000Y-75230000I-150000J0D01*
G01*
X206516000Y-75230000D01*
G75*
G02*
X206366000Y-75080000I0J150000D01*
G01*
G37*
G36*
G01*
X206366000Y-76350000D02*
X206366000Y-76050000D01*
G75*
G02*
X206516000Y-75900000I150000J0D01*
G01*
X208266000Y-75900000D01*
G75*
G02*
X208416000Y-76050000I0J-150000D01*
G01*
X208416000Y-76350000D01*
G75*
G02*
X208266000Y-76500000I-150000J0D01*
G01*
X206516000Y-76500000D01*
G75*
G02*
X206366000Y-76350000I0J150000D01*
G01*
G37*
G36*
G01*
X206366000Y-77620000D02*
X206366000Y-77320000D01*
G75*
G02*
X206516000Y-77170000I150000J0D01*
G01*
X208266000Y-77170000D01*
G75*
G02*
X208416000Y-77320000I0J-150000D01*
G01*
X208416000Y-77620000D01*
G75*
G02*
X208266000Y-77770000I-150000J0D01*
G01*
X206516000Y-77770000D01*
G75*
G02*
X206366000Y-77620000I0J150000D01*
G01*
G37*
G36*
G01*
X206366000Y-78890000D02*
X206366000Y-78590000D01*
G75*
G02*
X206516000Y-78440000I150000J0D01*
G01*
X208266000Y-78440000D01*
G75*
G02*
X208416000Y-78590000I0J-150000D01*
G01*
X208416000Y-78890000D01*
G75*
G02*
X208266000Y-79040000I-150000J0D01*
G01*
X206516000Y-79040000D01*
G75*
G02*
X206366000Y-78890000I0J150000D01*
G01*
G37*
G36*
G01*
X206366000Y-80160000D02*
X206366000Y-79860000D01*
G75*
G02*
X206516000Y-79710000I150000J0D01*
G01*
X208266000Y-79710000D01*
G75*
G02*
X208416000Y-79860000I0J-150000D01*
G01*
X208416000Y-80160000D01*
G75*
G02*
X208266000Y-80310000I-150000J0D01*
G01*
X206516000Y-80310000D01*
G75*
G02*
X206366000Y-80160000I0J150000D01*
G01*
G37*
G36*
G01*
X206366000Y-81430000D02*
X206366000Y-81130000D01*
G75*
G02*
X206516000Y-80980000I150000J0D01*
G01*
X208266000Y-80980000D01*
G75*
G02*
X208416000Y-81130000I0J-150000D01*
G01*
X208416000Y-81430000D01*
G75*
G02*
X208266000Y-81580000I-150000J0D01*
G01*
X206516000Y-81580000D01*
G75*
G02*
X206366000Y-81430000I0J150000D01*
G01*
G37*
G36*
G01*
X206366000Y-82700000D02*
X206366000Y-82400000D01*
G75*
G02*
X206516000Y-82250000I150000J0D01*
G01*
X208266000Y-82250000D01*
G75*
G02*
X208416000Y-82400000I0J-150000D01*
G01*
X208416000Y-82700000D01*
G75*
G02*
X208266000Y-82850000I-150000J0D01*
G01*
X206516000Y-82850000D01*
G75*
G02*
X206366000Y-82700000I0J150000D01*
G01*
G37*
G36*
G01*
X206366000Y-83970000D02*
X206366000Y-83670000D01*
G75*
G02*
X206516000Y-83520000I150000J0D01*
G01*
X208266000Y-83520000D01*
G75*
G02*
X208416000Y-83670000I0J-150000D01*
G01*
X208416000Y-83970000D01*
G75*
G02*
X208266000Y-84120000I-150000J0D01*
G01*
X206516000Y-84120000D01*
G75*
G02*
X206366000Y-83970000I0J150000D01*
G01*
G37*
G36*
G01*
X197066000Y-83970000D02*
X197066000Y-83670000D01*
G75*
G02*
X197216000Y-83520000I150000J0D01*
G01*
X198966000Y-83520000D01*
G75*
G02*
X199116000Y-83670000I0J-150000D01*
G01*
X199116000Y-83970000D01*
G75*
G02*
X198966000Y-84120000I-150000J0D01*
G01*
X197216000Y-84120000D01*
G75*
G02*
X197066000Y-83970000I0J150000D01*
G01*
G37*
G36*
G01*
X197066000Y-82700000D02*
X197066000Y-82400000D01*
G75*
G02*
X197216000Y-82250000I150000J0D01*
G01*
X198966000Y-82250000D01*
G75*
G02*
X199116000Y-82400000I0J-150000D01*
G01*
X199116000Y-82700000D01*
G75*
G02*
X198966000Y-82850000I-150000J0D01*
G01*
X197216000Y-82850000D01*
G75*
G02*
X197066000Y-82700000I0J150000D01*
G01*
G37*
G36*
G01*
X197066000Y-81430000D02*
X197066000Y-81130000D01*
G75*
G02*
X197216000Y-80980000I150000J0D01*
G01*
X198966000Y-80980000D01*
G75*
G02*
X199116000Y-81130000I0J-150000D01*
G01*
X199116000Y-81430000D01*
G75*
G02*
X198966000Y-81580000I-150000J0D01*
G01*
X197216000Y-81580000D01*
G75*
G02*
X197066000Y-81430000I0J150000D01*
G01*
G37*
G36*
G01*
X197066000Y-80160000D02*
X197066000Y-79860000D01*
G75*
G02*
X197216000Y-79710000I150000J0D01*
G01*
X198966000Y-79710000D01*
G75*
G02*
X199116000Y-79860000I0J-150000D01*
G01*
X199116000Y-80160000D01*
G75*
G02*
X198966000Y-80310000I-150000J0D01*
G01*
X197216000Y-80310000D01*
G75*
G02*
X197066000Y-80160000I0J150000D01*
G01*
G37*
G36*
G01*
X197066000Y-78890000D02*
X197066000Y-78590000D01*
G75*
G02*
X197216000Y-78440000I150000J0D01*
G01*
X198966000Y-78440000D01*
G75*
G02*
X199116000Y-78590000I0J-150000D01*
G01*
X199116000Y-78890000D01*
G75*
G02*
X198966000Y-79040000I-150000J0D01*
G01*
X197216000Y-79040000D01*
G75*
G02*
X197066000Y-78890000I0J150000D01*
G01*
G37*
G36*
G01*
X197066000Y-77620000D02*
X197066000Y-77320000D01*
G75*
G02*
X197216000Y-77170000I150000J0D01*
G01*
X198966000Y-77170000D01*
G75*
G02*
X199116000Y-77320000I0J-150000D01*
G01*
X199116000Y-77620000D01*
G75*
G02*
X198966000Y-77770000I-150000J0D01*
G01*
X197216000Y-77770000D01*
G75*
G02*
X197066000Y-77620000I0J150000D01*
G01*
G37*
G36*
G01*
X197066000Y-76350000D02*
X197066000Y-76050000D01*
G75*
G02*
X197216000Y-75900000I150000J0D01*
G01*
X198966000Y-75900000D01*
G75*
G02*
X199116000Y-76050000I0J-150000D01*
G01*
X199116000Y-76350000D01*
G75*
G02*
X198966000Y-76500000I-150000J0D01*
G01*
X197216000Y-76500000D01*
G75*
G02*
X197066000Y-76350000I0J150000D01*
G01*
G37*
G36*
G01*
X197066000Y-75080000D02*
X197066000Y-74780000D01*
G75*
G02*
X197216000Y-74630000I150000J0D01*
G01*
X198966000Y-74630000D01*
G75*
G02*
X199116000Y-74780000I0J-150000D01*
G01*
X199116000Y-75080000D01*
G75*
G02*
X198966000Y-75230000I-150000J0D01*
G01*
X197216000Y-75230000D01*
G75*
G02*
X197066000Y-75080000I0J150000D01*
G01*
G37*
G36*
G01*
X197066000Y-73810000D02*
X197066000Y-73510000D01*
G75*
G02*
X197216000Y-73360000I150000J0D01*
G01*
X198966000Y-73360000D01*
G75*
G02*
X199116000Y-73510000I0J-150000D01*
G01*
X199116000Y-73810000D01*
G75*
G02*
X198966000Y-73960000I-150000J0D01*
G01*
X197216000Y-73960000D01*
G75*
G02*
X197066000Y-73810000I0J150000D01*
G01*
G37*
G36*
G01*
X197066000Y-72540000D02*
X197066000Y-72240000D01*
G75*
G02*
X197216000Y-72090000I150000J0D01*
G01*
X198966000Y-72090000D01*
G75*
G02*
X199116000Y-72240000I0J-150000D01*
G01*
X199116000Y-72540000D01*
G75*
G02*
X198966000Y-72690000I-150000J0D01*
G01*
X197216000Y-72690000D01*
G75*
G02*
X197066000Y-72540000I0J150000D01*
G01*
G37*
G36*
G01*
X197066000Y-71270000D02*
X197066000Y-70970000D01*
G75*
G02*
X197216000Y-70820000I150000J0D01*
G01*
X198966000Y-70820000D01*
G75*
G02*
X199116000Y-70970000I0J-150000D01*
G01*
X199116000Y-71270000D01*
G75*
G02*
X198966000Y-71420000I-150000J0D01*
G01*
X197216000Y-71420000D01*
G75*
G02*
X197066000Y-71270000I0J150000D01*
G01*
G37*
G36*
G01*
X197066000Y-70000000D02*
X197066000Y-69700000D01*
G75*
G02*
X197216000Y-69550000I150000J0D01*
G01*
X198966000Y-69550000D01*
G75*
G02*
X199116000Y-69700000I0J-150000D01*
G01*
X199116000Y-70000000D01*
G75*
G02*
X198966000Y-70150000I-150000J0D01*
G01*
X197216000Y-70150000D01*
G75*
G02*
X197066000Y-70000000I0J150000D01*
G01*
G37*
G36*
G01*
X197066000Y-68730000D02*
X197066000Y-68430000D01*
G75*
G02*
X197216000Y-68280000I150000J0D01*
G01*
X198966000Y-68280000D01*
G75*
G02*
X199116000Y-68430000I0J-150000D01*
G01*
X199116000Y-68730000D01*
G75*
G02*
X198966000Y-68880000I-150000J0D01*
G01*
X197216000Y-68880000D01*
G75*
G02*
X197066000Y-68730000I0J150000D01*
G01*
G37*
G36*
G01*
X197066000Y-67460000D02*
X197066000Y-67160000D01*
G75*
G02*
X197216000Y-67010000I150000J0D01*
G01*
X198966000Y-67010000D01*
G75*
G02*
X199116000Y-67160000I0J-150000D01*
G01*
X199116000Y-67460000D01*
G75*
G02*
X198966000Y-67610000I-150000J0D01*
G01*
X197216000Y-67610000D01*
G75*
G02*
X197066000Y-67460000I0J150000D01*
G01*
G37*
%TD*%
D27*
%TO.C,U1*%
X144562000Y-70216000D03*
X145362000Y-70216000D03*
X146162000Y-70216000D03*
X146962000Y-70216000D03*
X147762000Y-70216000D03*
X148562000Y-70216000D03*
X149362000Y-70216000D03*
X150162000Y-70216000D03*
X150962000Y-70216000D03*
X151762000Y-70216000D03*
X152562000Y-70216000D03*
D28*
X154262000Y-71916000D03*
X154262000Y-72716000D03*
X154262000Y-73516000D03*
X154262000Y-74316000D03*
X154262000Y-75116000D03*
X154262000Y-75916000D03*
X154262000Y-76716000D03*
X154262000Y-77516000D03*
X154262000Y-78316000D03*
X154262000Y-79116000D03*
X154262000Y-79916000D03*
D27*
X152562000Y-81616000D03*
X151762000Y-81616000D03*
X150962000Y-81616000D03*
X150162000Y-81616000D03*
X149362000Y-81616000D03*
X148562000Y-81616000D03*
X147762000Y-81616000D03*
X146962000Y-81616000D03*
X146162000Y-81616000D03*
X145362000Y-81616000D03*
X144562000Y-81616000D03*
D28*
X142862000Y-79916000D03*
X142862000Y-79116000D03*
X142862000Y-78316000D03*
X142862000Y-77516000D03*
X142862000Y-76716000D03*
X142862000Y-75916000D03*
X142862000Y-75116000D03*
X142862000Y-74316000D03*
X142862000Y-73516000D03*
X142862000Y-72716000D03*
X142862000Y-71916000D03*
%TD*%
%TO.C,R8*%
G36*
G01*
X155886999Y-67710000D02*
X156787001Y-67710000D01*
G75*
G02*
X157037000Y-67959999I0J-249999D01*
G01*
X157037000Y-68485001D01*
G75*
G02*
X156787001Y-68735000I-249999J0D01*
G01*
X155886999Y-68735000D01*
G75*
G02*
X155637000Y-68485001I0J249999D01*
G01*
X155637000Y-67959999D01*
G75*
G02*
X155886999Y-67710000I249999J0D01*
G01*
G37*
G36*
G01*
X155886999Y-65885000D02*
X156787001Y-65885000D01*
G75*
G02*
X157037000Y-66134999I0J-249999D01*
G01*
X157037000Y-66660001D01*
G75*
G02*
X156787001Y-66910000I-249999J0D01*
G01*
X155886999Y-66910000D01*
G75*
G02*
X155637000Y-66660001I0J249999D01*
G01*
X155637000Y-66134999D01*
G75*
G02*
X155886999Y-65885000I249999J0D01*
G01*
G37*
%TD*%
%TO.C,R5*%
G36*
G01*
X147250999Y-53970500D02*
X148151001Y-53970500D01*
G75*
G02*
X148401000Y-54220499I0J-249999D01*
G01*
X148401000Y-54745501D01*
G75*
G02*
X148151001Y-54995500I-249999J0D01*
G01*
X147250999Y-54995500D01*
G75*
G02*
X147001000Y-54745501I0J249999D01*
G01*
X147001000Y-54220499D01*
G75*
G02*
X147250999Y-53970500I249999J0D01*
G01*
G37*
G36*
G01*
X147250999Y-52145500D02*
X148151001Y-52145500D01*
G75*
G02*
X148401000Y-52395499I0J-249999D01*
G01*
X148401000Y-52920501D01*
G75*
G02*
X148151001Y-53170500I-249999J0D01*
G01*
X147250999Y-53170500D01*
G75*
G02*
X147001000Y-52920501I0J249999D01*
G01*
X147001000Y-52395499D01*
G75*
G02*
X147250999Y-52145500I249999J0D01*
G01*
G37*
%TD*%
%TO.C,R4*%
G36*
G01*
X150044999Y-53970500D02*
X150945001Y-53970500D01*
G75*
G02*
X151195000Y-54220499I0J-249999D01*
G01*
X151195000Y-54745501D01*
G75*
G02*
X150945001Y-54995500I-249999J0D01*
G01*
X150044999Y-54995500D01*
G75*
G02*
X149795000Y-54745501I0J249999D01*
G01*
X149795000Y-54220499D01*
G75*
G02*
X150044999Y-53970500I249999J0D01*
G01*
G37*
G36*
G01*
X150044999Y-52145500D02*
X150945001Y-52145500D01*
G75*
G02*
X151195000Y-52395499I0J-249999D01*
G01*
X151195000Y-52920501D01*
G75*
G02*
X150945001Y-53170500I-249999J0D01*
G01*
X150044999Y-53170500D01*
G75*
G02*
X149795000Y-52920501I0J249999D01*
G01*
X149795000Y-52395499D01*
G75*
G02*
X150044999Y-52145500I249999J0D01*
G01*
G37*
%TD*%
%TO.C,R3*%
G36*
G01*
X146570500Y-49381001D02*
X146570500Y-48480999D01*
G75*
G02*
X146820499Y-48231000I249999J0D01*
G01*
X147345501Y-48231000D01*
G75*
G02*
X147595500Y-48480999I0J-249999D01*
G01*
X147595500Y-49381001D01*
G75*
G02*
X147345501Y-49631000I-249999J0D01*
G01*
X146820499Y-49631000D01*
G75*
G02*
X146570500Y-49381001I0J249999D01*
G01*
G37*
G36*
G01*
X144745500Y-49381001D02*
X144745500Y-48480999D01*
G75*
G02*
X144995499Y-48231000I249999J0D01*
G01*
X145520501Y-48231000D01*
G75*
G02*
X145770500Y-48480999I0J-249999D01*
G01*
X145770500Y-49381001D01*
G75*
G02*
X145520501Y-49631000I-249999J0D01*
G01*
X144995499Y-49631000D01*
G75*
G02*
X144745500Y-49381001I0J249999D01*
G01*
G37*
%TD*%
%TO.C,R2*%
G36*
G01*
X153571500Y-48353999D02*
X153571500Y-49254001D01*
G75*
G02*
X153321501Y-49504000I-249999J0D01*
G01*
X152796499Y-49504000D01*
G75*
G02*
X152546500Y-49254001I0J249999D01*
G01*
X152546500Y-48353999D01*
G75*
G02*
X152796499Y-48104000I249999J0D01*
G01*
X153321501Y-48104000D01*
G75*
G02*
X153571500Y-48353999I0J-249999D01*
G01*
G37*
G36*
G01*
X155396500Y-48353999D02*
X155396500Y-49254001D01*
G75*
G02*
X155146501Y-49504000I-249999J0D01*
G01*
X154621499Y-49504000D01*
G75*
G02*
X154371500Y-49254001I0J249999D01*
G01*
X154371500Y-48353999D01*
G75*
G02*
X154621499Y-48104000I249999J0D01*
G01*
X155146501Y-48104000D01*
G75*
G02*
X155396500Y-48353999I0J-249999D01*
G01*
G37*
%TD*%
%TO.C,R1*%
G36*
G01*
X142814999Y-98577500D02*
X143715001Y-98577500D01*
G75*
G02*
X143965000Y-98827499I0J-249999D01*
G01*
X143965000Y-99352501D01*
G75*
G02*
X143715001Y-99602500I-249999J0D01*
G01*
X142814999Y-99602500D01*
G75*
G02*
X142565000Y-99352501I0J249999D01*
G01*
X142565000Y-98827499D01*
G75*
G02*
X142814999Y-98577500I249999J0D01*
G01*
G37*
G36*
G01*
X142814999Y-96752500D02*
X143715001Y-96752500D01*
G75*
G02*
X143965000Y-97002499I0J-249999D01*
G01*
X143965000Y-97527501D01*
G75*
G02*
X143715001Y-97777500I-249999J0D01*
G01*
X142814999Y-97777500D01*
G75*
G02*
X142565000Y-97527501I0J249999D01*
G01*
X142565000Y-97002499D01*
G75*
G02*
X142814999Y-96752500I249999J0D01*
G01*
G37*
%TD*%
%TO.C,C7*%
G36*
G01*
X153667000Y-84488000D02*
X153667000Y-85438000D01*
G75*
G02*
X153417000Y-85688000I-250000J0D01*
G01*
X152917000Y-85688000D01*
G75*
G02*
X152667000Y-85438000I0J250000D01*
G01*
X152667000Y-84488000D01*
G75*
G02*
X152917000Y-84238000I250000J0D01*
G01*
X153417000Y-84238000D01*
G75*
G02*
X153667000Y-84488000I0J-250000D01*
G01*
G37*
G36*
G01*
X155567000Y-84488000D02*
X155567000Y-85438000D01*
G75*
G02*
X155317000Y-85688000I-250000J0D01*
G01*
X154817000Y-85688000D01*
G75*
G02*
X154567000Y-85438000I0J250000D01*
G01*
X154567000Y-84488000D01*
G75*
G02*
X154817000Y-84238000I250000J0D01*
G01*
X155317000Y-84238000D01*
G75*
G02*
X155567000Y-84488000I0J-250000D01*
G01*
G37*
%TD*%
%TO.C,C6*%
G36*
G01*
X143899000Y-66388000D02*
X143899000Y-65438000D01*
G75*
G02*
X144149000Y-65188000I250000J0D01*
G01*
X144649000Y-65188000D01*
G75*
G02*
X144899000Y-65438000I0J-250000D01*
G01*
X144899000Y-66388000D01*
G75*
G02*
X144649000Y-66638000I-250000J0D01*
G01*
X144149000Y-66638000D01*
G75*
G02*
X143899000Y-66388000I0J250000D01*
G01*
G37*
G36*
G01*
X141999000Y-66388000D02*
X141999000Y-65438000D01*
G75*
G02*
X142249000Y-65188000I250000J0D01*
G01*
X142749000Y-65188000D01*
G75*
G02*
X142999000Y-65438000I0J-250000D01*
G01*
X142999000Y-66388000D01*
G75*
G02*
X142749000Y-66638000I-250000J0D01*
G01*
X142249000Y-66638000D01*
G75*
G02*
X141999000Y-66388000I0J250000D01*
G01*
G37*
%TD*%
%TO.C,C5*%
G36*
G01*
X145423000Y-85438000D02*
X145423000Y-84488000D01*
G75*
G02*
X145673000Y-84238000I250000J0D01*
G01*
X146173000Y-84238000D01*
G75*
G02*
X146423000Y-84488000I0J-250000D01*
G01*
X146423000Y-85438000D01*
G75*
G02*
X146173000Y-85688000I-250000J0D01*
G01*
X145673000Y-85688000D01*
G75*
G02*
X145423000Y-85438000I0J250000D01*
G01*
G37*
G36*
G01*
X143523000Y-85438000D02*
X143523000Y-84488000D01*
G75*
G02*
X143773000Y-84238000I250000J0D01*
G01*
X144273000Y-84238000D01*
G75*
G02*
X144523000Y-84488000I0J-250000D01*
G01*
X144523000Y-85438000D01*
G75*
G02*
X144273000Y-85688000I-250000J0D01*
G01*
X143773000Y-85688000D01*
G75*
G02*
X143523000Y-85438000I0J250000D01*
G01*
G37*
%TD*%
%TO.C,C4*%
G36*
G01*
X153038000Y-66388000D02*
X153038000Y-65438000D01*
G75*
G02*
X153288000Y-65188000I250000J0D01*
G01*
X153788000Y-65188000D01*
G75*
G02*
X154038000Y-65438000I0J-250000D01*
G01*
X154038000Y-66388000D01*
G75*
G02*
X153788000Y-66638000I-250000J0D01*
G01*
X153288000Y-66638000D01*
G75*
G02*
X153038000Y-66388000I0J250000D01*
G01*
G37*
G36*
G01*
X151138000Y-66388000D02*
X151138000Y-65438000D01*
G75*
G02*
X151388000Y-65188000I250000J0D01*
G01*
X151888000Y-65188000D01*
G75*
G02*
X152138000Y-65438000I0J-250000D01*
G01*
X152138000Y-66388000D01*
G75*
G02*
X151888000Y-66638000I-250000J0D01*
G01*
X151388000Y-66638000D01*
G75*
G02*
X151138000Y-66388000I0J250000D01*
G01*
G37*
%TD*%
%TO.C,C3*%
G36*
G01*
X140040000Y-75288000D02*
X139090000Y-75288000D01*
G75*
G02*
X138840000Y-75038000I0J250000D01*
G01*
X138840000Y-74538000D01*
G75*
G02*
X139090000Y-74288000I250000J0D01*
G01*
X140040000Y-74288000D01*
G75*
G02*
X140290000Y-74538000I0J-250000D01*
G01*
X140290000Y-75038000D01*
G75*
G02*
X140040000Y-75288000I-250000J0D01*
G01*
G37*
G36*
G01*
X140040000Y-77188000D02*
X139090000Y-77188000D01*
G75*
G02*
X138840000Y-76938000I0J250000D01*
G01*
X138840000Y-76438000D01*
G75*
G02*
X139090000Y-76188000I250000J0D01*
G01*
X140040000Y-76188000D01*
G75*
G02*
X140290000Y-76438000I0J-250000D01*
G01*
X140290000Y-76938000D01*
G75*
G02*
X140040000Y-77188000I-250000J0D01*
G01*
G37*
%TD*%
%TO.C,C2*%
G36*
G01*
X145871000Y-89708000D02*
X144921000Y-89708000D01*
G75*
G02*
X144671000Y-89458000I0J250000D01*
G01*
X144671000Y-88958000D01*
G75*
G02*
X144921000Y-88708000I250000J0D01*
G01*
X145871000Y-88708000D01*
G75*
G02*
X146121000Y-88958000I0J-250000D01*
G01*
X146121000Y-89458000D01*
G75*
G02*
X145871000Y-89708000I-250000J0D01*
G01*
G37*
G36*
G01*
X145871000Y-91608000D02*
X144921000Y-91608000D01*
G75*
G02*
X144671000Y-91358000I0J250000D01*
G01*
X144671000Y-90858000D01*
G75*
G02*
X144921000Y-90608000I250000J0D01*
G01*
X145871000Y-90608000D01*
G75*
G02*
X146121000Y-90858000I0J-250000D01*
G01*
X146121000Y-91358000D01*
G75*
G02*
X145871000Y-91608000I-250000J0D01*
G01*
G37*
%TD*%
%TO.C,C1*%
G36*
G01*
X153811000Y-90578000D02*
X154761000Y-90578000D01*
G75*
G02*
X155011000Y-90828000I0J-250000D01*
G01*
X155011000Y-91328000D01*
G75*
G02*
X154761000Y-91578000I-250000J0D01*
G01*
X153811000Y-91578000D01*
G75*
G02*
X153561000Y-91328000I0J250000D01*
G01*
X153561000Y-90828000D01*
G75*
G02*
X153811000Y-90578000I250000J0D01*
G01*
G37*
G36*
G01*
X153811000Y-88678000D02*
X154761000Y-88678000D01*
G75*
G02*
X155011000Y-88928000I0J-250000D01*
G01*
X155011000Y-89428000D01*
G75*
G02*
X154761000Y-89678000I-250000J0D01*
G01*
X153811000Y-89678000D01*
G75*
G02*
X153561000Y-89428000I0J250000D01*
G01*
X153561000Y-88928000D01*
G75*
G02*
X153811000Y-88678000I250000J0D01*
G01*
G37*
%TD*%
M02*
