%TF.GenerationSoftware,KiCad,Pcbnew,5.1.10*%
%TF.CreationDate,2021-09-05T22:53:56-04:00*%
%TF.ProjectId,tryptris_pcb,74727970-7472-4697-935f-7063622e6b69,rev?*%
%TF.SameCoordinates,Original*%
%TF.FileFunction,Paste,Bot*%
%TF.FilePolarity,Positive*%
%FSLAX46Y46*%
G04 Gerber Fmt 4.6, Leading zero omitted, Abs format (unit mm)*
G04 Created by KiCad (PCBNEW 5.1.10) date 2021-09-05 22:53:56*
%MOMM*%
%LPD*%
G01*
G04 APERTURE LIST*
%ADD10R,2.000000X0.700000*%
%ADD11C,0.100000*%
%ADD12R,0.900000X1.200000*%
G04 APERTURE END LIST*
%TO.C,C16*%
G36*
G01*
X260975000Y-120352400D02*
X260025000Y-120352400D01*
G75*
G02*
X259775000Y-120102400I0J250000D01*
G01*
X259775000Y-119602400D01*
G75*
G02*
X260025000Y-119352400I250000J0D01*
G01*
X260975000Y-119352400D01*
G75*
G02*
X261225000Y-119602400I0J-250000D01*
G01*
X261225000Y-120102400D01*
G75*
G02*
X260975000Y-120352400I-250000J0D01*
G01*
G37*
G36*
G01*
X260975000Y-122252400D02*
X260025000Y-122252400D01*
G75*
G02*
X259775000Y-122002400I0J250000D01*
G01*
X259775000Y-121502400D01*
G75*
G02*
X260025000Y-121252400I250000J0D01*
G01*
X260975000Y-121252400D01*
G75*
G02*
X261225000Y-121502400I0J-250000D01*
G01*
X261225000Y-122002400D01*
G75*
G02*
X260975000Y-122252400I-250000J0D01*
G01*
G37*
%TD*%
%TO.C,U4*%
G36*
G01*
X97482900Y-111597400D02*
X97482900Y-111087400D01*
G75*
G02*
X97732900Y-110837400I250000J0D01*
G01*
X98242900Y-110837400D01*
G75*
G02*
X98492900Y-111087400I0J-250000D01*
G01*
X98492900Y-111597400D01*
G75*
G02*
X98242900Y-111847400I-250000J0D01*
G01*
X97732900Y-111847400D01*
G75*
G02*
X97482900Y-111597400I0J250000D01*
G01*
G37*
G36*
G01*
X97482900Y-112847400D02*
X97482900Y-112337400D01*
G75*
G02*
X97732900Y-112087400I250000J0D01*
G01*
X98242900Y-112087400D01*
G75*
G02*
X98492900Y-112337400I0J-250000D01*
G01*
X98492900Y-112847400D01*
G75*
G02*
X98242900Y-113097400I-250000J0D01*
G01*
X97732900Y-113097400D01*
G75*
G02*
X97482900Y-112847400I0J250000D01*
G01*
G37*
G36*
G01*
X97482900Y-114097400D02*
X97482900Y-113587400D01*
G75*
G02*
X97732900Y-113337400I250000J0D01*
G01*
X98242900Y-113337400D01*
G75*
G02*
X98492900Y-113587400I0J-250000D01*
G01*
X98492900Y-114097400D01*
G75*
G02*
X98242900Y-114347400I-250000J0D01*
G01*
X97732900Y-114347400D01*
G75*
G02*
X97482900Y-114097400I0J250000D01*
G01*
G37*
G36*
G01*
X97482900Y-115347400D02*
X97482900Y-114837400D01*
G75*
G02*
X97732900Y-114587400I250000J0D01*
G01*
X98242900Y-114587400D01*
G75*
G02*
X98492900Y-114837400I0J-250000D01*
G01*
X98492900Y-115347400D01*
G75*
G02*
X98242900Y-115597400I-250000J0D01*
G01*
X97732900Y-115597400D01*
G75*
G02*
X97482900Y-115347400I0J250000D01*
G01*
G37*
G36*
G01*
X96232900Y-111597400D02*
X96232900Y-111087400D01*
G75*
G02*
X96482900Y-110837400I250000J0D01*
G01*
X96992900Y-110837400D01*
G75*
G02*
X97242900Y-111087400I0J-250000D01*
G01*
X97242900Y-111597400D01*
G75*
G02*
X96992900Y-111847400I-250000J0D01*
G01*
X96482900Y-111847400D01*
G75*
G02*
X96232900Y-111597400I0J250000D01*
G01*
G37*
G36*
G01*
X96232900Y-112847400D02*
X96232900Y-112337400D01*
G75*
G02*
X96482900Y-112087400I250000J0D01*
G01*
X96992900Y-112087400D01*
G75*
G02*
X97242900Y-112337400I0J-250000D01*
G01*
X97242900Y-112847400D01*
G75*
G02*
X96992900Y-113097400I-250000J0D01*
G01*
X96482900Y-113097400D01*
G75*
G02*
X96232900Y-112847400I0J250000D01*
G01*
G37*
G36*
G01*
X96232900Y-114097400D02*
X96232900Y-113587400D01*
G75*
G02*
X96482900Y-113337400I250000J0D01*
G01*
X96992900Y-113337400D01*
G75*
G02*
X97242900Y-113587400I0J-250000D01*
G01*
X97242900Y-114097400D01*
G75*
G02*
X96992900Y-114347400I-250000J0D01*
G01*
X96482900Y-114347400D01*
G75*
G02*
X96232900Y-114097400I0J250000D01*
G01*
G37*
G36*
G01*
X96232900Y-115347400D02*
X96232900Y-114837400D01*
G75*
G02*
X96482900Y-114587400I250000J0D01*
G01*
X96992900Y-114587400D01*
G75*
G02*
X97242900Y-114837400I0J-250000D01*
G01*
X97242900Y-115347400D01*
G75*
G02*
X96992900Y-115597400I-250000J0D01*
G01*
X96482900Y-115597400D01*
G75*
G02*
X96232900Y-115347400I0J250000D01*
G01*
G37*
G36*
G01*
X94982900Y-111597400D02*
X94982900Y-111087400D01*
G75*
G02*
X95232900Y-110837400I250000J0D01*
G01*
X95742900Y-110837400D01*
G75*
G02*
X95992900Y-111087400I0J-250000D01*
G01*
X95992900Y-111597400D01*
G75*
G02*
X95742900Y-111847400I-250000J0D01*
G01*
X95232900Y-111847400D01*
G75*
G02*
X94982900Y-111597400I0J250000D01*
G01*
G37*
G36*
G01*
X94982900Y-112847400D02*
X94982900Y-112337400D01*
G75*
G02*
X95232900Y-112087400I250000J0D01*
G01*
X95742900Y-112087400D01*
G75*
G02*
X95992900Y-112337400I0J-250000D01*
G01*
X95992900Y-112847400D01*
G75*
G02*
X95742900Y-113097400I-250000J0D01*
G01*
X95232900Y-113097400D01*
G75*
G02*
X94982900Y-112847400I0J250000D01*
G01*
G37*
G36*
G01*
X94982900Y-114097400D02*
X94982900Y-113587400D01*
G75*
G02*
X95232900Y-113337400I250000J0D01*
G01*
X95742900Y-113337400D01*
G75*
G02*
X95992900Y-113587400I0J-250000D01*
G01*
X95992900Y-114097400D01*
G75*
G02*
X95742900Y-114347400I-250000J0D01*
G01*
X95232900Y-114347400D01*
G75*
G02*
X94982900Y-114097400I0J250000D01*
G01*
G37*
G36*
G01*
X94982900Y-115347400D02*
X94982900Y-114837400D01*
G75*
G02*
X95232900Y-114587400I250000J0D01*
G01*
X95742900Y-114587400D01*
G75*
G02*
X95992900Y-114837400I0J-250000D01*
G01*
X95992900Y-115347400D01*
G75*
G02*
X95742900Y-115597400I-250000J0D01*
G01*
X95232900Y-115597400D01*
G75*
G02*
X94982900Y-115347400I0J250000D01*
G01*
G37*
G36*
G01*
X93732900Y-111597400D02*
X93732900Y-111087400D01*
G75*
G02*
X93982900Y-110837400I250000J0D01*
G01*
X94492900Y-110837400D01*
G75*
G02*
X94742900Y-111087400I0J-250000D01*
G01*
X94742900Y-111597400D01*
G75*
G02*
X94492900Y-111847400I-250000J0D01*
G01*
X93982900Y-111847400D01*
G75*
G02*
X93732900Y-111597400I0J250000D01*
G01*
G37*
G36*
G01*
X93732900Y-112847400D02*
X93732900Y-112337400D01*
G75*
G02*
X93982900Y-112087400I250000J0D01*
G01*
X94492900Y-112087400D01*
G75*
G02*
X94742900Y-112337400I0J-250000D01*
G01*
X94742900Y-112847400D01*
G75*
G02*
X94492900Y-113097400I-250000J0D01*
G01*
X93982900Y-113097400D01*
G75*
G02*
X93732900Y-112847400I0J250000D01*
G01*
G37*
G36*
G01*
X93732900Y-114097400D02*
X93732900Y-113587400D01*
G75*
G02*
X93982900Y-113337400I250000J0D01*
G01*
X94492900Y-113337400D01*
G75*
G02*
X94742900Y-113587400I0J-250000D01*
G01*
X94742900Y-114097400D01*
G75*
G02*
X94492900Y-114347400I-250000J0D01*
G01*
X93982900Y-114347400D01*
G75*
G02*
X93732900Y-114097400I0J250000D01*
G01*
G37*
G36*
G01*
X93732900Y-115347400D02*
X93732900Y-114837400D01*
G75*
G02*
X93982900Y-114587400I250000J0D01*
G01*
X94492900Y-114587400D01*
G75*
G02*
X94742900Y-114837400I0J-250000D01*
G01*
X94742900Y-115347400D01*
G75*
G02*
X94492900Y-115597400I-250000J0D01*
G01*
X93982900Y-115597400D01*
G75*
G02*
X93732900Y-115347400I0J250000D01*
G01*
G37*
G36*
G01*
X93212900Y-118042400D02*
X93212900Y-116717400D01*
G75*
G02*
X93287900Y-116642400I75000J0D01*
G01*
X93437900Y-116642400D01*
G75*
G02*
X93512900Y-116717400I0J-75000D01*
G01*
X93512900Y-118042400D01*
G75*
G02*
X93437900Y-118117400I-75000J0D01*
G01*
X93287900Y-118117400D01*
G75*
G02*
X93212900Y-118042400I0J75000D01*
G01*
G37*
G36*
G01*
X93712900Y-118042400D02*
X93712900Y-116717400D01*
G75*
G02*
X93787900Y-116642400I75000J0D01*
G01*
X93937900Y-116642400D01*
G75*
G02*
X94012900Y-116717400I0J-75000D01*
G01*
X94012900Y-118042400D01*
G75*
G02*
X93937900Y-118117400I-75000J0D01*
G01*
X93787900Y-118117400D01*
G75*
G02*
X93712900Y-118042400I0J75000D01*
G01*
G37*
G36*
G01*
X94212900Y-118042400D02*
X94212900Y-116717400D01*
G75*
G02*
X94287900Y-116642400I75000J0D01*
G01*
X94437900Y-116642400D01*
G75*
G02*
X94512900Y-116717400I0J-75000D01*
G01*
X94512900Y-118042400D01*
G75*
G02*
X94437900Y-118117400I-75000J0D01*
G01*
X94287900Y-118117400D01*
G75*
G02*
X94212900Y-118042400I0J75000D01*
G01*
G37*
G36*
G01*
X94712900Y-118042400D02*
X94712900Y-116717400D01*
G75*
G02*
X94787900Y-116642400I75000J0D01*
G01*
X94937900Y-116642400D01*
G75*
G02*
X95012900Y-116717400I0J-75000D01*
G01*
X95012900Y-118042400D01*
G75*
G02*
X94937900Y-118117400I-75000J0D01*
G01*
X94787900Y-118117400D01*
G75*
G02*
X94712900Y-118042400I0J75000D01*
G01*
G37*
G36*
G01*
X95212900Y-118042400D02*
X95212900Y-116717400D01*
G75*
G02*
X95287900Y-116642400I75000J0D01*
G01*
X95437900Y-116642400D01*
G75*
G02*
X95512900Y-116717400I0J-75000D01*
G01*
X95512900Y-118042400D01*
G75*
G02*
X95437900Y-118117400I-75000J0D01*
G01*
X95287900Y-118117400D01*
G75*
G02*
X95212900Y-118042400I0J75000D01*
G01*
G37*
G36*
G01*
X95712900Y-118042400D02*
X95712900Y-116717400D01*
G75*
G02*
X95787900Y-116642400I75000J0D01*
G01*
X95937900Y-116642400D01*
G75*
G02*
X96012900Y-116717400I0J-75000D01*
G01*
X96012900Y-118042400D01*
G75*
G02*
X95937900Y-118117400I-75000J0D01*
G01*
X95787900Y-118117400D01*
G75*
G02*
X95712900Y-118042400I0J75000D01*
G01*
G37*
G36*
G01*
X96212900Y-118042400D02*
X96212900Y-116717400D01*
G75*
G02*
X96287900Y-116642400I75000J0D01*
G01*
X96437900Y-116642400D01*
G75*
G02*
X96512900Y-116717400I0J-75000D01*
G01*
X96512900Y-118042400D01*
G75*
G02*
X96437900Y-118117400I-75000J0D01*
G01*
X96287900Y-118117400D01*
G75*
G02*
X96212900Y-118042400I0J75000D01*
G01*
G37*
G36*
G01*
X96712900Y-118042400D02*
X96712900Y-116717400D01*
G75*
G02*
X96787900Y-116642400I75000J0D01*
G01*
X96937900Y-116642400D01*
G75*
G02*
X97012900Y-116717400I0J-75000D01*
G01*
X97012900Y-118042400D01*
G75*
G02*
X96937900Y-118117400I-75000J0D01*
G01*
X96787900Y-118117400D01*
G75*
G02*
X96712900Y-118042400I0J75000D01*
G01*
G37*
G36*
G01*
X97212900Y-118042400D02*
X97212900Y-116717400D01*
G75*
G02*
X97287900Y-116642400I75000J0D01*
G01*
X97437900Y-116642400D01*
G75*
G02*
X97512900Y-116717400I0J-75000D01*
G01*
X97512900Y-118042400D01*
G75*
G02*
X97437900Y-118117400I-75000J0D01*
G01*
X97287900Y-118117400D01*
G75*
G02*
X97212900Y-118042400I0J75000D01*
G01*
G37*
G36*
G01*
X97712900Y-118042400D02*
X97712900Y-116717400D01*
G75*
G02*
X97787900Y-116642400I75000J0D01*
G01*
X97937900Y-116642400D01*
G75*
G02*
X98012900Y-116717400I0J-75000D01*
G01*
X98012900Y-118042400D01*
G75*
G02*
X97937900Y-118117400I-75000J0D01*
G01*
X97787900Y-118117400D01*
G75*
G02*
X97712900Y-118042400I0J75000D01*
G01*
G37*
G36*
G01*
X98212900Y-118042400D02*
X98212900Y-116717400D01*
G75*
G02*
X98287900Y-116642400I75000J0D01*
G01*
X98437900Y-116642400D01*
G75*
G02*
X98512900Y-116717400I0J-75000D01*
G01*
X98512900Y-118042400D01*
G75*
G02*
X98437900Y-118117400I-75000J0D01*
G01*
X98287900Y-118117400D01*
G75*
G02*
X98212900Y-118042400I0J75000D01*
G01*
G37*
G36*
G01*
X98712900Y-118042400D02*
X98712900Y-116717400D01*
G75*
G02*
X98787900Y-116642400I75000J0D01*
G01*
X98937900Y-116642400D01*
G75*
G02*
X99012900Y-116717400I0J-75000D01*
G01*
X99012900Y-118042400D01*
G75*
G02*
X98937900Y-118117400I-75000J0D01*
G01*
X98787900Y-118117400D01*
G75*
G02*
X98712900Y-118042400I0J75000D01*
G01*
G37*
G36*
G01*
X99537900Y-116042400D02*
X99537900Y-115892400D01*
G75*
G02*
X99612900Y-115817400I75000J0D01*
G01*
X100937900Y-115817400D01*
G75*
G02*
X101012900Y-115892400I0J-75000D01*
G01*
X101012900Y-116042400D01*
G75*
G02*
X100937900Y-116117400I-75000J0D01*
G01*
X99612900Y-116117400D01*
G75*
G02*
X99537900Y-116042400I0J75000D01*
G01*
G37*
G36*
G01*
X99537900Y-115542400D02*
X99537900Y-115392400D01*
G75*
G02*
X99612900Y-115317400I75000J0D01*
G01*
X100937900Y-115317400D01*
G75*
G02*
X101012900Y-115392400I0J-75000D01*
G01*
X101012900Y-115542400D01*
G75*
G02*
X100937900Y-115617400I-75000J0D01*
G01*
X99612900Y-115617400D01*
G75*
G02*
X99537900Y-115542400I0J75000D01*
G01*
G37*
G36*
G01*
X99537900Y-115042400D02*
X99537900Y-114892400D01*
G75*
G02*
X99612900Y-114817400I75000J0D01*
G01*
X100937900Y-114817400D01*
G75*
G02*
X101012900Y-114892400I0J-75000D01*
G01*
X101012900Y-115042400D01*
G75*
G02*
X100937900Y-115117400I-75000J0D01*
G01*
X99612900Y-115117400D01*
G75*
G02*
X99537900Y-115042400I0J75000D01*
G01*
G37*
G36*
G01*
X99537900Y-114542400D02*
X99537900Y-114392400D01*
G75*
G02*
X99612900Y-114317400I75000J0D01*
G01*
X100937900Y-114317400D01*
G75*
G02*
X101012900Y-114392400I0J-75000D01*
G01*
X101012900Y-114542400D01*
G75*
G02*
X100937900Y-114617400I-75000J0D01*
G01*
X99612900Y-114617400D01*
G75*
G02*
X99537900Y-114542400I0J75000D01*
G01*
G37*
G36*
G01*
X99537900Y-114042400D02*
X99537900Y-113892400D01*
G75*
G02*
X99612900Y-113817400I75000J0D01*
G01*
X100937900Y-113817400D01*
G75*
G02*
X101012900Y-113892400I0J-75000D01*
G01*
X101012900Y-114042400D01*
G75*
G02*
X100937900Y-114117400I-75000J0D01*
G01*
X99612900Y-114117400D01*
G75*
G02*
X99537900Y-114042400I0J75000D01*
G01*
G37*
G36*
G01*
X99537900Y-113542400D02*
X99537900Y-113392400D01*
G75*
G02*
X99612900Y-113317400I75000J0D01*
G01*
X100937900Y-113317400D01*
G75*
G02*
X101012900Y-113392400I0J-75000D01*
G01*
X101012900Y-113542400D01*
G75*
G02*
X100937900Y-113617400I-75000J0D01*
G01*
X99612900Y-113617400D01*
G75*
G02*
X99537900Y-113542400I0J75000D01*
G01*
G37*
G36*
G01*
X99537900Y-113042400D02*
X99537900Y-112892400D01*
G75*
G02*
X99612900Y-112817400I75000J0D01*
G01*
X100937900Y-112817400D01*
G75*
G02*
X101012900Y-112892400I0J-75000D01*
G01*
X101012900Y-113042400D01*
G75*
G02*
X100937900Y-113117400I-75000J0D01*
G01*
X99612900Y-113117400D01*
G75*
G02*
X99537900Y-113042400I0J75000D01*
G01*
G37*
G36*
G01*
X99537900Y-112542400D02*
X99537900Y-112392400D01*
G75*
G02*
X99612900Y-112317400I75000J0D01*
G01*
X100937900Y-112317400D01*
G75*
G02*
X101012900Y-112392400I0J-75000D01*
G01*
X101012900Y-112542400D01*
G75*
G02*
X100937900Y-112617400I-75000J0D01*
G01*
X99612900Y-112617400D01*
G75*
G02*
X99537900Y-112542400I0J75000D01*
G01*
G37*
G36*
G01*
X99537900Y-112042400D02*
X99537900Y-111892400D01*
G75*
G02*
X99612900Y-111817400I75000J0D01*
G01*
X100937900Y-111817400D01*
G75*
G02*
X101012900Y-111892400I0J-75000D01*
G01*
X101012900Y-112042400D01*
G75*
G02*
X100937900Y-112117400I-75000J0D01*
G01*
X99612900Y-112117400D01*
G75*
G02*
X99537900Y-112042400I0J75000D01*
G01*
G37*
G36*
G01*
X99537900Y-111542400D02*
X99537900Y-111392400D01*
G75*
G02*
X99612900Y-111317400I75000J0D01*
G01*
X100937900Y-111317400D01*
G75*
G02*
X101012900Y-111392400I0J-75000D01*
G01*
X101012900Y-111542400D01*
G75*
G02*
X100937900Y-111617400I-75000J0D01*
G01*
X99612900Y-111617400D01*
G75*
G02*
X99537900Y-111542400I0J75000D01*
G01*
G37*
G36*
G01*
X99537900Y-111042400D02*
X99537900Y-110892400D01*
G75*
G02*
X99612900Y-110817400I75000J0D01*
G01*
X100937900Y-110817400D01*
G75*
G02*
X101012900Y-110892400I0J-75000D01*
G01*
X101012900Y-111042400D01*
G75*
G02*
X100937900Y-111117400I-75000J0D01*
G01*
X99612900Y-111117400D01*
G75*
G02*
X99537900Y-111042400I0J75000D01*
G01*
G37*
G36*
G01*
X99537900Y-110542400D02*
X99537900Y-110392400D01*
G75*
G02*
X99612900Y-110317400I75000J0D01*
G01*
X100937900Y-110317400D01*
G75*
G02*
X101012900Y-110392400I0J-75000D01*
G01*
X101012900Y-110542400D01*
G75*
G02*
X100937900Y-110617400I-75000J0D01*
G01*
X99612900Y-110617400D01*
G75*
G02*
X99537900Y-110542400I0J75000D01*
G01*
G37*
G36*
G01*
X98712900Y-109717400D02*
X98712900Y-108392400D01*
G75*
G02*
X98787900Y-108317400I75000J0D01*
G01*
X98937900Y-108317400D01*
G75*
G02*
X99012900Y-108392400I0J-75000D01*
G01*
X99012900Y-109717400D01*
G75*
G02*
X98937900Y-109792400I-75000J0D01*
G01*
X98787900Y-109792400D01*
G75*
G02*
X98712900Y-109717400I0J75000D01*
G01*
G37*
G36*
G01*
X98212900Y-109717400D02*
X98212900Y-108392400D01*
G75*
G02*
X98287900Y-108317400I75000J0D01*
G01*
X98437900Y-108317400D01*
G75*
G02*
X98512900Y-108392400I0J-75000D01*
G01*
X98512900Y-109717400D01*
G75*
G02*
X98437900Y-109792400I-75000J0D01*
G01*
X98287900Y-109792400D01*
G75*
G02*
X98212900Y-109717400I0J75000D01*
G01*
G37*
G36*
G01*
X97712900Y-109717400D02*
X97712900Y-108392400D01*
G75*
G02*
X97787900Y-108317400I75000J0D01*
G01*
X97937900Y-108317400D01*
G75*
G02*
X98012900Y-108392400I0J-75000D01*
G01*
X98012900Y-109717400D01*
G75*
G02*
X97937900Y-109792400I-75000J0D01*
G01*
X97787900Y-109792400D01*
G75*
G02*
X97712900Y-109717400I0J75000D01*
G01*
G37*
G36*
G01*
X97212900Y-109717400D02*
X97212900Y-108392400D01*
G75*
G02*
X97287900Y-108317400I75000J0D01*
G01*
X97437900Y-108317400D01*
G75*
G02*
X97512900Y-108392400I0J-75000D01*
G01*
X97512900Y-109717400D01*
G75*
G02*
X97437900Y-109792400I-75000J0D01*
G01*
X97287900Y-109792400D01*
G75*
G02*
X97212900Y-109717400I0J75000D01*
G01*
G37*
G36*
G01*
X96712900Y-109717400D02*
X96712900Y-108392400D01*
G75*
G02*
X96787900Y-108317400I75000J0D01*
G01*
X96937900Y-108317400D01*
G75*
G02*
X97012900Y-108392400I0J-75000D01*
G01*
X97012900Y-109717400D01*
G75*
G02*
X96937900Y-109792400I-75000J0D01*
G01*
X96787900Y-109792400D01*
G75*
G02*
X96712900Y-109717400I0J75000D01*
G01*
G37*
G36*
G01*
X96212900Y-109717400D02*
X96212900Y-108392400D01*
G75*
G02*
X96287900Y-108317400I75000J0D01*
G01*
X96437900Y-108317400D01*
G75*
G02*
X96512900Y-108392400I0J-75000D01*
G01*
X96512900Y-109717400D01*
G75*
G02*
X96437900Y-109792400I-75000J0D01*
G01*
X96287900Y-109792400D01*
G75*
G02*
X96212900Y-109717400I0J75000D01*
G01*
G37*
G36*
G01*
X95712900Y-109717400D02*
X95712900Y-108392400D01*
G75*
G02*
X95787900Y-108317400I75000J0D01*
G01*
X95937900Y-108317400D01*
G75*
G02*
X96012900Y-108392400I0J-75000D01*
G01*
X96012900Y-109717400D01*
G75*
G02*
X95937900Y-109792400I-75000J0D01*
G01*
X95787900Y-109792400D01*
G75*
G02*
X95712900Y-109717400I0J75000D01*
G01*
G37*
G36*
G01*
X95212900Y-109717400D02*
X95212900Y-108392400D01*
G75*
G02*
X95287900Y-108317400I75000J0D01*
G01*
X95437900Y-108317400D01*
G75*
G02*
X95512900Y-108392400I0J-75000D01*
G01*
X95512900Y-109717400D01*
G75*
G02*
X95437900Y-109792400I-75000J0D01*
G01*
X95287900Y-109792400D01*
G75*
G02*
X95212900Y-109717400I0J75000D01*
G01*
G37*
G36*
G01*
X94712900Y-109717400D02*
X94712900Y-108392400D01*
G75*
G02*
X94787900Y-108317400I75000J0D01*
G01*
X94937900Y-108317400D01*
G75*
G02*
X95012900Y-108392400I0J-75000D01*
G01*
X95012900Y-109717400D01*
G75*
G02*
X94937900Y-109792400I-75000J0D01*
G01*
X94787900Y-109792400D01*
G75*
G02*
X94712900Y-109717400I0J75000D01*
G01*
G37*
G36*
G01*
X94212900Y-109717400D02*
X94212900Y-108392400D01*
G75*
G02*
X94287900Y-108317400I75000J0D01*
G01*
X94437900Y-108317400D01*
G75*
G02*
X94512900Y-108392400I0J-75000D01*
G01*
X94512900Y-109717400D01*
G75*
G02*
X94437900Y-109792400I-75000J0D01*
G01*
X94287900Y-109792400D01*
G75*
G02*
X94212900Y-109717400I0J75000D01*
G01*
G37*
G36*
G01*
X93712900Y-109717400D02*
X93712900Y-108392400D01*
G75*
G02*
X93787900Y-108317400I75000J0D01*
G01*
X93937900Y-108317400D01*
G75*
G02*
X94012900Y-108392400I0J-75000D01*
G01*
X94012900Y-109717400D01*
G75*
G02*
X93937900Y-109792400I-75000J0D01*
G01*
X93787900Y-109792400D01*
G75*
G02*
X93712900Y-109717400I0J75000D01*
G01*
G37*
G36*
G01*
X93212900Y-109717400D02*
X93212900Y-108392400D01*
G75*
G02*
X93287900Y-108317400I75000J0D01*
G01*
X93437900Y-108317400D01*
G75*
G02*
X93512900Y-108392400I0J-75000D01*
G01*
X93512900Y-109717400D01*
G75*
G02*
X93437900Y-109792400I-75000J0D01*
G01*
X93287900Y-109792400D01*
G75*
G02*
X93212900Y-109717400I0J75000D01*
G01*
G37*
G36*
G01*
X91212900Y-110542400D02*
X91212900Y-110392400D01*
G75*
G02*
X91287900Y-110317400I75000J0D01*
G01*
X92612900Y-110317400D01*
G75*
G02*
X92687900Y-110392400I0J-75000D01*
G01*
X92687900Y-110542400D01*
G75*
G02*
X92612900Y-110617400I-75000J0D01*
G01*
X91287900Y-110617400D01*
G75*
G02*
X91212900Y-110542400I0J75000D01*
G01*
G37*
G36*
G01*
X91212900Y-111042400D02*
X91212900Y-110892400D01*
G75*
G02*
X91287900Y-110817400I75000J0D01*
G01*
X92612900Y-110817400D01*
G75*
G02*
X92687900Y-110892400I0J-75000D01*
G01*
X92687900Y-111042400D01*
G75*
G02*
X92612900Y-111117400I-75000J0D01*
G01*
X91287900Y-111117400D01*
G75*
G02*
X91212900Y-111042400I0J75000D01*
G01*
G37*
G36*
G01*
X91212900Y-111542400D02*
X91212900Y-111392400D01*
G75*
G02*
X91287900Y-111317400I75000J0D01*
G01*
X92612900Y-111317400D01*
G75*
G02*
X92687900Y-111392400I0J-75000D01*
G01*
X92687900Y-111542400D01*
G75*
G02*
X92612900Y-111617400I-75000J0D01*
G01*
X91287900Y-111617400D01*
G75*
G02*
X91212900Y-111542400I0J75000D01*
G01*
G37*
G36*
G01*
X91212900Y-112042400D02*
X91212900Y-111892400D01*
G75*
G02*
X91287900Y-111817400I75000J0D01*
G01*
X92612900Y-111817400D01*
G75*
G02*
X92687900Y-111892400I0J-75000D01*
G01*
X92687900Y-112042400D01*
G75*
G02*
X92612900Y-112117400I-75000J0D01*
G01*
X91287900Y-112117400D01*
G75*
G02*
X91212900Y-112042400I0J75000D01*
G01*
G37*
G36*
G01*
X91212900Y-112542400D02*
X91212900Y-112392400D01*
G75*
G02*
X91287900Y-112317400I75000J0D01*
G01*
X92612900Y-112317400D01*
G75*
G02*
X92687900Y-112392400I0J-75000D01*
G01*
X92687900Y-112542400D01*
G75*
G02*
X92612900Y-112617400I-75000J0D01*
G01*
X91287900Y-112617400D01*
G75*
G02*
X91212900Y-112542400I0J75000D01*
G01*
G37*
G36*
G01*
X91212900Y-113042400D02*
X91212900Y-112892400D01*
G75*
G02*
X91287900Y-112817400I75000J0D01*
G01*
X92612900Y-112817400D01*
G75*
G02*
X92687900Y-112892400I0J-75000D01*
G01*
X92687900Y-113042400D01*
G75*
G02*
X92612900Y-113117400I-75000J0D01*
G01*
X91287900Y-113117400D01*
G75*
G02*
X91212900Y-113042400I0J75000D01*
G01*
G37*
G36*
G01*
X91212900Y-113542400D02*
X91212900Y-113392400D01*
G75*
G02*
X91287900Y-113317400I75000J0D01*
G01*
X92612900Y-113317400D01*
G75*
G02*
X92687900Y-113392400I0J-75000D01*
G01*
X92687900Y-113542400D01*
G75*
G02*
X92612900Y-113617400I-75000J0D01*
G01*
X91287900Y-113617400D01*
G75*
G02*
X91212900Y-113542400I0J75000D01*
G01*
G37*
G36*
G01*
X91212900Y-114042400D02*
X91212900Y-113892400D01*
G75*
G02*
X91287900Y-113817400I75000J0D01*
G01*
X92612900Y-113817400D01*
G75*
G02*
X92687900Y-113892400I0J-75000D01*
G01*
X92687900Y-114042400D01*
G75*
G02*
X92612900Y-114117400I-75000J0D01*
G01*
X91287900Y-114117400D01*
G75*
G02*
X91212900Y-114042400I0J75000D01*
G01*
G37*
G36*
G01*
X91212900Y-114542400D02*
X91212900Y-114392400D01*
G75*
G02*
X91287900Y-114317400I75000J0D01*
G01*
X92612900Y-114317400D01*
G75*
G02*
X92687900Y-114392400I0J-75000D01*
G01*
X92687900Y-114542400D01*
G75*
G02*
X92612900Y-114617400I-75000J0D01*
G01*
X91287900Y-114617400D01*
G75*
G02*
X91212900Y-114542400I0J75000D01*
G01*
G37*
G36*
G01*
X91212900Y-115042400D02*
X91212900Y-114892400D01*
G75*
G02*
X91287900Y-114817400I75000J0D01*
G01*
X92612900Y-114817400D01*
G75*
G02*
X92687900Y-114892400I0J-75000D01*
G01*
X92687900Y-115042400D01*
G75*
G02*
X92612900Y-115117400I-75000J0D01*
G01*
X91287900Y-115117400D01*
G75*
G02*
X91212900Y-115042400I0J75000D01*
G01*
G37*
G36*
G01*
X91212900Y-115542400D02*
X91212900Y-115392400D01*
G75*
G02*
X91287900Y-115317400I75000J0D01*
G01*
X92612900Y-115317400D01*
G75*
G02*
X92687900Y-115392400I0J-75000D01*
G01*
X92687900Y-115542400D01*
G75*
G02*
X92612900Y-115617400I-75000J0D01*
G01*
X91287900Y-115617400D01*
G75*
G02*
X91212900Y-115542400I0J75000D01*
G01*
G37*
G36*
G01*
X91212900Y-116042400D02*
X91212900Y-115892400D01*
G75*
G02*
X91287900Y-115817400I75000J0D01*
G01*
X92612900Y-115817400D01*
G75*
G02*
X92687900Y-115892400I0J-75000D01*
G01*
X92687900Y-116042400D01*
G75*
G02*
X92612900Y-116117400I-75000J0D01*
G01*
X91287900Y-116117400D01*
G75*
G02*
X91212900Y-116042400I0J75000D01*
G01*
G37*
%TD*%
%TO.C,U3*%
G36*
G01*
X260928600Y-114565100D02*
X261438600Y-114565100D01*
G75*
G02*
X261688600Y-114815100I0J-250000D01*
G01*
X261688600Y-115325100D01*
G75*
G02*
X261438600Y-115575100I-250000J0D01*
G01*
X260928600Y-115575100D01*
G75*
G02*
X260678600Y-115325100I0J250000D01*
G01*
X260678600Y-114815100D01*
G75*
G02*
X260928600Y-114565100I250000J0D01*
G01*
G37*
G36*
G01*
X259678600Y-114565100D02*
X260188600Y-114565100D01*
G75*
G02*
X260438600Y-114815100I0J-250000D01*
G01*
X260438600Y-115325100D01*
G75*
G02*
X260188600Y-115575100I-250000J0D01*
G01*
X259678600Y-115575100D01*
G75*
G02*
X259428600Y-115325100I0J250000D01*
G01*
X259428600Y-114815100D01*
G75*
G02*
X259678600Y-114565100I250000J0D01*
G01*
G37*
G36*
G01*
X258428600Y-114565100D02*
X258938600Y-114565100D01*
G75*
G02*
X259188600Y-114815100I0J-250000D01*
G01*
X259188600Y-115325100D01*
G75*
G02*
X258938600Y-115575100I-250000J0D01*
G01*
X258428600Y-115575100D01*
G75*
G02*
X258178600Y-115325100I0J250000D01*
G01*
X258178600Y-114815100D01*
G75*
G02*
X258428600Y-114565100I250000J0D01*
G01*
G37*
G36*
G01*
X257178600Y-114565100D02*
X257688600Y-114565100D01*
G75*
G02*
X257938600Y-114815100I0J-250000D01*
G01*
X257938600Y-115325100D01*
G75*
G02*
X257688600Y-115575100I-250000J0D01*
G01*
X257178600Y-115575100D01*
G75*
G02*
X256928600Y-115325100I0J250000D01*
G01*
X256928600Y-114815100D01*
G75*
G02*
X257178600Y-114565100I250000J0D01*
G01*
G37*
G36*
G01*
X260928600Y-113315100D02*
X261438600Y-113315100D01*
G75*
G02*
X261688600Y-113565100I0J-250000D01*
G01*
X261688600Y-114075100D01*
G75*
G02*
X261438600Y-114325100I-250000J0D01*
G01*
X260928600Y-114325100D01*
G75*
G02*
X260678600Y-114075100I0J250000D01*
G01*
X260678600Y-113565100D01*
G75*
G02*
X260928600Y-113315100I250000J0D01*
G01*
G37*
G36*
G01*
X259678600Y-113315100D02*
X260188600Y-113315100D01*
G75*
G02*
X260438600Y-113565100I0J-250000D01*
G01*
X260438600Y-114075100D01*
G75*
G02*
X260188600Y-114325100I-250000J0D01*
G01*
X259678600Y-114325100D01*
G75*
G02*
X259428600Y-114075100I0J250000D01*
G01*
X259428600Y-113565100D01*
G75*
G02*
X259678600Y-113315100I250000J0D01*
G01*
G37*
G36*
G01*
X258428600Y-113315100D02*
X258938600Y-113315100D01*
G75*
G02*
X259188600Y-113565100I0J-250000D01*
G01*
X259188600Y-114075100D01*
G75*
G02*
X258938600Y-114325100I-250000J0D01*
G01*
X258428600Y-114325100D01*
G75*
G02*
X258178600Y-114075100I0J250000D01*
G01*
X258178600Y-113565100D01*
G75*
G02*
X258428600Y-113315100I250000J0D01*
G01*
G37*
G36*
G01*
X257178600Y-113315100D02*
X257688600Y-113315100D01*
G75*
G02*
X257938600Y-113565100I0J-250000D01*
G01*
X257938600Y-114075100D01*
G75*
G02*
X257688600Y-114325100I-250000J0D01*
G01*
X257178600Y-114325100D01*
G75*
G02*
X256928600Y-114075100I0J250000D01*
G01*
X256928600Y-113565100D01*
G75*
G02*
X257178600Y-113315100I250000J0D01*
G01*
G37*
G36*
G01*
X260928600Y-112065100D02*
X261438600Y-112065100D01*
G75*
G02*
X261688600Y-112315100I0J-250000D01*
G01*
X261688600Y-112825100D01*
G75*
G02*
X261438600Y-113075100I-250000J0D01*
G01*
X260928600Y-113075100D01*
G75*
G02*
X260678600Y-112825100I0J250000D01*
G01*
X260678600Y-112315100D01*
G75*
G02*
X260928600Y-112065100I250000J0D01*
G01*
G37*
G36*
G01*
X259678600Y-112065100D02*
X260188600Y-112065100D01*
G75*
G02*
X260438600Y-112315100I0J-250000D01*
G01*
X260438600Y-112825100D01*
G75*
G02*
X260188600Y-113075100I-250000J0D01*
G01*
X259678600Y-113075100D01*
G75*
G02*
X259428600Y-112825100I0J250000D01*
G01*
X259428600Y-112315100D01*
G75*
G02*
X259678600Y-112065100I250000J0D01*
G01*
G37*
G36*
G01*
X258428600Y-112065100D02*
X258938600Y-112065100D01*
G75*
G02*
X259188600Y-112315100I0J-250000D01*
G01*
X259188600Y-112825100D01*
G75*
G02*
X258938600Y-113075100I-250000J0D01*
G01*
X258428600Y-113075100D01*
G75*
G02*
X258178600Y-112825100I0J250000D01*
G01*
X258178600Y-112315100D01*
G75*
G02*
X258428600Y-112065100I250000J0D01*
G01*
G37*
G36*
G01*
X257178600Y-112065100D02*
X257688600Y-112065100D01*
G75*
G02*
X257938600Y-112315100I0J-250000D01*
G01*
X257938600Y-112825100D01*
G75*
G02*
X257688600Y-113075100I-250000J0D01*
G01*
X257178600Y-113075100D01*
G75*
G02*
X256928600Y-112825100I0J250000D01*
G01*
X256928600Y-112315100D01*
G75*
G02*
X257178600Y-112065100I250000J0D01*
G01*
G37*
G36*
G01*
X260928600Y-110815100D02*
X261438600Y-110815100D01*
G75*
G02*
X261688600Y-111065100I0J-250000D01*
G01*
X261688600Y-111575100D01*
G75*
G02*
X261438600Y-111825100I-250000J0D01*
G01*
X260928600Y-111825100D01*
G75*
G02*
X260678600Y-111575100I0J250000D01*
G01*
X260678600Y-111065100D01*
G75*
G02*
X260928600Y-110815100I250000J0D01*
G01*
G37*
G36*
G01*
X259678600Y-110815100D02*
X260188600Y-110815100D01*
G75*
G02*
X260438600Y-111065100I0J-250000D01*
G01*
X260438600Y-111575100D01*
G75*
G02*
X260188600Y-111825100I-250000J0D01*
G01*
X259678600Y-111825100D01*
G75*
G02*
X259428600Y-111575100I0J250000D01*
G01*
X259428600Y-111065100D01*
G75*
G02*
X259678600Y-110815100I250000J0D01*
G01*
G37*
G36*
G01*
X258428600Y-110815100D02*
X258938600Y-110815100D01*
G75*
G02*
X259188600Y-111065100I0J-250000D01*
G01*
X259188600Y-111575100D01*
G75*
G02*
X258938600Y-111825100I-250000J0D01*
G01*
X258428600Y-111825100D01*
G75*
G02*
X258178600Y-111575100I0J250000D01*
G01*
X258178600Y-111065100D01*
G75*
G02*
X258428600Y-110815100I250000J0D01*
G01*
G37*
G36*
G01*
X257178600Y-110815100D02*
X257688600Y-110815100D01*
G75*
G02*
X257938600Y-111065100I0J-250000D01*
G01*
X257938600Y-111575100D01*
G75*
G02*
X257688600Y-111825100I-250000J0D01*
G01*
X257178600Y-111825100D01*
G75*
G02*
X256928600Y-111575100I0J250000D01*
G01*
X256928600Y-111065100D01*
G75*
G02*
X257178600Y-110815100I250000J0D01*
G01*
G37*
G36*
G01*
X254483600Y-110295100D02*
X255808600Y-110295100D01*
G75*
G02*
X255883600Y-110370100I0J-75000D01*
G01*
X255883600Y-110520100D01*
G75*
G02*
X255808600Y-110595100I-75000J0D01*
G01*
X254483600Y-110595100D01*
G75*
G02*
X254408600Y-110520100I0J75000D01*
G01*
X254408600Y-110370100D01*
G75*
G02*
X254483600Y-110295100I75000J0D01*
G01*
G37*
G36*
G01*
X254483600Y-110795100D02*
X255808600Y-110795100D01*
G75*
G02*
X255883600Y-110870100I0J-75000D01*
G01*
X255883600Y-111020100D01*
G75*
G02*
X255808600Y-111095100I-75000J0D01*
G01*
X254483600Y-111095100D01*
G75*
G02*
X254408600Y-111020100I0J75000D01*
G01*
X254408600Y-110870100D01*
G75*
G02*
X254483600Y-110795100I75000J0D01*
G01*
G37*
G36*
G01*
X254483600Y-111295100D02*
X255808600Y-111295100D01*
G75*
G02*
X255883600Y-111370100I0J-75000D01*
G01*
X255883600Y-111520100D01*
G75*
G02*
X255808600Y-111595100I-75000J0D01*
G01*
X254483600Y-111595100D01*
G75*
G02*
X254408600Y-111520100I0J75000D01*
G01*
X254408600Y-111370100D01*
G75*
G02*
X254483600Y-111295100I75000J0D01*
G01*
G37*
G36*
G01*
X254483600Y-111795100D02*
X255808600Y-111795100D01*
G75*
G02*
X255883600Y-111870100I0J-75000D01*
G01*
X255883600Y-112020100D01*
G75*
G02*
X255808600Y-112095100I-75000J0D01*
G01*
X254483600Y-112095100D01*
G75*
G02*
X254408600Y-112020100I0J75000D01*
G01*
X254408600Y-111870100D01*
G75*
G02*
X254483600Y-111795100I75000J0D01*
G01*
G37*
G36*
G01*
X254483600Y-112295100D02*
X255808600Y-112295100D01*
G75*
G02*
X255883600Y-112370100I0J-75000D01*
G01*
X255883600Y-112520100D01*
G75*
G02*
X255808600Y-112595100I-75000J0D01*
G01*
X254483600Y-112595100D01*
G75*
G02*
X254408600Y-112520100I0J75000D01*
G01*
X254408600Y-112370100D01*
G75*
G02*
X254483600Y-112295100I75000J0D01*
G01*
G37*
G36*
G01*
X254483600Y-112795100D02*
X255808600Y-112795100D01*
G75*
G02*
X255883600Y-112870100I0J-75000D01*
G01*
X255883600Y-113020100D01*
G75*
G02*
X255808600Y-113095100I-75000J0D01*
G01*
X254483600Y-113095100D01*
G75*
G02*
X254408600Y-113020100I0J75000D01*
G01*
X254408600Y-112870100D01*
G75*
G02*
X254483600Y-112795100I75000J0D01*
G01*
G37*
G36*
G01*
X254483600Y-113295100D02*
X255808600Y-113295100D01*
G75*
G02*
X255883600Y-113370100I0J-75000D01*
G01*
X255883600Y-113520100D01*
G75*
G02*
X255808600Y-113595100I-75000J0D01*
G01*
X254483600Y-113595100D01*
G75*
G02*
X254408600Y-113520100I0J75000D01*
G01*
X254408600Y-113370100D01*
G75*
G02*
X254483600Y-113295100I75000J0D01*
G01*
G37*
G36*
G01*
X254483600Y-113795100D02*
X255808600Y-113795100D01*
G75*
G02*
X255883600Y-113870100I0J-75000D01*
G01*
X255883600Y-114020100D01*
G75*
G02*
X255808600Y-114095100I-75000J0D01*
G01*
X254483600Y-114095100D01*
G75*
G02*
X254408600Y-114020100I0J75000D01*
G01*
X254408600Y-113870100D01*
G75*
G02*
X254483600Y-113795100I75000J0D01*
G01*
G37*
G36*
G01*
X254483600Y-114295100D02*
X255808600Y-114295100D01*
G75*
G02*
X255883600Y-114370100I0J-75000D01*
G01*
X255883600Y-114520100D01*
G75*
G02*
X255808600Y-114595100I-75000J0D01*
G01*
X254483600Y-114595100D01*
G75*
G02*
X254408600Y-114520100I0J75000D01*
G01*
X254408600Y-114370100D01*
G75*
G02*
X254483600Y-114295100I75000J0D01*
G01*
G37*
G36*
G01*
X254483600Y-114795100D02*
X255808600Y-114795100D01*
G75*
G02*
X255883600Y-114870100I0J-75000D01*
G01*
X255883600Y-115020100D01*
G75*
G02*
X255808600Y-115095100I-75000J0D01*
G01*
X254483600Y-115095100D01*
G75*
G02*
X254408600Y-115020100I0J75000D01*
G01*
X254408600Y-114870100D01*
G75*
G02*
X254483600Y-114795100I75000J0D01*
G01*
G37*
G36*
G01*
X254483600Y-115295100D02*
X255808600Y-115295100D01*
G75*
G02*
X255883600Y-115370100I0J-75000D01*
G01*
X255883600Y-115520100D01*
G75*
G02*
X255808600Y-115595100I-75000J0D01*
G01*
X254483600Y-115595100D01*
G75*
G02*
X254408600Y-115520100I0J75000D01*
G01*
X254408600Y-115370100D01*
G75*
G02*
X254483600Y-115295100I75000J0D01*
G01*
G37*
G36*
G01*
X254483600Y-115795100D02*
X255808600Y-115795100D01*
G75*
G02*
X255883600Y-115870100I0J-75000D01*
G01*
X255883600Y-116020100D01*
G75*
G02*
X255808600Y-116095100I-75000J0D01*
G01*
X254483600Y-116095100D01*
G75*
G02*
X254408600Y-116020100I0J75000D01*
G01*
X254408600Y-115870100D01*
G75*
G02*
X254483600Y-115795100I75000J0D01*
G01*
G37*
G36*
G01*
X256483600Y-116620100D02*
X256633600Y-116620100D01*
G75*
G02*
X256708600Y-116695100I0J-75000D01*
G01*
X256708600Y-118020100D01*
G75*
G02*
X256633600Y-118095100I-75000J0D01*
G01*
X256483600Y-118095100D01*
G75*
G02*
X256408600Y-118020100I0J75000D01*
G01*
X256408600Y-116695100D01*
G75*
G02*
X256483600Y-116620100I75000J0D01*
G01*
G37*
G36*
G01*
X256983600Y-116620100D02*
X257133600Y-116620100D01*
G75*
G02*
X257208600Y-116695100I0J-75000D01*
G01*
X257208600Y-118020100D01*
G75*
G02*
X257133600Y-118095100I-75000J0D01*
G01*
X256983600Y-118095100D01*
G75*
G02*
X256908600Y-118020100I0J75000D01*
G01*
X256908600Y-116695100D01*
G75*
G02*
X256983600Y-116620100I75000J0D01*
G01*
G37*
G36*
G01*
X257483600Y-116620100D02*
X257633600Y-116620100D01*
G75*
G02*
X257708600Y-116695100I0J-75000D01*
G01*
X257708600Y-118020100D01*
G75*
G02*
X257633600Y-118095100I-75000J0D01*
G01*
X257483600Y-118095100D01*
G75*
G02*
X257408600Y-118020100I0J75000D01*
G01*
X257408600Y-116695100D01*
G75*
G02*
X257483600Y-116620100I75000J0D01*
G01*
G37*
G36*
G01*
X257983600Y-116620100D02*
X258133600Y-116620100D01*
G75*
G02*
X258208600Y-116695100I0J-75000D01*
G01*
X258208600Y-118020100D01*
G75*
G02*
X258133600Y-118095100I-75000J0D01*
G01*
X257983600Y-118095100D01*
G75*
G02*
X257908600Y-118020100I0J75000D01*
G01*
X257908600Y-116695100D01*
G75*
G02*
X257983600Y-116620100I75000J0D01*
G01*
G37*
G36*
G01*
X258483600Y-116620100D02*
X258633600Y-116620100D01*
G75*
G02*
X258708600Y-116695100I0J-75000D01*
G01*
X258708600Y-118020100D01*
G75*
G02*
X258633600Y-118095100I-75000J0D01*
G01*
X258483600Y-118095100D01*
G75*
G02*
X258408600Y-118020100I0J75000D01*
G01*
X258408600Y-116695100D01*
G75*
G02*
X258483600Y-116620100I75000J0D01*
G01*
G37*
G36*
G01*
X258983600Y-116620100D02*
X259133600Y-116620100D01*
G75*
G02*
X259208600Y-116695100I0J-75000D01*
G01*
X259208600Y-118020100D01*
G75*
G02*
X259133600Y-118095100I-75000J0D01*
G01*
X258983600Y-118095100D01*
G75*
G02*
X258908600Y-118020100I0J75000D01*
G01*
X258908600Y-116695100D01*
G75*
G02*
X258983600Y-116620100I75000J0D01*
G01*
G37*
G36*
G01*
X259483600Y-116620100D02*
X259633600Y-116620100D01*
G75*
G02*
X259708600Y-116695100I0J-75000D01*
G01*
X259708600Y-118020100D01*
G75*
G02*
X259633600Y-118095100I-75000J0D01*
G01*
X259483600Y-118095100D01*
G75*
G02*
X259408600Y-118020100I0J75000D01*
G01*
X259408600Y-116695100D01*
G75*
G02*
X259483600Y-116620100I75000J0D01*
G01*
G37*
G36*
G01*
X259983600Y-116620100D02*
X260133600Y-116620100D01*
G75*
G02*
X260208600Y-116695100I0J-75000D01*
G01*
X260208600Y-118020100D01*
G75*
G02*
X260133600Y-118095100I-75000J0D01*
G01*
X259983600Y-118095100D01*
G75*
G02*
X259908600Y-118020100I0J75000D01*
G01*
X259908600Y-116695100D01*
G75*
G02*
X259983600Y-116620100I75000J0D01*
G01*
G37*
G36*
G01*
X260483600Y-116620100D02*
X260633600Y-116620100D01*
G75*
G02*
X260708600Y-116695100I0J-75000D01*
G01*
X260708600Y-118020100D01*
G75*
G02*
X260633600Y-118095100I-75000J0D01*
G01*
X260483600Y-118095100D01*
G75*
G02*
X260408600Y-118020100I0J75000D01*
G01*
X260408600Y-116695100D01*
G75*
G02*
X260483600Y-116620100I75000J0D01*
G01*
G37*
G36*
G01*
X260983600Y-116620100D02*
X261133600Y-116620100D01*
G75*
G02*
X261208600Y-116695100I0J-75000D01*
G01*
X261208600Y-118020100D01*
G75*
G02*
X261133600Y-118095100I-75000J0D01*
G01*
X260983600Y-118095100D01*
G75*
G02*
X260908600Y-118020100I0J75000D01*
G01*
X260908600Y-116695100D01*
G75*
G02*
X260983600Y-116620100I75000J0D01*
G01*
G37*
G36*
G01*
X261483600Y-116620100D02*
X261633600Y-116620100D01*
G75*
G02*
X261708600Y-116695100I0J-75000D01*
G01*
X261708600Y-118020100D01*
G75*
G02*
X261633600Y-118095100I-75000J0D01*
G01*
X261483600Y-118095100D01*
G75*
G02*
X261408600Y-118020100I0J75000D01*
G01*
X261408600Y-116695100D01*
G75*
G02*
X261483600Y-116620100I75000J0D01*
G01*
G37*
G36*
G01*
X261983600Y-116620100D02*
X262133600Y-116620100D01*
G75*
G02*
X262208600Y-116695100I0J-75000D01*
G01*
X262208600Y-118020100D01*
G75*
G02*
X262133600Y-118095100I-75000J0D01*
G01*
X261983600Y-118095100D01*
G75*
G02*
X261908600Y-118020100I0J75000D01*
G01*
X261908600Y-116695100D01*
G75*
G02*
X261983600Y-116620100I75000J0D01*
G01*
G37*
G36*
G01*
X262808600Y-115795100D02*
X264133600Y-115795100D01*
G75*
G02*
X264208600Y-115870100I0J-75000D01*
G01*
X264208600Y-116020100D01*
G75*
G02*
X264133600Y-116095100I-75000J0D01*
G01*
X262808600Y-116095100D01*
G75*
G02*
X262733600Y-116020100I0J75000D01*
G01*
X262733600Y-115870100D01*
G75*
G02*
X262808600Y-115795100I75000J0D01*
G01*
G37*
G36*
G01*
X262808600Y-115295100D02*
X264133600Y-115295100D01*
G75*
G02*
X264208600Y-115370100I0J-75000D01*
G01*
X264208600Y-115520100D01*
G75*
G02*
X264133600Y-115595100I-75000J0D01*
G01*
X262808600Y-115595100D01*
G75*
G02*
X262733600Y-115520100I0J75000D01*
G01*
X262733600Y-115370100D01*
G75*
G02*
X262808600Y-115295100I75000J0D01*
G01*
G37*
G36*
G01*
X262808600Y-114795100D02*
X264133600Y-114795100D01*
G75*
G02*
X264208600Y-114870100I0J-75000D01*
G01*
X264208600Y-115020100D01*
G75*
G02*
X264133600Y-115095100I-75000J0D01*
G01*
X262808600Y-115095100D01*
G75*
G02*
X262733600Y-115020100I0J75000D01*
G01*
X262733600Y-114870100D01*
G75*
G02*
X262808600Y-114795100I75000J0D01*
G01*
G37*
G36*
G01*
X262808600Y-114295100D02*
X264133600Y-114295100D01*
G75*
G02*
X264208600Y-114370100I0J-75000D01*
G01*
X264208600Y-114520100D01*
G75*
G02*
X264133600Y-114595100I-75000J0D01*
G01*
X262808600Y-114595100D01*
G75*
G02*
X262733600Y-114520100I0J75000D01*
G01*
X262733600Y-114370100D01*
G75*
G02*
X262808600Y-114295100I75000J0D01*
G01*
G37*
G36*
G01*
X262808600Y-113795100D02*
X264133600Y-113795100D01*
G75*
G02*
X264208600Y-113870100I0J-75000D01*
G01*
X264208600Y-114020100D01*
G75*
G02*
X264133600Y-114095100I-75000J0D01*
G01*
X262808600Y-114095100D01*
G75*
G02*
X262733600Y-114020100I0J75000D01*
G01*
X262733600Y-113870100D01*
G75*
G02*
X262808600Y-113795100I75000J0D01*
G01*
G37*
G36*
G01*
X262808600Y-113295100D02*
X264133600Y-113295100D01*
G75*
G02*
X264208600Y-113370100I0J-75000D01*
G01*
X264208600Y-113520100D01*
G75*
G02*
X264133600Y-113595100I-75000J0D01*
G01*
X262808600Y-113595100D01*
G75*
G02*
X262733600Y-113520100I0J75000D01*
G01*
X262733600Y-113370100D01*
G75*
G02*
X262808600Y-113295100I75000J0D01*
G01*
G37*
G36*
G01*
X262808600Y-112795100D02*
X264133600Y-112795100D01*
G75*
G02*
X264208600Y-112870100I0J-75000D01*
G01*
X264208600Y-113020100D01*
G75*
G02*
X264133600Y-113095100I-75000J0D01*
G01*
X262808600Y-113095100D01*
G75*
G02*
X262733600Y-113020100I0J75000D01*
G01*
X262733600Y-112870100D01*
G75*
G02*
X262808600Y-112795100I75000J0D01*
G01*
G37*
G36*
G01*
X262808600Y-112295100D02*
X264133600Y-112295100D01*
G75*
G02*
X264208600Y-112370100I0J-75000D01*
G01*
X264208600Y-112520100D01*
G75*
G02*
X264133600Y-112595100I-75000J0D01*
G01*
X262808600Y-112595100D01*
G75*
G02*
X262733600Y-112520100I0J75000D01*
G01*
X262733600Y-112370100D01*
G75*
G02*
X262808600Y-112295100I75000J0D01*
G01*
G37*
G36*
G01*
X262808600Y-111795100D02*
X264133600Y-111795100D01*
G75*
G02*
X264208600Y-111870100I0J-75000D01*
G01*
X264208600Y-112020100D01*
G75*
G02*
X264133600Y-112095100I-75000J0D01*
G01*
X262808600Y-112095100D01*
G75*
G02*
X262733600Y-112020100I0J75000D01*
G01*
X262733600Y-111870100D01*
G75*
G02*
X262808600Y-111795100I75000J0D01*
G01*
G37*
G36*
G01*
X262808600Y-111295100D02*
X264133600Y-111295100D01*
G75*
G02*
X264208600Y-111370100I0J-75000D01*
G01*
X264208600Y-111520100D01*
G75*
G02*
X264133600Y-111595100I-75000J0D01*
G01*
X262808600Y-111595100D01*
G75*
G02*
X262733600Y-111520100I0J75000D01*
G01*
X262733600Y-111370100D01*
G75*
G02*
X262808600Y-111295100I75000J0D01*
G01*
G37*
G36*
G01*
X262808600Y-110795100D02*
X264133600Y-110795100D01*
G75*
G02*
X264208600Y-110870100I0J-75000D01*
G01*
X264208600Y-111020100D01*
G75*
G02*
X264133600Y-111095100I-75000J0D01*
G01*
X262808600Y-111095100D01*
G75*
G02*
X262733600Y-111020100I0J75000D01*
G01*
X262733600Y-110870100D01*
G75*
G02*
X262808600Y-110795100I75000J0D01*
G01*
G37*
G36*
G01*
X262808600Y-110295100D02*
X264133600Y-110295100D01*
G75*
G02*
X264208600Y-110370100I0J-75000D01*
G01*
X264208600Y-110520100D01*
G75*
G02*
X264133600Y-110595100I-75000J0D01*
G01*
X262808600Y-110595100D01*
G75*
G02*
X262733600Y-110520100I0J75000D01*
G01*
X262733600Y-110370100D01*
G75*
G02*
X262808600Y-110295100I75000J0D01*
G01*
G37*
G36*
G01*
X261983600Y-108295100D02*
X262133600Y-108295100D01*
G75*
G02*
X262208600Y-108370100I0J-75000D01*
G01*
X262208600Y-109695100D01*
G75*
G02*
X262133600Y-109770100I-75000J0D01*
G01*
X261983600Y-109770100D01*
G75*
G02*
X261908600Y-109695100I0J75000D01*
G01*
X261908600Y-108370100D01*
G75*
G02*
X261983600Y-108295100I75000J0D01*
G01*
G37*
G36*
G01*
X261483600Y-108295100D02*
X261633600Y-108295100D01*
G75*
G02*
X261708600Y-108370100I0J-75000D01*
G01*
X261708600Y-109695100D01*
G75*
G02*
X261633600Y-109770100I-75000J0D01*
G01*
X261483600Y-109770100D01*
G75*
G02*
X261408600Y-109695100I0J75000D01*
G01*
X261408600Y-108370100D01*
G75*
G02*
X261483600Y-108295100I75000J0D01*
G01*
G37*
G36*
G01*
X260983600Y-108295100D02*
X261133600Y-108295100D01*
G75*
G02*
X261208600Y-108370100I0J-75000D01*
G01*
X261208600Y-109695100D01*
G75*
G02*
X261133600Y-109770100I-75000J0D01*
G01*
X260983600Y-109770100D01*
G75*
G02*
X260908600Y-109695100I0J75000D01*
G01*
X260908600Y-108370100D01*
G75*
G02*
X260983600Y-108295100I75000J0D01*
G01*
G37*
G36*
G01*
X260483600Y-108295100D02*
X260633600Y-108295100D01*
G75*
G02*
X260708600Y-108370100I0J-75000D01*
G01*
X260708600Y-109695100D01*
G75*
G02*
X260633600Y-109770100I-75000J0D01*
G01*
X260483600Y-109770100D01*
G75*
G02*
X260408600Y-109695100I0J75000D01*
G01*
X260408600Y-108370100D01*
G75*
G02*
X260483600Y-108295100I75000J0D01*
G01*
G37*
G36*
G01*
X259983600Y-108295100D02*
X260133600Y-108295100D01*
G75*
G02*
X260208600Y-108370100I0J-75000D01*
G01*
X260208600Y-109695100D01*
G75*
G02*
X260133600Y-109770100I-75000J0D01*
G01*
X259983600Y-109770100D01*
G75*
G02*
X259908600Y-109695100I0J75000D01*
G01*
X259908600Y-108370100D01*
G75*
G02*
X259983600Y-108295100I75000J0D01*
G01*
G37*
G36*
G01*
X259483600Y-108295100D02*
X259633600Y-108295100D01*
G75*
G02*
X259708600Y-108370100I0J-75000D01*
G01*
X259708600Y-109695100D01*
G75*
G02*
X259633600Y-109770100I-75000J0D01*
G01*
X259483600Y-109770100D01*
G75*
G02*
X259408600Y-109695100I0J75000D01*
G01*
X259408600Y-108370100D01*
G75*
G02*
X259483600Y-108295100I75000J0D01*
G01*
G37*
G36*
G01*
X258983600Y-108295100D02*
X259133600Y-108295100D01*
G75*
G02*
X259208600Y-108370100I0J-75000D01*
G01*
X259208600Y-109695100D01*
G75*
G02*
X259133600Y-109770100I-75000J0D01*
G01*
X258983600Y-109770100D01*
G75*
G02*
X258908600Y-109695100I0J75000D01*
G01*
X258908600Y-108370100D01*
G75*
G02*
X258983600Y-108295100I75000J0D01*
G01*
G37*
G36*
G01*
X258483600Y-108295100D02*
X258633600Y-108295100D01*
G75*
G02*
X258708600Y-108370100I0J-75000D01*
G01*
X258708600Y-109695100D01*
G75*
G02*
X258633600Y-109770100I-75000J0D01*
G01*
X258483600Y-109770100D01*
G75*
G02*
X258408600Y-109695100I0J75000D01*
G01*
X258408600Y-108370100D01*
G75*
G02*
X258483600Y-108295100I75000J0D01*
G01*
G37*
G36*
G01*
X257983600Y-108295100D02*
X258133600Y-108295100D01*
G75*
G02*
X258208600Y-108370100I0J-75000D01*
G01*
X258208600Y-109695100D01*
G75*
G02*
X258133600Y-109770100I-75000J0D01*
G01*
X257983600Y-109770100D01*
G75*
G02*
X257908600Y-109695100I0J75000D01*
G01*
X257908600Y-108370100D01*
G75*
G02*
X257983600Y-108295100I75000J0D01*
G01*
G37*
G36*
G01*
X257483600Y-108295100D02*
X257633600Y-108295100D01*
G75*
G02*
X257708600Y-108370100I0J-75000D01*
G01*
X257708600Y-109695100D01*
G75*
G02*
X257633600Y-109770100I-75000J0D01*
G01*
X257483600Y-109770100D01*
G75*
G02*
X257408600Y-109695100I0J75000D01*
G01*
X257408600Y-108370100D01*
G75*
G02*
X257483600Y-108295100I75000J0D01*
G01*
G37*
G36*
G01*
X256983600Y-108295100D02*
X257133600Y-108295100D01*
G75*
G02*
X257208600Y-108370100I0J-75000D01*
G01*
X257208600Y-109695100D01*
G75*
G02*
X257133600Y-109770100I-75000J0D01*
G01*
X256983600Y-109770100D01*
G75*
G02*
X256908600Y-109695100I0J75000D01*
G01*
X256908600Y-108370100D01*
G75*
G02*
X256983600Y-108295100I75000J0D01*
G01*
G37*
G36*
G01*
X256483600Y-108295100D02*
X256633600Y-108295100D01*
G75*
G02*
X256708600Y-108370100I0J-75000D01*
G01*
X256708600Y-109695100D01*
G75*
G02*
X256633600Y-109770100I-75000J0D01*
G01*
X256483600Y-109770100D01*
G75*
G02*
X256408600Y-109695100I0J75000D01*
G01*
X256408600Y-108370100D01*
G75*
G02*
X256483600Y-108295100I75000J0D01*
G01*
G37*
%TD*%
%TO.C,R14*%
G36*
G01*
X108781800Y-118775901D02*
X108781800Y-117875899D01*
G75*
G02*
X109031799Y-117625900I249999J0D01*
G01*
X109556801Y-117625900D01*
G75*
G02*
X109806800Y-117875899I0J-249999D01*
G01*
X109806800Y-118775901D01*
G75*
G02*
X109556801Y-119025900I-249999J0D01*
G01*
X109031799Y-119025900D01*
G75*
G02*
X108781800Y-118775901I0J249999D01*
G01*
G37*
G36*
G01*
X106956800Y-118775901D02*
X106956800Y-117875899D01*
G75*
G02*
X107206799Y-117625900I249999J0D01*
G01*
X107731801Y-117625900D01*
G75*
G02*
X107981800Y-117875899I0J-249999D01*
G01*
X107981800Y-118775901D01*
G75*
G02*
X107731801Y-119025900I-249999J0D01*
G01*
X107206799Y-119025900D01*
G75*
G02*
X106956800Y-118775901I0J249999D01*
G01*
G37*
%TD*%
%TO.C,R13*%
G36*
G01*
X252987500Y-121549999D02*
X252987500Y-122450001D01*
G75*
G02*
X252737501Y-122700000I-249999J0D01*
G01*
X252212499Y-122700000D01*
G75*
G02*
X251962500Y-122450001I0J249999D01*
G01*
X251962500Y-121549999D01*
G75*
G02*
X252212499Y-121300000I249999J0D01*
G01*
X252737501Y-121300000D01*
G75*
G02*
X252987500Y-121549999I0J-249999D01*
G01*
G37*
G36*
G01*
X254812500Y-121549999D02*
X254812500Y-122450001D01*
G75*
G02*
X254562501Y-122700000I-249999J0D01*
G01*
X254037499Y-122700000D01*
G75*
G02*
X253787500Y-122450001I0J249999D01*
G01*
X253787500Y-121549999D01*
G75*
G02*
X254037499Y-121300000I249999J0D01*
G01*
X254562501Y-121300000D01*
G75*
G02*
X254812500Y-121549999I0J-249999D01*
G01*
G37*
%TD*%
%TO.C,R12*%
G36*
G01*
X87929299Y-120300700D02*
X88829301Y-120300700D01*
G75*
G02*
X89079300Y-120550699I0J-249999D01*
G01*
X89079300Y-121075701D01*
G75*
G02*
X88829301Y-121325700I-249999J0D01*
G01*
X87929299Y-121325700D01*
G75*
G02*
X87679300Y-121075701I0J249999D01*
G01*
X87679300Y-120550699D01*
G75*
G02*
X87929299Y-120300700I249999J0D01*
G01*
G37*
G36*
G01*
X87929299Y-118475700D02*
X88829301Y-118475700D01*
G75*
G02*
X89079300Y-118725699I0J-249999D01*
G01*
X89079300Y-119250701D01*
G75*
G02*
X88829301Y-119500700I-249999J0D01*
G01*
X87929299Y-119500700D01*
G75*
G02*
X87679300Y-119250701I0J249999D01*
G01*
X87679300Y-118725699D01*
G75*
G02*
X87929299Y-118475700I249999J0D01*
G01*
G37*
%TD*%
%TO.C,R11*%
G36*
G01*
X91409099Y-121164300D02*
X92309101Y-121164300D01*
G75*
G02*
X92559100Y-121414299I0J-249999D01*
G01*
X92559100Y-121939301D01*
G75*
G02*
X92309101Y-122189300I-249999J0D01*
G01*
X91409099Y-122189300D01*
G75*
G02*
X91159100Y-121939301I0J249999D01*
G01*
X91159100Y-121414299D01*
G75*
G02*
X91409099Y-121164300I249999J0D01*
G01*
G37*
G36*
G01*
X91409099Y-119339300D02*
X92309101Y-119339300D01*
G75*
G02*
X92559100Y-119589299I0J-249999D01*
G01*
X92559100Y-120114301D01*
G75*
G02*
X92309101Y-120364300I-249999J0D01*
G01*
X91409099Y-120364300D01*
G75*
G02*
X91159100Y-120114301I0J249999D01*
G01*
X91159100Y-119589299D01*
G75*
G02*
X91409099Y-119339300I249999J0D01*
G01*
G37*
%TD*%
%TO.C,R10*%
G36*
G01*
X248939100Y-107893699D02*
X248939100Y-108793701D01*
G75*
G02*
X248689101Y-109043700I-249999J0D01*
G01*
X248164099Y-109043700D01*
G75*
G02*
X247914100Y-108793701I0J249999D01*
G01*
X247914100Y-107893699D01*
G75*
G02*
X248164099Y-107643700I249999J0D01*
G01*
X248689101Y-107643700D01*
G75*
G02*
X248939100Y-107893699I0J-249999D01*
G01*
G37*
G36*
G01*
X250764100Y-107893699D02*
X250764100Y-108793701D01*
G75*
G02*
X250514101Y-109043700I-249999J0D01*
G01*
X249989099Y-109043700D01*
G75*
G02*
X249739100Y-108793701I0J249999D01*
G01*
X249739100Y-107893699D01*
G75*
G02*
X249989099Y-107643700I249999J0D01*
G01*
X250514101Y-107643700D01*
G75*
G02*
X250764100Y-107893699I0J-249999D01*
G01*
G37*
%TD*%
%TO.C,R9*%
G36*
G01*
X248949900Y-111208399D02*
X248949900Y-112108401D01*
G75*
G02*
X248699901Y-112358400I-249999J0D01*
G01*
X248174899Y-112358400D01*
G75*
G02*
X247924900Y-112108401I0J249999D01*
G01*
X247924900Y-111208399D01*
G75*
G02*
X248174899Y-110958400I249999J0D01*
G01*
X248699901Y-110958400D01*
G75*
G02*
X248949900Y-111208399I0J-249999D01*
G01*
G37*
G36*
G01*
X250774900Y-111208399D02*
X250774900Y-112108401D01*
G75*
G02*
X250524901Y-112358400I-249999J0D01*
G01*
X249999899Y-112358400D01*
G75*
G02*
X249749900Y-112108401I0J249999D01*
G01*
X249749900Y-111208399D01*
G75*
G02*
X249999899Y-110958400I249999J0D01*
G01*
X250524901Y-110958400D01*
G75*
G02*
X250774900Y-111208399I0J-249999D01*
G01*
G37*
%TD*%
D10*
%TO.C,D108*%
X231118100Y-127000700D03*
X231118100Y-125500700D03*
X236318100Y-125500700D03*
X236318100Y-127000700D03*
%TD*%
D11*
%TO.C,D107*%
G36*
X210840178Y-131424837D02*
G01*
X210618065Y-130761010D01*
X212514712Y-130126401D01*
X212736825Y-130790228D01*
X210840178Y-131424837D01*
G37*
G36*
X210364221Y-130002352D02*
G01*
X210142108Y-129338525D01*
X212038755Y-128703916D01*
X212260868Y-129367743D01*
X210364221Y-130002352D01*
G37*
G36*
X215295504Y-128352367D02*
G01*
X215073391Y-127688540D01*
X216970038Y-127053931D01*
X217192151Y-127717758D01*
X215295504Y-128352367D01*
G37*
G36*
X215771461Y-129774853D02*
G01*
X215549348Y-129111026D01*
X217445995Y-128476417D01*
X217668108Y-129140244D01*
X215771461Y-129774853D01*
G37*
%TD*%
%TO.C,D106*%
G36*
X193624336Y-141218762D02*
G01*
X193227852Y-140641874D01*
X194876104Y-139509062D01*
X195272588Y-140085950D01*
X193624336Y-141218762D01*
G37*
G36*
X192774727Y-139982573D02*
G01*
X192378243Y-139405685D01*
X194026495Y-138272873D01*
X194422979Y-138849761D01*
X192774727Y-139982573D01*
G37*
G36*
X197060183Y-137037260D02*
G01*
X196663699Y-136460372D01*
X198311951Y-135327560D01*
X198708435Y-135904448D01*
X197060183Y-137037260D01*
G37*
G36*
X197909792Y-138273449D02*
G01*
X197513308Y-137696561D01*
X199161560Y-136563749D01*
X199558044Y-137140637D01*
X197909792Y-138273449D01*
G37*
%TD*%
%TO.C,D105*%
G36*
X152535239Y-136925703D02*
G01*
X152941732Y-136355823D01*
X154569963Y-137517229D01*
X154163470Y-138087109D01*
X152535239Y-136925703D01*
G37*
G36*
X153406294Y-135704530D02*
G01*
X153812787Y-135134650D01*
X155441018Y-136296056D01*
X155034525Y-136865936D01*
X153406294Y-135704530D01*
G37*
G36*
X157639695Y-138724185D02*
G01*
X158046188Y-138154305D01*
X159674419Y-139315711D01*
X159267926Y-139885591D01*
X157639695Y-138724185D01*
G37*
G36*
X156768640Y-139945358D02*
G01*
X157175133Y-139375478D01*
X158803364Y-140536884D01*
X158396871Y-141106764D01*
X156768640Y-139945358D01*
G37*
%TD*%
%TO.C,D104*%
G36*
X134363192Y-129140244D02*
G01*
X134585305Y-128476417D01*
X136481952Y-129111026D01*
X136259839Y-129774853D01*
X134363192Y-129140244D01*
G37*
G36*
X134839149Y-127717758D02*
G01*
X135061262Y-127053931D01*
X136957909Y-127688540D01*
X136735796Y-128352367D01*
X134839149Y-127717758D01*
G37*
G36*
X139770432Y-129367743D02*
G01*
X139992545Y-128703916D01*
X141889192Y-129338525D01*
X141667079Y-130002352D01*
X139770432Y-129367743D01*
G37*
G36*
X139294475Y-130790228D02*
G01*
X139516588Y-130126401D01*
X141413235Y-130761010D01*
X141191122Y-131424837D01*
X139294475Y-130790228D01*
G37*
%TD*%
D10*
%TO.C,D103*%
X115751300Y-127127700D03*
X115751300Y-125627700D03*
X120951300Y-125627700D03*
X120951300Y-127127700D03*
%TD*%
%TO.C,D102*%
X313210900Y-112865600D03*
X313210900Y-111365600D03*
X318410900Y-111365600D03*
X318410900Y-112865600D03*
%TD*%
%TO.C,D101*%
X294157400Y-112726600D03*
X294157400Y-111226600D03*
X299357400Y-111226600D03*
X299357400Y-112726600D03*
%TD*%
%TO.C,D100*%
X275158200Y-105512300D03*
X275158200Y-104012300D03*
X280358200Y-104012300D03*
X280358200Y-105512300D03*
%TD*%
%TO.C,D99*%
X256204100Y-100826700D03*
X256204100Y-99326700D03*
X261404100Y-99326700D03*
X261404100Y-100826700D03*
%TD*%
%TO.C,D98*%
X237192200Y-105487600D03*
X237192200Y-103987600D03*
X242392200Y-103987600D03*
X242392200Y-105487600D03*
%TD*%
%TO.C,D97*%
X218129500Y-107926000D03*
X218129500Y-106426000D03*
X223329500Y-106426000D03*
X223329500Y-107926000D03*
%TD*%
%TO.C,D96*%
X128591000Y-107950700D03*
X128591000Y-106450700D03*
X133791000Y-106450700D03*
X133791000Y-107950700D03*
%TD*%
%TO.C,D95*%
X109693400Y-105588500D03*
X109693400Y-104088500D03*
X114893400Y-104088500D03*
X114893400Y-105588500D03*
%TD*%
%TO.C,D94*%
X90681500Y-100838700D03*
X90681500Y-99338700D03*
X95881500Y-99338700D03*
X95881500Y-100838700D03*
%TD*%
%TO.C,D93*%
X71695000Y-105652000D03*
X71695000Y-104152000D03*
X76895000Y-104152000D03*
X76895000Y-105652000D03*
%TD*%
%TO.C,D92*%
X52670400Y-112865600D03*
X52670400Y-111365600D03*
X57870400Y-111365600D03*
X57870400Y-112865600D03*
%TD*%
%TO.C,D91*%
X33595000Y-112878300D03*
X33595000Y-111378300D03*
X38795000Y-111378300D03*
X38795000Y-112878300D03*
%TD*%
%TO.C,D90*%
X275174400Y-86475000D03*
X275174400Y-84975000D03*
X280374400Y-84975000D03*
X280374400Y-86475000D03*
%TD*%
%TO.C,D89*%
X313163600Y-93841000D03*
X313163600Y-92341000D03*
X318363600Y-92341000D03*
X318363600Y-93841000D03*
%TD*%
%TO.C,D88*%
X294189800Y-93803600D03*
X294189800Y-92303600D03*
X299389800Y-92303600D03*
X299389800Y-93803600D03*
%TD*%
%TO.C,D87*%
X256235200Y-81814800D03*
X256235200Y-80314800D03*
X261435200Y-80314800D03*
X261435200Y-81814800D03*
%TD*%
%TO.C,D86*%
X237201400Y-86487700D03*
X237201400Y-84987700D03*
X242401400Y-84987700D03*
X242401400Y-86487700D03*
%TD*%
%TO.C,D85*%
X218100600Y-88913400D03*
X218100600Y-87413400D03*
X223300600Y-87413400D03*
X223300600Y-88913400D03*
%TD*%
%TO.C,D84*%
X90630700Y-81763300D03*
X90630700Y-80263300D03*
X95830700Y-80263300D03*
X95830700Y-81763300D03*
%TD*%
%TO.C,D83*%
X128603700Y-88913400D03*
X128603700Y-87413400D03*
X133803700Y-87413400D03*
X133803700Y-88913400D03*
%TD*%
%TO.C,D82*%
X109668000Y-86487700D03*
X109668000Y-84987700D03*
X114868000Y-84987700D03*
X114868000Y-86487700D03*
%TD*%
%TO.C,D81*%
X71678800Y-86602700D03*
X71678800Y-85102700D03*
X76878800Y-85102700D03*
X76878800Y-86602700D03*
%TD*%
%TO.C,D80*%
X52657700Y-93891800D03*
X52657700Y-92391800D03*
X57857700Y-92391800D03*
X57857700Y-93891800D03*
%TD*%
%TO.C,D79*%
X33595000Y-93815600D03*
X33595000Y-92315600D03*
X38795000Y-92315600D03*
X38795000Y-93815600D03*
%TD*%
%TO.C,D78*%
X313150900Y-74753600D03*
X313150900Y-73253600D03*
X318350900Y-73253600D03*
X318350900Y-74753600D03*
%TD*%
%TO.C,D77*%
X294262500Y-74829100D03*
X294262500Y-73329100D03*
X299462500Y-73329100D03*
X299462500Y-74829100D03*
%TD*%
%TO.C,D76*%
X275161700Y-67552000D03*
X275161700Y-66052000D03*
X280361700Y-66052000D03*
X280361700Y-67552000D03*
%TD*%
%TO.C,D75*%
X256187900Y-62802200D03*
X256187900Y-61302200D03*
X261387900Y-61302200D03*
X261387900Y-62802200D03*
%TD*%
%TO.C,D74*%
X237226800Y-67539300D03*
X237226800Y-66039300D03*
X242426800Y-66039300D03*
X242426800Y-67539300D03*
%TD*%
%TO.C,D73*%
X218046300Y-69940300D03*
X218046300Y-68440300D03*
X223246300Y-68440300D03*
X223246300Y-69940300D03*
%TD*%
%TO.C,D72*%
X128629100Y-69952300D03*
X128629100Y-68452300D03*
X133829100Y-68452300D03*
X133829100Y-69952300D03*
%TD*%
%TO.C,D71*%
X109664500Y-67540000D03*
X109664500Y-66040000D03*
X114864500Y-66040000D03*
X114864500Y-67540000D03*
%TD*%
%TO.C,D70*%
X90630700Y-62738700D03*
X90630700Y-61238700D03*
X95830700Y-61238700D03*
X95830700Y-62738700D03*
%TD*%
%TO.C,D69*%
X71695000Y-67526600D03*
X71695000Y-66026600D03*
X76895000Y-66026600D03*
X76895000Y-67526600D03*
%TD*%
%TO.C,D68*%
X52632300Y-74803700D03*
X52632300Y-73303700D03*
X57832300Y-73303700D03*
X57832300Y-74803700D03*
%TD*%
%TO.C,D67*%
X33604200Y-74779000D03*
X33604200Y-73279000D03*
X38804200Y-73279000D03*
X38804200Y-74779000D03*
%TD*%
%TO.C,D66*%
X313109300Y-55741000D03*
X313109300Y-54241000D03*
X318309300Y-54241000D03*
X318309300Y-55741000D03*
%TD*%
%TO.C,D65*%
X294199000Y-55766400D03*
X294199000Y-54266400D03*
X299399000Y-54266400D03*
X299399000Y-55766400D03*
%TD*%
%TO.C,D64*%
X275123600Y-48527400D03*
X275123600Y-47027400D03*
X280323600Y-47027400D03*
X280323600Y-48527400D03*
%TD*%
%TO.C,D63*%
X256264100Y-43815700D03*
X256264100Y-42315700D03*
X261464100Y-42315700D03*
X261464100Y-43815700D03*
%TD*%
%TO.C,D62*%
X237252200Y-48489300D03*
X237252200Y-46989300D03*
X242452200Y-46989300D03*
X242452200Y-48489300D03*
%TD*%
%TO.C,D61*%
X218113300Y-50902300D03*
X218113300Y-49402300D03*
X223313300Y-49402300D03*
X223313300Y-50902300D03*
%TD*%
%TO.C,D60*%
X128581800Y-50928400D03*
X128581800Y-49428400D03*
X133781800Y-49428400D03*
X133781800Y-50928400D03*
%TD*%
%TO.C,D59*%
X109655300Y-48514700D03*
X109655300Y-47014700D03*
X114855300Y-47014700D03*
X114855300Y-48514700D03*
%TD*%
%TO.C,D58*%
X90630700Y-43764900D03*
X90630700Y-42264900D03*
X95830700Y-42264900D03*
X95830700Y-43764900D03*
%TD*%
%TO.C,D57*%
X71669600Y-48489300D03*
X71669600Y-46989300D03*
X76869600Y-46989300D03*
X76869600Y-48489300D03*
%TD*%
%TO.C,D56*%
X52654200Y-55754400D03*
X52654200Y-54254400D03*
X57854200Y-54254400D03*
X57854200Y-55754400D03*
%TD*%
%TO.C,D55*%
X33573100Y-55741000D03*
X33573100Y-54241000D03*
X38773100Y-54241000D03*
X38773100Y-55741000D03*
%TD*%
%TO.C,C21*%
G36*
G01*
X98341200Y-120911200D02*
X97391200Y-120911200D01*
G75*
G02*
X97141200Y-120661200I0J250000D01*
G01*
X97141200Y-120161200D01*
G75*
G02*
X97391200Y-119911200I250000J0D01*
G01*
X98341200Y-119911200D01*
G75*
G02*
X98591200Y-120161200I0J-250000D01*
G01*
X98591200Y-120661200D01*
G75*
G02*
X98341200Y-120911200I-250000J0D01*
G01*
G37*
G36*
G01*
X98341200Y-122811200D02*
X97391200Y-122811200D01*
G75*
G02*
X97141200Y-122561200I0J250000D01*
G01*
X97141200Y-122061200D01*
G75*
G02*
X97391200Y-121811200I250000J0D01*
G01*
X98341200Y-121811200D01*
G75*
G02*
X98591200Y-122061200I0J-250000D01*
G01*
X98591200Y-122561200D01*
G75*
G02*
X98341200Y-122811200I-250000J0D01*
G01*
G37*
%TD*%
%TO.C,C20*%
G36*
G01*
X249850000Y-115575000D02*
X249850000Y-114625000D01*
G75*
G02*
X250100000Y-114375000I250000J0D01*
G01*
X250600000Y-114375000D01*
G75*
G02*
X250850000Y-114625000I0J-250000D01*
G01*
X250850000Y-115575000D01*
G75*
G02*
X250600000Y-115825000I-250000J0D01*
G01*
X250100000Y-115825000D01*
G75*
G02*
X249850000Y-115575000I0J250000D01*
G01*
G37*
G36*
G01*
X247950000Y-115575000D02*
X247950000Y-114625000D01*
G75*
G02*
X248200000Y-114375000I250000J0D01*
G01*
X248700000Y-114375000D01*
G75*
G02*
X248950000Y-114625000I0J-250000D01*
G01*
X248950000Y-115575000D01*
G75*
G02*
X248700000Y-115825000I-250000J0D01*
G01*
X248200000Y-115825000D01*
G75*
G02*
X247950000Y-115575000I0J250000D01*
G01*
G37*
%TD*%
%TO.C,C19*%
G36*
G01*
X107954700Y-110815100D02*
X107954700Y-111765100D01*
G75*
G02*
X107704700Y-112015100I-250000J0D01*
G01*
X107204700Y-112015100D01*
G75*
G02*
X106954700Y-111765100I0J250000D01*
G01*
X106954700Y-110815100D01*
G75*
G02*
X107204700Y-110565100I250000J0D01*
G01*
X107704700Y-110565100D01*
G75*
G02*
X107954700Y-110815100I0J-250000D01*
G01*
G37*
G36*
G01*
X109854700Y-110815100D02*
X109854700Y-111765100D01*
G75*
G02*
X109604700Y-112015100I-250000J0D01*
G01*
X109104700Y-112015100D01*
G75*
G02*
X108854700Y-111765100I0J250000D01*
G01*
X108854700Y-110815100D01*
G75*
G02*
X109104700Y-110565100I250000J0D01*
G01*
X109604700Y-110565100D01*
G75*
G02*
X109854700Y-110815100I0J-250000D01*
G01*
G37*
%TD*%
%TO.C,C18*%
G36*
G01*
X104675300Y-105679300D02*
X103725300Y-105679300D01*
G75*
G02*
X103475300Y-105429300I0J250000D01*
G01*
X103475300Y-104929300D01*
G75*
G02*
X103725300Y-104679300I250000J0D01*
G01*
X104675300Y-104679300D01*
G75*
G02*
X104925300Y-104929300I0J-250000D01*
G01*
X104925300Y-105429300D01*
G75*
G02*
X104675300Y-105679300I-250000J0D01*
G01*
G37*
G36*
G01*
X104675300Y-107579300D02*
X103725300Y-107579300D01*
G75*
G02*
X103475300Y-107329300I0J250000D01*
G01*
X103475300Y-106829300D01*
G75*
G02*
X103725300Y-106579300I250000J0D01*
G01*
X104675300Y-106579300D01*
G75*
G02*
X104925300Y-106829300I0J-250000D01*
G01*
X104925300Y-107329300D01*
G75*
G02*
X104675300Y-107579300I-250000J0D01*
G01*
G37*
%TD*%
%TO.C,C17*%
G36*
G01*
X101760000Y-121900100D02*
X102710000Y-121900100D01*
G75*
G02*
X102960000Y-122150100I0J-250000D01*
G01*
X102960000Y-122650100D01*
G75*
G02*
X102710000Y-122900100I-250000J0D01*
G01*
X101760000Y-122900100D01*
G75*
G02*
X101510000Y-122650100I0J250000D01*
G01*
X101510000Y-122150100D01*
G75*
G02*
X101760000Y-121900100I250000J0D01*
G01*
G37*
G36*
G01*
X101760000Y-120000100D02*
X102710000Y-120000100D01*
G75*
G02*
X102960000Y-120250100I0J-250000D01*
G01*
X102960000Y-120750100D01*
G75*
G02*
X102710000Y-121000100I-250000J0D01*
G01*
X101760000Y-121000100D01*
G75*
G02*
X101510000Y-120750100I0J250000D01*
G01*
X101510000Y-120250100D01*
G75*
G02*
X101760000Y-120000100I250000J0D01*
G01*
G37*
%TD*%
%TO.C,C15*%
G36*
G01*
X270980600Y-118708900D02*
X271930600Y-118708900D01*
G75*
G02*
X272180600Y-118958900I0J-250000D01*
G01*
X272180600Y-119458900D01*
G75*
G02*
X271930600Y-119708900I-250000J0D01*
G01*
X270980600Y-119708900D01*
G75*
G02*
X270730600Y-119458900I0J250000D01*
G01*
X270730600Y-118958900D01*
G75*
G02*
X270980600Y-118708900I250000J0D01*
G01*
G37*
G36*
G01*
X270980600Y-116808900D02*
X271930600Y-116808900D01*
G75*
G02*
X272180600Y-117058900I0J-250000D01*
G01*
X272180600Y-117558900D01*
G75*
G02*
X271930600Y-117808900I-250000J0D01*
G01*
X270980600Y-117808900D01*
G75*
G02*
X270730600Y-117558900I0J250000D01*
G01*
X270730600Y-117058900D01*
G75*
G02*
X270980600Y-116808900I250000J0D01*
G01*
G37*
%TD*%
%TO.C,C14*%
G36*
G01*
X248611300Y-121770300D02*
X249561300Y-121770300D01*
G75*
G02*
X249811300Y-122020300I0J-250000D01*
G01*
X249811300Y-122520300D01*
G75*
G02*
X249561300Y-122770300I-250000J0D01*
G01*
X248611300Y-122770300D01*
G75*
G02*
X248361300Y-122520300I0J250000D01*
G01*
X248361300Y-122020300D01*
G75*
G02*
X248611300Y-121770300I250000J0D01*
G01*
G37*
G36*
G01*
X248611300Y-119870300D02*
X249561300Y-119870300D01*
G75*
G02*
X249811300Y-120120300I0J-250000D01*
G01*
X249811300Y-120620300D01*
G75*
G02*
X249561300Y-120870300I-250000J0D01*
G01*
X248611300Y-120870300D01*
G75*
G02*
X248361300Y-120620300I0J250000D01*
G01*
X248361300Y-120120300D01*
G75*
G02*
X248611300Y-119870300I250000J0D01*
G01*
G37*
%TD*%
%TO.C,C13*%
G36*
G01*
X108844500Y-115384600D02*
X108844500Y-114434600D01*
G75*
G02*
X109094500Y-114184600I250000J0D01*
G01*
X109594500Y-114184600D01*
G75*
G02*
X109844500Y-114434600I0J-250000D01*
G01*
X109844500Y-115384600D01*
G75*
G02*
X109594500Y-115634600I-250000J0D01*
G01*
X109094500Y-115634600D01*
G75*
G02*
X108844500Y-115384600I0J250000D01*
G01*
G37*
G36*
G01*
X106944500Y-115384600D02*
X106944500Y-114434600D01*
G75*
G02*
X107194500Y-114184600I250000J0D01*
G01*
X107694500Y-114184600D01*
G75*
G02*
X107944500Y-114434600I0J-250000D01*
G01*
X107944500Y-115384600D01*
G75*
G02*
X107694500Y-115634600I-250000J0D01*
G01*
X107194500Y-115634600D01*
G75*
G02*
X106944500Y-115384600I0J250000D01*
G01*
G37*
%TD*%
%TO.C,C12*%
G36*
G01*
X102148000Y-105653900D02*
X101198000Y-105653900D01*
G75*
G02*
X100948000Y-105403900I0J250000D01*
G01*
X100948000Y-104903900D01*
G75*
G02*
X101198000Y-104653900I250000J0D01*
G01*
X102148000Y-104653900D01*
G75*
G02*
X102398000Y-104903900I0J-250000D01*
G01*
X102398000Y-105403900D01*
G75*
G02*
X102148000Y-105653900I-250000J0D01*
G01*
G37*
G36*
G01*
X102148000Y-107553900D02*
X101198000Y-107553900D01*
G75*
G02*
X100948000Y-107303900I0J250000D01*
G01*
X100948000Y-106803900D01*
G75*
G02*
X101198000Y-106553900I250000J0D01*
G01*
X102148000Y-106553900D01*
G75*
G02*
X102398000Y-106803900I0J-250000D01*
G01*
X102398000Y-107303900D01*
G75*
G02*
X102148000Y-107553900I-250000J0D01*
G01*
G37*
%TD*%
%TO.C,C11*%
G36*
G01*
X106189800Y-121048400D02*
X105239800Y-121048400D01*
G75*
G02*
X104989800Y-120798400I0J250000D01*
G01*
X104989800Y-120298400D01*
G75*
G02*
X105239800Y-120048400I250000J0D01*
G01*
X106189800Y-120048400D01*
G75*
G02*
X106439800Y-120298400I0J-250000D01*
G01*
X106439800Y-120798400D01*
G75*
G02*
X106189800Y-121048400I-250000J0D01*
G01*
G37*
G36*
G01*
X106189800Y-122948400D02*
X105239800Y-122948400D01*
G75*
G02*
X104989800Y-122698400I0J250000D01*
G01*
X104989800Y-122198400D01*
G75*
G02*
X105239800Y-121948400I250000J0D01*
G01*
X106189800Y-121948400D01*
G75*
G02*
X106439800Y-122198400I0J-250000D01*
G01*
X106439800Y-122698400D01*
G75*
G02*
X106189800Y-122948400I-250000J0D01*
G01*
G37*
%TD*%
%TO.C,C10*%
G36*
G01*
X263596100Y-120195800D02*
X264546100Y-120195800D01*
G75*
G02*
X264796100Y-120445800I0J-250000D01*
G01*
X264796100Y-120945800D01*
G75*
G02*
X264546100Y-121195800I-250000J0D01*
G01*
X263596100Y-121195800D01*
G75*
G02*
X263346100Y-120945800I0J250000D01*
G01*
X263346100Y-120445800D01*
G75*
G02*
X263596100Y-120195800I250000J0D01*
G01*
G37*
G36*
G01*
X263596100Y-118295800D02*
X264546100Y-118295800D01*
G75*
G02*
X264796100Y-118545800I0J-250000D01*
G01*
X264796100Y-119045800D01*
G75*
G02*
X264546100Y-119295800I-250000J0D01*
G01*
X263596100Y-119295800D01*
G75*
G02*
X263346100Y-119045800I0J250000D01*
G01*
X263346100Y-118545800D01*
G75*
G02*
X263596100Y-118295800I250000J0D01*
G01*
G37*
%TD*%
%TO.C,C9*%
G36*
G01*
X267500800Y-118724100D02*
X268450800Y-118724100D01*
G75*
G02*
X268700800Y-118974100I0J-250000D01*
G01*
X268700800Y-119474100D01*
G75*
G02*
X268450800Y-119724100I-250000J0D01*
G01*
X267500800Y-119724100D01*
G75*
G02*
X267250800Y-119474100I0J250000D01*
G01*
X267250800Y-118974100D01*
G75*
G02*
X267500800Y-118724100I250000J0D01*
G01*
G37*
G36*
G01*
X267500800Y-116824100D02*
X268450800Y-116824100D01*
G75*
G02*
X268700800Y-117074100I0J-250000D01*
G01*
X268700800Y-117574100D01*
G75*
G02*
X268450800Y-117824100I-250000J0D01*
G01*
X267500800Y-117824100D01*
G75*
G02*
X267250800Y-117574100I0J250000D01*
G01*
X267250800Y-117074100D01*
G75*
G02*
X267500800Y-116824100I250000J0D01*
G01*
G37*
%TD*%
%TO.C,C8*%
G36*
G01*
X246075000Y-120900000D02*
X245125000Y-120900000D01*
G75*
G02*
X244875000Y-120650000I0J250000D01*
G01*
X244875000Y-120150000D01*
G75*
G02*
X245125000Y-119900000I250000J0D01*
G01*
X246075000Y-119900000D01*
G75*
G02*
X246325000Y-120150000I0J-250000D01*
G01*
X246325000Y-120650000D01*
G75*
G02*
X246075000Y-120900000I-250000J0D01*
G01*
G37*
G36*
G01*
X246075000Y-122800000D02*
X245125000Y-122800000D01*
G75*
G02*
X244875000Y-122550000I0J250000D01*
G01*
X244875000Y-122050000D01*
G75*
G02*
X245125000Y-121800000I250000J0D01*
G01*
X246075000Y-121800000D01*
G75*
G02*
X246325000Y-122050000I0J-250000D01*
G01*
X246325000Y-122550000D01*
G75*
G02*
X246075000Y-122800000I-250000J0D01*
G01*
G37*
%TD*%
D12*
%TO.C,D54*%
X230630000Y-112776000D03*
X227330000Y-112776000D03*
%TD*%
D11*
%TO.C,D53*%
G36*
X206601105Y-118155675D02*
G01*
X206220340Y-117017687D01*
X207073831Y-116732113D01*
X207454596Y-117870101D01*
X206601105Y-118155675D01*
G37*
G36*
X203471637Y-119202781D02*
G01*
X203090872Y-118064793D01*
X203944363Y-117779219D01*
X204325128Y-118917207D01*
X203471637Y-119202781D01*
G37*
%TD*%
%TO.C,D52*%
G36*
X185732795Y-129735789D02*
G01*
X185053107Y-128746837D01*
X185794821Y-128237071D01*
X186474509Y-129226023D01*
X185732795Y-129735789D01*
G37*
G36*
X183013179Y-131604929D02*
G01*
X182333491Y-130615977D01*
X183075205Y-130106211D01*
X183754893Y-131095163D01*
X183013179Y-131604929D01*
G37*
%TD*%
D12*
%TO.C,D51*%
X312674000Y-98679000D03*
X309374000Y-98679000D03*
%TD*%
%TO.C,D50*%
X293749000Y-98552000D03*
X290449000Y-98552000D03*
%TD*%
%TO.C,D49*%
X274700000Y-91313000D03*
X271400000Y-91313000D03*
%TD*%
%TO.C,D48*%
X255778000Y-86741000D03*
X252478000Y-86741000D03*
%TD*%
%TO.C,D47*%
X236726000Y-91440000D03*
X233426000Y-91440000D03*
%TD*%
%TO.C,D46*%
X217805000Y-93853000D03*
X214505000Y-93853000D03*
%TD*%
%TO.C,D45*%
X312673000Y-79629000D03*
X309373000Y-79629000D03*
%TD*%
%TO.C,D44*%
X293751000Y-79756000D03*
X290451000Y-79756000D03*
%TD*%
%TO.C,D43*%
X274700000Y-72517000D03*
X271400000Y-72517000D03*
%TD*%
%TO.C,D42*%
X255777000Y-67691000D03*
X252477000Y-67691000D03*
%TD*%
%TO.C,D41*%
X236727000Y-72390000D03*
X233427000Y-72390000D03*
%TD*%
%TO.C,D40*%
X217677000Y-74803000D03*
X214377000Y-74803000D03*
%TD*%
%TO.C,D39*%
X312673000Y-60706000D03*
X309373000Y-60706000D03*
%TD*%
%TO.C,D38*%
X293623000Y-60706000D03*
X290323000Y-60706000D03*
%TD*%
%TO.C,D37*%
X274700000Y-53340000D03*
X271400000Y-53340000D03*
%TD*%
%TO.C,D36*%
X255777000Y-48768000D03*
X252477000Y-48768000D03*
%TD*%
%TO.C,D35*%
X236600000Y-53467000D03*
X233300000Y-53467000D03*
%TD*%
%TO.C,D34*%
X217677000Y-55753000D03*
X214377000Y-55753000D03*
%TD*%
%TO.C,D33*%
X312673000Y-41656000D03*
X309373000Y-41656000D03*
%TD*%
%TO.C,D32*%
X293623000Y-41656000D03*
X290323000Y-41656000D03*
%TD*%
%TO.C,D31*%
X274700000Y-34417000D03*
X271400000Y-34417000D03*
%TD*%
%TO.C,D30*%
X255650000Y-29845000D03*
X252350000Y-29845000D03*
%TD*%
%TO.C,D29*%
X236727000Y-34544000D03*
X233427000Y-34544000D03*
%TD*%
%TO.C,D28*%
X217677000Y-36830000D03*
X214377000Y-36830000D03*
%TD*%
D11*
%TO.C,D27*%
G36*
X160648517Y-125645313D02*
G01*
X161345361Y-124668374D01*
X162078065Y-125191007D01*
X161381221Y-126167946D01*
X160648517Y-125645313D01*
G37*
G36*
X157961935Y-123728993D02*
G01*
X158658779Y-122752054D01*
X159391483Y-123274687D01*
X158694639Y-124251626D01*
X157961935Y-123728993D01*
G37*
%TD*%
%TO.C,D26*%
G36*
X138869606Y-116011760D02*
G01*
X139250371Y-114873772D01*
X140103862Y-115159346D01*
X139723097Y-116297334D01*
X138869606Y-116011760D01*
G37*
G36*
X135740138Y-114964654D02*
G01*
X136120903Y-113826666D01*
X136974394Y-114112240D01*
X136593629Y-115250228D01*
X135740138Y-114964654D01*
G37*
%TD*%
D12*
%TO.C,D25*%
X115188000Y-112903000D03*
X111888000Y-112903000D03*
%TD*%
%TO.C,D24*%
X128142000Y-93980000D03*
X124842000Y-93980000D03*
%TD*%
%TO.C,D23*%
X109219000Y-91567000D03*
X105919000Y-91567000D03*
%TD*%
%TO.C,D22*%
X90422000Y-86741000D03*
X87122000Y-86741000D03*
%TD*%
%TO.C,D21*%
X71246000Y-91440000D03*
X67946000Y-91440000D03*
%TD*%
%TO.C,D20*%
X52196000Y-98679000D03*
X48896000Y-98679000D03*
%TD*%
%TO.C,D19*%
X33273000Y-98679000D03*
X29973000Y-98679000D03*
%TD*%
%TO.C,D18*%
X128142000Y-74676000D03*
X124842000Y-74676000D03*
%TD*%
%TO.C,D17*%
X109346000Y-72390000D03*
X106046000Y-72390000D03*
%TD*%
%TO.C,D16*%
X90169000Y-67691000D03*
X86869000Y-67691000D03*
%TD*%
%TO.C,D15*%
X71246000Y-72517000D03*
X67946000Y-72517000D03*
%TD*%
%TO.C,D14*%
X52323000Y-79629000D03*
X49023000Y-79629000D03*
%TD*%
%TO.C,D13*%
X33273000Y-79629000D03*
X29973000Y-79629000D03*
%TD*%
%TO.C,D12*%
X128269000Y-55880000D03*
X124969000Y-55880000D03*
%TD*%
%TO.C,D11*%
X109218000Y-53340000D03*
X105918000Y-53340000D03*
%TD*%
%TO.C,D10*%
X90169000Y-48768000D03*
X86869000Y-48768000D03*
%TD*%
%TO.C,D9*%
X71246000Y-53467000D03*
X67946000Y-53467000D03*
%TD*%
%TO.C,D8*%
X52195000Y-60579000D03*
X48895000Y-60579000D03*
%TD*%
%TO.C,D7*%
X33273000Y-60706000D03*
X29973000Y-60706000D03*
%TD*%
%TO.C,D6*%
X128141000Y-36830000D03*
X124841000Y-36830000D03*
%TD*%
%TO.C,D5*%
X109215000Y-34417000D03*
X105915000Y-34417000D03*
%TD*%
%TO.C,D4*%
X90296000Y-29638000D03*
X86996000Y-29638000D03*
%TD*%
%TO.C,D3*%
X71246000Y-34290000D03*
X67946000Y-34290000D03*
%TD*%
%TO.C,D2*%
X52195000Y-41783000D03*
X48895000Y-41783000D03*
%TD*%
%TO.C,D1*%
X33145000Y-41656000D03*
X29845000Y-41656000D03*
%TD*%
M02*
