%TF.GenerationSoftware,KiCad,Pcbnew,5.1.10*%
%TF.CreationDate,2021-09-05T22:53:56-04:00*%
%TF.ProjectId,ursaminor_pcb,74727970-7472-4697-935f-7063622e6b69,rev?*%
%TF.SameCoordinates,Original*%
%TF.FileFunction,Profile,NP*%
%FSLAX46Y46*%
G04 Gerber Fmt 4.6, Leading zero omitted, Abs format (unit mm)*
G04 Created by KiCad (PCBNEW 5.1.10) date 2021-09-05 22:53:56*
%MOMM*%
%LPD*%
G01*
G04 APERTURE LIST*
%TA.AperFunction,Profile*%
%ADD10C,0.050000*%
%TD*%
%TA.AperFunction,Profile*%
%ADD11C,0.200000*%
%TD*%
%TA.AperFunction,Profile*%
%ADD12C,0.150000*%
%TD*%
G04 APERTURE END LIST*
D10*
X159994600Y-104648000D02*
X159994600Y-104748300D01*
X191973200Y-104641900D02*
X191973200Y-104730000D01*
X159994600Y-48578800D02*
X159994600Y-48766400D01*
X191947800Y-48578800D02*
X191947800Y-48766400D01*
X191979424Y-52793084D02*
G75*
G02*
X193960600Y-52800000I990576J-6916D01*
G01*
X191979419Y-52793900D02*
X191973200Y-100628700D01*
X159994600Y-100634800D02*
X160050000Y-52800000D01*
X162560000Y-107313700D02*
X189407800Y-107295400D01*
X191973200Y-104730000D02*
G75*
G02*
X189407800Y-107295400I-2565400J0D01*
G01*
X162560000Y-107313700D02*
G75*
G02*
X159994600Y-104748300I0J2565400D01*
G01*
X162560000Y-46013400D02*
X189382400Y-46013400D01*
X189382400Y-46013400D02*
G75*
G02*
X191947800Y-48578800I0J-2565400D01*
G01*
X159994600Y-48578800D02*
G75*
G02*
X162560000Y-46013400I2565400J0D01*
G01*
X193954376Y-100635616D02*
G75*
G02*
X191973200Y-100628700I-990576J6916D01*
G01*
X191973200Y-104641900D02*
G75*
G02*
X193954400Y-104641900I990600J0D01*
G01*
X193950641Y-41429874D02*
X193929000Y-48766400D01*
X193929000Y-48766400D02*
G75*
G02*
X191947800Y-48766400I-990600J0D01*
G01*
X158013400Y-104648000D02*
G75*
G02*
X159994600Y-104648000I990600J0D01*
G01*
X159994600Y-100634800D02*
G75*
G02*
X158013400Y-100634800I-990600J0D01*
G01*
X158021411Y-41519866D02*
X158013400Y-48766400D01*
X159994600Y-48766400D02*
G75*
G02*
X158013400Y-48766400I-990600J0D01*
G01*
X158008596Y-52778797D02*
G75*
G02*
X160050000Y-52800000I1020804J-803D01*
G01*
X192632322Y-113884538D02*
X192585075Y-113998306D01*
X192585075Y-113998306D02*
X192536569Y-114111555D01*
X192536569Y-114111555D02*
X192486835Y-114224291D01*
X192486835Y-114224291D02*
X192435899Y-114336519D01*
X192435899Y-114336519D02*
X192383792Y-114448246D01*
X192383792Y-114448246D02*
X192330542Y-114559477D01*
X192330542Y-114559477D02*
X192276177Y-114670219D01*
X192276177Y-114670219D02*
X192220728Y-114780476D01*
X192220728Y-114780476D02*
X192164222Y-114890256D01*
X192164222Y-114890256D02*
X192106688Y-114999564D01*
X192106688Y-114999564D02*
X192048156Y-115108406D01*
X192048156Y-115108406D02*
X191988654Y-115216788D01*
X191988654Y-115216788D02*
X191928212Y-115324716D01*
X191928212Y-115324716D02*
X191866857Y-115432196D01*
X191866857Y-115432196D02*
X191804619Y-115539234D01*
X191804619Y-115539234D02*
X191741526Y-115645835D01*
X191741526Y-115645835D02*
X191677609Y-115752006D01*
X191677609Y-115752006D02*
X191612894Y-115857752D01*
X191612894Y-115857752D02*
X191547412Y-115963080D01*
X191547412Y-115963080D02*
X191481191Y-116067996D01*
X191481191Y-116067996D02*
X191414260Y-116172504D01*
X191414260Y-116172504D02*
X191346647Y-116276612D01*
X191346647Y-116276612D02*
X191278383Y-116380325D01*
X191278383Y-116380325D02*
X191209495Y-116483650D01*
X191209495Y-116483650D02*
X191140012Y-116586591D01*
X191140012Y-116586591D02*
X191069964Y-116689155D01*
X191069964Y-116689155D02*
X190999379Y-116791348D01*
X190999379Y-116791348D02*
X190928286Y-116893176D01*
X190928286Y-116893176D02*
X190856713Y-116994645D01*
X190856713Y-116994645D02*
X190784691Y-117095761D01*
X190784691Y-117095761D02*
X190712247Y-117196529D01*
X190712247Y-117196529D02*
X190639411Y-117296956D01*
X193954400Y-104641900D02*
X193953032Y-104734347D01*
X193953032Y-104734347D02*
X193951728Y-104828234D01*
X193951728Y-104828234D02*
X193950463Y-104923463D01*
X193950463Y-104923463D02*
X193949214Y-105019937D01*
X193949214Y-105019937D02*
X193947956Y-105117559D01*
X193947956Y-105117559D02*
X193946665Y-105216232D01*
X193946665Y-105216232D02*
X193945316Y-105315857D01*
X193945316Y-105315857D02*
X193944612Y-105365998D01*
X193944612Y-105365998D02*
X193943885Y-105416340D01*
X193943885Y-105416340D02*
X193943132Y-105466872D01*
X193943132Y-105466872D02*
X193942349Y-105517581D01*
X193942349Y-105517581D02*
X193941533Y-105568456D01*
X193941533Y-105568456D02*
X193940681Y-105619485D01*
X193940681Y-105619485D02*
X193939791Y-105670655D01*
X193939791Y-105670655D02*
X193938860Y-105721953D01*
X193938860Y-105721953D02*
X193937883Y-105773369D01*
X193937883Y-105773369D02*
X193936859Y-105824890D01*
X193936859Y-105824890D02*
X193935784Y-105876503D01*
X193935784Y-105876503D02*
X193934656Y-105928196D01*
X193934656Y-105928196D02*
X193933470Y-105979959D01*
X193933470Y-105979959D02*
X193932225Y-106031777D01*
X193932225Y-106031777D02*
X193930916Y-106083639D01*
X193930916Y-106083639D02*
X193929542Y-106135534D01*
X193929542Y-106135534D02*
X193928099Y-106187448D01*
X193928099Y-106187448D02*
X193926584Y-106239370D01*
X325295202Y-40664354D02*
X325278566Y-40599427D01*
X325278566Y-40599427D02*
X325259989Y-40534939D01*
X325259989Y-40534939D02*
X325239517Y-40470943D01*
X325239517Y-40470943D02*
X325217195Y-40407492D01*
X325217195Y-40407492D02*
X325193068Y-40344637D01*
X325193068Y-40344637D02*
X325167182Y-40282432D01*
X325167182Y-40282432D02*
X325139581Y-40220928D01*
X325139581Y-40220928D02*
X325110312Y-40160179D01*
X325110312Y-40160179D02*
X325079418Y-40100237D01*
X325079418Y-40100237D02*
X325046947Y-40041154D01*
X325046947Y-40041154D02*
X325024445Y-40002270D01*
X325024445Y-40002270D02*
X324989264Y-39944440D01*
X324989264Y-39944440D02*
X324952617Y-39887574D01*
X324952617Y-39887574D02*
X324914559Y-39831677D01*
X324914559Y-39831677D02*
X324875140Y-39776755D01*
X324875140Y-39776755D02*
X324834415Y-39722815D01*
X324834415Y-39722815D02*
X324792437Y-39669863D01*
X324792437Y-39669863D02*
X324749257Y-39617906D01*
X324749257Y-39617906D02*
X324704929Y-39566949D01*
X324704929Y-39566949D02*
X324659505Y-39516999D01*
X324659505Y-39516999D02*
X324613040Y-39468062D01*
X324613040Y-39468062D02*
X324581510Y-39436004D01*
X324581510Y-39436004D02*
X324536978Y-39392186D01*
X324536978Y-39392186D02*
X324491672Y-39349200D01*
X324491672Y-39349200D02*
X324445639Y-39307000D01*
X324445639Y-39307000D02*
X324398924Y-39265538D01*
X324398924Y-39265538D02*
X324351573Y-39224768D01*
X324351573Y-39224768D02*
X324303633Y-39184643D01*
X324303633Y-39184643D02*
X324255148Y-39145115D01*
X324255148Y-39145115D02*
X324206165Y-39106139D01*
X324206165Y-39106139D02*
X324155420Y-39066704D01*
X324155420Y-39066704D02*
X324104146Y-39027943D01*
X324104146Y-39027943D02*
X324052289Y-38990000D01*
X324052289Y-38990000D02*
X323999796Y-38953019D01*
X323999796Y-38953019D02*
X323946612Y-38917142D01*
X323946612Y-38917142D02*
X323892685Y-38882514D01*
X323892685Y-38882514D02*
X323837962Y-38849278D01*
X323837962Y-38849278D02*
X323782388Y-38817578D01*
X196700641Y-38679874D02*
X196651835Y-38691298D01*
X196651835Y-38691298D02*
X196603036Y-38702740D01*
X196603036Y-38702740D02*
X196554256Y-38714241D01*
X196554256Y-38714241D02*
X196505509Y-38725843D01*
X196505509Y-38725843D02*
X196456807Y-38737587D01*
X196456807Y-38737587D02*
X196408164Y-38749515D01*
X196408164Y-38749515D02*
X196359592Y-38761669D01*
X196359592Y-38761669D02*
X196311105Y-38774091D01*
X317761745Y-37079618D02*
X317412250Y-36996631D01*
X317412250Y-36996631D02*
X317063063Y-36912626D01*
X317063063Y-36912626D02*
X316714168Y-36827649D01*
X316714168Y-36827649D02*
X316365553Y-36741746D01*
X316365553Y-36741746D02*
X316017203Y-36654961D01*
X316017203Y-36654961D02*
X315669104Y-36567342D01*
X315669104Y-36567342D02*
X315321244Y-36478933D01*
X315321244Y-36478933D02*
X314973607Y-36389780D01*
X314973607Y-36389780D02*
X314626181Y-36299929D01*
X314626181Y-36299929D02*
X314278951Y-36209425D01*
X314278951Y-36209425D02*
X313931904Y-36118314D01*
X313931904Y-36118314D02*
X313585025Y-36026642D01*
X313585025Y-36026642D02*
X313238302Y-35934454D01*
X313238302Y-35934454D02*
X312891719Y-35841797D01*
X312891719Y-35841797D02*
X312545265Y-35748715D01*
X312545265Y-35748715D02*
X312198924Y-35655254D01*
X312198924Y-35655254D02*
X311852682Y-35561460D01*
X311852682Y-35561460D02*
X311506527Y-35467379D01*
X311506527Y-35467379D02*
X311160444Y-35373057D01*
X311160444Y-35373057D02*
X310814420Y-35278538D01*
X310814420Y-35278538D02*
X310468440Y-35183869D01*
X310468440Y-35183869D02*
X310122491Y-35089095D01*
X310122491Y-35089095D02*
X309776560Y-34994262D01*
X309776560Y-34994262D02*
X309430631Y-34899416D01*
X309430631Y-34899416D02*
X309084692Y-34804602D01*
X309084692Y-34804602D02*
X308738729Y-34709866D01*
X308738729Y-34709866D02*
X308392728Y-34615253D01*
X308392728Y-34615253D02*
X308046674Y-34520810D01*
X308046674Y-34520810D02*
X307700555Y-34426581D01*
X307700555Y-34426581D02*
X307354357Y-34332613D01*
X307354357Y-34332613D02*
X307008065Y-34238951D01*
X307008065Y-34238951D02*
X306661667Y-34145642D01*
X177794440Y-133282820D02*
X188948137Y-148402853D01*
X325386967Y-41380548D02*
X325381929Y-41312710D01*
X325381929Y-41312710D02*
X325376703Y-41244909D01*
X325376703Y-41244909D02*
X325371096Y-41177183D01*
X325371096Y-41177183D02*
X325364921Y-41109567D01*
X325364921Y-41109567D02*
X325357987Y-41042099D01*
X325357987Y-41042099D02*
X325350104Y-40974816D01*
X325350104Y-40974816D02*
X325341083Y-40907754D01*
X325341083Y-40907754D02*
X325330734Y-40840951D01*
X325330734Y-40840951D02*
X325318867Y-40774443D01*
X325318867Y-40774443D02*
X325305293Y-40708268D01*
X325305293Y-40708268D02*
X325295202Y-40664354D01*
X194044857Y-40716185D02*
X194029543Y-40781579D01*
X194029543Y-40781579D02*
X194016142Y-40847420D01*
X194016142Y-40847420D02*
X194004455Y-40913662D01*
X194004455Y-40913662D02*
X193994285Y-40980258D01*
X193994285Y-40980258D02*
X193985434Y-41047162D01*
X193985434Y-41047162D02*
X193977704Y-41114328D01*
X193977704Y-41114328D02*
X193970897Y-41181709D01*
X193970897Y-41181709D02*
X193964816Y-41249260D01*
X193964816Y-41249260D02*
X193959262Y-41316935D01*
X193959262Y-41316935D02*
X193954038Y-41384686D01*
X193954038Y-41384686D02*
X193950641Y-41429874D01*
X324496595Y-115646550D02*
X324543744Y-115598188D01*
X324543744Y-115598188D02*
X324589665Y-115548646D01*
X324589665Y-115548646D02*
X324634348Y-115497960D01*
X324634348Y-115497960D02*
X324677782Y-115446167D01*
X324677782Y-115446167D02*
X324719957Y-115393303D01*
X324719957Y-115393303D02*
X324760860Y-115339404D01*
X324760860Y-115339404D02*
X324800483Y-115284508D01*
X324800483Y-115284508D02*
X324838813Y-115228651D01*
X324838813Y-115228651D02*
X324875840Y-115171869D01*
X324875840Y-115171869D02*
X324911554Y-115114198D01*
X324911554Y-115114198D02*
X324934629Y-115075276D01*
X194318063Y-40056606D02*
X194285279Y-40115761D01*
X194285279Y-40115761D02*
X194253727Y-40175501D01*
X194253727Y-40175501D02*
X194223494Y-40235814D01*
X194223494Y-40235814D02*
X194194666Y-40296691D01*
X194194666Y-40296691D02*
X194167331Y-40358122D01*
X194167331Y-40358122D02*
X194141577Y-40420095D01*
X194141577Y-40420095D02*
X194117491Y-40482602D01*
X194117491Y-40482602D02*
X194095160Y-40545631D01*
X194095160Y-40545631D02*
X194074672Y-40609172D01*
X194074672Y-40609172D02*
X194056114Y-40673215D01*
X194056114Y-40673215D02*
X194044857Y-40716185D01*
X190639411Y-117296956D02*
X190558700Y-117407264D01*
X190558700Y-117407264D02*
X190477556Y-117517173D01*
X190477556Y-117517173D02*
X190395987Y-117626690D01*
X190395987Y-117626690D02*
X190314000Y-117735824D01*
X190314000Y-117735824D02*
X190231604Y-117844584D01*
X190231604Y-117844584D02*
X190148808Y-117952976D01*
X190148808Y-117952976D02*
X190065619Y-118061010D01*
X190065619Y-118061010D02*
X189982045Y-118168693D01*
X189982045Y-118168693D02*
X189898095Y-118276034D01*
X189898095Y-118276034D02*
X189813777Y-118383041D01*
X189813777Y-118383041D02*
X189729099Y-118489721D01*
X189729099Y-118489721D02*
X189644070Y-118596084D01*
X189644070Y-118596084D02*
X189558697Y-118702137D01*
X189558697Y-118702137D02*
X189472988Y-118807889D01*
X189472988Y-118807889D02*
X189386953Y-118913347D01*
X189386953Y-118913347D02*
X189300599Y-119018520D01*
X189300599Y-119018520D02*
X189213935Y-119123416D01*
X189213935Y-119123416D02*
X189126967Y-119228043D01*
X189126967Y-119228043D02*
X189039706Y-119332409D01*
X189039706Y-119332409D02*
X188952159Y-119436523D01*
X188952159Y-119436523D02*
X188864334Y-119540392D01*
X188864334Y-119540392D02*
X188776239Y-119644025D01*
X188776239Y-119644025D02*
X188687883Y-119747430D01*
X188687883Y-119747430D02*
X188599273Y-119850615D01*
X188599273Y-119850615D02*
X188510419Y-119953588D01*
X188510419Y-119953588D02*
X188421327Y-120056357D01*
X188421327Y-120056357D02*
X188332007Y-120158932D01*
X188332007Y-120158932D02*
X188242467Y-120261319D01*
X188242467Y-120261319D02*
X188152714Y-120363526D01*
X188152714Y-120363526D02*
X188062758Y-120465563D01*
X188062758Y-120465563D02*
X187972605Y-120567437D01*
X187972605Y-120567437D02*
X187882266Y-120669157D01*
X290008038Y-118268509D02*
X290188571Y-118243626D01*
X290188571Y-118243626D02*
X290369121Y-118218863D01*
X290369121Y-118218863D02*
X290549688Y-118194221D01*
X290549688Y-118194221D02*
X290730272Y-118169699D01*
X290730272Y-118169699D02*
X290910872Y-118145299D01*
X290910872Y-118145299D02*
X291091488Y-118121020D01*
X291091488Y-118121020D02*
X291272122Y-118096865D01*
X291272122Y-118096865D02*
X291452771Y-118072834D01*
X291452771Y-118072834D02*
X291633438Y-118048926D01*
X291633438Y-118048926D02*
X291814121Y-118025144D01*
X291814121Y-118025144D02*
X291994820Y-118001488D01*
X291994820Y-118001488D02*
X292175536Y-117977957D01*
X292175536Y-117977957D02*
X292356269Y-117954554D01*
X292356269Y-117954554D02*
X292537017Y-117931278D01*
X292537017Y-117931278D02*
X292717783Y-117908131D01*
X292717783Y-117908131D02*
X292898565Y-117885113D01*
X292898565Y-117885113D02*
X293079363Y-117862225D01*
X293079363Y-117862225D02*
X293260177Y-117839467D01*
X293260177Y-117839467D02*
X293441008Y-117816841D01*
X293441008Y-117816841D02*
X293621856Y-117794346D01*
X293621856Y-117794346D02*
X293802720Y-117771984D01*
X293802720Y-117771984D02*
X293983600Y-117749755D01*
X293983600Y-117749755D02*
X294164496Y-117727660D01*
X294164496Y-117727660D02*
X294345409Y-117705700D01*
X294345409Y-117705700D02*
X294526338Y-117683875D01*
X294526338Y-117683875D02*
X294707283Y-117662186D01*
X294707283Y-117662186D02*
X294888245Y-117640633D01*
X294888245Y-117640633D02*
X295069222Y-117619218D01*
X295069222Y-117619218D02*
X295250216Y-117597941D01*
X295250216Y-117597941D02*
X295431227Y-117576803D01*
X295431227Y-117576803D02*
X295612253Y-117555804D01*
X295612253Y-117555804D02*
X295793296Y-117534946D01*
X295793296Y-117534946D02*
X295969343Y-117514799D01*
X295969343Y-117514799D02*
X296145406Y-117494784D01*
X296145406Y-117494784D02*
X296321483Y-117474901D01*
X296321483Y-117474901D02*
X296497576Y-117455148D01*
X296497576Y-117455148D02*
X296673682Y-117435525D01*
X296673682Y-117435525D02*
X296849803Y-117416030D01*
X296849803Y-117416030D02*
X297025939Y-117396662D01*
X297025939Y-117396662D02*
X297202088Y-117377421D01*
X297202088Y-117377421D02*
X297378251Y-117358306D01*
X297378251Y-117358306D02*
X297554427Y-117339315D01*
X297554427Y-117339315D02*
X297730617Y-117320448D01*
X297730617Y-117320448D02*
X297906820Y-117301704D01*
X297906820Y-117301704D02*
X298083036Y-117283082D01*
X298083036Y-117283082D02*
X298259265Y-117264580D01*
X298259265Y-117264580D02*
X298435506Y-117246199D01*
X298435506Y-117246199D02*
X298611760Y-117227937D01*
X298611760Y-117227937D02*
X298788026Y-117209793D01*
X298788026Y-117209793D02*
X298964304Y-117191766D01*
X298964304Y-117191766D02*
X299140594Y-117173855D01*
X299140594Y-117173855D02*
X299316896Y-117156060D01*
X299316896Y-117156060D02*
X299493209Y-117138379D01*
X299493209Y-117138379D02*
X299669533Y-117120811D01*
X299669533Y-117120811D02*
X299845868Y-117103356D01*
X299845868Y-117103356D02*
X300022214Y-117086013D01*
X300022214Y-117086013D02*
X300198571Y-117068780D01*
X300198571Y-117068780D02*
X300374939Y-117051657D01*
X300374939Y-117051657D02*
X300551317Y-117034643D01*
X300551317Y-117034643D02*
X300727704Y-117017736D01*
X300727704Y-117017736D02*
X300904102Y-117000936D01*
X300904102Y-117000936D02*
X301080510Y-116984243D01*
X301080510Y-116984243D02*
X301256927Y-116967654D01*
X301256927Y-116967654D02*
X301433354Y-116951170D01*
X181931669Y-126620457D02*
X181856222Y-126686286D01*
X181856222Y-126686286D02*
X181780651Y-126751973D01*
X181780651Y-126751973D02*
X181704956Y-126817519D01*
X181704956Y-126817519D02*
X181629137Y-126882923D01*
X181629137Y-126882923D02*
X181553196Y-126948186D01*
X181553196Y-126948186D02*
X181477132Y-127013307D01*
X181477132Y-127013307D02*
X181400947Y-127078286D01*
X181400947Y-127078286D02*
X181324640Y-127143123D01*
X181324640Y-127143123D02*
X181248212Y-127207819D01*
X181248212Y-127207819D02*
X181171664Y-127272372D01*
X181171664Y-127272372D02*
X181094995Y-127336784D01*
X181094995Y-127336784D02*
X181018208Y-127401053D01*
X181018208Y-127401053D02*
X180941301Y-127465180D01*
X180941301Y-127465180D02*
X180864276Y-127529165D01*
X180864276Y-127529165D02*
X180787133Y-127593008D01*
X180787133Y-127593008D02*
X180709873Y-127656709D01*
X180709873Y-127656709D02*
X180632495Y-127720267D01*
X180632495Y-127720267D02*
X180555002Y-127783683D01*
X180555002Y-127783683D02*
X180477392Y-127846957D01*
X180477392Y-127846957D02*
X180399667Y-127910088D01*
X180399667Y-127910088D02*
X180321827Y-127973076D01*
X180321827Y-127973076D02*
X180243873Y-128035922D01*
X180243873Y-128035922D02*
X180165804Y-128098625D01*
X180165804Y-128098625D02*
X180087623Y-128161186D01*
X180087623Y-128161186D02*
X180009328Y-128223604D01*
X180009328Y-128223604D02*
X179930921Y-128285879D01*
X179930921Y-128285879D02*
X179852402Y-128348011D01*
X179852402Y-128348011D02*
X179773771Y-128410000D01*
X179773771Y-128410000D02*
X179695030Y-128471846D01*
X179695030Y-128471846D02*
X179616178Y-128533549D01*
X179616178Y-128533549D02*
X179537216Y-128595110D01*
X179537216Y-128595110D02*
X179458145Y-128656527D01*
X209894935Y-35134928D02*
X209482343Y-35244413D01*
X209482343Y-35244413D02*
X209070005Y-35354870D01*
X209070005Y-35354870D02*
X208657896Y-35466212D01*
X208657896Y-35466212D02*
X208245992Y-35578349D01*
X208245992Y-35578349D02*
X207834271Y-35691191D01*
X207834271Y-35691191D02*
X207422709Y-35804651D01*
X207422709Y-35804651D02*
X207011282Y-35918639D01*
X207011282Y-35918639D02*
X206599967Y-36033066D01*
X206599967Y-36033066D02*
X206188739Y-36147843D01*
X206188739Y-36147843D02*
X205777576Y-36262882D01*
X205777576Y-36262882D02*
X205366455Y-36378093D01*
X205366455Y-36378093D02*
X204955350Y-36493388D01*
X204955350Y-36493388D02*
X204544239Y-36608677D01*
X204544239Y-36608677D02*
X204133099Y-36723872D01*
X204133099Y-36723872D02*
X203721905Y-36838884D01*
X203721905Y-36838884D02*
X203310635Y-36953623D01*
X203310635Y-36953623D02*
X202899264Y-37068002D01*
X202899264Y-37068002D02*
X202487769Y-37181930D01*
X202487769Y-37181930D02*
X202076127Y-37295320D01*
X202076127Y-37295320D02*
X201664314Y-37408081D01*
X201664314Y-37408081D02*
X201252306Y-37520126D01*
X201252306Y-37520126D02*
X200840080Y-37631365D01*
X200840080Y-37631365D02*
X200427613Y-37741709D01*
X200427613Y-37741709D02*
X200014880Y-37851069D01*
X200014880Y-37851069D02*
X199601858Y-37959358D01*
X199601858Y-37959358D02*
X199188524Y-38066484D01*
X199188524Y-38066484D02*
X198774854Y-38172360D01*
X198774854Y-38172360D02*
X198360824Y-38276897D01*
X198360824Y-38276897D02*
X197946412Y-38380006D01*
X197946412Y-38380006D02*
X197531593Y-38481598D01*
X197531593Y-38481598D02*
X197116343Y-38581583D01*
X197116343Y-38581583D02*
X196700641Y-38679874D01*
X301433354Y-116951170D02*
X301595007Y-116936156D01*
X301595007Y-116936156D02*
X301756668Y-116921227D01*
X301756668Y-116921227D02*
X301918337Y-116906378D01*
X301918337Y-116906378D02*
X302080012Y-116891609D01*
X302080012Y-116891609D02*
X302241694Y-116876915D01*
X302241694Y-116876915D02*
X302403383Y-116862294D01*
X302403383Y-116862294D02*
X302565078Y-116847743D01*
X302565078Y-116847743D02*
X302726779Y-116833260D01*
X302726779Y-116833260D02*
X302888486Y-116818842D01*
X302888486Y-116818842D02*
X303050198Y-116804486D01*
X303050198Y-116804486D02*
X303211915Y-116790190D01*
X303211915Y-116790190D02*
X303373638Y-116775950D01*
X303373638Y-116775950D02*
X303535365Y-116761765D01*
X303535365Y-116761765D02*
X303697097Y-116747631D01*
X303697097Y-116747631D02*
X303858833Y-116733546D01*
X303858833Y-116733546D02*
X304020574Y-116719507D01*
X304020574Y-116719507D02*
X304182318Y-116705511D01*
X304182318Y-116705511D02*
X304344066Y-116691555D01*
X304344066Y-116691555D02*
X304505817Y-116677638D01*
X304505817Y-116677638D02*
X304667571Y-116663756D01*
X304667571Y-116663756D02*
X304829328Y-116649906D01*
X304829328Y-116649906D02*
X304991088Y-116636086D01*
X304991088Y-116636086D02*
X305152851Y-116622293D01*
X305152851Y-116622293D02*
X305314615Y-116608524D01*
X305314615Y-116608524D02*
X305476381Y-116594777D01*
X305476381Y-116594777D02*
X305638149Y-116581049D01*
X305638149Y-116581049D02*
X305799919Y-116567337D01*
X305799919Y-116567337D02*
X305961690Y-116553639D01*
X305961690Y-116553639D02*
X306123461Y-116539951D01*
X306123461Y-116539951D02*
X306285234Y-116526272D01*
X306285234Y-116526272D02*
X306447006Y-116512598D01*
X306447006Y-116512598D02*
X306608780Y-116498927D01*
X306608780Y-116498927D02*
X322552053Y-116452008D01*
X193609567Y-109970880D02*
X193591381Y-110096222D01*
X193591381Y-110096222D02*
X193572657Y-110221536D01*
X193572657Y-110221536D02*
X193553370Y-110346804D01*
X193553370Y-110346804D02*
X193533493Y-110472010D01*
X193533493Y-110472010D02*
X193513001Y-110597136D01*
X193513001Y-110597136D02*
X193491867Y-110722167D01*
X193491867Y-110722167D02*
X193470065Y-110847085D01*
X193470065Y-110847085D02*
X193447571Y-110971874D01*
X193447571Y-110971874D02*
X193424357Y-111096516D01*
X193424357Y-111096516D02*
X193400398Y-111220996D01*
X193400398Y-111220996D02*
X193375668Y-111345297D01*
X193375668Y-111345297D02*
X193350141Y-111469401D01*
X193350141Y-111469401D02*
X193323792Y-111593292D01*
X193323792Y-111593292D02*
X193296593Y-111716954D01*
X193296593Y-111716954D02*
X193268520Y-111840369D01*
X193268520Y-111840369D02*
X193239546Y-111963521D01*
X193239546Y-111963521D02*
X193209645Y-112086394D01*
X193209645Y-112086394D02*
X193178792Y-112208970D01*
X193178792Y-112208970D02*
X193146960Y-112331233D01*
X193146960Y-112331233D02*
X193114125Y-112453165D01*
X193114125Y-112453165D02*
X193080259Y-112574752D01*
X193080259Y-112574752D02*
X193045336Y-112695974D01*
X193045336Y-112695974D02*
X193009332Y-112816817D01*
X193009332Y-112816817D02*
X192972220Y-112937263D01*
X192972220Y-112937263D02*
X192933973Y-113057295D01*
X192933973Y-113057295D02*
X192894567Y-113176897D01*
X192894567Y-113176897D02*
X192853975Y-113296052D01*
X192853975Y-113296052D02*
X192812171Y-113414743D01*
X192812171Y-113414743D02*
X192769130Y-113532954D01*
X192769130Y-113532954D02*
X192724825Y-113650668D01*
X192724825Y-113650668D02*
X192679231Y-113767868D01*
X192679231Y-113767868D02*
X192632322Y-113884538D01*
X322552053Y-116452008D02*
X322619732Y-116446819D01*
X322619732Y-116446819D02*
X322687370Y-116441437D01*
X322687370Y-116441437D02*
X322754926Y-116435667D01*
X322754926Y-116435667D02*
X322822359Y-116429315D01*
X322822359Y-116429315D02*
X322889628Y-116422188D01*
X322889628Y-116422188D02*
X322956692Y-116414091D01*
X322956692Y-116414091D02*
X323023509Y-116404831D01*
X323023509Y-116404831D02*
X323090040Y-116394214D01*
X323090040Y-116394214D02*
X323156243Y-116382045D01*
X323156243Y-116382045D02*
X323222077Y-116368131D01*
X323222077Y-116368131D02*
X323265741Y-116357791D01*
X323265741Y-116357791D02*
X323330331Y-116340732D01*
X323330331Y-116340732D02*
X323394456Y-116321708D01*
X323394456Y-116321708D02*
X323458079Y-116300785D01*
X323458079Y-116300785D02*
X323521164Y-116278032D01*
X323521164Y-116278032D02*
X323583674Y-116253516D01*
X323583674Y-116253516D02*
X323645574Y-116227306D01*
X323645574Y-116227306D02*
X323706829Y-116199469D01*
X323706829Y-116199469D02*
X323767401Y-116170074D01*
X323767401Y-116170074D02*
X323827255Y-116139188D01*
X323827255Y-116139188D02*
X323886356Y-116106880D01*
X323886356Y-116106880D02*
X323925320Y-116084584D01*
X325302052Y-113702008D02*
X325386967Y-41380548D01*
X179458145Y-128656527D02*
X179393889Y-128706270D01*
X179393889Y-128706270D02*
X179329566Y-128755924D01*
X179329566Y-128755924D02*
X179265181Y-128805497D01*
X179265181Y-128805497D02*
X179200737Y-128854992D01*
X179200737Y-128854992D02*
X179136239Y-128904417D01*
X179136239Y-128904417D02*
X179071692Y-128953777D01*
X179071692Y-128953777D02*
X179007100Y-129003078D01*
X179007100Y-129003078D02*
X178942468Y-129052327D01*
X178942468Y-129052327D02*
X178877800Y-129101527D01*
X178877800Y-129101527D02*
X178813100Y-129150687D01*
X178813100Y-129150687D02*
X178748374Y-129199811D01*
X178748374Y-129199811D02*
X178683625Y-129248906D01*
X178683625Y-129248906D02*
X178618858Y-129297977D01*
X178618858Y-129297977D02*
X178554078Y-129347031D01*
X178554078Y-129347031D02*
X178489288Y-129396073D01*
X178489288Y-129396073D02*
X178424495Y-129445109D01*
D11*
X325302052Y-113702008D02*
X325302052Y-113702008D01*
D10*
X323925320Y-116084584D02*
X323983562Y-116049751D01*
X323983562Y-116049751D02*
X324040941Y-116013598D01*
X324040941Y-116013598D02*
X324097419Y-115976136D01*
X324097419Y-115976136D02*
X324152960Y-115937373D01*
X324152960Y-115937373D02*
X324207528Y-115897323D01*
X324207528Y-115897323D02*
X324261086Y-115855994D01*
X324261086Y-115855994D02*
X324313597Y-115813399D01*
X324313597Y-115813399D02*
X324365025Y-115769547D01*
X324365025Y-115769547D02*
X324415334Y-115724450D01*
X324415334Y-115724450D02*
X324464486Y-115678118D01*
X324464486Y-115678118D02*
X324496595Y-115646550D01*
X276982606Y-120329880D02*
X277388652Y-120259297D01*
X277388652Y-120259297D02*
X277794753Y-120189012D01*
X277794753Y-120189012D02*
X278200909Y-120119034D01*
X278200909Y-120119034D02*
X278607122Y-120049375D01*
X278607122Y-120049375D02*
X279013392Y-119980044D01*
X279013392Y-119980044D02*
X279419721Y-119911050D01*
X279419721Y-119911050D02*
X279826109Y-119842404D01*
X279826109Y-119842404D02*
X280232558Y-119774117D01*
X280232558Y-119774117D02*
X280639068Y-119706196D01*
X280639068Y-119706196D02*
X281045640Y-119638654D01*
X281045640Y-119638654D02*
X281452276Y-119571499D01*
X281452276Y-119571499D02*
X281858976Y-119504743D01*
X281858976Y-119504743D02*
X282265742Y-119438394D01*
X282265742Y-119438394D02*
X282672574Y-119372462D01*
X282672574Y-119372462D02*
X283079473Y-119306958D01*
X283079473Y-119306958D02*
X283486441Y-119241893D01*
X283486441Y-119241893D02*
X283893478Y-119177274D01*
X283893478Y-119177274D02*
X284300585Y-119113113D01*
X284300585Y-119113113D02*
X284707764Y-119049420D01*
X284707764Y-119049420D02*
X285115015Y-118986205D01*
X285115015Y-118986205D02*
X285522340Y-118923477D01*
X285522340Y-118923477D02*
X285929739Y-118861247D01*
X285929739Y-118861247D02*
X286337213Y-118799524D01*
X286337213Y-118799524D02*
X286744764Y-118738319D01*
X286744764Y-118738319D02*
X287152392Y-118677642D01*
X287152392Y-118677642D02*
X287560098Y-118617502D01*
X287560098Y-118617502D02*
X287967884Y-118557909D01*
X287967884Y-118557909D02*
X288375750Y-118498874D01*
X288375750Y-118498874D02*
X288783697Y-118440406D01*
X288783697Y-118440406D02*
X289191727Y-118382516D01*
X289191727Y-118382516D02*
X289599840Y-118325214D01*
X289599840Y-118325214D02*
X290008038Y-118268509D01*
X324934629Y-115075276D02*
X324967848Y-115016697D01*
X324967848Y-115016697D02*
X324999690Y-114957342D01*
X324999690Y-114957342D02*
X325030087Y-114897244D01*
X325030087Y-114897244D02*
X325058970Y-114836440D01*
X325058970Y-114836440D02*
X325086272Y-114774967D01*
X325086272Y-114774967D02*
X325111925Y-114712859D01*
X325111925Y-114712859D02*
X325135860Y-114650153D01*
X325135860Y-114650153D02*
X325158011Y-114586885D01*
X325158011Y-114586885D02*
X325178308Y-114523091D01*
X325178308Y-114523091D02*
X325196685Y-114458807D01*
X325196685Y-114458807D02*
X325207836Y-114415697D01*
X195444440Y-146940219D02*
X195681476Y-146778847D01*
X195681476Y-146778847D02*
X195919415Y-146618724D01*
X195919415Y-146618724D02*
X196158233Y-146459828D01*
X196158233Y-146459828D02*
X196397911Y-146302135D01*
X196397911Y-146302135D02*
X196638427Y-146145621D01*
X196638427Y-146145621D02*
X196879759Y-145990264D01*
X196879759Y-145990264D02*
X197121887Y-145836041D01*
X197121887Y-145836041D02*
X197364789Y-145682928D01*
X197364789Y-145682928D02*
X197608445Y-145530902D01*
X197608445Y-145530902D02*
X197852832Y-145379940D01*
X197852832Y-145379940D02*
X198097930Y-145230019D01*
X198097930Y-145230019D02*
X198343717Y-145081115D01*
X198343717Y-145081115D02*
X198590173Y-144933206D01*
X198590173Y-144933206D02*
X198837275Y-144786268D01*
X198837275Y-144786268D02*
X199085004Y-144640279D01*
X199085004Y-144640279D02*
X199333337Y-144495214D01*
X199333337Y-144495214D02*
X199582253Y-144351051D01*
X199582253Y-144351051D02*
X199831732Y-144207767D01*
X199831732Y-144207767D02*
X200081751Y-144065338D01*
X200081751Y-144065338D02*
X200332291Y-143923741D01*
X200332291Y-143923741D02*
X200583329Y-143782953D01*
X200583329Y-143782953D02*
X200834844Y-143642952D01*
X200834844Y-143642952D02*
X201086815Y-143503713D01*
X201086815Y-143503713D02*
X201339221Y-143365213D01*
X201339221Y-143365213D02*
X201592041Y-143227430D01*
X201592041Y-143227430D02*
X201845254Y-143090340D01*
X201845254Y-143090340D02*
X202098837Y-142953921D01*
X202098837Y-142953921D02*
X202352771Y-142818148D01*
X202352771Y-142818148D02*
X202607034Y-142682999D01*
X202607034Y-142682999D02*
X202861604Y-142548450D01*
X202861604Y-142548450D02*
X203116461Y-142414479D01*
X203116461Y-142414479D02*
X203371583Y-142281063D01*
X224739978Y-31731440D02*
X224273955Y-31828780D01*
X224273955Y-31828780D02*
X223807971Y-31926351D01*
X223807971Y-31926351D02*
X223342034Y-32024188D01*
X223342034Y-32024188D02*
X222876154Y-32122326D01*
X222876154Y-32122326D02*
X222410342Y-32220800D01*
X222410342Y-32220800D02*
X221944608Y-32319644D01*
X221944608Y-32319644D02*
X221478960Y-32418895D01*
X221478960Y-32418895D02*
X221013409Y-32518588D01*
X221013409Y-32518588D02*
X220547965Y-32618757D01*
X220547965Y-32618757D02*
X220082638Y-32719437D01*
X220082638Y-32719437D02*
X219617438Y-32820664D01*
X219617438Y-32820664D02*
X219152373Y-32922473D01*
X219152373Y-32922473D02*
X218687456Y-33024899D01*
X218687456Y-33024899D02*
X218222694Y-33127977D01*
X218222694Y-33127977D02*
X217758098Y-33231743D01*
X217758098Y-33231743D02*
X217293678Y-33336230D01*
X217293678Y-33336230D02*
X216829444Y-33441475D01*
X216829444Y-33441475D02*
X216365406Y-33547513D01*
X216365406Y-33547513D02*
X215901573Y-33654378D01*
X215901573Y-33654378D02*
X215437956Y-33762106D01*
X215437956Y-33762106D02*
X214974563Y-33870732D01*
X214974563Y-33870732D02*
X214511406Y-33980291D01*
X214511406Y-33980291D02*
X214048494Y-34090819D01*
X214048494Y-34090819D02*
X213585836Y-34202349D01*
X213585836Y-34202349D02*
X213123444Y-34314918D01*
X213123444Y-34314918D02*
X212661325Y-34428561D01*
X212661325Y-34428561D02*
X212199492Y-34543312D01*
X212199492Y-34543312D02*
X211737952Y-34659207D01*
X211737952Y-34659207D02*
X211276717Y-34776281D01*
X211276717Y-34776281D02*
X210815796Y-34894569D01*
X210815796Y-34894569D02*
X210355198Y-35014106D01*
X210355198Y-35014106D02*
X209894935Y-35134928D01*
X249943916Y-27712582D02*
X249623178Y-27732588D01*
X249623178Y-27732588D02*
X249302503Y-27753566D01*
X249302503Y-27753566D02*
X248981889Y-27775482D01*
X248981889Y-27775482D02*
X248661334Y-27798306D01*
X248661334Y-27798306D02*
X248340835Y-27822007D01*
X248340835Y-27822007D02*
X248020392Y-27846553D01*
X248020392Y-27846553D02*
X247700001Y-27871913D01*
X247700001Y-27871913D02*
X247379661Y-27898055D01*
X247379661Y-27898055D02*
X247059369Y-27924949D01*
X247059369Y-27924949D02*
X246739125Y-27952563D01*
X246739125Y-27952563D02*
X246418924Y-27980865D01*
X246418924Y-27980865D02*
X246098767Y-28009825D01*
X246098767Y-28009825D02*
X245778650Y-28039411D01*
X245778650Y-28039411D02*
X245458572Y-28069592D01*
X245458572Y-28069592D02*
X245138530Y-28100336D01*
X245138530Y-28100336D02*
X244818523Y-28131612D01*
X244818523Y-28131612D02*
X244498548Y-28163389D01*
X244498548Y-28163389D02*
X244178603Y-28195636D01*
X244178603Y-28195636D02*
X243858687Y-28228321D01*
X243858687Y-28228321D02*
X243538798Y-28261413D01*
X243538798Y-28261413D02*
X243218932Y-28294880D01*
X243218932Y-28294880D02*
X242899089Y-28328692D01*
X242899089Y-28328692D02*
X242579267Y-28362817D01*
X242579267Y-28362817D02*
X242259462Y-28397224D01*
X242259462Y-28397224D02*
X241939674Y-28431881D01*
X241939674Y-28431881D02*
X241619900Y-28466757D01*
X241619900Y-28466757D02*
X241300138Y-28501821D01*
X241300138Y-28501821D02*
X240980386Y-28537042D01*
X240980386Y-28537042D02*
X240660643Y-28572388D01*
X240660643Y-28572388D02*
X240340905Y-28607828D01*
X240340905Y-28607828D02*
X240021172Y-28643330D01*
X240021172Y-28643330D02*
X239701441Y-28678864D01*
X203371583Y-142281063D02*
X203778197Y-142069788D01*
X203778197Y-142069788D02*
X204185427Y-141859856D01*
X204185427Y-141859856D02*
X204593266Y-141651260D01*
X204593266Y-141651260D02*
X205001713Y-141443997D01*
X205001713Y-141443997D02*
X205410763Y-141238063D01*
X205410763Y-141238063D02*
X205820411Y-141033454D01*
X205820411Y-141033454D02*
X206230655Y-140830164D01*
X206230655Y-140830164D02*
X206641490Y-140628190D01*
X206641490Y-140628190D02*
X207052913Y-140427528D01*
X207052913Y-140427528D02*
X207464919Y-140228174D01*
X207464919Y-140228174D02*
X207877506Y-140030123D01*
X207877506Y-140030123D02*
X208290668Y-139833370D01*
X208290668Y-139833370D02*
X208704403Y-139637912D01*
X208704403Y-139637912D02*
X209118706Y-139443745D01*
X209118706Y-139443745D02*
X209533573Y-139250864D01*
X209533573Y-139250864D02*
X209949001Y-139059265D01*
X209949001Y-139059265D02*
X210364986Y-138868944D01*
X210364986Y-138868944D02*
X210781524Y-138679896D01*
X210781524Y-138679896D02*
X211198611Y-138492118D01*
X211198611Y-138492118D02*
X211616244Y-138305604D01*
X211616244Y-138305604D02*
X212034418Y-138120351D01*
X212034418Y-138120351D02*
X212453129Y-137936355D01*
X212453129Y-137936355D02*
X212872374Y-137753611D01*
X212872374Y-137753611D02*
X213292150Y-137572116D01*
X213292150Y-137572116D02*
X213712451Y-137391864D01*
X213712451Y-137391864D02*
X214133275Y-137212851D01*
X214133275Y-137212851D02*
X214554617Y-137035074D01*
X214554617Y-137035074D02*
X214976474Y-136858528D01*
X214976474Y-136858528D02*
X215398841Y-136683209D01*
X215398841Y-136683209D02*
X215821715Y-136509113D01*
X215821715Y-136509113D02*
X216245093Y-136336234D01*
X216245093Y-136336234D02*
X216668970Y-136164571D01*
X260198863Y-27479550D02*
X259878137Y-27478571D01*
X259878137Y-27478571D02*
X259557405Y-27477905D01*
X259557405Y-27477905D02*
X259236670Y-27477573D01*
X259236670Y-27477573D02*
X258915933Y-27477599D01*
X258915933Y-27477599D02*
X258595196Y-27478002D01*
X258595196Y-27478002D02*
X258274463Y-27478807D01*
X258274463Y-27478807D02*
X257953735Y-27480034D01*
X257953735Y-27480034D02*
X257633014Y-27481706D01*
X257633014Y-27481706D02*
X257312303Y-27483845D01*
X257312303Y-27483845D02*
X256991605Y-27486473D01*
X256991605Y-27486473D02*
X256670921Y-27489612D01*
X256670921Y-27489612D02*
X256350253Y-27493283D01*
X256350253Y-27493283D02*
X256029605Y-27497510D01*
X256029605Y-27497510D02*
X255708977Y-27502314D01*
X255708977Y-27502314D02*
X255388373Y-27507717D01*
X255388373Y-27507717D02*
X255067795Y-27513741D01*
X255067795Y-27513741D02*
X254747245Y-27520408D01*
X254747245Y-27520408D02*
X254426726Y-27527740D01*
X254426726Y-27527740D02*
X254106239Y-27535760D01*
X254106239Y-27535760D02*
X253785787Y-27544488D01*
X253785787Y-27544488D02*
X253465372Y-27553949D01*
X253465372Y-27553949D02*
X253144997Y-27564162D01*
X253144997Y-27564162D02*
X252824663Y-27575151D01*
X252824663Y-27575151D02*
X252504373Y-27586937D01*
X252504373Y-27586937D02*
X252184130Y-27599543D01*
X252184130Y-27599543D02*
X251863935Y-27612991D01*
X251863935Y-27612991D02*
X251543792Y-27627302D01*
X251543792Y-27627302D02*
X251223701Y-27642498D01*
X251223701Y-27642498D02*
X250903666Y-27658602D01*
X250903666Y-27658602D02*
X250583688Y-27675636D01*
X250583688Y-27675636D02*
X250263771Y-27693622D01*
X250263771Y-27693622D02*
X249943916Y-27712582D01*
X216668970Y-136164571D02*
X217036995Y-136016666D01*
X217036995Y-136016666D02*
X217405387Y-135869659D01*
X217405387Y-135869659D02*
X217774139Y-135723538D01*
X217774139Y-135723538D02*
X218143244Y-135578291D01*
X218143244Y-135578291D02*
X218512695Y-135433905D01*
X218512695Y-135433905D02*
X218882488Y-135290368D01*
X218882488Y-135290368D02*
X219252614Y-135147669D01*
X219252614Y-135147669D02*
X219623067Y-135005794D01*
X219623067Y-135005794D02*
X219993841Y-134864732D01*
X219993841Y-134864732D02*
X220364930Y-134724470D01*
X220364930Y-134724470D02*
X220736328Y-134584997D01*
X220736328Y-134584997D02*
X221108026Y-134446300D01*
X221108026Y-134446300D02*
X221480020Y-134308367D01*
X221480020Y-134308367D02*
X221852303Y-134171186D01*
X221852303Y-134171186D02*
X222224868Y-134034745D01*
X222224868Y-134034745D02*
X222597709Y-133899031D01*
X222597709Y-133899031D02*
X222970819Y-133764032D01*
X222970819Y-133764032D02*
X223344192Y-133629737D01*
X223344192Y-133629737D02*
X223717821Y-133496133D01*
X223717821Y-133496133D02*
X224091701Y-133363207D01*
X224091701Y-133363207D02*
X224465824Y-133230949D01*
X224465824Y-133230949D02*
X224840184Y-133099344D01*
X224840184Y-133099344D02*
X225214775Y-132968383D01*
X225214775Y-132968383D02*
X225589590Y-132838051D01*
X225589590Y-132838051D02*
X225964623Y-132708337D01*
X225964623Y-132708337D02*
X226339867Y-132579229D01*
X226339867Y-132579229D02*
X226715316Y-132450715D01*
X226715316Y-132450715D02*
X227090963Y-132322782D01*
X227090963Y-132322782D02*
X227466802Y-132195419D01*
X227466802Y-132195419D02*
X227842827Y-132068612D01*
X227842827Y-132068612D02*
X228219030Y-131942351D01*
X228219030Y-131942351D02*
X228595407Y-131816623D01*
X268798574Y-27689777D02*
X268530172Y-27675548D01*
X268530172Y-27675548D02*
X268261741Y-27661952D01*
X268261741Y-27661952D02*
X267993281Y-27648975D01*
X267993281Y-27648975D02*
X267724793Y-27636601D01*
X267724793Y-27636601D02*
X267456278Y-27624819D01*
X267456278Y-27624819D02*
X267187737Y-27613613D01*
X267187737Y-27613613D02*
X266919169Y-27602970D01*
X266919169Y-27602970D02*
X266650577Y-27592877D01*
X266650577Y-27592877D02*
X266381961Y-27583319D01*
X266381961Y-27583319D02*
X266113321Y-27574283D01*
X266113321Y-27574283D02*
X265844659Y-27565755D01*
X265844659Y-27565755D02*
X265575974Y-27557721D01*
X265575974Y-27557721D02*
X265307269Y-27550167D01*
X265307269Y-27550167D02*
X265038543Y-27543080D01*
X265038543Y-27543080D02*
X264769798Y-27536445D01*
X264769798Y-27536445D02*
X264501033Y-27530250D01*
X264501033Y-27530250D02*
X264232251Y-27524479D01*
X264232251Y-27524479D02*
X263963451Y-27519120D01*
X263963451Y-27519120D02*
X263694635Y-27514158D01*
X263694635Y-27514158D02*
X263425803Y-27509580D01*
X263425803Y-27509580D02*
X263156956Y-27505372D01*
X263156956Y-27505372D02*
X262888094Y-27501520D01*
X262888094Y-27501520D02*
X262619219Y-27498010D01*
X262619219Y-27498010D02*
X262350332Y-27494829D01*
X262350332Y-27494829D02*
X262081432Y-27491962D01*
X262081432Y-27491962D02*
X261812521Y-27489397D01*
X261812521Y-27489397D02*
X261543600Y-27487118D01*
X261543600Y-27487118D02*
X261274669Y-27485113D01*
X261274669Y-27485113D02*
X261005729Y-27483367D01*
X261005729Y-27483367D02*
X260736780Y-27481867D01*
X260736780Y-27481867D02*
X260467825Y-27480599D01*
X260467825Y-27480599D02*
X260198863Y-27479550D01*
X196311105Y-38774091D02*
X196258832Y-38787852D01*
X196258832Y-38787852D02*
X196206675Y-38801988D01*
X196206675Y-38801988D02*
X196154635Y-38816514D01*
X196154635Y-38816514D02*
X196102713Y-38831444D01*
X196102713Y-38831444D02*
X196050911Y-38846791D01*
X196050911Y-38846791D02*
X195999231Y-38862572D01*
X195999231Y-38862572D02*
X195947674Y-38878799D01*
X195947674Y-38878799D02*
X195896241Y-38895487D01*
X195896241Y-38895487D02*
X195844935Y-38912650D01*
X195844935Y-38912650D02*
X195793756Y-38930302D01*
X195793756Y-38930302D02*
X195742706Y-38948459D01*
X195742706Y-38948459D02*
X195691787Y-38967133D01*
X195691787Y-38967133D02*
X195641000Y-38986340D01*
X195641000Y-38986340D02*
X195590347Y-39006093D01*
X195590347Y-39006093D02*
X195539829Y-39026407D01*
X195539829Y-39026407D02*
X195489449Y-39047297D01*
X277203079Y-28423300D02*
X276941092Y-28393200D01*
X276941092Y-28393200D02*
X276679056Y-28363487D01*
X276679056Y-28363487D02*
X276416973Y-28334170D01*
X276416973Y-28334170D02*
X276154843Y-28305256D01*
X276154843Y-28305256D02*
X275892666Y-28276752D01*
X275892666Y-28276752D02*
X275630443Y-28248667D01*
X275630443Y-28248667D02*
X275368175Y-28221006D01*
X275368175Y-28221006D02*
X275105863Y-28193778D01*
X275105863Y-28193778D02*
X274843506Y-28166991D01*
X274843506Y-28166991D02*
X274581106Y-28140652D01*
X274581106Y-28140652D02*
X274318663Y-28114768D01*
X274318663Y-28114768D02*
X274056177Y-28089348D01*
X274056177Y-28089348D02*
X273793651Y-28064398D01*
X273793651Y-28064398D02*
X273531083Y-28039926D01*
X273531083Y-28039926D02*
X273268475Y-28015939D01*
X273268475Y-28015939D02*
X273005827Y-27992446D01*
X273005827Y-27992446D02*
X272743141Y-27969454D01*
X272743141Y-27969454D02*
X272480415Y-27946970D01*
X272480415Y-27946970D02*
X272217652Y-27925002D01*
X272217652Y-27925002D02*
X271954852Y-27903557D01*
X271954852Y-27903557D02*
X271692015Y-27882642D01*
X271692015Y-27882642D02*
X271429143Y-27862267D01*
X271429143Y-27862267D02*
X271166234Y-27842437D01*
X271166234Y-27842437D02*
X270903292Y-27823160D01*
X270903292Y-27823160D02*
X270640315Y-27804445D01*
X270640315Y-27804445D02*
X270377304Y-27786298D01*
X270377304Y-27786298D02*
X270114261Y-27768727D01*
X270114261Y-27768727D02*
X269851185Y-27751740D01*
X269851185Y-27751740D02*
X269588078Y-27735343D01*
X269588078Y-27735343D02*
X269324940Y-27719546D01*
X269324940Y-27719546D02*
X269061772Y-27704354D01*
X269061772Y-27704354D02*
X268798574Y-27689777D01*
X286848626Y-29789016D02*
X286548262Y-29739262D01*
X286548262Y-29739262D02*
X286247828Y-29689941D01*
X286247828Y-29689941D02*
X285947325Y-29641054D01*
X285947325Y-29641054D02*
X285646752Y-29592605D01*
X285646752Y-29592605D02*
X285346110Y-29544596D01*
X285346110Y-29544596D02*
X285045399Y-29497028D01*
X285045399Y-29497028D02*
X284744619Y-29449905D01*
X284744619Y-29449905D02*
X284443769Y-29403229D01*
X284443769Y-29403229D02*
X284142851Y-29357002D01*
X284142851Y-29357002D02*
X283841865Y-29311227D01*
X283841865Y-29311227D02*
X283540809Y-29265905D01*
X283540809Y-29265905D02*
X283239686Y-29221040D01*
X283239686Y-29221040D02*
X282938494Y-29176634D01*
X282938494Y-29176634D02*
X282637234Y-29132690D01*
X282637234Y-29132690D02*
X282335907Y-29089209D01*
X282335907Y-29089209D02*
X282034511Y-29046194D01*
X282034511Y-29046194D02*
X281733048Y-29003647D01*
X281733048Y-29003647D02*
X281431517Y-28961571D01*
X281431517Y-28961571D02*
X281129919Y-28919969D01*
X281129919Y-28919969D02*
X280828254Y-28878842D01*
X280828254Y-28878842D02*
X280526522Y-28838193D01*
X280526522Y-28838193D02*
X280224722Y-28798025D01*
X280224722Y-28798025D02*
X279922856Y-28758340D01*
X279922856Y-28758340D02*
X279620923Y-28719140D01*
X279620923Y-28719140D02*
X279318924Y-28680428D01*
X279318924Y-28680428D02*
X279016858Y-28642206D01*
X279016858Y-28642206D02*
X278714727Y-28604476D01*
X278714727Y-28604476D02*
X278412529Y-28567241D01*
X278412529Y-28567241D02*
X278110265Y-28530504D01*
X278110265Y-28530504D02*
X277807935Y-28494266D01*
X277807935Y-28494266D02*
X277505539Y-28458531D01*
X277505539Y-28458531D02*
X277203079Y-28423300D01*
X228595407Y-131816623D02*
X228967858Y-131692775D01*
X228967858Y-131692775D02*
X229340472Y-131569441D01*
X229340472Y-131569441D02*
X229713251Y-131446624D01*
X229713251Y-131446624D02*
X230086194Y-131324330D01*
X230086194Y-131324330D02*
X230459301Y-131202561D01*
X230459301Y-131202561D02*
X230832575Y-131081322D01*
X230832575Y-131081322D02*
X231206015Y-130960617D01*
X231206015Y-130960617D02*
X231579622Y-130840450D01*
X231579622Y-130840450D02*
X231953396Y-130720826D01*
X231953396Y-130720826D02*
X232327339Y-130601748D01*
X232327339Y-130601748D02*
X232701450Y-130483221D01*
X232701450Y-130483221D02*
X233075731Y-130365248D01*
X233075731Y-130365248D02*
X233450182Y-130247834D01*
X233450182Y-130247834D02*
X233824804Y-130130983D01*
X233824804Y-130130983D02*
X234199598Y-130014699D01*
X234199598Y-130014699D02*
X234574563Y-129898987D01*
X234574563Y-129898987D02*
X234949701Y-129783849D01*
X234949701Y-129783849D02*
X235325013Y-129669291D01*
X235325013Y-129669291D02*
X235700498Y-129555316D01*
X235700498Y-129555316D02*
X236076158Y-129441929D01*
X236076158Y-129441929D02*
X236451993Y-129329134D01*
X236451993Y-129329134D02*
X236828004Y-129216934D01*
X236828004Y-129216934D02*
X237204192Y-129105335D01*
X237204192Y-129105335D02*
X237580557Y-128994339D01*
X237580557Y-128994339D02*
X237957099Y-128883952D01*
X237957099Y-128883952D02*
X238333820Y-128774177D01*
X238333820Y-128774177D02*
X238710720Y-128665018D01*
X238710720Y-128665018D02*
X239087799Y-128556480D01*
X239087799Y-128556480D02*
X239465059Y-128448567D01*
X239465059Y-128448567D02*
X239842500Y-128341282D01*
X239842500Y-128341282D02*
X240220122Y-128234630D01*
X240220122Y-128234630D02*
X240597927Y-128128616D01*
X240597927Y-128128616D02*
X240936279Y-128034258D01*
X240936279Y-128034258D02*
X241274777Y-127940412D01*
X241274777Y-127940412D02*
X241613419Y-127847078D01*
X241613419Y-127847078D02*
X241952204Y-127754254D01*
X241952204Y-127754254D02*
X242291130Y-127661939D01*
X242291130Y-127661939D02*
X242630196Y-127570131D01*
X242630196Y-127570131D02*
X242969401Y-127478829D01*
X242969401Y-127478829D02*
X243308743Y-127388033D01*
X243308743Y-127388033D02*
X243648222Y-127297740D01*
X243648222Y-127297740D02*
X243987836Y-127207950D01*
X243987836Y-127207950D02*
X244327583Y-127118661D01*
X244327583Y-127118661D02*
X244667464Y-127029872D01*
X244667464Y-127029872D02*
X245007475Y-126941582D01*
X245007475Y-126941582D02*
X245347616Y-126853790D01*
X245347616Y-126853790D02*
X245687886Y-126766494D01*
X245687886Y-126766494D02*
X246028283Y-126679693D01*
X246028283Y-126679693D02*
X246368806Y-126593386D01*
X246368806Y-126593386D02*
X246709454Y-126507571D01*
X246709454Y-126507571D02*
X247050226Y-126422248D01*
X247050226Y-126422248D02*
X247391120Y-126337415D01*
X247391120Y-126337415D02*
X247732135Y-126253071D01*
X247732135Y-126253071D02*
X248073269Y-126169214D01*
X248073269Y-126169214D02*
X248414522Y-126085844D01*
X248414522Y-126085844D02*
X248755892Y-126002959D01*
X248755892Y-126002959D02*
X249097378Y-125920558D01*
X249097378Y-125920558D02*
X249438979Y-125838640D01*
X249438979Y-125838640D02*
X249780692Y-125757203D01*
X249780692Y-125757203D02*
X250122518Y-125676246D01*
X250122518Y-125676246D02*
X250464455Y-125595768D01*
X250464455Y-125595768D02*
X250806501Y-125515768D01*
X250806501Y-125515768D02*
X251148655Y-125436244D01*
X251148655Y-125436244D02*
X251490917Y-125357196D01*
X251490917Y-125357196D02*
X251871647Y-125269845D01*
X251871647Y-125269845D02*
X252252505Y-125183070D01*
X252252505Y-125183070D02*
X252633488Y-125096856D01*
X252633488Y-125096856D02*
X253014593Y-125011192D01*
X253014593Y-125011192D02*
X253395817Y-124926067D01*
X253395817Y-124926067D02*
X253777157Y-124841468D01*
X253777157Y-124841468D02*
X254158611Y-124757384D01*
X254158611Y-124757384D02*
X254540174Y-124673801D01*
X254540174Y-124673801D02*
X254921845Y-124590709D01*
X254921845Y-124590709D02*
X255303620Y-124508096D01*
X255303620Y-124508096D02*
X255685497Y-124425949D01*
X255685497Y-124425949D02*
X256067473Y-124344256D01*
X256067473Y-124344256D02*
X256449544Y-124263006D01*
X256449544Y-124263006D02*
X256831708Y-124182187D01*
X256831708Y-124182187D02*
X257213962Y-124101786D01*
X257213962Y-124101786D02*
X257596302Y-124021792D01*
X257596302Y-124021792D02*
X257978727Y-123942193D01*
X257978727Y-123942193D02*
X258361233Y-123862976D01*
X258361233Y-123862976D02*
X258743817Y-123784130D01*
X258743817Y-123784130D02*
X259126477Y-123705643D01*
X259126477Y-123705643D02*
X259509209Y-123627502D01*
X259509209Y-123627502D02*
X259892010Y-123549697D01*
X259892010Y-123549697D02*
X260274878Y-123472214D01*
X260274878Y-123472214D02*
X260657809Y-123395043D01*
X260657809Y-123395043D02*
X261040802Y-123318170D01*
X261040802Y-123318170D02*
X261423852Y-123241585D01*
X261423852Y-123241585D02*
X261806957Y-123165274D01*
X261806957Y-123165274D02*
X262190114Y-123089227D01*
X262190114Y-123089227D02*
X262573320Y-123013430D01*
X262573320Y-123013430D02*
X262956572Y-122937873D01*
X262956572Y-122937873D02*
X263339868Y-122862543D01*
X263339868Y-122862543D02*
X263723204Y-122787429D01*
X263723204Y-122787429D02*
X264136819Y-122706619D01*
X264136819Y-122706619D02*
X264550478Y-122626049D01*
X264550478Y-122626049D02*
X264964182Y-122545719D01*
X264964182Y-122545719D02*
X265377930Y-122465631D01*
X265377930Y-122465631D02*
X265791723Y-122385789D01*
X265791723Y-122385789D02*
X266205562Y-122306193D01*
X266205562Y-122306193D02*
X266619447Y-122226845D01*
X266619447Y-122226845D02*
X267033378Y-122147749D01*
X267033378Y-122147749D02*
X267447356Y-122068905D01*
X267447356Y-122068905D02*
X267861381Y-121990316D01*
X267861381Y-121990316D02*
X268275453Y-121911983D01*
X268275453Y-121911983D02*
X268689573Y-121833909D01*
X268689573Y-121833909D02*
X269103741Y-121756097D01*
X269103741Y-121756097D02*
X269517958Y-121678547D01*
X269517958Y-121678547D02*
X269932223Y-121601261D01*
X269932223Y-121601261D02*
X270346539Y-121524243D01*
X270346539Y-121524243D02*
X270760903Y-121447493D01*
X270760903Y-121447493D02*
X271175318Y-121371015D01*
X271175318Y-121371015D02*
X271589784Y-121294809D01*
X271589784Y-121294809D02*
X272004300Y-121218878D01*
X272004300Y-121218878D02*
X272418868Y-121143224D01*
X272418868Y-121143224D02*
X272833487Y-121067848D01*
X272833487Y-121067848D02*
X273248158Y-120992754D01*
X273248158Y-120992754D02*
X273662882Y-120917943D01*
X273662882Y-120917943D02*
X274077659Y-120843416D01*
X274077659Y-120843416D02*
X274492488Y-120769177D01*
X274492488Y-120769177D02*
X274907372Y-120695226D01*
X274907372Y-120695226D02*
X275322309Y-120621567D01*
X275322309Y-120621567D02*
X275737301Y-120548201D01*
X275737301Y-120548201D02*
X276152347Y-120475129D01*
X276152347Y-120475129D02*
X276567448Y-120402355D01*
X276567448Y-120402355D02*
X276982606Y-120329880D01*
X192817600Y-148793048D02*
X192900202Y-148735070D01*
X192900202Y-148735070D02*
X192982701Y-148677026D01*
X192982701Y-148677026D02*
X193065105Y-148618922D01*
X193065105Y-148618922D02*
X193147420Y-148560765D01*
X193147420Y-148560765D02*
X193229654Y-148502564D01*
X193229654Y-148502564D02*
X193311812Y-148444324D01*
X193311812Y-148444324D02*
X193393903Y-148386054D01*
X193393903Y-148386054D02*
X193475933Y-148327759D01*
X193475933Y-148327759D02*
X193557909Y-148269448D01*
X193557909Y-148269448D02*
X193639838Y-148211128D01*
X193639838Y-148211128D02*
X193721726Y-148152806D01*
X193721726Y-148152806D02*
X193803582Y-148094488D01*
X193803582Y-148094488D02*
X193885412Y-148036183D01*
X193885412Y-148036183D02*
X193967222Y-147977897D01*
X193967222Y-147977897D02*
X194049020Y-147919637D01*
X194049020Y-147919637D02*
X194130813Y-147861411D01*
X194130813Y-147861411D02*
X194212607Y-147803226D01*
X194212607Y-147803226D02*
X194294410Y-147745089D01*
X194294410Y-147745089D02*
X194376228Y-147687007D01*
X194376228Y-147687007D02*
X194458069Y-147628987D01*
X194458069Y-147628987D02*
X194539939Y-147571036D01*
X194539939Y-147571036D02*
X194621846Y-147513163D01*
X194621846Y-147513163D02*
X194703796Y-147455373D01*
X194703796Y-147455373D02*
X194785796Y-147397674D01*
X194785796Y-147397674D02*
X194867853Y-147340073D01*
X194867853Y-147340073D02*
X194949975Y-147282578D01*
X194949975Y-147282578D02*
X195032167Y-147225195D01*
X195032167Y-147225195D02*
X195114438Y-147167932D01*
X195114438Y-147167932D02*
X195196793Y-147110795D01*
X195196793Y-147110795D02*
X195279241Y-147053793D01*
X195279241Y-147053793D02*
X195361787Y-146996931D01*
X195361787Y-146996931D02*
X195444440Y-146940219D01*
X239701441Y-28678864D02*
X239233745Y-28773209D01*
X239233745Y-28773209D02*
X238766051Y-28867562D01*
X238766051Y-28867562D02*
X238298358Y-28961926D01*
X238298358Y-28961926D02*
X237830669Y-29056309D01*
X237830669Y-29056309D02*
X237362982Y-29150716D01*
X237362982Y-29150716D02*
X236895300Y-29245154D01*
X236895300Y-29245154D02*
X236427623Y-29339629D01*
X236427623Y-29339629D02*
X235959953Y-29434147D01*
X235959953Y-29434147D02*
X235492289Y-29528714D01*
X235492289Y-29528714D02*
X235024633Y-29623336D01*
X235024633Y-29623336D02*
X234556986Y-29718020D01*
X234556986Y-29718020D02*
X234089349Y-29812771D01*
X234089349Y-29812771D02*
X233621722Y-29907596D01*
X233621722Y-29907596D02*
X233154107Y-30002501D01*
X233154107Y-30002501D02*
X232686504Y-30097492D01*
X232686504Y-30097492D02*
X232218914Y-30192575D01*
X232218914Y-30192575D02*
X231751338Y-30287756D01*
X231751338Y-30287756D02*
X231283776Y-30383041D01*
X231283776Y-30383041D02*
X230816231Y-30478437D01*
X230816231Y-30478437D02*
X230348703Y-30573950D01*
X230348703Y-30573950D02*
X229881191Y-30669586D01*
X229881191Y-30669586D02*
X229413699Y-30765350D01*
X229413699Y-30765350D02*
X228946225Y-30861250D01*
X228946225Y-30861250D02*
X228478772Y-30957291D01*
X228478772Y-30957291D02*
X228011340Y-31053479D01*
X228011340Y-31053479D02*
X227543930Y-31149821D01*
X227543930Y-31149821D02*
X227076542Y-31246322D01*
X227076542Y-31246322D02*
X226609178Y-31342990D01*
X226609178Y-31342990D02*
X226141839Y-31439829D01*
X226141839Y-31439829D02*
X225674525Y-31536846D01*
X225674525Y-31536846D02*
X225207238Y-31634048D01*
X225207238Y-31634048D02*
X224739978Y-31731440D01*
X193960600Y-52800000D02*
X193954381Y-100634800D01*
X195489449Y-39047297D02*
X195439893Y-39068487D01*
X195439893Y-39068487D02*
X195390536Y-39090295D01*
X195390536Y-39090295D02*
X195341441Y-39112766D01*
X195341441Y-39112766D02*
X195292672Y-39135943D01*
X195292672Y-39135943D02*
X195244294Y-39159871D01*
X195244294Y-39159871D02*
X195196368Y-39184595D01*
X195196368Y-39184595D02*
X195148960Y-39210158D01*
X195148960Y-39210158D02*
X195102134Y-39236606D01*
X195102134Y-39236606D02*
X195055952Y-39263981D01*
X195055952Y-39263981D02*
X195010479Y-39292330D01*
X195010479Y-39292330D02*
X194965779Y-39321695D01*
X194965779Y-39321695D02*
X194921915Y-39352122D01*
X194921915Y-39352122D02*
X194878951Y-39383655D01*
X194878951Y-39383655D02*
X194836951Y-39416337D01*
X194836951Y-39416337D02*
X194795978Y-39450215D01*
X194795978Y-39450215D02*
X194756098Y-39485331D01*
X188948137Y-148402853D02*
X188994968Y-148451987D01*
X188994968Y-148451987D02*
X189041924Y-148500967D01*
X189041924Y-148500967D02*
X189089128Y-148549638D01*
X189089128Y-148549638D02*
X189136704Y-148597846D01*
X189136704Y-148597846D02*
X189184778Y-148645436D01*
X189184778Y-148645436D02*
X189233473Y-148692254D01*
X189233473Y-148692254D02*
X189282913Y-148738146D01*
X189282913Y-148738146D02*
X189333223Y-148782956D01*
X189333223Y-148782956D02*
X189384527Y-148826532D01*
X189384527Y-148826532D02*
X189436949Y-148868717D01*
X189436949Y-148868717D02*
X189472580Y-148895993D01*
X184903930Y-123831409D02*
X184813777Y-123921455D01*
X184813777Y-123921455D02*
X184723461Y-124011335D01*
X184723461Y-124011335D02*
X184632981Y-124101047D01*
X184632981Y-124101047D02*
X184542333Y-124190589D01*
X184542333Y-124190589D02*
X184451518Y-124279958D01*
X184451518Y-124279958D02*
X184360535Y-124369154D01*
X184360535Y-124369154D02*
X184269381Y-124458173D01*
X184269381Y-124458173D02*
X184178056Y-124547014D01*
X184178056Y-124547014D02*
X184086559Y-124635675D01*
X184086559Y-124635675D02*
X183994888Y-124724154D01*
X183994888Y-124724154D02*
X183903042Y-124812448D01*
X183903042Y-124812448D02*
X183811020Y-124900556D01*
X183811020Y-124900556D02*
X183718820Y-124988476D01*
X183718820Y-124988476D02*
X183626442Y-125076205D01*
X183626442Y-125076205D02*
X183533884Y-125163742D01*
X183533884Y-125163742D02*
X183441144Y-125251084D01*
X183441144Y-125251084D02*
X183348222Y-125338230D01*
X183348222Y-125338230D02*
X183255117Y-125425177D01*
X183255117Y-125425177D02*
X183161827Y-125511924D01*
X183161827Y-125511924D02*
X183068351Y-125598468D01*
X183068351Y-125598468D02*
X182974687Y-125684808D01*
X182974687Y-125684808D02*
X182880835Y-125770940D01*
X182880835Y-125770940D02*
X182786793Y-125856865D01*
X182786793Y-125856865D02*
X182692559Y-125942578D01*
X182692559Y-125942578D02*
X182598134Y-126028079D01*
X182598134Y-126028079D02*
X182503515Y-126113365D01*
X182503515Y-126113365D02*
X182408702Y-126198434D01*
X182408702Y-126198434D02*
X182313692Y-126283284D01*
X182313692Y-126283284D02*
X182218485Y-126367914D01*
X182218485Y-126367914D02*
X182123080Y-126452320D01*
X182123080Y-126452320D02*
X182027475Y-126536502D01*
X182027475Y-126536502D02*
X181931669Y-126620457D01*
X189472580Y-148895993D02*
X189526651Y-148935227D01*
X189526651Y-148935227D02*
X189581951Y-148972856D01*
X189581951Y-148972856D02*
X189638403Y-149008895D01*
X189638403Y-149008895D02*
X189695932Y-149043360D01*
X189695932Y-149043360D02*
X189754463Y-149076265D01*
X189754463Y-149076265D02*
X189813920Y-149107625D01*
X189813920Y-149107625D02*
X189874228Y-149137457D01*
X189874228Y-149137457D02*
X189935312Y-149165773D01*
X189935312Y-149165773D02*
X189997096Y-149192591D01*
X189997096Y-149192591D02*
X190059505Y-149217925D01*
X190059505Y-149217925D02*
X190101421Y-149233997D01*
X193926584Y-106239370D02*
X193922898Y-106356268D01*
X193922898Y-106356268D02*
X193918829Y-106473143D01*
X193918829Y-106473143D02*
X193914377Y-106589997D01*
X193914377Y-106589997D02*
X193909538Y-106706829D01*
X193909538Y-106706829D02*
X193904311Y-106823640D01*
X193904311Y-106823640D02*
X193898695Y-106940429D01*
X193898695Y-106940429D02*
X193892686Y-107057199D01*
X193892686Y-107057199D02*
X193886284Y-107173948D01*
X193886284Y-107173948D02*
X193879486Y-107290677D01*
X193879486Y-107290677D02*
X193872290Y-107407387D01*
X193872290Y-107407387D02*
X193864695Y-107524078D01*
X193864695Y-107524078D02*
X193856698Y-107640751D01*
X193856698Y-107640751D02*
X193848299Y-107757405D01*
X193848299Y-107757405D02*
X193839494Y-107874041D01*
X193839494Y-107874041D02*
X193830282Y-107990660D01*
X193830282Y-107990660D02*
X193820661Y-108107262D01*
X193820661Y-108107262D02*
X193810630Y-108223847D01*
X193810630Y-108223847D02*
X193800185Y-108340416D01*
X193800185Y-108340416D02*
X193789326Y-108456969D01*
X193789326Y-108456969D02*
X193778051Y-108573506D01*
X193778051Y-108573506D02*
X193766357Y-108690028D01*
X193766357Y-108690028D02*
X193754243Y-108806536D01*
X193754243Y-108806536D02*
X193741706Y-108923029D01*
X193741706Y-108923029D02*
X193728746Y-109039507D01*
X193728746Y-109039507D02*
X193715359Y-109155973D01*
X193715359Y-109155973D02*
X193701545Y-109272425D01*
X193701545Y-109272425D02*
X193687301Y-109388864D01*
X193687301Y-109388864D02*
X193672625Y-109505290D01*
X193672625Y-109505290D02*
X193657515Y-109621705D01*
X193657515Y-109621705D02*
X193641970Y-109738108D01*
X193641970Y-109738108D02*
X193625988Y-109854499D01*
X193625988Y-109854499D02*
X193609567Y-109970880D01*
X190101421Y-149233997D02*
X190165240Y-149257069D01*
X190165240Y-149257069D02*
X190229536Y-149278637D01*
X190229536Y-149278637D02*
X190294277Y-149298679D01*
X190294277Y-149298679D02*
X190359432Y-149317173D01*
X190359432Y-149317173D02*
X190424968Y-149334098D01*
X190424968Y-149334098D02*
X190490856Y-149349433D01*
X190490856Y-149349433D02*
X190557064Y-149363156D01*
X190557064Y-149363156D02*
X190623559Y-149375246D01*
X190623559Y-149375246D02*
X190690312Y-149385682D01*
X190690312Y-149385682D02*
X190757291Y-149394442D01*
X190757291Y-149394442D02*
X190802054Y-149399341D01*
X296031829Y-31540227D02*
X295746244Y-31478530D01*
X295746244Y-31478530D02*
X295460557Y-31417309D01*
X295460557Y-31417309D02*
X295174770Y-31356561D01*
X295174770Y-31356561D02*
X294888884Y-31296283D01*
X294888884Y-31296283D02*
X294602899Y-31236473D01*
X294602899Y-31236473D02*
X294316818Y-31177128D01*
X294316818Y-31177128D02*
X294030640Y-31118245D01*
X294030640Y-31118245D02*
X293744369Y-31059823D01*
X293744369Y-31059823D02*
X293458004Y-31001857D01*
X293458004Y-31001857D02*
X293171547Y-30944347D01*
X293171547Y-30944347D02*
X292884999Y-30887289D01*
X292884999Y-30887289D02*
X292598361Y-30830680D01*
X292598361Y-30830680D02*
X292311635Y-30774519D01*
X292311635Y-30774519D02*
X292024821Y-30718802D01*
X292024821Y-30718802D02*
X291737921Y-30663528D01*
X291737921Y-30663528D02*
X291450937Y-30608693D01*
X291450937Y-30608693D02*
X291163869Y-30554295D01*
X291163869Y-30554295D02*
X290876718Y-30500331D01*
X290876718Y-30500331D02*
X290589486Y-30446799D01*
X290589486Y-30446799D02*
X290302174Y-30393696D01*
X290302174Y-30393696D02*
X290014784Y-30341020D01*
X290014784Y-30341020D02*
X289727315Y-30288769D01*
X289727315Y-30288769D02*
X289439770Y-30236938D01*
X289439770Y-30236938D02*
X289152150Y-30185527D01*
X289152150Y-30185527D02*
X288864456Y-30134532D01*
X288864456Y-30134532D02*
X288576689Y-30083952D01*
X288576689Y-30083952D02*
X288288851Y-30033782D01*
X288288851Y-30033782D02*
X288000942Y-29984021D01*
X288000942Y-29984021D02*
X287712963Y-29934667D01*
X287712963Y-29934667D02*
X287424917Y-29885716D01*
X287424917Y-29885716D02*
X287136804Y-29837167D01*
X287136804Y-29837167D02*
X286848626Y-29789016D01*
X190802054Y-149399341D02*
X190869339Y-149405266D01*
X190869339Y-149405266D02*
X190936762Y-149409494D01*
X190936762Y-149409494D02*
X191004287Y-149412039D01*
X191004287Y-149412039D02*
X191071880Y-149412916D01*
X191071880Y-149412916D02*
X191139505Y-149412140D01*
X191139505Y-149412140D02*
X191207126Y-149409725D01*
X191207126Y-149409725D02*
X191274707Y-149405685D01*
X191274707Y-149405685D02*
X191342214Y-149400034D01*
X191342214Y-149400034D02*
X191409610Y-149392788D01*
X191409610Y-149392788D02*
X191476860Y-149383961D01*
X191476860Y-149383961D02*
X191521596Y-149377206D01*
X194756098Y-39485331D02*
X194707312Y-39531525D01*
X194707312Y-39531525D02*
X194660309Y-39579635D01*
X194660309Y-39579635D02*
X194615025Y-39629524D01*
X194615025Y-39629524D02*
X194571394Y-39681056D01*
X194571394Y-39681056D02*
X194529353Y-39734097D01*
X194529353Y-39734097D02*
X194488838Y-39788510D01*
X194488838Y-39788510D02*
X194449785Y-39844161D01*
X194449785Y-39844161D02*
X194412129Y-39900913D01*
X194412129Y-39900913D02*
X194375808Y-39958631D01*
X194375808Y-39958631D02*
X194340756Y-40017179D01*
X194340756Y-40017179D02*
X194318063Y-40056606D01*
X191521596Y-149377206D02*
X191587965Y-149365869D01*
X191587965Y-149365869D02*
X191654064Y-149352972D01*
X191654064Y-149352972D02*
X191719823Y-149338487D01*
X191719823Y-149338487D02*
X191785172Y-149322383D01*
X191785172Y-149322383D02*
X191850043Y-149304633D01*
X191850043Y-149304633D02*
X191914366Y-149285208D01*
X191914366Y-149285208D02*
X191978071Y-149264078D01*
X191978071Y-149264078D02*
X192041091Y-149241215D01*
X192041091Y-149241215D02*
X192103354Y-149216590D01*
X192103354Y-149216590D02*
X192164792Y-149190174D01*
X192164792Y-149190174D02*
X192205259Y-149171555D01*
X192205259Y-149171555D02*
X192265690Y-149141870D01*
X192265690Y-149141870D02*
X192325249Y-149110488D01*
X192325249Y-149110488D02*
X192384023Y-149077581D01*
X192384023Y-149077581D02*
X192442095Y-149043321D01*
X192442095Y-149043321D02*
X192499551Y-149007879D01*
X192499551Y-149007879D02*
X192556476Y-148971429D01*
X192556476Y-148971429D02*
X192612955Y-148934142D01*
X192612955Y-148934142D02*
X192669072Y-148896191D01*
X192669072Y-148896191D02*
X192724913Y-148857747D01*
X192724913Y-148857747D02*
X192780564Y-148818983D01*
X192780564Y-148818983D02*
X192817600Y-148793048D01*
X177454742Y-132648127D02*
X177480645Y-132710242D01*
X177480645Y-132710242D02*
X177508302Y-132771587D01*
X177508302Y-132771587D02*
X177537531Y-132832240D01*
X177537531Y-132832240D02*
X177568151Y-132892282D01*
X177568151Y-132892282D02*
X177599981Y-132951791D01*
X177599981Y-132951791D02*
X177632839Y-133010849D01*
X177632839Y-133010849D02*
X177666544Y-133069535D01*
X177666544Y-133069535D02*
X177700914Y-133127928D01*
X177700914Y-133127928D02*
X177735768Y-133186108D01*
X177735768Y-133186108D02*
X177770924Y-133244156D01*
X177770924Y-133244156D02*
X177794440Y-133282820D01*
X306661667Y-34145642D02*
X306331353Y-34057059D01*
X306331353Y-34057059D02*
X306000929Y-33968846D01*
X306000929Y-33968846D02*
X305670393Y-33881013D01*
X305670393Y-33881013D02*
X305339744Y-33793569D01*
X305339744Y-33793569D02*
X305008981Y-33706523D01*
X305008981Y-33706523D02*
X304678104Y-33619883D01*
X304678104Y-33619883D02*
X304347111Y-33533660D01*
X304347111Y-33533660D02*
X304016001Y-33447863D01*
X304016001Y-33447863D02*
X303684774Y-33362500D01*
X303684774Y-33362500D02*
X303353428Y-33277581D01*
X303353428Y-33277581D02*
X303021963Y-33193115D01*
X303021963Y-33193115D02*
X302690377Y-33109111D01*
X302690377Y-33109111D02*
X302358669Y-33025578D01*
X302358669Y-33025578D02*
X302026839Y-32942526D01*
X302026839Y-32942526D02*
X301694885Y-32859964D01*
X301694885Y-32859964D02*
X301362807Y-32777901D01*
X301362807Y-32777901D02*
X301030603Y-32696345D01*
X301030603Y-32696345D02*
X300698273Y-32615307D01*
X300698273Y-32615307D02*
X300365816Y-32534796D01*
X300365816Y-32534796D02*
X300033230Y-32454820D01*
X300033230Y-32454820D02*
X299700514Y-32375388D01*
X299700514Y-32375388D02*
X299367669Y-32296511D01*
X299367669Y-32296511D02*
X299034692Y-32218197D01*
X299034692Y-32218197D02*
X298701583Y-32140455D01*
X298701583Y-32140455D02*
X298368340Y-32063295D01*
X298368340Y-32063295D02*
X298034963Y-31986725D01*
X298034963Y-31986725D02*
X297701451Y-31910756D01*
X297701451Y-31910756D02*
X297367803Y-31835395D01*
X297367803Y-31835395D02*
X297034018Y-31760653D01*
X297034018Y-31760653D02*
X296700094Y-31686538D01*
X296700094Y-31686538D02*
X296366031Y-31613059D01*
X296366031Y-31613059D02*
X296031829Y-31540227D01*
X323300624Y-38603928D02*
X323132291Y-38540139D01*
X323132291Y-38540139D02*
X322963468Y-38478016D01*
X322963468Y-38478016D02*
X322794171Y-38417496D01*
X322794171Y-38417496D02*
X322624421Y-38358516D01*
X322624421Y-38358516D02*
X322454234Y-38301015D01*
X322454234Y-38301015D02*
X322283629Y-38244929D01*
X322283629Y-38244929D02*
X322112625Y-38190198D01*
X322112625Y-38190198D02*
X321941241Y-38136758D01*
X321941241Y-38136758D02*
X321769495Y-38084546D01*
X321769495Y-38084546D02*
X321597404Y-38033502D01*
X321597404Y-38033502D02*
X321424988Y-37983562D01*
X321424988Y-37983562D02*
X321252265Y-37934665D01*
X321252265Y-37934665D02*
X321079254Y-37886747D01*
X321079254Y-37886747D02*
X320905973Y-37839747D01*
X320905973Y-37839747D02*
X320732440Y-37793602D01*
X320732440Y-37793602D02*
X320558673Y-37748250D01*
X320558673Y-37748250D02*
X320384692Y-37703628D01*
X320384692Y-37703628D02*
X320210515Y-37659675D01*
X320210515Y-37659675D02*
X320036160Y-37616328D01*
X320036160Y-37616328D02*
X319861645Y-37573525D01*
X319861645Y-37573525D02*
X319686990Y-37531203D01*
X319686990Y-37531203D02*
X319512211Y-37489301D01*
X319512211Y-37489301D02*
X319337329Y-37447755D01*
X319337329Y-37447755D02*
X319162361Y-37406503D01*
X319162361Y-37406503D02*
X318987326Y-37365484D01*
X318987326Y-37365484D02*
X318812242Y-37324635D01*
X318812242Y-37324635D02*
X318637127Y-37283893D01*
X318637127Y-37283893D02*
X318462001Y-37243197D01*
X318462001Y-37243197D02*
X318286881Y-37202483D01*
X318286881Y-37202483D02*
X318111786Y-37161690D01*
X318111786Y-37161690D02*
X317936734Y-37120756D01*
X317936734Y-37120756D02*
X317761745Y-37079618D01*
X323782388Y-38817578D02*
X323724346Y-38786685D01*
X323724346Y-38786685D02*
X323665461Y-38757374D01*
X323665461Y-38757374D02*
X323605842Y-38729452D01*
X323605842Y-38729452D02*
X323545601Y-38702726D01*
X323545601Y-38702726D02*
X323484847Y-38677003D01*
X323484847Y-38677003D02*
X323423693Y-38652091D01*
X323423693Y-38652091D02*
X323362248Y-38627796D01*
X323362248Y-38627796D02*
X323300624Y-38603928D01*
X325207836Y-114415697D02*
X325223020Y-114350132D01*
X325223020Y-114350132D02*
X325236331Y-114284170D01*
X325236331Y-114284170D02*
X325247960Y-114217854D01*
X325247960Y-114217854D02*
X325258104Y-114151223D01*
X325258104Y-114151223D02*
X325266955Y-114084318D01*
X325266955Y-114084318D02*
X325274706Y-114017181D01*
X325274706Y-114017181D02*
X325281554Y-113949853D01*
X325281554Y-113949853D02*
X325287690Y-113882374D01*
X325287690Y-113882374D02*
X325293309Y-113814786D01*
X325293309Y-113814786D02*
X325298605Y-113747130D01*
X325298605Y-113747130D02*
X325302052Y-113702008D01*
X178424495Y-129445109D02*
X178372543Y-129488794D01*
X178372543Y-129488794D02*
X178320738Y-129532614D01*
X178320738Y-129532614D02*
X178269226Y-129576700D01*
X178269226Y-129576700D02*
X178218152Y-129621187D01*
X178218152Y-129621187D02*
X178167665Y-129666209D01*
X178167665Y-129666209D02*
X178117909Y-129711899D01*
X178117909Y-129711899D02*
X178069032Y-129758390D01*
X178069032Y-129758390D02*
X178021179Y-129805816D01*
X178021179Y-129805816D02*
X177974498Y-129854311D01*
X177974498Y-129854311D02*
X177929135Y-129904008D01*
X177929135Y-129904008D02*
X177899697Y-129937874D01*
X177899697Y-129937874D02*
X177857177Y-129989401D01*
X177857177Y-129989401D02*
X177816182Y-130042253D01*
X177816182Y-130042253D02*
X177776703Y-130096354D01*
X177776703Y-130096354D02*
X177738728Y-130151629D01*
X177738728Y-130151629D02*
X177702247Y-130208000D01*
X177702247Y-130208000D02*
X177667250Y-130265392D01*
X177667250Y-130265392D02*
X177633726Y-130323729D01*
X177633726Y-130323729D02*
X177601666Y-130382933D01*
X177601666Y-130382933D02*
X177571058Y-130442930D01*
X177571058Y-130442930D02*
X177541892Y-130503643D01*
X177541892Y-130503643D02*
X177523245Y-130544479D01*
X177523245Y-130544479D02*
X177496247Y-130606741D01*
X177496247Y-130606741D02*
X177470722Y-130669572D01*
X177470722Y-130669572D02*
X177446693Y-130732943D01*
X177446693Y-130732943D02*
X177424182Y-130796822D01*
X177424182Y-130796822D02*
X177403213Y-130861180D01*
X177403213Y-130861180D02*
X177383810Y-130925987D01*
X177383810Y-130925987D02*
X177365997Y-130991213D01*
X177365997Y-130991213D02*
X177349795Y-131056828D01*
X177349795Y-131056828D02*
X177335229Y-131122801D01*
X177335229Y-131122801D02*
X177322323Y-131189104D01*
X177322323Y-131189104D02*
X177314652Y-131233474D01*
X177314652Y-131233474D02*
X177304556Y-131300257D01*
X177304556Y-131300257D02*
X177296146Y-131367283D01*
X177296146Y-131367283D02*
X177289410Y-131434516D01*
X177289410Y-131434516D02*
X177284334Y-131501920D01*
X177284334Y-131501920D02*
X177280905Y-131569459D01*
X177280905Y-131569459D02*
X177279112Y-131637098D01*
X177279112Y-131637098D02*
X177278942Y-131704799D01*
X177278942Y-131704799D02*
X177280382Y-131772528D01*
X177280382Y-131772528D02*
X177283420Y-131840249D01*
X177283420Y-131840249D02*
X177288043Y-131907925D01*
X177288043Y-131907925D02*
X177292000Y-131953000D01*
X187882266Y-120669157D02*
X187791992Y-120770451D01*
X187791992Y-120770451D02*
X187701539Y-120871599D01*
X187701539Y-120871599D02*
X187610908Y-120972599D01*
X187610908Y-120972599D02*
X187520097Y-121073449D01*
X187520097Y-121073449D02*
X187429107Y-121174148D01*
X187429107Y-121174148D02*
X187337938Y-121274696D01*
X187337938Y-121274696D02*
X187246590Y-121375090D01*
X187246590Y-121375090D02*
X187155061Y-121475329D01*
X187155061Y-121475329D02*
X187063353Y-121575413D01*
X187063353Y-121575413D02*
X186971464Y-121675339D01*
X186971464Y-121675339D02*
X186879395Y-121775108D01*
X186879395Y-121775108D02*
X186787145Y-121874716D01*
X186787145Y-121874716D02*
X186694715Y-121974164D01*
X186694715Y-121974164D02*
X186602104Y-122073449D01*
X186602104Y-122073449D02*
X186509311Y-122172571D01*
X186509311Y-122172571D02*
X186416337Y-122271529D01*
X186416337Y-122271529D02*
X186323182Y-122370320D01*
X186323182Y-122370320D02*
X186229844Y-122468944D01*
X186229844Y-122468944D02*
X186136325Y-122567399D01*
X186136325Y-122567399D02*
X186042624Y-122665685D01*
X186042624Y-122665685D02*
X185948740Y-122763800D01*
X185948740Y-122763800D02*
X185854674Y-122861742D01*
X185854674Y-122861742D02*
X185760425Y-122959511D01*
X185760425Y-122959511D02*
X185665993Y-123057105D01*
X185665993Y-123057105D02*
X185571378Y-123154523D01*
X185571378Y-123154523D02*
X185476580Y-123251763D01*
X185476580Y-123251763D02*
X185381598Y-123348825D01*
X185381598Y-123348825D02*
X185286432Y-123445706D01*
X185286432Y-123445706D02*
X185191083Y-123542407D01*
X185191083Y-123542407D02*
X185095550Y-123638925D01*
X185095550Y-123638925D02*
X184999832Y-123735259D01*
X184999832Y-123735259D02*
X184903930Y-123831409D01*
X177292000Y-131953000D02*
X177299178Y-132019957D01*
X177299178Y-132019957D02*
X177307929Y-132086744D01*
X177307929Y-132086744D02*
X177318287Y-132153290D01*
X177318287Y-132153290D02*
X177330285Y-132219527D01*
X177330285Y-132219527D02*
X177343960Y-132285386D01*
X177343960Y-132285386D02*
X177359343Y-132350799D01*
X177359343Y-132350799D02*
X177376470Y-132415696D01*
X177376470Y-132415696D02*
X177395375Y-132480008D01*
X177395375Y-132480008D02*
X177416093Y-132543667D01*
X177416093Y-132543667D02*
X177438656Y-132606604D01*
X177438656Y-132606604D02*
X177454742Y-132648127D01*
X159339729Y-113974530D02*
X159386975Y-114088298D01*
X159386975Y-114088298D02*
X159435481Y-114201547D01*
X159435481Y-114201547D02*
X159485215Y-114314283D01*
X159485215Y-114314283D02*
X159536151Y-114426511D01*
X159536151Y-114426511D02*
X159588258Y-114538238D01*
X159588258Y-114538238D02*
X159641508Y-114649469D01*
X159641508Y-114649469D02*
X159695873Y-114760211D01*
X159695873Y-114760211D02*
X159751322Y-114870468D01*
X159751322Y-114870468D02*
X159807828Y-114980248D01*
X159807828Y-114980248D02*
X159865362Y-115089556D01*
X159865362Y-115089556D02*
X159923894Y-115198398D01*
X159923894Y-115198398D02*
X159983396Y-115306780D01*
X159983396Y-115306780D02*
X160043838Y-115414708D01*
X160043838Y-115414708D02*
X160105193Y-115522188D01*
X160105193Y-115522188D02*
X160167431Y-115629226D01*
X160167431Y-115629226D02*
X160230524Y-115735827D01*
X160230524Y-115735827D02*
X160294442Y-115841998D01*
X160294442Y-115841998D02*
X160359156Y-115947744D01*
X160359156Y-115947744D02*
X160424638Y-116053072D01*
X160424638Y-116053072D02*
X160490859Y-116157988D01*
X160490859Y-116157988D02*
X160557791Y-116262496D01*
X160557791Y-116262496D02*
X160625403Y-116366604D01*
X160625403Y-116366604D02*
X160693668Y-116470317D01*
X160693668Y-116470317D02*
X160762556Y-116573642D01*
X160762556Y-116573642D02*
X160832038Y-116676583D01*
X160832038Y-116676583D02*
X160902087Y-116779147D01*
X160902087Y-116779147D02*
X160972672Y-116881340D01*
X160972672Y-116881340D02*
X161043765Y-116983168D01*
X161043765Y-116983168D02*
X161115337Y-117084637D01*
X161115337Y-117084637D02*
X161187360Y-117185753D01*
X161187360Y-117185753D02*
X161259804Y-117286521D01*
X161259804Y-117286521D02*
X161332641Y-117386948D01*
X100481135Y-125447188D02*
X100100404Y-125359837D01*
X100100404Y-125359837D02*
X99719546Y-125273062D01*
X99719546Y-125273062D02*
X99338563Y-125186848D01*
X99338563Y-125186848D02*
X98957458Y-125101184D01*
X98957458Y-125101184D02*
X98576234Y-125016059D01*
X98576234Y-125016059D02*
X98194894Y-124931460D01*
X98194894Y-124931460D02*
X97813440Y-124847376D01*
X97813440Y-124847376D02*
X97431877Y-124763793D01*
X97431877Y-124763793D02*
X97050206Y-124680701D01*
X97050206Y-124680701D02*
X96668431Y-124598088D01*
X96668431Y-124598088D02*
X96286554Y-124515941D01*
X96286554Y-124515941D02*
X95904578Y-124434248D01*
X95904578Y-124434248D02*
X95522507Y-124352998D01*
X95522507Y-124352998D02*
X95140343Y-124272179D01*
X95140343Y-124272179D02*
X94758089Y-124191778D01*
X94758089Y-124191778D02*
X94375749Y-124111784D01*
X94375749Y-124111784D02*
X93993324Y-124032185D01*
X93993324Y-124032185D02*
X93610818Y-123952968D01*
X93610818Y-123952968D02*
X93228234Y-123874122D01*
X93228234Y-123874122D02*
X92845574Y-123795635D01*
X92845574Y-123795635D02*
X92462842Y-123717494D01*
X92462842Y-123717494D02*
X92080041Y-123639689D01*
X92080041Y-123639689D02*
X91697173Y-123562206D01*
X91697173Y-123562206D02*
X91314242Y-123485035D01*
X91314242Y-123485035D02*
X90931249Y-123408162D01*
X90931249Y-123408162D02*
X90548199Y-123331577D01*
X90548199Y-123331577D02*
X90165094Y-123255266D01*
X90165094Y-123255266D02*
X89781937Y-123179219D01*
X89781937Y-123179219D02*
X89398731Y-123103422D01*
X89398731Y-123103422D02*
X89015479Y-123027865D01*
X89015479Y-123027865D02*
X88632183Y-122952535D01*
X88632183Y-122952535D02*
X88248848Y-122877421D01*
X167068121Y-123921401D02*
X167158273Y-124011447D01*
X167158273Y-124011447D02*
X167248589Y-124101327D01*
X167248589Y-124101327D02*
X167339069Y-124191039D01*
X167339069Y-124191039D02*
X167429717Y-124280581D01*
X167429717Y-124280581D02*
X167520532Y-124369950D01*
X167520532Y-124369950D02*
X167611515Y-124459146D01*
X167611515Y-124459146D02*
X167702669Y-124548165D01*
X167702669Y-124548165D02*
X167793994Y-124637006D01*
X167793994Y-124637006D02*
X167885491Y-124725667D01*
X167885491Y-124725667D02*
X167977162Y-124814146D01*
X167977162Y-124814146D02*
X168069008Y-124902440D01*
X168069008Y-124902440D02*
X168161030Y-124990548D01*
X168161030Y-124990548D02*
X168253230Y-125078468D01*
X168253230Y-125078468D02*
X168345608Y-125166197D01*
X168345608Y-125166197D02*
X168438166Y-125253734D01*
X168438166Y-125253734D02*
X168530906Y-125341076D01*
X168530906Y-125341076D02*
X168623828Y-125428222D01*
X168623828Y-125428222D02*
X168716933Y-125515169D01*
X168716933Y-125515169D02*
X168810223Y-125601916D01*
X168810223Y-125601916D02*
X168903699Y-125688460D01*
X168903699Y-125688460D02*
X168997363Y-125774800D01*
X168997363Y-125774800D02*
X169091215Y-125860932D01*
X169091215Y-125860932D02*
X169185257Y-125946857D01*
X169185257Y-125946857D02*
X169279491Y-126032570D01*
X169279491Y-126032570D02*
X169373916Y-126118071D01*
X169373916Y-126118071D02*
X169468535Y-126203357D01*
X169468535Y-126203357D02*
X169563348Y-126288426D01*
X169563348Y-126288426D02*
X169658358Y-126373276D01*
X169658358Y-126373276D02*
X169753565Y-126457906D01*
X169753565Y-126457906D02*
X169848970Y-126542312D01*
X169848970Y-126542312D02*
X169944575Y-126626494D01*
X169944575Y-126626494D02*
X170040382Y-126710449D01*
X173547558Y-129535101D02*
X173599509Y-129578786D01*
X173599509Y-129578786D02*
X173651314Y-129622606D01*
X173651314Y-129622606D02*
X173702826Y-129666692D01*
X173702826Y-129666692D02*
X173753899Y-129711179D01*
X173753899Y-129711179D02*
X173804387Y-129756201D01*
X173804387Y-129756201D02*
X173854142Y-129801891D01*
X173854142Y-129801891D02*
X173903019Y-129848382D01*
X173903019Y-129848382D02*
X173950872Y-129895808D01*
X173950872Y-129895808D02*
X173997553Y-129944303D01*
X173997553Y-129944303D02*
X174042916Y-129994000D01*
X174042916Y-129994000D02*
X174072355Y-130027866D01*
X172513907Y-128746519D02*
X172578162Y-128796262D01*
X172578162Y-128796262D02*
X172642485Y-128845916D01*
X172642485Y-128845916D02*
X172706871Y-128895489D01*
X172706871Y-128895489D02*
X172771315Y-128944984D01*
X172771315Y-128944984D02*
X172835812Y-128994409D01*
X172835812Y-128994409D02*
X172900359Y-129043769D01*
X172900359Y-129043769D02*
X172964951Y-129093070D01*
X172964951Y-129093070D02*
X173029584Y-129142319D01*
X173029584Y-129142319D02*
X173094252Y-129191519D01*
X173094252Y-129191519D02*
X173158952Y-129240679D01*
X173158952Y-129240679D02*
X173223678Y-129289803D01*
X173223678Y-129289803D02*
X173288427Y-129338898D01*
X173288427Y-129338898D02*
X173353194Y-129387969D01*
X173353194Y-129387969D02*
X173417974Y-129437023D01*
X173417974Y-129437023D02*
X173482764Y-129486065D01*
X173482764Y-129486065D02*
X173547558Y-129535101D01*
X174517309Y-132738119D02*
X174491405Y-132800234D01*
X174491405Y-132800234D02*
X174463748Y-132861579D01*
X174463748Y-132861579D02*
X174434519Y-132922232D01*
X174434519Y-132922232D02*
X174403899Y-132982274D01*
X174403899Y-132982274D02*
X174372069Y-133041783D01*
X174372069Y-133041783D02*
X174339211Y-133100841D01*
X174339211Y-133100841D02*
X174305507Y-133159527D01*
X174305507Y-133159527D02*
X174271137Y-133217920D01*
X174271137Y-133217920D02*
X174236283Y-133276100D01*
X174236283Y-133276100D02*
X174201127Y-133334148D01*
X174201127Y-133334148D02*
X174177612Y-133372812D01*
X56178756Y-117624938D02*
X56002708Y-117604791D01*
X56002708Y-117604791D02*
X55826645Y-117584776D01*
X55826645Y-117584776D02*
X55650568Y-117564893D01*
X55650568Y-117564893D02*
X55474475Y-117545140D01*
X55474475Y-117545140D02*
X55298369Y-117525517D01*
X55298369Y-117525517D02*
X55122248Y-117506022D01*
X55122248Y-117506022D02*
X54946112Y-117486654D01*
X54946112Y-117486654D02*
X54769963Y-117467413D01*
X54769963Y-117467413D02*
X54593800Y-117448298D01*
X54593800Y-117448298D02*
X54417624Y-117429307D01*
X54417624Y-117429307D02*
X54241434Y-117410440D01*
X54241434Y-117410440D02*
X54065231Y-117391696D01*
X54065231Y-117391696D02*
X53889015Y-117373074D01*
X53889015Y-117373074D02*
X53712786Y-117354572D01*
X53712786Y-117354572D02*
X53536545Y-117336191D01*
X53536545Y-117336191D02*
X53360291Y-117317929D01*
X53360291Y-117317929D02*
X53184025Y-117299785D01*
X53184025Y-117299785D02*
X53007747Y-117281758D01*
X53007747Y-117281758D02*
X52831457Y-117263847D01*
X52831457Y-117263847D02*
X52655156Y-117246052D01*
X52655156Y-117246052D02*
X52478842Y-117228371D01*
X52478842Y-117228371D02*
X52302518Y-117210803D01*
X52302518Y-117210803D02*
X52126183Y-117193348D01*
X52126183Y-117193348D02*
X51949837Y-117176005D01*
X51949837Y-117176005D02*
X51773480Y-117158772D01*
X51773480Y-117158772D02*
X51597112Y-117141649D01*
X51597112Y-117141649D02*
X51420734Y-117124635D01*
X51420734Y-117124635D02*
X51244347Y-117107728D01*
X51244347Y-117107728D02*
X51067949Y-117090928D01*
X51067949Y-117090928D02*
X50891541Y-117074235D01*
X50891541Y-117074235D02*
X50715124Y-117057646D01*
X50715124Y-117057646D02*
X50538698Y-117041162D01*
X50538698Y-117041162D02*
X50377044Y-117026148D01*
X50377044Y-117026148D02*
X50215383Y-117011219D01*
X50215383Y-117011219D02*
X50053714Y-116996370D01*
X50053714Y-116996370D02*
X49892039Y-116981601D01*
X49892039Y-116981601D02*
X49730357Y-116966907D01*
X49730357Y-116966907D02*
X49568668Y-116952286D01*
X49568668Y-116952286D02*
X49406973Y-116937735D01*
X49406973Y-116937735D02*
X49245272Y-116923252D01*
X49245272Y-116923252D02*
X49083566Y-116908834D01*
X49083566Y-116908834D02*
X48921853Y-116894478D01*
X48921853Y-116894478D02*
X48760136Y-116880182D01*
X48760136Y-116880182D02*
X48598414Y-116865942D01*
X48598414Y-116865942D02*
X48436686Y-116851757D01*
X48436686Y-116851757D02*
X48274954Y-116837623D01*
X48274954Y-116837623D02*
X48113218Y-116823538D01*
X48113218Y-116823538D02*
X47951478Y-116809499D01*
X47951478Y-116809499D02*
X47789734Y-116795503D01*
X47789734Y-116795503D02*
X47627986Y-116781547D01*
X47627986Y-116781547D02*
X47466235Y-116767630D01*
X47466235Y-116767630D02*
X47304480Y-116753748D01*
X47304480Y-116753748D02*
X47142723Y-116739898D01*
X47142723Y-116739898D02*
X46980963Y-116726078D01*
X46980963Y-116726078D02*
X46819201Y-116712285D01*
X46819201Y-116712285D02*
X46657437Y-116698516D01*
X46657437Y-116698516D02*
X46495670Y-116684769D01*
X46495670Y-116684769D02*
X46333902Y-116671041D01*
X46333902Y-116671041D02*
X46172133Y-116657329D01*
X46172133Y-116657329D02*
X46010362Y-116643631D01*
X46010362Y-116643631D02*
X45848591Y-116629943D01*
X45848591Y-116629943D02*
X45686818Y-116616264D01*
X45686818Y-116616264D02*
X45525046Y-116602590D01*
X45525046Y-116602590D02*
X45363273Y-116588919D01*
X45310385Y-34235634D02*
X45640698Y-34147051D01*
X45640698Y-34147051D02*
X45971122Y-34058838D01*
X45971122Y-34058838D02*
X46301658Y-33971005D01*
X46301658Y-33971005D02*
X46632307Y-33883561D01*
X46632307Y-33883561D02*
X46963070Y-33796515D01*
X46963070Y-33796515D02*
X47293947Y-33709875D01*
X47293947Y-33709875D02*
X47624940Y-33623652D01*
X47624940Y-33623652D02*
X47956050Y-33537855D01*
X47956050Y-33537855D02*
X48287277Y-33452492D01*
X48287277Y-33452492D02*
X48618623Y-33367573D01*
X48618623Y-33367573D02*
X48950088Y-33283107D01*
X48950088Y-33283107D02*
X49281674Y-33199103D01*
X49281674Y-33199103D02*
X49613382Y-33115570D01*
X49613382Y-33115570D02*
X49945212Y-33032518D01*
X49945212Y-33032518D02*
X50277166Y-32949956D01*
X50277166Y-32949956D02*
X50609244Y-32867893D01*
X50609244Y-32867893D02*
X50941448Y-32786337D01*
X50941448Y-32786337D02*
X51273778Y-32705299D01*
X51273778Y-32705299D02*
X51606235Y-32624788D01*
X51606235Y-32624788D02*
X51938821Y-32544812D01*
X51938821Y-32544812D02*
X52271537Y-32465380D01*
X52271537Y-32465380D02*
X52604382Y-32386503D01*
X52604382Y-32386503D02*
X52937359Y-32308189D01*
X52937359Y-32308189D02*
X53270468Y-32230447D01*
X53270468Y-32230447D02*
X53603711Y-32153287D01*
X53603711Y-32153287D02*
X53937088Y-32076717D01*
X53937088Y-32076717D02*
X54270600Y-32000748D01*
X54270600Y-32000748D02*
X54604248Y-31925387D01*
X54604248Y-31925387D02*
X54938033Y-31850645D01*
X54938033Y-31850645D02*
X55271957Y-31776530D01*
X55271957Y-31776530D02*
X55606020Y-31703051D01*
X55606020Y-31703051D02*
X55940223Y-31630219D01*
X45363273Y-116588919D02*
X29420000Y-116542000D01*
X174177612Y-133372812D02*
X163023916Y-148492845D01*
X65123426Y-29879008D02*
X65423789Y-29829254D01*
X65423789Y-29829254D02*
X65724223Y-29779933D01*
X65724223Y-29779933D02*
X66024726Y-29731046D01*
X66024726Y-29731046D02*
X66325299Y-29682597D01*
X66325299Y-29682597D02*
X66625941Y-29634588D01*
X66625941Y-29634588D02*
X66926652Y-29587020D01*
X66926652Y-29587020D02*
X67227432Y-29539897D01*
X67227432Y-29539897D02*
X67528282Y-29493221D01*
X67528282Y-29493221D02*
X67829200Y-29446994D01*
X67829200Y-29446994D02*
X68130186Y-29401219D01*
X68130186Y-29401219D02*
X68431242Y-29355897D01*
X68431242Y-29355897D02*
X68732365Y-29311032D01*
X68732365Y-29311032D02*
X69033557Y-29266626D01*
X69033557Y-29266626D02*
X69334817Y-29222682D01*
X69334817Y-29222682D02*
X69636144Y-29179201D01*
X69636144Y-29179201D02*
X69937540Y-29136186D01*
X69937540Y-29136186D02*
X70239003Y-29093639D01*
X70239003Y-29093639D02*
X70540534Y-29051563D01*
X70540534Y-29051563D02*
X70842132Y-29009961D01*
X70842132Y-29009961D02*
X71143797Y-28968834D01*
X71143797Y-28968834D02*
X71445529Y-28928185D01*
X71445529Y-28928185D02*
X71747329Y-28888017D01*
X71747329Y-28888017D02*
X72049195Y-28848332D01*
X72049195Y-28848332D02*
X72351128Y-28809132D01*
X72351128Y-28809132D02*
X72653127Y-28770420D01*
X72653127Y-28770420D02*
X72955193Y-28732198D01*
X72955193Y-28732198D02*
X73257324Y-28694468D01*
X73257324Y-28694468D02*
X73559522Y-28657233D01*
X73559522Y-28657233D02*
X73861786Y-28620496D01*
X73861786Y-28620496D02*
X74164116Y-28584258D01*
X74164116Y-28584258D02*
X74466512Y-28548523D01*
X74466512Y-28548523D02*
X74768973Y-28513292D01*
X161332641Y-117386948D02*
X161413351Y-117497256D01*
X161413351Y-117497256D02*
X161494495Y-117607165D01*
X161494495Y-117607165D02*
X161576064Y-117716682D01*
X161576064Y-117716682D02*
X161658051Y-117825816D01*
X161658051Y-117825816D02*
X161740447Y-117934576D01*
X161740447Y-117934576D02*
X161823243Y-118042968D01*
X161823243Y-118042968D02*
X161906432Y-118151002D01*
X161906432Y-118151002D02*
X161990006Y-118258685D01*
X161990006Y-118258685D02*
X162073956Y-118366026D01*
X162073956Y-118366026D02*
X162158274Y-118473033D01*
X162158274Y-118473033D02*
X162242952Y-118579713D01*
X162242952Y-118579713D02*
X162327981Y-118686076D01*
X162327981Y-118686076D02*
X162413354Y-118792129D01*
X162413354Y-118792129D02*
X162499062Y-118897881D01*
X162499062Y-118897881D02*
X162585097Y-119003339D01*
X162585097Y-119003339D02*
X162671451Y-119108512D01*
X162671451Y-119108512D02*
X162758116Y-119213408D01*
X162758116Y-119213408D02*
X162845083Y-119318035D01*
X162845083Y-119318035D02*
X162932344Y-119422401D01*
X162932344Y-119422401D02*
X163019892Y-119526515D01*
X163019892Y-119526515D02*
X163107717Y-119630384D01*
X163107717Y-119630384D02*
X163195812Y-119734017D01*
X163195812Y-119734017D02*
X163284168Y-119837422D01*
X163284168Y-119837422D02*
X163372778Y-119940607D01*
X163372778Y-119940607D02*
X163461632Y-120043580D01*
X163461632Y-120043580D02*
X163550723Y-120146349D01*
X163550723Y-120146349D02*
X163640043Y-120248924D01*
X163640043Y-120248924D02*
X163729584Y-120351311D01*
X163729584Y-120351311D02*
X163819336Y-120453518D01*
X163819336Y-120453518D02*
X163909293Y-120555555D01*
X163909293Y-120555555D02*
X163999445Y-120657429D01*
X163999445Y-120657429D02*
X164089786Y-120759149D01*
X158013400Y-104648000D02*
X158014479Y-104701659D01*
X158014479Y-104701659D02*
X158015516Y-104755214D01*
X158015516Y-104755214D02*
X158016513Y-104808669D01*
X158016513Y-104808669D02*
X158017475Y-104862025D01*
X158017475Y-104862025D02*
X158018405Y-104915287D01*
X158018405Y-104915287D02*
X158019307Y-104968458D01*
X158019307Y-104968458D02*
X158020185Y-105021540D01*
X158020185Y-105021540D02*
X158021043Y-105074537D01*
X158021043Y-105074537D02*
X158021885Y-105127453D01*
X158021885Y-105127453D02*
X158022714Y-105180290D01*
X158022714Y-105180290D02*
X158023534Y-105233052D01*
X158023534Y-105233052D02*
X158024349Y-105285742D01*
X158024349Y-105285742D02*
X158025162Y-105338363D01*
X158025162Y-105338363D02*
X158025979Y-105390918D01*
X158025979Y-105390918D02*
X158026802Y-105443411D01*
X158026802Y-105443411D02*
X158027635Y-105495845D01*
X158027635Y-105495845D02*
X158028482Y-105548223D01*
X158028482Y-105548223D02*
X158029347Y-105600548D01*
X158029347Y-105600548D02*
X158030233Y-105652824D01*
X158030233Y-105652824D02*
X158031146Y-105705053D01*
X158031146Y-105705053D02*
X158032087Y-105757239D01*
X158032087Y-105757239D02*
X158033062Y-105809385D01*
X158033062Y-105809385D02*
X158034073Y-105861495D01*
X158034073Y-105861495D02*
X158035125Y-105913571D01*
X158035125Y-105913571D02*
X158036222Y-105965617D01*
X158036222Y-105965617D02*
X158037367Y-106017635D01*
X158037367Y-106017635D02*
X158038565Y-106069631D01*
X158038565Y-106069631D02*
X158039818Y-106121605D01*
X158039818Y-106121605D02*
X158041131Y-106173562D01*
X158041131Y-106173562D02*
X158042508Y-106225505D01*
X158042508Y-106225505D02*
X158043952Y-106277437D01*
X158043952Y-106277437D02*
X158045468Y-106329362D01*
X28671428Y-38693920D02*
X28839760Y-38630131D01*
X28839760Y-38630131D02*
X29008583Y-38568008D01*
X29008583Y-38568008D02*
X29177879Y-38507488D01*
X29177879Y-38507488D02*
X29347630Y-38448508D01*
X29347630Y-38448508D02*
X29517817Y-38391007D01*
X29517817Y-38391007D02*
X29688421Y-38334921D01*
X29688421Y-38334921D02*
X29859425Y-38280190D01*
X29859425Y-38280190D02*
X30030809Y-38226750D01*
X30030809Y-38226750D02*
X30202556Y-38174538D01*
X30202556Y-38174538D02*
X30374647Y-38123494D01*
X30374647Y-38123494D02*
X30547062Y-38073554D01*
X30547062Y-38073554D02*
X30719785Y-38024657D01*
X30719785Y-38024657D02*
X30892797Y-37976739D01*
X30892797Y-37976739D02*
X31066078Y-37929739D01*
X31066078Y-37929739D02*
X31239611Y-37883594D01*
X31239611Y-37883594D02*
X31413377Y-37838242D01*
X31413377Y-37838242D02*
X31587358Y-37793620D01*
X31587358Y-37793620D02*
X31761536Y-37749667D01*
X31761536Y-37749667D02*
X31935891Y-37706320D01*
X31935891Y-37706320D02*
X32110406Y-37663517D01*
X32110406Y-37663517D02*
X32285061Y-37621195D01*
X32285061Y-37621195D02*
X32459839Y-37579293D01*
X32459839Y-37579293D02*
X32634722Y-37537747D01*
X32634722Y-37537747D02*
X32809690Y-37496495D01*
X32809690Y-37496495D02*
X32984725Y-37455476D01*
X32984725Y-37455476D02*
X33159809Y-37414627D01*
X33159809Y-37414627D02*
X33334924Y-37373885D01*
X33334924Y-37373885D02*
X33510050Y-37333189D01*
X33510050Y-37333189D02*
X33685170Y-37292475D01*
X33685170Y-37292475D02*
X33860265Y-37251682D01*
X33860265Y-37251682D02*
X34035317Y-37210748D01*
X34035317Y-37210748D02*
X34210307Y-37169610D01*
X170040382Y-126710449D02*
X170115828Y-126776278D01*
X170115828Y-126776278D02*
X170191399Y-126841965D01*
X170191399Y-126841965D02*
X170267094Y-126907511D01*
X170267094Y-126907511D02*
X170342913Y-126972915D01*
X170342913Y-126972915D02*
X170418854Y-127038178D01*
X170418854Y-127038178D02*
X170494918Y-127103299D01*
X170494918Y-127103299D02*
X170571103Y-127168278D01*
X170571103Y-127168278D02*
X170647410Y-127233115D01*
X170647410Y-127233115D02*
X170723838Y-127297811D01*
X170723838Y-127297811D02*
X170800386Y-127362364D01*
X170800386Y-127362364D02*
X170877055Y-127426776D01*
X170877055Y-127426776D02*
X170953842Y-127491045D01*
X170953842Y-127491045D02*
X171030749Y-127555172D01*
X171030749Y-127555172D02*
X171107774Y-127619157D01*
X171107774Y-127619157D02*
X171184917Y-127683000D01*
X171184917Y-127683000D02*
X171262177Y-127746701D01*
X171262177Y-127746701D02*
X171339555Y-127810259D01*
X171339555Y-127810259D02*
X171417048Y-127873675D01*
X171417048Y-127873675D02*
X171494658Y-127936949D01*
X171494658Y-127936949D02*
X171572383Y-128000080D01*
X171572383Y-128000080D02*
X171650223Y-128063068D01*
X171650223Y-128063068D02*
X171728178Y-128125914D01*
X171728178Y-128125914D02*
X171806246Y-128188617D01*
X171806246Y-128188617D02*
X171884428Y-128251178D01*
X171884428Y-128251178D02*
X171962723Y-128313596D01*
X171962723Y-128313596D02*
X172041130Y-128375871D01*
X172041130Y-128375871D02*
X172119649Y-128438003D01*
X172119649Y-128438003D02*
X172198280Y-128499992D01*
X172198280Y-128499992D02*
X172277021Y-128561838D01*
X172277021Y-128561838D02*
X172355873Y-128623541D01*
X172355873Y-128623541D02*
X172434835Y-128685102D01*
X172434835Y-128685102D02*
X172513907Y-128746519D01*
X74989446Y-120419872D02*
X74583399Y-120349289D01*
X74583399Y-120349289D02*
X74177298Y-120279004D01*
X74177298Y-120279004D02*
X73771142Y-120209026D01*
X73771142Y-120209026D02*
X73364929Y-120139367D01*
X73364929Y-120139367D02*
X72958659Y-120070036D01*
X72958659Y-120070036D02*
X72552330Y-120001042D01*
X72552330Y-120001042D02*
X72145942Y-119932396D01*
X72145942Y-119932396D02*
X71739493Y-119864109D01*
X71739493Y-119864109D02*
X71332983Y-119796188D01*
X71332983Y-119796188D02*
X70926411Y-119728646D01*
X70926411Y-119728646D02*
X70519775Y-119661491D01*
X70519775Y-119661491D02*
X70113075Y-119594735D01*
X70113075Y-119594735D02*
X69706309Y-119528386D01*
X69706309Y-119528386D02*
X69299477Y-119462454D01*
X69299477Y-119462454D02*
X68892578Y-119396950D01*
X68892578Y-119396950D02*
X68485610Y-119331885D01*
X68485610Y-119331885D02*
X68078573Y-119267266D01*
X68078573Y-119267266D02*
X67671466Y-119203105D01*
X67671466Y-119203105D02*
X67264287Y-119139412D01*
X67264287Y-119139412D02*
X66857036Y-119076197D01*
X66857036Y-119076197D02*
X66449711Y-119013469D01*
X66449711Y-119013469D02*
X66042312Y-118951239D01*
X66042312Y-118951239D02*
X65634838Y-118889516D01*
X65634838Y-118889516D02*
X65227287Y-118828311D01*
X65227287Y-118828311D02*
X64819659Y-118767634D01*
X64819659Y-118767634D02*
X64411953Y-118707494D01*
X64411953Y-118707494D02*
X64004167Y-118647901D01*
X64004167Y-118647901D02*
X63596301Y-118588866D01*
X63596301Y-118588866D02*
X63188354Y-118530398D01*
X63188354Y-118530398D02*
X62780324Y-118472508D01*
X62780324Y-118472508D02*
X62372211Y-118415206D01*
X62372211Y-118415206D02*
X61964014Y-118358501D01*
X26670000Y-113792000D02*
X26585086Y-41470540D01*
X157215954Y-39575323D02*
X157264739Y-39621517D01*
X157264739Y-39621517D02*
X157311741Y-39669627D01*
X157311741Y-39669627D02*
X157357026Y-39719516D01*
X157357026Y-39719516D02*
X157400657Y-39771048D01*
X157400657Y-39771048D02*
X157442698Y-39824089D01*
X157442698Y-39824089D02*
X157483213Y-39878502D01*
X157483213Y-39878502D02*
X157522266Y-39934153D01*
X157522266Y-39934153D02*
X157559921Y-39990905D01*
X157559921Y-39990905D02*
X157596242Y-40048623D01*
X157596242Y-40048623D02*
X157631294Y-40107171D01*
X157631294Y-40107171D02*
X157653988Y-40146598D01*
X27390542Y-39525996D02*
X27435073Y-39482178D01*
X27435073Y-39482178D02*
X27480379Y-39439192D01*
X27480379Y-39439192D02*
X27526412Y-39396992D01*
X27526412Y-39396992D02*
X27573127Y-39355530D01*
X27573127Y-39355530D02*
X27620478Y-39314760D01*
X27620478Y-39314760D02*
X27668418Y-39274635D01*
X27668418Y-39274635D02*
X27716903Y-39235107D01*
X27716903Y-39235107D02*
X27765887Y-39196131D01*
X156482603Y-39137289D02*
X156532158Y-39158479D01*
X156532158Y-39158479D02*
X156581515Y-39180287D01*
X156581515Y-39180287D02*
X156630610Y-39202758D01*
X156630610Y-39202758D02*
X156679379Y-39225935D01*
X156679379Y-39225935D02*
X156727757Y-39249863D01*
X156727757Y-39249863D02*
X156775683Y-39274587D01*
X156775683Y-39274587D02*
X156823091Y-39300150D01*
X156823091Y-39300150D02*
X156869917Y-39326598D01*
X156869917Y-39326598D02*
X156916099Y-39353973D01*
X156916099Y-39353973D02*
X156961572Y-39382322D01*
X156961572Y-39382322D02*
X157006272Y-39411687D01*
X157006272Y-39411687D02*
X157050136Y-39442114D01*
X157050136Y-39442114D02*
X157093100Y-39473647D01*
X157093100Y-39473647D02*
X157135100Y-39506329D01*
X157135100Y-39506329D02*
X157176073Y-39540207D01*
X157176073Y-39540207D02*
X157215954Y-39575323D01*
X28046731Y-116174576D02*
X27988488Y-116139743D01*
X27988488Y-116139743D02*
X27931110Y-116103590D01*
X27931110Y-116103590D02*
X27874631Y-116066128D01*
X27874631Y-116066128D02*
X27819090Y-116027365D01*
X27819090Y-116027365D02*
X27764523Y-115987315D01*
X27764523Y-115987315D02*
X27710965Y-115945986D01*
X27710965Y-115945986D02*
X27658454Y-115903391D01*
X27658454Y-115903391D02*
X27607026Y-115859539D01*
X27607026Y-115859539D02*
X27556717Y-115814442D01*
X27556717Y-115814442D02*
X27507565Y-115768110D01*
X27507565Y-115768110D02*
X27475457Y-115736542D01*
X74768973Y-28513292D02*
X75030959Y-28483192D01*
X75030959Y-28483192D02*
X75292995Y-28453479D01*
X75292995Y-28453479D02*
X75555078Y-28424162D01*
X75555078Y-28424162D02*
X75817208Y-28395248D01*
X75817208Y-28395248D02*
X76079385Y-28366744D01*
X76079385Y-28366744D02*
X76341608Y-28338659D01*
X76341608Y-28338659D02*
X76603876Y-28310998D01*
X76603876Y-28310998D02*
X76866188Y-28283770D01*
X76866188Y-28283770D02*
X77128545Y-28256983D01*
X77128545Y-28256983D02*
X77390945Y-28230644D01*
X77390945Y-28230644D02*
X77653388Y-28204760D01*
X77653388Y-28204760D02*
X77915874Y-28179340D01*
X77915874Y-28179340D02*
X78178400Y-28154390D01*
X78178400Y-28154390D02*
X78440968Y-28129918D01*
X78440968Y-28129918D02*
X78703576Y-28105931D01*
X78703576Y-28105931D02*
X78966224Y-28082438D01*
X78966224Y-28082438D02*
X79228910Y-28059446D01*
X79228910Y-28059446D02*
X79491636Y-28036962D01*
X79491636Y-28036962D02*
X79754399Y-28014994D01*
X79754399Y-28014994D02*
X80017199Y-27993549D01*
X80017199Y-27993549D02*
X80280036Y-27972634D01*
X80280036Y-27972634D02*
X80542908Y-27952259D01*
X80542908Y-27952259D02*
X80805817Y-27932429D01*
X80805817Y-27932429D02*
X81068759Y-27913152D01*
X81068759Y-27913152D02*
X81331736Y-27894437D01*
X81331736Y-27894437D02*
X81594747Y-27876290D01*
X81594747Y-27876290D02*
X81857790Y-27858719D01*
X81857790Y-27858719D02*
X82120866Y-27841732D01*
X82120866Y-27841732D02*
X82383973Y-27825335D01*
X82383973Y-27825335D02*
X82647111Y-27809538D01*
X82647111Y-27809538D02*
X82910279Y-27794346D01*
X82910279Y-27794346D02*
X83173478Y-27779769D01*
X156527612Y-147030211D02*
X156290575Y-146868839D01*
X156290575Y-146868839D02*
X156052636Y-146708716D01*
X156052636Y-146708716D02*
X155813818Y-146549820D01*
X155813818Y-146549820D02*
X155574140Y-146392127D01*
X155574140Y-146392127D02*
X155333624Y-146235613D01*
X155333624Y-146235613D02*
X155092291Y-146080256D01*
X155092291Y-146080256D02*
X154850163Y-145926033D01*
X154850163Y-145926033D02*
X154607261Y-145772920D01*
X154607261Y-145772920D02*
X154363606Y-145620894D01*
X154363606Y-145620894D02*
X154119218Y-145469932D01*
X154119218Y-145469932D02*
X153874120Y-145320011D01*
X153874120Y-145320011D02*
X153628333Y-145171107D01*
X153628333Y-145171107D02*
X153381877Y-145023198D01*
X153381877Y-145023198D02*
X153134775Y-144876260D01*
X153134775Y-144876260D02*
X152887046Y-144730271D01*
X152887046Y-144730271D02*
X152638713Y-144585206D01*
X152638713Y-144585206D02*
X152389797Y-144441043D01*
X152389797Y-144441043D02*
X152140318Y-144297759D01*
X152140318Y-144297759D02*
X151890299Y-144155330D01*
X151890299Y-144155330D02*
X151639759Y-144013733D01*
X151639759Y-144013733D02*
X151388721Y-143872945D01*
X151388721Y-143872945D02*
X151137206Y-143732944D01*
X151137206Y-143732944D02*
X150885235Y-143593705D01*
X150885235Y-143593705D02*
X150632829Y-143455205D01*
X150632829Y-143455205D02*
X150380009Y-143317422D01*
X150380009Y-143317422D02*
X150126796Y-143180332D01*
X150126796Y-143180332D02*
X149873213Y-143043913D01*
X149873213Y-143043913D02*
X149619279Y-142908140D01*
X149619279Y-142908140D02*
X149365016Y-142772991D01*
X149365016Y-142772991D02*
X149110446Y-142638442D01*
X149110446Y-142638442D02*
X148855589Y-142504471D01*
X148855589Y-142504471D02*
X148600468Y-142371055D01*
X158362485Y-110060872D02*
X158380670Y-110186214D01*
X158380670Y-110186214D02*
X158399394Y-110311528D01*
X158399394Y-110311528D02*
X158418681Y-110436796D01*
X158418681Y-110436796D02*
X158438558Y-110562002D01*
X158438558Y-110562002D02*
X158459050Y-110687128D01*
X158459050Y-110687128D02*
X158480184Y-110812159D01*
X158480184Y-110812159D02*
X158501985Y-110937077D01*
X158501985Y-110937077D02*
X158524480Y-111061866D01*
X158524480Y-111061866D02*
X158547694Y-111186508D01*
X158547694Y-111186508D02*
X158571653Y-111310988D01*
X158571653Y-111310988D02*
X158596382Y-111435289D01*
X158596382Y-111435289D02*
X158621909Y-111559393D01*
X158621909Y-111559393D02*
X158648259Y-111683284D01*
X158648259Y-111683284D02*
X158675458Y-111806946D01*
X158675458Y-111806946D02*
X158703531Y-111930361D01*
X158703531Y-111930361D02*
X158732505Y-112053513D01*
X158732505Y-112053513D02*
X158762405Y-112176386D01*
X158762405Y-112176386D02*
X158793258Y-112298962D01*
X158793258Y-112298962D02*
X158825090Y-112421225D01*
X158825090Y-112421225D02*
X158857926Y-112543157D01*
X158857926Y-112543157D02*
X158891792Y-112664744D01*
X158891792Y-112664744D02*
X158926714Y-112785966D01*
X158926714Y-112785966D02*
X158962718Y-112906809D01*
X158962718Y-112906809D02*
X158999831Y-113027255D01*
X158999831Y-113027255D02*
X159038077Y-113147287D01*
X159038077Y-113147287D02*
X159077483Y-113266889D01*
X159077483Y-113266889D02*
X159118075Y-113386044D01*
X159118075Y-113386044D02*
X159159879Y-113504735D01*
X159159879Y-113504735D02*
X159202920Y-113622946D01*
X159202920Y-113622946D02*
X159247225Y-113740660D01*
X159247225Y-113740660D02*
X159292819Y-113857860D01*
X159292819Y-113857860D02*
X159339729Y-113974530D01*
X158008596Y-52779600D02*
X158013400Y-100634800D01*
X91773189Y-27569542D02*
X92093914Y-27568563D01*
X92093914Y-27568563D02*
X92414646Y-27567897D01*
X92414646Y-27567897D02*
X92735381Y-27567565D01*
X92735381Y-27567565D02*
X93056118Y-27567591D01*
X93056118Y-27567591D02*
X93376855Y-27567994D01*
X93376855Y-27567994D02*
X93697588Y-27568799D01*
X93697588Y-27568799D02*
X94018316Y-27570026D01*
X94018316Y-27570026D02*
X94339037Y-27571698D01*
X94339037Y-27571698D02*
X94659747Y-27573837D01*
X94659747Y-27573837D02*
X94980446Y-27576465D01*
X94980446Y-27576465D02*
X95301130Y-27579604D01*
X95301130Y-27579604D02*
X95621798Y-27583275D01*
X95621798Y-27583275D02*
X95942446Y-27587502D01*
X95942446Y-27587502D02*
X96263073Y-27592306D01*
X96263073Y-27592306D02*
X96583677Y-27597709D01*
X96583677Y-27597709D02*
X96904255Y-27603733D01*
X96904255Y-27603733D02*
X97224805Y-27610400D01*
X97224805Y-27610400D02*
X97545325Y-27617732D01*
X97545325Y-27617732D02*
X97865811Y-27625752D01*
X97865811Y-27625752D02*
X98186263Y-27634480D01*
X98186263Y-27634480D02*
X98506678Y-27643941D01*
X98506678Y-27643941D02*
X98827054Y-27654154D01*
X98827054Y-27654154D02*
X99147387Y-27665143D01*
X99147387Y-27665143D02*
X99467677Y-27676929D01*
X99467677Y-27676929D02*
X99787920Y-27689535D01*
X99787920Y-27689535D02*
X100108115Y-27702983D01*
X100108115Y-27702983D02*
X100428258Y-27717294D01*
X100428258Y-27717294D02*
X100748349Y-27732490D01*
X100748349Y-27732490D02*
X101068384Y-27748594D01*
X101068384Y-27748594D02*
X101388362Y-27765628D01*
X101388362Y-27765628D02*
X101708279Y-27783614D01*
X101708279Y-27783614D02*
X102028135Y-27802574D01*
X26676850Y-40754346D02*
X26693485Y-40689419D01*
X26693485Y-40689419D02*
X26712062Y-40624931D01*
X26712062Y-40624931D02*
X26732534Y-40560935D01*
X26732534Y-40560935D02*
X26754856Y-40497484D01*
X26754856Y-40497484D02*
X26778983Y-40434629D01*
X26778983Y-40434629D02*
X26804869Y-40372424D01*
X26804869Y-40372424D02*
X26832470Y-40310920D01*
X26832470Y-40310920D02*
X26861739Y-40250171D01*
X26861739Y-40250171D02*
X26892633Y-40190229D01*
X26892633Y-40190229D02*
X26925104Y-40131146D01*
X26925104Y-40131146D02*
X26947607Y-40092262D01*
X160450456Y-149467198D02*
X160384086Y-149455861D01*
X160384086Y-149455861D02*
X160317987Y-149442964D01*
X160317987Y-149442964D02*
X160252228Y-149428479D01*
X160252228Y-149428479D02*
X160186879Y-149412375D01*
X160186879Y-149412375D02*
X160122008Y-149394625D01*
X160122008Y-149394625D02*
X160057685Y-149375200D01*
X160057685Y-149375200D02*
X159993980Y-149354070D01*
X159993980Y-149354070D02*
X159930960Y-149331207D01*
X159930960Y-149331207D02*
X159868697Y-149306582D01*
X159868697Y-149306582D02*
X159807259Y-149280166D01*
X159807259Y-149280166D02*
X159766793Y-149261547D01*
X159154452Y-148883040D02*
X159071849Y-148825062D01*
X159071849Y-148825062D02*
X158989350Y-148767018D01*
X158989350Y-148767018D02*
X158906946Y-148708914D01*
X158906946Y-148708914D02*
X158824631Y-148650757D01*
X158824631Y-148650757D02*
X158742397Y-148592556D01*
X158742397Y-148592556D02*
X158660238Y-148534316D01*
X158660238Y-148534316D02*
X158578148Y-148476046D01*
X158578148Y-148476046D02*
X158496118Y-148417751D01*
X158496118Y-148417751D02*
X158414142Y-148359440D01*
X158414142Y-148359440D02*
X158332213Y-148301120D01*
X158332213Y-148301120D02*
X158250324Y-148242798D01*
X158250324Y-148242798D02*
X158168469Y-148184480D01*
X158168469Y-148184480D02*
X158086639Y-148126175D01*
X158086639Y-148126175D02*
X158004829Y-148067889D01*
X158004829Y-148067889D02*
X157923031Y-148009629D01*
X157923031Y-148009629D02*
X157841238Y-147951403D01*
X157841238Y-147951403D02*
X157759444Y-147893218D01*
X157759444Y-147893218D02*
X157677641Y-147835081D01*
X157677641Y-147835081D02*
X157595823Y-147776999D01*
X157595823Y-147776999D02*
X157513982Y-147718979D01*
X157513982Y-147718979D02*
X157432112Y-147661028D01*
X157432112Y-147661028D02*
X157350205Y-147603155D01*
X157350205Y-147603155D02*
X157268255Y-147545365D01*
X157268255Y-147545365D02*
X157186255Y-147487666D01*
X157186255Y-147487666D02*
X157104198Y-147430065D01*
X157104198Y-147430065D02*
X157022076Y-147372570D01*
X157022076Y-147372570D02*
X156939884Y-147315187D01*
X156939884Y-147315187D02*
X156857613Y-147257924D01*
X156857613Y-147257924D02*
X156775258Y-147200787D01*
X156775258Y-147200787D02*
X156692810Y-147143785D01*
X156692810Y-147143785D02*
X156610264Y-147086923D01*
X156610264Y-147086923D02*
X156527612Y-147030211D01*
X88248848Y-122877421D02*
X87835232Y-122796611D01*
X87835232Y-122796611D02*
X87421573Y-122716041D01*
X87421573Y-122716041D02*
X87007869Y-122635711D01*
X87007869Y-122635711D02*
X86594121Y-122555623D01*
X86594121Y-122555623D02*
X86180328Y-122475781D01*
X86180328Y-122475781D02*
X85766489Y-122396185D01*
X85766489Y-122396185D02*
X85352604Y-122316837D01*
X85352604Y-122316837D02*
X84938673Y-122237741D01*
X84938673Y-122237741D02*
X84524695Y-122158897D01*
X84524695Y-122158897D02*
X84110670Y-122080308D01*
X84110670Y-122080308D02*
X83696598Y-122001975D01*
X83696598Y-122001975D02*
X83282478Y-121923901D01*
X83282478Y-121923901D02*
X82868310Y-121846089D01*
X82868310Y-121846089D02*
X82454093Y-121768539D01*
X82454093Y-121768539D02*
X82039828Y-121691253D01*
X82039828Y-121691253D02*
X81625513Y-121614235D01*
X81625513Y-121614235D02*
X81211148Y-121537485D01*
X81211148Y-121537485D02*
X80796733Y-121461007D01*
X80796733Y-121461007D02*
X80382267Y-121384801D01*
X80382267Y-121384801D02*
X79967751Y-121308870D01*
X79967751Y-121308870D02*
X79553183Y-121233216D01*
X79553183Y-121233216D02*
X79138564Y-121157840D01*
X79138564Y-121157840D02*
X78723893Y-121082746D01*
X78723893Y-121082746D02*
X78309169Y-121007935D01*
X78309169Y-121007935D02*
X77894392Y-120933408D01*
X77894392Y-120933408D02*
X77479563Y-120859169D01*
X77479563Y-120859169D02*
X77064679Y-120785218D01*
X77064679Y-120785218D02*
X76649742Y-120711559D01*
X76649742Y-120711559D02*
X76234750Y-120638193D01*
X76234750Y-120638193D02*
X75819704Y-120565121D01*
X75819704Y-120565121D02*
X75404603Y-120492347D01*
X75404603Y-120492347D02*
X74989446Y-120419872D01*
X157927195Y-40806177D02*
X157942508Y-40871571D01*
X157942508Y-40871571D02*
X157955909Y-40937412D01*
X157955909Y-40937412D02*
X157967596Y-41003654D01*
X157967596Y-41003654D02*
X157977766Y-41070250D01*
X157977766Y-41070250D02*
X157986617Y-41137154D01*
X157986617Y-41137154D02*
X157994347Y-41204320D01*
X157994347Y-41204320D02*
X158001154Y-41271701D01*
X158001154Y-41271701D02*
X158007235Y-41339252D01*
X158007235Y-41339252D02*
X158012789Y-41406927D01*
X158012789Y-41406927D02*
X158018013Y-41474678D01*
X158018013Y-41474678D02*
X158021411Y-41519866D01*
X162499472Y-148985985D02*
X162445400Y-149025219D01*
X162445400Y-149025219D02*
X162390100Y-149062848D01*
X162390100Y-149062848D02*
X162333648Y-149098887D01*
X162333648Y-149098887D02*
X162276119Y-149133352D01*
X162276119Y-149133352D02*
X162217588Y-149166257D01*
X162217588Y-149166257D02*
X162158131Y-149197617D01*
X162158131Y-149197617D02*
X162097823Y-149227449D01*
X162097823Y-149227449D02*
X162036739Y-149255765D01*
X162036739Y-149255765D02*
X161974955Y-149282583D01*
X161974955Y-149282583D02*
X161912546Y-149307917D01*
X161912546Y-149307917D02*
X161870631Y-149323989D01*
X174680051Y-132042992D02*
X174672872Y-132109949D01*
X174672872Y-132109949D02*
X174664121Y-132176736D01*
X174664121Y-132176736D02*
X174653763Y-132243282D01*
X174653763Y-132243282D02*
X174641765Y-132309519D01*
X174641765Y-132309519D02*
X174628090Y-132375378D01*
X174628090Y-132375378D02*
X174612707Y-132440791D01*
X174612707Y-132440791D02*
X174595580Y-132505688D01*
X174595580Y-132505688D02*
X174576675Y-132570000D01*
X174576675Y-132570000D02*
X174555957Y-132633659D01*
X174555957Y-132633659D02*
X174533394Y-132696596D01*
X174533394Y-132696596D02*
X174517309Y-132738119D01*
X174657400Y-131323466D02*
X174667495Y-131390249D01*
X174667495Y-131390249D02*
X174675904Y-131457275D01*
X174675904Y-131457275D02*
X174682641Y-131524508D01*
X174682641Y-131524508D02*
X174687717Y-131591912D01*
X174687717Y-131591912D02*
X174691145Y-131659451D01*
X174691145Y-131659451D02*
X174692938Y-131727090D01*
X174692938Y-131727090D02*
X174693108Y-131794791D01*
X174693108Y-131794791D02*
X174691668Y-131862520D01*
X174691668Y-131862520D02*
X174688630Y-131930241D01*
X174688630Y-131930241D02*
X174684007Y-131997917D01*
X174684007Y-131997917D02*
X174680051Y-132042992D01*
X26585086Y-41470540D02*
X26590123Y-41402702D01*
X26590123Y-41402702D02*
X26595349Y-41334901D01*
X26595349Y-41334901D02*
X26600955Y-41267175D01*
X26600955Y-41267175D02*
X26607131Y-41199559D01*
X26607131Y-41199559D02*
X26614065Y-41132091D01*
X26614065Y-41132091D02*
X26621948Y-41064808D01*
X26621948Y-41064808D02*
X26630968Y-40997746D01*
X26630968Y-40997746D02*
X26641317Y-40930943D01*
X26641317Y-40930943D02*
X26653184Y-40864435D01*
X26653184Y-40864435D02*
X26666758Y-40798260D01*
X26666758Y-40798260D02*
X26676850Y-40754346D01*
X111374125Y-128218608D02*
X111035772Y-128124250D01*
X111035772Y-128124250D02*
X110697274Y-128030404D01*
X110697274Y-128030404D02*
X110358632Y-127937070D01*
X110358632Y-127937070D02*
X110019847Y-127844246D01*
X110019847Y-127844246D02*
X109680921Y-127751931D01*
X109680921Y-127751931D02*
X109341855Y-127660123D01*
X109341855Y-127660123D02*
X109002650Y-127568821D01*
X109002650Y-127568821D02*
X108663308Y-127478025D01*
X108663308Y-127478025D02*
X108323829Y-127387732D01*
X108323829Y-127387732D02*
X107984215Y-127297942D01*
X107984215Y-127297942D02*
X107644468Y-127208653D01*
X107644468Y-127208653D02*
X107304587Y-127119864D01*
X107304587Y-127119864D02*
X106964576Y-127031574D01*
X106964576Y-127031574D02*
X106624435Y-126943782D01*
X106624435Y-126943782D02*
X106284165Y-126856486D01*
X106284165Y-126856486D02*
X105943768Y-126769685D01*
X105943768Y-126769685D02*
X105603245Y-126683378D01*
X105603245Y-126683378D02*
X105262597Y-126597563D01*
X105262597Y-126597563D02*
X104921825Y-126512240D01*
X104921825Y-126512240D02*
X104580931Y-126427407D01*
X104580931Y-126427407D02*
X104239916Y-126343063D01*
X104239916Y-126343063D02*
X103898782Y-126259206D01*
X103898782Y-126259206D02*
X103557529Y-126175836D01*
X103557529Y-126175836D02*
X103216159Y-126092951D01*
X103216159Y-126092951D02*
X102874673Y-126010550D01*
X102874673Y-126010550D02*
X102533072Y-125928632D01*
X102533072Y-125928632D02*
X102191359Y-125847195D01*
X102191359Y-125847195D02*
X101849533Y-125766238D01*
X101849533Y-125766238D02*
X101507596Y-125685760D01*
X101507596Y-125685760D02*
X101165550Y-125605760D01*
X101165550Y-125605760D02*
X100823396Y-125526236D01*
X100823396Y-125526236D02*
X100481135Y-125447188D01*
X164089786Y-120759149D02*
X164180059Y-120860443D01*
X164180059Y-120860443D02*
X164270512Y-120961591D01*
X164270512Y-120961591D02*
X164361143Y-121062591D01*
X164361143Y-121062591D02*
X164451954Y-121163441D01*
X164451954Y-121163441D02*
X164542943Y-121264140D01*
X164542943Y-121264140D02*
X164634112Y-121364688D01*
X164634112Y-121364688D02*
X164725461Y-121465082D01*
X164725461Y-121465082D02*
X164816990Y-121565321D01*
X164816990Y-121565321D02*
X164908698Y-121665405D01*
X164908698Y-121665405D02*
X165000587Y-121765331D01*
X165000587Y-121765331D02*
X165092656Y-121865100D01*
X165092656Y-121865100D02*
X165184905Y-121964708D01*
X165184905Y-121964708D02*
X165277336Y-122064156D01*
X165277336Y-122064156D02*
X165369947Y-122163441D01*
X165369947Y-122163441D02*
X165462740Y-122262563D01*
X165462740Y-122262563D02*
X165555714Y-122361521D01*
X165555714Y-122361521D02*
X165648869Y-122460312D01*
X165648869Y-122460312D02*
X165742206Y-122558936D01*
X165742206Y-122558936D02*
X165835725Y-122657391D01*
X165835725Y-122657391D02*
X165929427Y-122755677D01*
X165929427Y-122755677D02*
X166023310Y-122853792D01*
X166023310Y-122853792D02*
X166117376Y-122951734D01*
X166117376Y-122951734D02*
X166211625Y-123049503D01*
X166211625Y-123049503D02*
X166306057Y-123147097D01*
X166306057Y-123147097D02*
X166400672Y-123244515D01*
X166400672Y-123244515D02*
X166495470Y-123341755D01*
X166495470Y-123341755D02*
X166590452Y-123438817D01*
X166590452Y-123438817D02*
X166685618Y-123535698D01*
X166685618Y-123535698D02*
X166780967Y-123632399D01*
X166780967Y-123632399D02*
X166876500Y-123728917D01*
X166876500Y-123728917D02*
X166972218Y-123825251D01*
X166972218Y-123825251D02*
X167068121Y-123921401D01*
X102028135Y-27802574D02*
X102348872Y-27822580D01*
X102348872Y-27822580D02*
X102669547Y-27843558D01*
X102669547Y-27843558D02*
X102990162Y-27865474D01*
X102990162Y-27865474D02*
X103310717Y-27888298D01*
X103310717Y-27888298D02*
X103631215Y-27911999D01*
X103631215Y-27911999D02*
X103951659Y-27936545D01*
X103951659Y-27936545D02*
X104272050Y-27961905D01*
X104272050Y-27961905D02*
X104592390Y-27988047D01*
X104592390Y-27988047D02*
X104912681Y-28014941D01*
X104912681Y-28014941D02*
X105232926Y-28042555D01*
X105232926Y-28042555D02*
X105553126Y-28070857D01*
X105553126Y-28070857D02*
X105873284Y-28099817D01*
X105873284Y-28099817D02*
X106193401Y-28129403D01*
X106193401Y-28129403D02*
X106513479Y-28159584D01*
X106513479Y-28159584D02*
X106833521Y-28190328D01*
X106833521Y-28190328D02*
X107153529Y-28221604D01*
X107153529Y-28221604D02*
X107473504Y-28253381D01*
X107473504Y-28253381D02*
X107793448Y-28285628D01*
X107793448Y-28285628D02*
X108113364Y-28318313D01*
X108113364Y-28318313D02*
X108433254Y-28351405D01*
X108433254Y-28351405D02*
X108753119Y-28384872D01*
X108753119Y-28384872D02*
X109072962Y-28418684D01*
X109072962Y-28418684D02*
X109392785Y-28452809D01*
X109392785Y-28452809D02*
X109712589Y-28487216D01*
X109712589Y-28487216D02*
X110032377Y-28521873D01*
X110032377Y-28521873D02*
X110352151Y-28556749D01*
X110352151Y-28556749D02*
X110671913Y-28591813D01*
X110671913Y-28591813D02*
X110991665Y-28627034D01*
X110991665Y-28627034D02*
X111311408Y-28662380D01*
X111311408Y-28662380D02*
X111631146Y-28697820D01*
X111631146Y-28697820D02*
X111950879Y-28733322D01*
X111950879Y-28733322D02*
X112270611Y-28768856D01*
X155660947Y-38864083D02*
X155713219Y-38877844D01*
X155713219Y-38877844D02*
X155765376Y-38891980D01*
X155765376Y-38891980D02*
X155817416Y-38906506D01*
X155817416Y-38906506D02*
X155869338Y-38921436D01*
X155869338Y-38921436D02*
X155921140Y-38936783D01*
X155921140Y-38936783D02*
X155972820Y-38952564D01*
X155972820Y-38952564D02*
X156024377Y-38968791D01*
X156024377Y-38968791D02*
X156075810Y-38985479D01*
X156075810Y-38985479D02*
X156127116Y-39002642D01*
X156127116Y-39002642D02*
X156178295Y-39020294D01*
X156178295Y-39020294D02*
X156229345Y-39038451D01*
X156229345Y-39038451D02*
X156280264Y-39057125D01*
X156280264Y-39057125D02*
X156331051Y-39076332D01*
X156331051Y-39076332D02*
X156381704Y-39096085D01*
X156381704Y-39096085D02*
X156432222Y-39116399D01*
X156432222Y-39116399D02*
X156482603Y-39137289D01*
X55940223Y-31630219D02*
X56225807Y-31568522D01*
X56225807Y-31568522D02*
X56511494Y-31507301D01*
X56511494Y-31507301D02*
X56797281Y-31446553D01*
X56797281Y-31446553D02*
X57083167Y-31386275D01*
X57083167Y-31386275D02*
X57369152Y-31326465D01*
X57369152Y-31326465D02*
X57655233Y-31267120D01*
X57655233Y-31267120D02*
X57941411Y-31208237D01*
X57941411Y-31208237D02*
X58227682Y-31149815D01*
X58227682Y-31149815D02*
X58514047Y-31091849D01*
X58514047Y-31091849D02*
X58800504Y-31034339D01*
X58800504Y-31034339D02*
X59087052Y-30977281D01*
X59087052Y-30977281D02*
X59373690Y-30920672D01*
X59373690Y-30920672D02*
X59660416Y-30864511D01*
X59660416Y-30864511D02*
X59947230Y-30808794D01*
X59947230Y-30808794D02*
X60234130Y-30753520D01*
X60234130Y-30753520D02*
X60521114Y-30698685D01*
X60521114Y-30698685D02*
X60808182Y-30644287D01*
X60808182Y-30644287D02*
X61095333Y-30590323D01*
X61095333Y-30590323D02*
X61382565Y-30536791D01*
X61382565Y-30536791D02*
X61669877Y-30483688D01*
X61669877Y-30483688D02*
X61957267Y-30431012D01*
X61957267Y-30431012D02*
X62244736Y-30378761D01*
X62244736Y-30378761D02*
X62532281Y-30326930D01*
X62532281Y-30326930D02*
X62819901Y-30275519D01*
X62819901Y-30275519D02*
X63107595Y-30224524D01*
X63107595Y-30224524D02*
X63395362Y-30173944D01*
X63395362Y-30173944D02*
X63683200Y-30123774D01*
X63683200Y-30123774D02*
X63971109Y-30074013D01*
X63971109Y-30074013D02*
X64259088Y-30024659D01*
X64259088Y-30024659D02*
X64547134Y-29975708D01*
X64547134Y-29975708D02*
X64835247Y-29927159D01*
X64835247Y-29927159D02*
X65123426Y-29879008D01*
X27037423Y-115165268D02*
X27004203Y-115106689D01*
X27004203Y-115106689D02*
X26972361Y-115047334D01*
X26972361Y-115047334D02*
X26941964Y-114987236D01*
X26941964Y-114987236D02*
X26913081Y-114926432D01*
X26913081Y-114926432D02*
X26885779Y-114864959D01*
X26885779Y-114864959D02*
X26860126Y-114802851D01*
X26860126Y-114802851D02*
X26836191Y-114740145D01*
X26836191Y-114740145D02*
X26814040Y-114676877D01*
X26814040Y-114676877D02*
X26793743Y-114613083D01*
X26793743Y-114613083D02*
X26775366Y-114548799D01*
X26775366Y-114548799D02*
X26764216Y-114505689D01*
X26764216Y-114505689D02*
X26749031Y-114440124D01*
X26749031Y-114440124D02*
X26735720Y-114374162D01*
X26735720Y-114374162D02*
X26724091Y-114307846D01*
X26724091Y-114307846D02*
X26713947Y-114241215D01*
X26713947Y-114241215D02*
X26705096Y-114174310D01*
X26705096Y-114174310D02*
X26697345Y-114107173D01*
X26697345Y-114107173D02*
X26690497Y-114039845D01*
X26690497Y-114039845D02*
X26684361Y-113972366D01*
X26684361Y-113972366D02*
X26678742Y-113904778D01*
X26678742Y-113904778D02*
X26673446Y-113837122D01*
X26673446Y-113837122D02*
X26670000Y-113792000D01*
X27765887Y-39196131D02*
X27816631Y-39156696D01*
X27816631Y-39156696D02*
X27867905Y-39117935D01*
X27867905Y-39117935D02*
X27919762Y-39079992D01*
X27919762Y-39079992D02*
X27972255Y-39043011D01*
X27972255Y-39043011D02*
X28025439Y-39007134D01*
X28025439Y-39007134D02*
X28079366Y-38972506D01*
X28079366Y-38972506D02*
X28134089Y-38939270D01*
X28134089Y-38939270D02*
X28189664Y-38907570D01*
X155271411Y-38769866D02*
X155320216Y-38781290D01*
X155320216Y-38781290D02*
X155369015Y-38792732D01*
X155369015Y-38792732D02*
X155417795Y-38804233D01*
X155417795Y-38804233D02*
X155466542Y-38815835D01*
X155466542Y-38815835D02*
X155515244Y-38827579D01*
X155515244Y-38827579D02*
X155563887Y-38839507D01*
X155563887Y-38839507D02*
X155612459Y-38851661D01*
X155612459Y-38851661D02*
X155660947Y-38864083D01*
X161169997Y-149489333D02*
X161102712Y-149495258D01*
X161102712Y-149495258D02*
X161035289Y-149499486D01*
X161035289Y-149499486D02*
X160967763Y-149502031D01*
X160967763Y-149502031D02*
X160900170Y-149502908D01*
X160900170Y-149502908D02*
X160832546Y-149502132D01*
X160832546Y-149502132D02*
X160764925Y-149499717D01*
X160764925Y-149499717D02*
X160697344Y-149495677D01*
X160697344Y-149495677D02*
X160629837Y-149490026D01*
X160629837Y-149490026D02*
X160562441Y-149482780D01*
X160562441Y-149482780D02*
X160495191Y-149473953D01*
X160495191Y-149473953D02*
X160450456Y-149467198D01*
X83173478Y-27779769D02*
X83441879Y-27765540D01*
X83441879Y-27765540D02*
X83710310Y-27751944D01*
X83710310Y-27751944D02*
X83978770Y-27738967D01*
X83978770Y-27738967D02*
X84247258Y-27726593D01*
X84247258Y-27726593D02*
X84515773Y-27714811D01*
X84515773Y-27714811D02*
X84784314Y-27703605D01*
X84784314Y-27703605D02*
X85052882Y-27692962D01*
X85052882Y-27692962D02*
X85321474Y-27682869D01*
X85321474Y-27682869D02*
X85590090Y-27673311D01*
X85590090Y-27673311D02*
X85858730Y-27664275D01*
X85858730Y-27664275D02*
X86127392Y-27655747D01*
X86127392Y-27655747D02*
X86396076Y-27647713D01*
X86396076Y-27647713D02*
X86664782Y-27640159D01*
X86664782Y-27640159D02*
X86933508Y-27633072D01*
X86933508Y-27633072D02*
X87202253Y-27626437D01*
X87202253Y-27626437D02*
X87471017Y-27620242D01*
X87471017Y-27620242D02*
X87739800Y-27614471D01*
X87739800Y-27614471D02*
X88008599Y-27609112D01*
X88008599Y-27609112D02*
X88277416Y-27604150D01*
X88277416Y-27604150D02*
X88546248Y-27599572D01*
X88546248Y-27599572D02*
X88815095Y-27595364D01*
X88815095Y-27595364D02*
X89083956Y-27591512D01*
X89083956Y-27591512D02*
X89352831Y-27588002D01*
X89352831Y-27588002D02*
X89621719Y-27584821D01*
X89621719Y-27584821D02*
X89890619Y-27581954D01*
X89890619Y-27581954D02*
X90159530Y-27579389D01*
X90159530Y-27579389D02*
X90428451Y-27577110D01*
X90428451Y-27577110D02*
X90697382Y-27575105D01*
X90697382Y-27575105D02*
X90966322Y-27573359D01*
X90966322Y-27573359D02*
X91235270Y-27571859D01*
X91235270Y-27571859D02*
X91504226Y-27570591D01*
X91504226Y-27570591D02*
X91773189Y-27569542D01*
X159766793Y-149261547D02*
X159706361Y-149231862D01*
X159706361Y-149231862D02*
X159646802Y-149200480D01*
X159646802Y-149200480D02*
X159588028Y-149167573D01*
X159588028Y-149167573D02*
X159529956Y-149133313D01*
X159529956Y-149133313D02*
X159472500Y-149097871D01*
X159472500Y-149097871D02*
X159415575Y-149061421D01*
X159415575Y-149061421D02*
X159359096Y-149024134D01*
X159359096Y-149024134D02*
X159302979Y-148986183D01*
X159302979Y-148986183D02*
X159247138Y-148947739D01*
X159247138Y-148947739D02*
X159191487Y-148908975D01*
X159191487Y-148908975D02*
X159154452Y-148883040D01*
X158045468Y-106329362D02*
X158049153Y-106446260D01*
X158049153Y-106446260D02*
X158053222Y-106563135D01*
X158053222Y-106563135D02*
X158057674Y-106679989D01*
X158057674Y-106679989D02*
X158062513Y-106796821D01*
X158062513Y-106796821D02*
X158067740Y-106913632D01*
X158067740Y-106913632D02*
X158073356Y-107030421D01*
X158073356Y-107030421D02*
X158079365Y-107147191D01*
X158079365Y-107147191D02*
X158085767Y-107263940D01*
X158085767Y-107263940D02*
X158092565Y-107380669D01*
X158092565Y-107380669D02*
X158099761Y-107497379D01*
X158099761Y-107497379D02*
X158107356Y-107614070D01*
X158107356Y-107614070D02*
X158115353Y-107730743D01*
X158115353Y-107730743D02*
X158123752Y-107847397D01*
X158123752Y-107847397D02*
X158132557Y-107964033D01*
X158132557Y-107964033D02*
X158141769Y-108080652D01*
X158141769Y-108080652D02*
X158151390Y-108197254D01*
X158151390Y-108197254D02*
X158161421Y-108313839D01*
X158161421Y-108313839D02*
X158171866Y-108430408D01*
X158171866Y-108430408D02*
X158182725Y-108546961D01*
X158182725Y-108546961D02*
X158194000Y-108663498D01*
X158194000Y-108663498D02*
X158205694Y-108780020D01*
X158205694Y-108780020D02*
X158217808Y-108896528D01*
X158217808Y-108896528D02*
X158230345Y-109013021D01*
X158230345Y-109013021D02*
X158243305Y-109129499D01*
X158243305Y-109129499D02*
X158256692Y-109245965D01*
X158256692Y-109245965D02*
X158270506Y-109362417D01*
X158270506Y-109362417D02*
X158284750Y-109478856D01*
X158284750Y-109478856D02*
X158299426Y-109595282D01*
X158299426Y-109595282D02*
X158314536Y-109711697D01*
X158314536Y-109711697D02*
X158330081Y-109828100D01*
X158330081Y-109828100D02*
X158346063Y-109944491D01*
X158346063Y-109944491D02*
X158362485Y-110060872D01*
X174072355Y-130027866D02*
X174114874Y-130079393D01*
X174114874Y-130079393D02*
X174155869Y-130132245D01*
X174155869Y-130132245D02*
X174195348Y-130186346D01*
X174195348Y-130186346D02*
X174233323Y-130241621D01*
X174233323Y-130241621D02*
X174269804Y-130297992D01*
X174269804Y-130297992D02*
X174304801Y-130355384D01*
X174304801Y-130355384D02*
X174338324Y-130413721D01*
X174338324Y-130413721D02*
X174370385Y-130472925D01*
X174370385Y-130472925D02*
X174400993Y-130532922D01*
X174400993Y-130532922D02*
X174430159Y-130593635D01*
X174430159Y-130593635D02*
X174448807Y-130634471D01*
X28706310Y-116447783D02*
X28641719Y-116430724D01*
X28641719Y-116430724D02*
X28577594Y-116411700D01*
X28577594Y-116411700D02*
X28513971Y-116390777D01*
X28513971Y-116390777D02*
X28450887Y-116368024D01*
X28450887Y-116368024D02*
X28388376Y-116343508D01*
X28388376Y-116343508D02*
X28326476Y-116317298D01*
X28326476Y-116317298D02*
X28265222Y-116289461D01*
X28265222Y-116289461D02*
X28204649Y-116260066D01*
X28204649Y-116260066D02*
X28144795Y-116229180D01*
X28144795Y-116229180D02*
X28085694Y-116196872D01*
X28085694Y-116196872D02*
X28046731Y-116174576D01*
X112270611Y-28768856D02*
X112738306Y-28863201D01*
X112738306Y-28863201D02*
X113206000Y-28957554D01*
X113206000Y-28957554D02*
X113673693Y-29051918D01*
X113673693Y-29051918D02*
X114141383Y-29146301D01*
X114141383Y-29146301D02*
X114609069Y-29240708D01*
X114609069Y-29240708D02*
X115076751Y-29335146D01*
X115076751Y-29335146D02*
X115544428Y-29429621D01*
X115544428Y-29429621D02*
X116012099Y-29524139D01*
X116012099Y-29524139D02*
X116479762Y-29618706D01*
X116479762Y-29618706D02*
X116947418Y-29713328D01*
X116947418Y-29713328D02*
X117415065Y-29808012D01*
X117415065Y-29808012D02*
X117882702Y-29902763D01*
X117882702Y-29902763D02*
X118350329Y-29997588D01*
X118350329Y-29997588D02*
X118817945Y-30092493D01*
X118817945Y-30092493D02*
X119285548Y-30187484D01*
X119285548Y-30187484D02*
X119753138Y-30282567D01*
X119753138Y-30282567D02*
X120220714Y-30377748D01*
X120220714Y-30377748D02*
X120688275Y-30473033D01*
X120688275Y-30473033D02*
X121155820Y-30568429D01*
X121155820Y-30568429D02*
X121623349Y-30663942D01*
X121623349Y-30663942D02*
X122090860Y-30759578D01*
X122090860Y-30759578D02*
X122558352Y-30855342D01*
X122558352Y-30855342D02*
X123025825Y-30951242D01*
X123025825Y-30951242D02*
X123493279Y-31047283D01*
X123493279Y-31047283D02*
X123960711Y-31143471D01*
X123960711Y-31143471D02*
X124428121Y-31239813D01*
X124428121Y-31239813D02*
X124895508Y-31336314D01*
X124895508Y-31336314D02*
X125362872Y-31432982D01*
X125362872Y-31432982D02*
X125830211Y-31529821D01*
X125830211Y-31529821D02*
X126297525Y-31626838D01*
X126297525Y-31626838D02*
X126764812Y-31724040D01*
X126764812Y-31724040D02*
X127232073Y-31821432D01*
X174448807Y-130634471D02*
X174475804Y-130696733D01*
X174475804Y-130696733D02*
X174501329Y-130759564D01*
X174501329Y-130759564D02*
X174525358Y-130822935D01*
X174525358Y-130822935D02*
X174547869Y-130886814D01*
X174547869Y-130886814D02*
X174568838Y-130951172D01*
X174568838Y-130951172D02*
X174588241Y-131015979D01*
X174588241Y-131015979D02*
X174606054Y-131081205D01*
X174606054Y-131081205D02*
X174622256Y-131146820D01*
X174622256Y-131146820D02*
X174636822Y-131212793D01*
X174636822Y-131212793D02*
X174649728Y-131279096D01*
X174649728Y-131279096D02*
X174657400Y-131323466D01*
X148600468Y-142371055D02*
X148193853Y-142159780D01*
X148193853Y-142159780D02*
X147786623Y-141949848D01*
X147786623Y-141949848D02*
X147378784Y-141741252D01*
X147378784Y-141741252D02*
X146970337Y-141533989D01*
X146970337Y-141533989D02*
X146561288Y-141328055D01*
X146561288Y-141328055D02*
X146151639Y-141123446D01*
X146151639Y-141123446D02*
X145741395Y-140920156D01*
X145741395Y-140920156D02*
X145330560Y-140718182D01*
X145330560Y-140718182D02*
X144919137Y-140517520D01*
X144919137Y-140517520D02*
X144507131Y-140318166D01*
X144507131Y-140318166D02*
X144094544Y-140120115D01*
X144094544Y-140120115D02*
X143681382Y-139923362D01*
X143681382Y-139923362D02*
X143267647Y-139727904D01*
X143267647Y-139727904D02*
X142853344Y-139533737D01*
X142853344Y-139533737D02*
X142438477Y-139340856D01*
X142438477Y-139340856D02*
X142023049Y-139149257D01*
X142023049Y-139149257D02*
X141607064Y-138958936D01*
X141607064Y-138958936D02*
X141190526Y-138769888D01*
X141190526Y-138769888D02*
X140773439Y-138582110D01*
X140773439Y-138582110D02*
X140355807Y-138395596D01*
X140355807Y-138395596D02*
X139937633Y-138210343D01*
X139937633Y-138210343D02*
X139518921Y-138026347D01*
X139518921Y-138026347D02*
X139099676Y-137843603D01*
X139099676Y-137843603D02*
X138679901Y-137662108D01*
X138679901Y-137662108D02*
X138259599Y-137481856D01*
X138259599Y-137481856D02*
X137838776Y-137302843D01*
X137838776Y-137302843D02*
X137417434Y-137125066D01*
X137417434Y-137125066D02*
X136995577Y-136948520D01*
X136995577Y-136948520D02*
X136573210Y-136773201D01*
X136573210Y-136773201D02*
X136150335Y-136599105D01*
X136150335Y-136599105D02*
X135726958Y-136426226D01*
X135726958Y-136426226D02*
X135303082Y-136254563D01*
X34210307Y-37169610D02*
X34559801Y-37086623D01*
X34559801Y-37086623D02*
X34908988Y-37002618D01*
X34908988Y-37002618D02*
X35257883Y-36917641D01*
X35257883Y-36917641D02*
X35606498Y-36831738D01*
X35606498Y-36831738D02*
X35954848Y-36744953D01*
X35954848Y-36744953D02*
X36302947Y-36657334D01*
X36302947Y-36657334D02*
X36650807Y-36568925D01*
X36650807Y-36568925D02*
X36998444Y-36479772D01*
X36998444Y-36479772D02*
X37345870Y-36389921D01*
X37345870Y-36389921D02*
X37693100Y-36299417D01*
X37693100Y-36299417D02*
X38040147Y-36208306D01*
X38040147Y-36208306D02*
X38387026Y-36116634D01*
X38387026Y-36116634D02*
X38733749Y-36024446D01*
X38733749Y-36024446D02*
X39080332Y-35931789D01*
X39080332Y-35931789D02*
X39426786Y-35838707D01*
X39426786Y-35838707D02*
X39773127Y-35745246D01*
X39773127Y-35745246D02*
X40119369Y-35651452D01*
X40119369Y-35651452D02*
X40465524Y-35557371D01*
X40465524Y-35557371D02*
X40811607Y-35463049D01*
X40811607Y-35463049D02*
X41157631Y-35368530D01*
X41157631Y-35368530D02*
X41503611Y-35273861D01*
X41503611Y-35273861D02*
X41849560Y-35179087D01*
X41849560Y-35179087D02*
X42195491Y-35084254D01*
X42195491Y-35084254D02*
X42541420Y-34989408D01*
X42541420Y-34989408D02*
X42887359Y-34894594D01*
X42887359Y-34894594D02*
X43233322Y-34799858D01*
X43233322Y-34799858D02*
X43579323Y-34705245D01*
X43579323Y-34705245D02*
X43925377Y-34610802D01*
X43925377Y-34610802D02*
X44271496Y-34516573D01*
X44271496Y-34516573D02*
X44617694Y-34422605D01*
X44617694Y-34422605D02*
X44963986Y-34328943D01*
X44963986Y-34328943D02*
X45310385Y-34235634D01*
X26947607Y-40092262D02*
X26982787Y-40034432D01*
X26982787Y-40034432D02*
X27019434Y-39977566D01*
X27019434Y-39977566D02*
X27057492Y-39921669D01*
X27057492Y-39921669D02*
X27096911Y-39866747D01*
X27096911Y-39866747D02*
X27137636Y-39812807D01*
X27137636Y-39812807D02*
X27179614Y-39759855D01*
X27179614Y-39759855D02*
X27222794Y-39707898D01*
X27222794Y-39707898D02*
X27267122Y-39656941D01*
X27267122Y-39656941D02*
X27312546Y-39606991D01*
X27312546Y-39606991D02*
X27359011Y-39558054D01*
X27359011Y-39558054D02*
X27390542Y-39525996D01*
X28189664Y-38907570D02*
X28247705Y-38876677D01*
X28247705Y-38876677D02*
X28306590Y-38847366D01*
X28306590Y-38847366D02*
X28366209Y-38819444D01*
X28366209Y-38819444D02*
X28426451Y-38792718D01*
X28426451Y-38792718D02*
X28487204Y-38766995D01*
X28487204Y-38766995D02*
X28548359Y-38742083D01*
X28548359Y-38742083D02*
X28609803Y-38717788D01*
X28609803Y-38717788D02*
X28671428Y-38693920D01*
X142077117Y-35224920D02*
X142489708Y-35334405D01*
X142489708Y-35334405D02*
X142902046Y-35444862D01*
X142902046Y-35444862D02*
X143314155Y-35556204D01*
X143314155Y-35556204D02*
X143726059Y-35668341D01*
X143726059Y-35668341D02*
X144137780Y-35781183D01*
X144137780Y-35781183D02*
X144549342Y-35894643D01*
X144549342Y-35894643D02*
X144960769Y-36008631D01*
X144960769Y-36008631D02*
X145372084Y-36123058D01*
X145372084Y-36123058D02*
X145783312Y-36237835D01*
X145783312Y-36237835D02*
X146194475Y-36352874D01*
X146194475Y-36352874D02*
X146605596Y-36468085D01*
X146605596Y-36468085D02*
X147016701Y-36583380D01*
X147016701Y-36583380D02*
X147427812Y-36698669D01*
X147427812Y-36698669D02*
X147838952Y-36813864D01*
X147838952Y-36813864D02*
X148250146Y-36928876D01*
X148250146Y-36928876D02*
X148661416Y-37043615D01*
X148661416Y-37043615D02*
X149072787Y-37157994D01*
X149072787Y-37157994D02*
X149484282Y-37271922D01*
X149484282Y-37271922D02*
X149895924Y-37385312D01*
X149895924Y-37385312D02*
X150307737Y-37498073D01*
X150307737Y-37498073D02*
X150719745Y-37610118D01*
X150719745Y-37610118D02*
X151131971Y-37721357D01*
X151131971Y-37721357D02*
X151544438Y-37831701D01*
X151544438Y-37831701D02*
X151957171Y-37941061D01*
X151957171Y-37941061D02*
X152370193Y-38049350D01*
X152370193Y-38049350D02*
X152783527Y-38156476D01*
X152783527Y-38156476D02*
X153197197Y-38262352D01*
X153197197Y-38262352D02*
X153611227Y-38366889D01*
X153611227Y-38366889D02*
X154025639Y-38469998D01*
X154025639Y-38469998D02*
X154440458Y-38571590D01*
X154440458Y-38571590D02*
X154855708Y-38671575D01*
X154855708Y-38671575D02*
X155271411Y-38769866D01*
X135303082Y-136254563D02*
X134935056Y-136106658D01*
X134935056Y-136106658D02*
X134566664Y-135959651D01*
X134566664Y-135959651D02*
X134197912Y-135813530D01*
X134197912Y-135813530D02*
X133828807Y-135668283D01*
X133828807Y-135668283D02*
X133459356Y-135523897D01*
X133459356Y-135523897D02*
X133089563Y-135380360D01*
X133089563Y-135380360D02*
X132719437Y-135237661D01*
X132719437Y-135237661D02*
X132348984Y-135095786D01*
X132348984Y-135095786D02*
X131978210Y-134954724D01*
X131978210Y-134954724D02*
X131607121Y-134814462D01*
X131607121Y-134814462D02*
X131235723Y-134674989D01*
X131235723Y-134674989D02*
X130864025Y-134536292D01*
X130864025Y-134536292D02*
X130492031Y-134398359D01*
X130492031Y-134398359D02*
X130119748Y-134261178D01*
X130119748Y-134261178D02*
X129747183Y-134124737D01*
X129747183Y-134124737D02*
X129374342Y-133989023D01*
X129374342Y-133989023D02*
X129001232Y-133854024D01*
X129001232Y-133854024D02*
X128627859Y-133719729D01*
X128627859Y-133719729D02*
X128254230Y-133586125D01*
X128254230Y-133586125D02*
X127880350Y-133453199D01*
X127880350Y-133453199D02*
X127506227Y-133320941D01*
X127506227Y-133320941D02*
X127131867Y-133189336D01*
X127131867Y-133189336D02*
X126757276Y-133058375D01*
X126757276Y-133058375D02*
X126382461Y-132928043D01*
X126382461Y-132928043D02*
X126007428Y-132798329D01*
X126007428Y-132798329D02*
X125632184Y-132669221D01*
X125632184Y-132669221D02*
X125256735Y-132540707D01*
X125256735Y-132540707D02*
X124881088Y-132412774D01*
X124881088Y-132412774D02*
X124505249Y-132285411D01*
X124505249Y-132285411D02*
X124129224Y-132158604D01*
X124129224Y-132158604D02*
X123753021Y-132032343D01*
X123753021Y-132032343D02*
X123376645Y-131906615D01*
X123376645Y-131906615D02*
X123004193Y-131782767D01*
X123004193Y-131782767D02*
X122631579Y-131659433D01*
X122631579Y-131659433D02*
X122258800Y-131536616D01*
X122258800Y-131536616D02*
X121885857Y-131414322D01*
X121885857Y-131414322D02*
X121512750Y-131292553D01*
X121512750Y-131292553D02*
X121139476Y-131171314D01*
X121139476Y-131171314D02*
X120766036Y-131050609D01*
X120766036Y-131050609D02*
X120392429Y-130930442D01*
X120392429Y-130930442D02*
X120018655Y-130810818D01*
X120018655Y-130810818D02*
X119644712Y-130691740D01*
X119644712Y-130691740D02*
X119270601Y-130573213D01*
X119270601Y-130573213D02*
X118896320Y-130455240D01*
X118896320Y-130455240D02*
X118521869Y-130337826D01*
X118521869Y-130337826D02*
X118147247Y-130220975D01*
X118147247Y-130220975D02*
X117772453Y-130104691D01*
X117772453Y-130104691D02*
X117397488Y-129988979D01*
X117397488Y-129988979D02*
X117022350Y-129873841D01*
X117022350Y-129873841D02*
X116647038Y-129759283D01*
X116647038Y-129759283D02*
X116271553Y-129645308D01*
X116271553Y-129645308D02*
X115895893Y-129531921D01*
X115895893Y-129531921D02*
X115520058Y-129419126D01*
X115520058Y-129419126D02*
X115144047Y-129306926D01*
X115144047Y-129306926D02*
X114767859Y-129195327D01*
X114767859Y-129195327D02*
X114391495Y-129084331D01*
X114391495Y-129084331D02*
X114014952Y-128973944D01*
X114014952Y-128973944D02*
X113638231Y-128864169D01*
X113638231Y-128864169D02*
X113261331Y-128755010D01*
X113261331Y-128755010D02*
X112884252Y-128646472D01*
X112884252Y-128646472D02*
X112506992Y-128538559D01*
X112506992Y-128538559D02*
X112129551Y-128431274D01*
X112129551Y-128431274D02*
X111751929Y-128324622D01*
X111751929Y-128324622D02*
X111374125Y-128218608D01*
X157653988Y-40146598D02*
X157686771Y-40205753D01*
X157686771Y-40205753D02*
X157718323Y-40265493D01*
X157718323Y-40265493D02*
X157748557Y-40325806D01*
X157748557Y-40325806D02*
X157777385Y-40386683D01*
X157777385Y-40386683D02*
X157804719Y-40448114D01*
X157804719Y-40448114D02*
X157830473Y-40510087D01*
X157830473Y-40510087D02*
X157854559Y-40572594D01*
X157854559Y-40572594D02*
X157876890Y-40635623D01*
X157876890Y-40635623D02*
X157897379Y-40699164D01*
X157897379Y-40699164D02*
X157915937Y-40763207D01*
X157915937Y-40763207D02*
X157927195Y-40806177D01*
X61964014Y-118358501D02*
X61783480Y-118333618D01*
X61783480Y-118333618D02*
X61602930Y-118308855D01*
X61602930Y-118308855D02*
X61422363Y-118284213D01*
X61422363Y-118284213D02*
X61241779Y-118259691D01*
X61241779Y-118259691D02*
X61061179Y-118235291D01*
X61061179Y-118235291D02*
X60880563Y-118211012D01*
X60880563Y-118211012D02*
X60699929Y-118186857D01*
X60699929Y-118186857D02*
X60519280Y-118162826D01*
X60519280Y-118162826D02*
X60338613Y-118138918D01*
X60338613Y-118138918D02*
X60157930Y-118115136D01*
X60157930Y-118115136D02*
X59977231Y-118091480D01*
X59977231Y-118091480D02*
X59796515Y-118067949D01*
X59796515Y-118067949D02*
X59615782Y-118044546D01*
X59615782Y-118044546D02*
X59435034Y-118021270D01*
X59435034Y-118021270D02*
X59254268Y-117998123D01*
X59254268Y-117998123D02*
X59073486Y-117975105D01*
X59073486Y-117975105D02*
X58892688Y-117952217D01*
X58892688Y-117952217D02*
X58711874Y-117929459D01*
X58711874Y-117929459D02*
X58531043Y-117906833D01*
X58531043Y-117906833D02*
X58350195Y-117884338D01*
X58350195Y-117884338D02*
X58169331Y-117861976D01*
X58169331Y-117861976D02*
X57988451Y-117839747D01*
X57988451Y-117839747D02*
X57807555Y-117817652D01*
X57807555Y-117817652D02*
X57626642Y-117795692D01*
X57626642Y-117795692D02*
X57445713Y-117773867D01*
X57445713Y-117773867D02*
X57264768Y-117752178D01*
X57264768Y-117752178D02*
X57083806Y-117730625D01*
X57083806Y-117730625D02*
X56902829Y-117709210D01*
X56902829Y-117709210D02*
X56721835Y-117687933D01*
X56721835Y-117687933D02*
X56540824Y-117666795D01*
X56540824Y-117666795D02*
X56359798Y-117645796D01*
X56359798Y-117645796D02*
X56178756Y-117624938D01*
X27475457Y-115736542D02*
X27428307Y-115688180D01*
X27428307Y-115688180D02*
X27382386Y-115638638D01*
X27382386Y-115638638D02*
X27337703Y-115587952D01*
X27337703Y-115587952D02*
X27294269Y-115536159D01*
X27294269Y-115536159D02*
X27252094Y-115483295D01*
X27252094Y-115483295D02*
X27211191Y-115429396D01*
X27211191Y-115429396D02*
X27171568Y-115374500D01*
X27171568Y-115374500D02*
X27133238Y-115318643D01*
X27133238Y-115318643D02*
X27096211Y-115261861D01*
X27096211Y-115261861D02*
X27060497Y-115204190D01*
X27060497Y-115204190D02*
X27037423Y-115165268D01*
X163023916Y-148492845D02*
X162977084Y-148541979D01*
X162977084Y-148541979D02*
X162930128Y-148590959D01*
X162930128Y-148590959D02*
X162882924Y-148639630D01*
X162882924Y-148639630D02*
X162835347Y-148687838D01*
X162835347Y-148687838D02*
X162787273Y-148735428D01*
X162787273Y-148735428D02*
X162738578Y-148782246D01*
X162738578Y-148782246D02*
X162689138Y-148828138D01*
X162689138Y-148828138D02*
X162638828Y-148872948D01*
X162638828Y-148872948D02*
X162587524Y-148916524D01*
X162587524Y-148916524D02*
X162535102Y-148958709D01*
X162535102Y-148958709D02*
X162499472Y-148985985D01*
X29420000Y-116542000D02*
X29352320Y-116536811D01*
X29352320Y-116536811D02*
X29284682Y-116531429D01*
X29284682Y-116531429D02*
X29217126Y-116525659D01*
X29217126Y-116525659D02*
X29149692Y-116519307D01*
X29149692Y-116519307D02*
X29082423Y-116512180D01*
X29082423Y-116512180D02*
X29015359Y-116504083D01*
X29015359Y-116504083D02*
X28948541Y-116494823D01*
X28948541Y-116494823D02*
X28882010Y-116484206D01*
X28882010Y-116484206D02*
X28815807Y-116472037D01*
X28815807Y-116472037D02*
X28749973Y-116458123D01*
X28749973Y-116458123D02*
X28706310Y-116447783D01*
X127232073Y-31821432D02*
X127698095Y-31918772D01*
X127698095Y-31918772D02*
X128164080Y-32016343D01*
X128164080Y-32016343D02*
X128630016Y-32114180D01*
X128630016Y-32114180D02*
X129095896Y-32212318D01*
X129095896Y-32212318D02*
X129561708Y-32310792D01*
X129561708Y-32310792D02*
X130027443Y-32409636D01*
X130027443Y-32409636D02*
X130493091Y-32508887D01*
X130493091Y-32508887D02*
X130958641Y-32608580D01*
X130958641Y-32608580D02*
X131424085Y-32708749D01*
X131424085Y-32708749D02*
X131889412Y-32809429D01*
X131889412Y-32809429D02*
X132354613Y-32910656D01*
X132354613Y-32910656D02*
X132819677Y-33012465D01*
X132819677Y-33012465D02*
X133284595Y-33114891D01*
X133284595Y-33114891D02*
X133749357Y-33217969D01*
X133749357Y-33217969D02*
X134213952Y-33321735D01*
X134213952Y-33321735D02*
X134678372Y-33426222D01*
X134678372Y-33426222D02*
X135142606Y-33531467D01*
X135142606Y-33531467D02*
X135606645Y-33637505D01*
X135606645Y-33637505D02*
X136070477Y-33744370D01*
X136070477Y-33744370D02*
X136534095Y-33852098D01*
X136534095Y-33852098D02*
X136997487Y-33960724D01*
X136997487Y-33960724D02*
X137460644Y-34070283D01*
X137460644Y-34070283D02*
X137923557Y-34180811D01*
X137923557Y-34180811D02*
X138386214Y-34292341D01*
X138386214Y-34292341D02*
X138848607Y-34404910D01*
X138848607Y-34404910D02*
X139310725Y-34518553D01*
X139310725Y-34518553D02*
X139772559Y-34633304D01*
X139772559Y-34633304D02*
X140234099Y-34749199D01*
X140234099Y-34749199D02*
X140695334Y-34866273D01*
X140695334Y-34866273D02*
X141156255Y-34984561D01*
X141156255Y-34984561D02*
X141616853Y-35104098D01*
X141616853Y-35104098D02*
X142077117Y-35224920D01*
X161870631Y-149323989D02*
X161806810Y-149347061D01*
X161806810Y-149347061D02*
X161742514Y-149368629D01*
X161742514Y-149368629D02*
X161677773Y-149388671D01*
X161677773Y-149388671D02*
X161612619Y-149407165D01*
X161612619Y-149407165D02*
X161547082Y-149424090D01*
X161547082Y-149424090D02*
X161481194Y-149439425D01*
X161481194Y-149439425D02*
X161414986Y-149453148D01*
X161414986Y-149453148D02*
X161348491Y-149465238D01*
X161348491Y-149465238D02*
X161281738Y-149475674D01*
X161281738Y-149475674D02*
X161214759Y-149484434D01*
X161214759Y-149484434D02*
X161169997Y-149489333D01*
D12*
%TO.C,D108*%
X231818100Y-124550700D02*
X231818100Y-127950700D01*
X235618100Y-124550700D02*
X235618100Y-127950700D01*
X231818100Y-124550700D02*
X235618100Y-124550700D01*
X231818100Y-127950700D02*
X235618100Y-127950700D01*
%TO.C,D107*%
X211563875Y-128230113D02*
X212642711Y-131454413D01*
X215167505Y-127024355D02*
X216246341Y-130248656D01*
X211563875Y-128230113D02*
X215167505Y-127024355D01*
X212642711Y-131454413D02*
X216246341Y-130248656D01*
%TO.C,D106*%
X193439413Y-137948318D02*
X195365195Y-140750347D01*
X196571093Y-135795975D02*
X198496874Y-138598004D01*
X193439413Y-137948318D02*
X196571093Y-135795975D01*
X195365195Y-140750347D02*
X198496874Y-138598004D01*
%TO.C,D105*%
X155545205Y-135633375D02*
X153570814Y-138401368D01*
X158638843Y-137840046D02*
X156664453Y-140608039D01*
X155545205Y-135633375D02*
X158638843Y-137840046D01*
X153570814Y-138401368D02*
X156664453Y-140608039D01*
%TO.C,D104*%
X136863795Y-127024355D02*
X135784959Y-130248656D01*
X140467425Y-128230113D02*
X139388589Y-131454413D01*
X136863795Y-127024355D02*
X140467425Y-128230113D01*
X135784959Y-130248656D02*
X139388589Y-131454413D01*
%TO.C,D103*%
X116451300Y-124677700D02*
X116451300Y-128077700D01*
X120251300Y-124677700D02*
X120251300Y-128077700D01*
X116451300Y-124677700D02*
X120251300Y-124677700D01*
X116451300Y-128077700D02*
X120251300Y-128077700D01*
%TO.C,D102*%
X313910900Y-110415600D02*
X313910900Y-113815600D01*
X317710900Y-110415600D02*
X317710900Y-113815600D01*
X313910900Y-110415600D02*
X317710900Y-110415600D01*
X313910900Y-113815600D02*
X317710900Y-113815600D01*
%TO.C,D101*%
X294857400Y-110276600D02*
X294857400Y-113676600D01*
X298657400Y-110276600D02*
X298657400Y-113676600D01*
X294857400Y-110276600D02*
X298657400Y-110276600D01*
X294857400Y-113676600D02*
X298657400Y-113676600D01*
%TO.C,D100*%
X275858200Y-103062300D02*
X275858200Y-106462300D01*
X279658200Y-103062300D02*
X279658200Y-106462300D01*
X275858200Y-103062300D02*
X279658200Y-103062300D01*
X275858200Y-106462300D02*
X279658200Y-106462300D01*
%TO.C,D99*%
X256904100Y-98376700D02*
X256904100Y-101776700D01*
X260704100Y-98376700D02*
X260704100Y-101776700D01*
X256904100Y-98376700D02*
X260704100Y-98376700D01*
X256904100Y-101776700D02*
X260704100Y-101776700D01*
%TO.C,D98*%
X237892200Y-103037600D02*
X237892200Y-106437600D01*
X241692200Y-103037600D02*
X241692200Y-106437600D01*
X237892200Y-103037600D02*
X241692200Y-103037600D01*
X237892200Y-106437600D02*
X241692200Y-106437600D01*
%TO.C,D97*%
X218829500Y-105476000D02*
X218829500Y-108876000D01*
X222629500Y-105476000D02*
X222629500Y-108876000D01*
X218829500Y-105476000D02*
X222629500Y-105476000D01*
X218829500Y-108876000D02*
X222629500Y-108876000D01*
%TO.C,D96*%
X129291000Y-105500700D02*
X129291000Y-108900700D01*
X133091000Y-105500700D02*
X133091000Y-108900700D01*
X129291000Y-105500700D02*
X133091000Y-105500700D01*
X129291000Y-108900700D02*
X133091000Y-108900700D01*
%TO.C,D95*%
X110393400Y-103138500D02*
X110393400Y-106538500D01*
X114193400Y-103138500D02*
X114193400Y-106538500D01*
X110393400Y-103138500D02*
X114193400Y-103138500D01*
X110393400Y-106538500D02*
X114193400Y-106538500D01*
%TO.C,D94*%
X91381500Y-98388700D02*
X91381500Y-101788700D01*
X95181500Y-98388700D02*
X95181500Y-101788700D01*
X91381500Y-98388700D02*
X95181500Y-98388700D01*
X91381500Y-101788700D02*
X95181500Y-101788700D01*
%TO.C,D93*%
X72395000Y-103202000D02*
X72395000Y-106602000D01*
X76195000Y-103202000D02*
X76195000Y-106602000D01*
X72395000Y-103202000D02*
X76195000Y-103202000D01*
X72395000Y-106602000D02*
X76195000Y-106602000D01*
%TO.C,D92*%
X53370400Y-110415600D02*
X53370400Y-113815600D01*
X57170400Y-110415600D02*
X57170400Y-113815600D01*
X53370400Y-110415600D02*
X57170400Y-110415600D01*
X53370400Y-113815600D02*
X57170400Y-113815600D01*
%TO.C,D91*%
X34295000Y-110428300D02*
X34295000Y-113828300D01*
X38095000Y-110428300D02*
X38095000Y-113828300D01*
X34295000Y-110428300D02*
X38095000Y-110428300D01*
X34295000Y-113828300D02*
X38095000Y-113828300D01*
%TO.C,D90*%
X275874400Y-84025000D02*
X275874400Y-87425000D01*
X279674400Y-84025000D02*
X279674400Y-87425000D01*
X275874400Y-84025000D02*
X279674400Y-84025000D01*
X275874400Y-87425000D02*
X279674400Y-87425000D01*
%TO.C,D89*%
X313863600Y-91391000D02*
X313863600Y-94791000D01*
X317663600Y-91391000D02*
X317663600Y-94791000D01*
X313863600Y-91391000D02*
X317663600Y-91391000D01*
X313863600Y-94791000D02*
X317663600Y-94791000D01*
%TO.C,D88*%
X294889800Y-91353600D02*
X294889800Y-94753600D01*
X298689800Y-91353600D02*
X298689800Y-94753600D01*
X294889800Y-91353600D02*
X298689800Y-91353600D01*
X294889800Y-94753600D02*
X298689800Y-94753600D01*
%TO.C,D87*%
X256935200Y-79364800D02*
X256935200Y-82764800D01*
X260735200Y-79364800D02*
X260735200Y-82764800D01*
X256935200Y-79364800D02*
X260735200Y-79364800D01*
X256935200Y-82764800D02*
X260735200Y-82764800D01*
%TO.C,D86*%
X237901400Y-84037700D02*
X237901400Y-87437700D01*
X241701400Y-84037700D02*
X241701400Y-87437700D01*
X237901400Y-84037700D02*
X241701400Y-84037700D01*
X237901400Y-87437700D02*
X241701400Y-87437700D01*
%TO.C,D85*%
X218800600Y-86463400D02*
X218800600Y-89863400D01*
X222600600Y-86463400D02*
X222600600Y-89863400D01*
X218800600Y-86463400D02*
X222600600Y-86463400D01*
X218800600Y-89863400D02*
X222600600Y-89863400D01*
%TO.C,D84*%
X91330700Y-79313300D02*
X91330700Y-82713300D01*
X95130700Y-79313300D02*
X95130700Y-82713300D01*
X91330700Y-79313300D02*
X95130700Y-79313300D01*
X91330700Y-82713300D02*
X95130700Y-82713300D01*
%TO.C,D83*%
X129303700Y-86463400D02*
X129303700Y-89863400D01*
X133103700Y-86463400D02*
X133103700Y-89863400D01*
X129303700Y-86463400D02*
X133103700Y-86463400D01*
X129303700Y-89863400D02*
X133103700Y-89863400D01*
%TO.C,D82*%
X110368000Y-84037700D02*
X110368000Y-87437700D01*
X114168000Y-84037700D02*
X114168000Y-87437700D01*
X110368000Y-84037700D02*
X114168000Y-84037700D01*
X110368000Y-87437700D02*
X114168000Y-87437700D01*
%TO.C,D81*%
X72378800Y-84152700D02*
X72378800Y-87552700D01*
X76178800Y-84152700D02*
X76178800Y-87552700D01*
X72378800Y-84152700D02*
X76178800Y-84152700D01*
X72378800Y-87552700D02*
X76178800Y-87552700D01*
%TO.C,D80*%
X53357700Y-91441800D02*
X53357700Y-94841800D01*
X57157700Y-91441800D02*
X57157700Y-94841800D01*
X53357700Y-91441800D02*
X57157700Y-91441800D01*
X53357700Y-94841800D02*
X57157700Y-94841800D01*
%TO.C,D79*%
X34295000Y-91365600D02*
X34295000Y-94765600D01*
X38095000Y-91365600D02*
X38095000Y-94765600D01*
X34295000Y-91365600D02*
X38095000Y-91365600D01*
X34295000Y-94765600D02*
X38095000Y-94765600D01*
%TO.C,D78*%
X313850900Y-72303600D02*
X313850900Y-75703600D01*
X317650900Y-72303600D02*
X317650900Y-75703600D01*
X313850900Y-72303600D02*
X317650900Y-72303600D01*
X313850900Y-75703600D02*
X317650900Y-75703600D01*
%TO.C,D77*%
X294962500Y-72379100D02*
X294962500Y-75779100D01*
X298762500Y-72379100D02*
X298762500Y-75779100D01*
X294962500Y-72379100D02*
X298762500Y-72379100D01*
X294962500Y-75779100D02*
X298762500Y-75779100D01*
%TO.C,D76*%
X275861700Y-65102000D02*
X275861700Y-68502000D01*
X279661700Y-65102000D02*
X279661700Y-68502000D01*
X275861700Y-65102000D02*
X279661700Y-65102000D01*
X275861700Y-68502000D02*
X279661700Y-68502000D01*
%TO.C,D75*%
X256887900Y-60352200D02*
X256887900Y-63752200D01*
X260687900Y-60352200D02*
X260687900Y-63752200D01*
X256887900Y-60352200D02*
X260687900Y-60352200D01*
X256887900Y-63752200D02*
X260687900Y-63752200D01*
%TO.C,D74*%
X237926800Y-65089300D02*
X237926800Y-68489300D01*
X241726800Y-65089300D02*
X241726800Y-68489300D01*
X237926800Y-65089300D02*
X241726800Y-65089300D01*
X237926800Y-68489300D02*
X241726800Y-68489300D01*
%TO.C,D73*%
X218746300Y-67490300D02*
X218746300Y-70890300D01*
X222546300Y-67490300D02*
X222546300Y-70890300D01*
X218746300Y-67490300D02*
X222546300Y-67490300D01*
X218746300Y-70890300D02*
X222546300Y-70890300D01*
%TO.C,D72*%
X129329100Y-67502300D02*
X129329100Y-70902300D01*
X133129100Y-67502300D02*
X133129100Y-70902300D01*
X129329100Y-67502300D02*
X133129100Y-67502300D01*
X129329100Y-70902300D02*
X133129100Y-70902300D01*
%TO.C,D71*%
X110364500Y-65090000D02*
X110364500Y-68490000D01*
X114164500Y-65090000D02*
X114164500Y-68490000D01*
X110364500Y-65090000D02*
X114164500Y-65090000D01*
X110364500Y-68490000D02*
X114164500Y-68490000D01*
%TO.C,D70*%
X91330700Y-60288700D02*
X91330700Y-63688700D01*
X95130700Y-60288700D02*
X95130700Y-63688700D01*
X91330700Y-60288700D02*
X95130700Y-60288700D01*
X91330700Y-63688700D02*
X95130700Y-63688700D01*
%TO.C,D69*%
X72395000Y-65076600D02*
X72395000Y-68476600D01*
X76195000Y-65076600D02*
X76195000Y-68476600D01*
X72395000Y-65076600D02*
X76195000Y-65076600D01*
X72395000Y-68476600D02*
X76195000Y-68476600D01*
%TO.C,D68*%
X53332300Y-72353700D02*
X53332300Y-75753700D01*
X57132300Y-72353700D02*
X57132300Y-75753700D01*
X53332300Y-72353700D02*
X57132300Y-72353700D01*
X53332300Y-75753700D02*
X57132300Y-75753700D01*
%TO.C,D67*%
X34304200Y-72329000D02*
X34304200Y-75729000D01*
X38104200Y-72329000D02*
X38104200Y-75729000D01*
X34304200Y-72329000D02*
X38104200Y-72329000D01*
X34304200Y-75729000D02*
X38104200Y-75729000D01*
%TO.C,D66*%
X313809300Y-53291000D02*
X313809300Y-56691000D01*
X317609300Y-53291000D02*
X317609300Y-56691000D01*
X313809300Y-53291000D02*
X317609300Y-53291000D01*
X313809300Y-56691000D02*
X317609300Y-56691000D01*
%TO.C,D65*%
X294899000Y-53316400D02*
X294899000Y-56716400D01*
X298699000Y-53316400D02*
X298699000Y-56716400D01*
X294899000Y-53316400D02*
X298699000Y-53316400D01*
X294899000Y-56716400D02*
X298699000Y-56716400D01*
%TO.C,D64*%
X275823600Y-46077400D02*
X275823600Y-49477400D01*
X279623600Y-46077400D02*
X279623600Y-49477400D01*
X275823600Y-46077400D02*
X279623600Y-46077400D01*
X275823600Y-49477400D02*
X279623600Y-49477400D01*
%TO.C,D63*%
X256964100Y-41365700D02*
X256964100Y-44765700D01*
X260764100Y-41365700D02*
X260764100Y-44765700D01*
X256964100Y-41365700D02*
X260764100Y-41365700D01*
X256964100Y-44765700D02*
X260764100Y-44765700D01*
%TO.C,D62*%
X237952200Y-46039300D02*
X237952200Y-49439300D01*
X241752200Y-46039300D02*
X241752200Y-49439300D01*
X237952200Y-46039300D02*
X241752200Y-46039300D01*
X237952200Y-49439300D02*
X241752200Y-49439300D01*
%TO.C,D61*%
X218813300Y-48452300D02*
X218813300Y-51852300D01*
X222613300Y-48452300D02*
X222613300Y-51852300D01*
X218813300Y-48452300D02*
X222613300Y-48452300D01*
X218813300Y-51852300D02*
X222613300Y-51852300D01*
%TO.C,D60*%
X129281800Y-48478400D02*
X129281800Y-51878400D01*
X133081800Y-48478400D02*
X133081800Y-51878400D01*
X129281800Y-48478400D02*
X133081800Y-48478400D01*
X129281800Y-51878400D02*
X133081800Y-51878400D01*
%TO.C,D59*%
X110355300Y-46064700D02*
X110355300Y-49464700D01*
X114155300Y-46064700D02*
X114155300Y-49464700D01*
X110355300Y-46064700D02*
X114155300Y-46064700D01*
X110355300Y-49464700D02*
X114155300Y-49464700D01*
%TO.C,D58*%
X91330700Y-41314900D02*
X91330700Y-44714900D01*
X95130700Y-41314900D02*
X95130700Y-44714900D01*
X91330700Y-41314900D02*
X95130700Y-41314900D01*
X91330700Y-44714900D02*
X95130700Y-44714900D01*
%TO.C,D57*%
X72369600Y-46039300D02*
X72369600Y-49439300D01*
X76169600Y-46039300D02*
X76169600Y-49439300D01*
X72369600Y-46039300D02*
X76169600Y-46039300D01*
X72369600Y-49439300D02*
X76169600Y-49439300D01*
%TO.C,D56*%
X53354200Y-53304400D02*
X53354200Y-56704400D01*
X57154200Y-53304400D02*
X57154200Y-56704400D01*
X53354200Y-53304400D02*
X57154200Y-53304400D01*
X53354200Y-56704400D02*
X57154200Y-56704400D01*
%TO.C,D55*%
X34273100Y-53291000D02*
X34273100Y-56691000D01*
X38073100Y-53291000D02*
X38073100Y-56691000D01*
X34273100Y-53291000D02*
X38073100Y-53291000D01*
X34273100Y-56691000D02*
X38073100Y-56691000D01*
%TD*%
M02*
